<svg xmlns="http://www.w3.org/2000/svg" width="858.667" height="858.667" version="1.0" viewBox="0 0 644 644"><path d="M342.8 89.5c-.2.2-2.3.6-4.8.9-27.9 3.8-55.3 25-66.3 51.1-2.6 6.2-5.5 16.4-6.4 22.5-.3 1.9-.6 65.5-.7 141.3l-.1 137.8-3.2 2.7c-1.7 1.5-3.9 3.4-5 4.2-7.7 6.3-24.3 19.9-26.3 21.6-1.4 1.2-9.3 7.8-17.6 14.7-8.4 6.9-16.3 14-17.7 15.9-19.6 25.7-9.3 62.2 20.8 74.3 16.2 6.5 37.3 2 50.4-10.7 6.5-6.3 12-16.8 13.5-25.8.3-1.4.5-22.1.5-46.1l.1-43.6 8.8-7.1c4.8-3.9 9.6-7.9 10.7-8.9s5.6-4.7 9.9-8.2 8.8-7.2 10-8.2c1.1-1 9.1-7.5 17.6-14.4 8.5-7 17.1-14.1 19.1-15.9 2-1.7 7.7-6.4 12.8-10.5 5-4.1 9.1-8 9.1-8.5 0-.6-2.2-3.4-4.8-6.3l-4.7-5.2-20 16.5c-11 9.2-22 18.3-24.5 20.4s-10.3 8.6-17.5 14.5c-7.1 5.9-13.9 11.4-15 12.3-1.1 1-4.1 3.4-6.7 5.6l-4.8 3.8v-63.9l15.2-14.4c17.2-16.3 30.8-29.3 37.8-35.9 2.6-2.5 11.9-11.2 20.6-19.4 8.7-8.3 27.6-26.7 41.9-41 21.7-21.8 26.8-27.5 30.9-34.3 31-52.4.9-119.4-58.9-130.8-6.1-1.1-23.7-1.9-24.7-1m23.2 16.6c19.7 3.6 38.7 17.9 49.2 36.9 1.4 2.5 2.5 4.7 2.6 5 0 .3.6 1.8 1.2 3.5 4 10.5 5.4 28.4 3 39-2.1 9.6-7.6 22.1-12.6 28.6-1 1.3-13.1 13.7-26.9 27.4-21.5 21.5-34.3 33.9-61 59-14.9 14.1-36.3 34.4-38.7 36.8l-2.9 2.9.3-91.4.3-91.3 2.8-8c12.4-35.2 46.5-55.2 82.7-48.4M264.5 501.7l-.1 37.8-2.9 5.8c-6 12.1-17.1 18.8-30.5 18.3-12.7-.5-22.4-6.9-27.9-18.6-3.8-8-3.7-19.2.2-27.1 3.2-6.6 5.6-8.9 28.2-27.4 6.1-4.9 12.1-10 13.5-11.1 6.5-5.7 18.6-15.3 19.1-15.4.3 0 .5 17 .4 37.7"/></svg>