<svg xmlns="http://www.w3.org/2000/svg"><defs><font id="AlbertSans" horiz-adv-x="556"><font-face alphabetic="0" ascent="950" descent="-250" font-family="Albert Sans"/><glyph horiz-adv-x="280"/><glyph d="M72 700h145l-16-476H87zM145-7q-36 0-60 23T61 73t24 57 60 24q35 0 59-23t24-58q0-34-24-57T145-7" horiz-adv-x="289" unicode="!"/><glyph d="M41 700h117l-12-207H54zm166 0h117l-12-207h-92z" horiz-adv-x="365" unicode="&quot;"/><glyph d="M298 700h128l-33-153h184l33 153h129l-33-153h131V426H680l-29-139h130V166H626L591 0H462l35 166H313L278 0H150l34 166H35v121h175l29 139H90v121h175zm40-413h185l29 139H367z" horiz-adv-x="870" unicode="#"/><glyph d="M260 775h64V-75h-64zm-94-577q5-28 22-49t44-32 64-12q59 0 88 26t29 65q0 30-18 50t-50 34-76 27q-40 12-79 26t-71 35-50 54-19 85q0 64 31 109t87 68 127 23q61 0 110-17t82-51 50-83l-125-34q-5 22-22 38t-41 25-52 10q-30 1-55-9t-40-29-15-44q0-28 17-44t45-28 63-23q41-12 83-27t78-39 56-60 22-91q0-58-27-105t-83-75T303-7q-68 0-123 20T88 71t-47 92z" horiz-adv-x="591" unicode="$"/><glyph d="M41 546q0 78 45 119t113 42q67 0 112-41t45-120q0-78-45-120t-112-42q-68 0-113 42T41 546m157 80q-27 0-42-18t-15-62q0-42 15-61t42-20q26 0 42 19t16 62-16 61-42 19m347 74h132L283 0H151zm-71-545q0 78 45 119t113 42q66 0 111-41t45-120-45-120T632-7q-68 0-113 41t-45 121m157 80q-27 0-42-19t-16-61q0-42 15-61t43-19q26 0 41 19t16 61q0 42-15 61t-42 19" horiz-adv-x="829" unicode="%"/><glyph d="M383 559q-13 15-33 24t-50 9q-50 0-73-28t-24-72q0-33 17-51t49-26 75-9h247V298H345q-80 0-117-19t-38-77q0-30 11-51t33-32 60-11q57 0 80 28t23 88v146h132V224q0-84-29-134t-83-74T291-7q-76 0-129 25T82 87 54 191q0 46 15 78t44 53 65 32v4q-27 10-52 29t-42 50-17 72q0 54 26 99t78 72 125 27q63 0 112-19t82-55zm107 74-107-74zM352 406q16 0 28 5t19 20 7 43v45h126V406h111V298H532V184q0-41 18-56t52-16q7-1 17 0t24 3V5q-17-4-33-6t-31-2q-47 0-88 17t-68 59-26 111v115h-72v107z" horiz-adv-x="688" unicode="&amp;"/><glyph d="M44 700h118l-12-207H58z" horiz-adv-x="206" unicode="'"/><glyph d="M252-100Q187-49 141 22T72 176 48 348q0 89 24 172t73 155 123 125h137v-10q-77-58-127-130t-75-152-24-160q0-79 23-158t71-150T389-90v-10z" horiz-adv-x="446" unicode="("/><glyph d="M194-100H57v10q69 58 115 129t71 151 24 158q0 81-24 160t-75 151T41 790v10h137q74-53 122-124t73-155 25-173q0-88-23-171T305 22 194-100" horiz-adv-x="446" unicode=")"/><glyph d="m268 597 111 88 49-88-132-48 132-48-52-91-108 89 22-139H189l21 139-108-91-54 94 131 48-131 46 51 90 112-89-22 140h102z" horiz-adv-x="475" unicode="*"/><glyph d="M370 605V95H242v510zM51 408h510V291H51z" horiz-adv-x="612" unicode="+"/><glyph d="M97 145h138L118-137H31z" horiz-adv-x="286" unicode=","/><glyph d="M51 336h422V222H51z" horiz-adv-x="525" unicode="-"/><glyph d="M135-7Q98-7 75 16T51 73q0 34 23 57t61 24q36 0 59-23t24-58q0-33-23-56T135-7" horiz-adv-x="269" unicode="."/><glyph d="M240 800h133L132-100H0z" horiz-adv-x="373" unicode="/"/><glyph d="M54 350q0 79 13 144t44 113 83 74 128 26q78 0 129-26t82-73 44-113 13-145q0-80-13-146T534 91t-82-72T322-7q-76 0-128 25t-82 73-44 113-14 146m399 0q0 48-3 91t-17 77-39 54-72 20q-45 0-71-19t-39-54-16-78-4-91q0-50 3-94t17-77 39-52 71-19 72 19 39 52 16 77 4 94" horiz-adv-x="645" unicode="0"/><glyph d="M130 587H35v113h230V0H130z" horiz-adv-x="333" unicode="1"/><glyph d="m47 98 195 183q54 51 85 86t46 64 14 63q0 43-24 70t-79 28q-33 0-57-15t-37-45-14-69H46q2 84 35 138t87 80 120 26q77 0 130-27t79-75 27-108q0-45-15-86t-53-87-103-106L237 113h303V0H47z" horiz-adv-x="592" unicode="2"/><glyph d="M55 502q3 67 34 112t85 69 124 24q73 0 124-27t77-72 27-99q0-41-16-71t-42-50-52-30v-4q37-11 64-32t43-53 16-78q0-59-27-103t-80-70T303-7q-75 0-132 22T81 85 45 214h132q2-54 31-80t92-26q36 0 59 11t34 32 11 51q0 58-37 77t-118 19h-28v108h29q42 1 74 8t49 26 18 52q0 43-24 71t-73 29q-36 0-58-13t-35-33-14-44z" horiz-adv-x="594" unicode="3"/><glyph d="M386 148H34v102l328 450h159V261h88V148h-88V0H386zm6 113v295L183 261z" horiz-adv-x="654" unicode="4"/><glyph d="M517 700V587H202V419q20 25 53 40t81 15q62 0 106-22t71-56 40-76 13-79q0-72-30-128t-87-88T313-7q-78 0-133 26T93 92 54 197h132q9-39 41-64t84-25q41 0 67 16t38 45 13 71q0 58-31 90t-88 32q-43 0-72-22t-41-57H67v417z" horiz-adv-x="617" unicode="5"/><glyph d="M309-7q-75 0-134 32t-94 88-35 128q0 56 23 113t69 117l177 229h148L255 435 125 297q18 79 74 125t135 47q67 0 120-28t85-80 31-123q0-71-35-126t-94-87T309-7M183 238q0-39 15-68t43-46 68-16q40 0 67 16t43 45 15 69q0 40-15 68t-42 45-68 16q-40 0-68-16t-43-44-15-69" horiz-adv-x="611" unicode="6"/><glyph d="M517 700V599L249 0H111l271 587H35v113z" horiz-adv-x="550" unicode="7"/><glyph d="M167 371q-45 21-72 58t-28 95q0 50 26 91t81 67 137 25q83 0 137-25t81-66 27-92q0-54-28-93t-72-60q55-22 86-66t32-105q0-65-34-111t-94-71T311-7 177 18 84 89 49 200q0 61 32 105t86 66m252 135q0 48-28 69t-80 21q-50 0-79-20t-29-70q0-44 29-70t79-26 79 26 29 70M311 314q-37 0-65-12t-44-36-16-60q0-48 31-75t94-27q62 0 94 27t32 75q0 35-15 59t-44 36-67 13" horiz-adv-x="623" unicode="8"/><glyph d="M302 707q75 0 134-32t94-88 35-128q0-56-22-113t-70-117L296 0H148l208 265 130 138q-17-79-73-125t-136-47q-67 0-120 28t-85 81-31 122q0 72 35 127t94 86 132 32m126-245q0 40-15 69t-43 45-68 16-67-16-42-45-15-69q0-39 14-68t42-45 68-16q39 0 67 16t44 45 15 68" horiz-adv-x="611" unicode="9"/><glyph d="M139-7q-37 0-60 23T55 73q0 34 23 57t61 24q36 0 59-23t24-58q0-33-23-56T139-7m0 415q-37 0-60 23t-24 57q0 34 23 57t61 24q36 0 59-23t24-58q0-33-23-56t-60-24" horiz-adv-x="276" unicode=":"/><glyph d="M168 405q-37 0-60 23t-24 57q0 34 23 57t61 24q36 0 59-23t24-58q0-33-23-56t-60-24m-67-260h138L122-137H35z" horiz-adv-x="305" unicode=";"/><glyph d="M442 125H271L51 350l220 225h171L221 350z" horiz-adv-x="510" unicode="&lt;"/><glyph d="M62 290h543V173H62zm0 238h543V410H62z" horiz-adv-x="665" unicode="="/><glyph d="M289 350 68 575h171l219-225-219-225H68z" horiz-adv-x="509" unicode="&gt;"/><glyph d="M274 707q67 0 119-25t81-72 29-114q0-68-30-112t-82-67-118-23l-5-77H150l-5 168h43q39 0 72 4t56 17 37 34 13 57q0 30-11 51t-31 32-52 12q-46 0-72-24t-27-71H45q-1 61 26 108t78 74 125 28M213-7q-37 0-60 23t-24 57q0 34 23 57t61 24q36 0 59-23t24-58q0-34-23-57T213-7" horiz-adv-x="548" unicode="?"/><glyph d="m579 162 23-49q-26-54-78-87T408-7q-77 0-120 46t-43 125q0 56 18 107t50 90 76 63 98 24q59 0 92-27t43-77l-26-16 19 111h114l-48-272q-5-38 1-61t41-23q29 0 50 21t34 55 20 73 7 75q0 82-32 138t-96 87-156 30q-87 0-161-32t-130-90-85-133-30-166q0-83 33-141t97-87 153-30q44 0 88 8t83 27l19-89q-48-21-101-30t-109-10q-112 0-195 42T83-50 37 131q0 111 39 206t110 167 168 110 211 40q118 0 202-43t129-120 45-179q0-60-15-116T880 94t-75-73T703-6q-68 0-99 37t-26 100zm-84 185q-40 0-68-23t-44-61-16-78q0-39 20-65t63-26q38 0 68 22t48 57 18 77q0 28-10 50t-29 34-50 13" horiz-adv-x="1002" unicode="@"/><glyph d="M388 587h-36L146 0H7l251 700h223L732 0H593zM159 274h408V161H159z" horiz-adv-x="738" unicode="A"/><glyph d="M481 498q0 44-28 66t-79 23H203V410h170q51 0 79 22t29 66M68 0v700h325q73 0 123-24t75-66 26-94q0-46-17-78t-46-50-68-26v-8q46-6 79-25t51-55 18-85q0-55-27-97t-78-67T405 0zm135 113h184q53 0 82 23t30 69q0 47-31 71t-84 24H203z" horiz-adv-x="679" unicode="B"/><glyph d="M35 350q0 79 26 144t75 113 112 74 140 26q108 0 191-51t126-148l-113-33q-22 42-54 68t-71 38-77 12q-64 0-114-30t-77-86-28-127q0-72 27-126t78-86 114-31q40 0 79 12t74 43 58 80l111-31Q669 102 584 48T388-7q-75 0-139 26T136 93 62 206 35 350" horiz-adv-x="757" unicode="C"/><glyph d="M329 700q112 0 194-43t129-123 46-186q0-106-46-184T524 43 329 0H68v700zm-4-587q113 0 174 62t61 173-61 175-174 64H203V113z" horiz-adv-x="732" unicode="D"/><glyph d="M560 587H203V409h267V300H203V113h357V0H68v700h492z" horiz-adv-x="608" unicode="E"/><glyph d="M68 700h492V587H203V409h267V300H203V0H68z" horiz-adv-x="592" unicode="F"/><glyph d="M585 478q-33 61-83 87t-108 27q-63 0-113-31t-79-85-30-126q0-72 28-126t79-85 116-31q43 0 80 15t67 41 46 61v58H397v108h323V208q-24-58-71-107T537 22 391-7q-77 0-141 26T137 92 62 205 35 350q0 78 26 143t75 114 113 74 141 26q70 0 132-22t111-65 75-104z" horiz-adv-x="760" unicode="G"/><glyph d="M68 700h135V411h310v289h135V0H513v298H203V0H68z" horiz-adv-x="716" unicode="H"/><glyph d="M68 700h135V0H68z" horiz-adv-x="271" unicode="I"/><glyph d="M336 700h135V209q0-67-28-115t-77-75T253-7q-80 0-134 38T45 143l119 31q6-21 17-36t30-24 40-8q26 0 45 12t29 35 11 49z" horiz-adv-x="536" unicode="J"/><glyph d="M68 700h135V411h41l246 289h165L365 356 663 0H490L244 298h-41V0H68z" horiz-adv-x="672" unicode="K"/><glyph d="M203 700V113h311V0H68v700z" horiz-adv-x="537" unicode="L"/><glyph d="M203 0H68v700h154l223-524 223 524h154V0H687v452L498 0H392L203 452z" horiz-adv-x="890" unicode="M"/><glyph d="M647 700V0H510L203 486V0H68v700h137l307-486v486z" horiz-adv-x="715" unicode="N"/><glyph d="M391-7q-74 0-139 26T139 92 63 205 35 350t27 144 76 113 114 74 139 26q75 0 139-26t114-74 76-113 28-144q0-79-27-144T644 93 531 19 391-7m1 115q63 0 112 30t78 85 29 127q0 73-28 127t-78 84-113 31q-65 0-114-30t-78-85-28-127q0-72 28-127t77-85 115-30" horiz-adv-x="782" unicode="O"/><glyph d="M352 380q40 0 66 12t38 36 13 56q0 49-28 76t-89 27H203V380zm255 104q0-39-14-77t-44-70-77-51-116-19H203V0H68v700h288q85 0 140-29t83-79 28-108" horiz-adv-x="641" unicode="P"/><glyph d="M332 213h121V-95H332zM391-7q-74 0-139 26T139 92 63 205 35 350t27 144 76 113 114 74 139 26q75 0 139-26t114-74 76-113 28-144q0-79-27-144T644 93 531 19 391-7m1 115q63 0 112 30t78 85 29 127q0 73-28 127t-78 84-113 31q-65 0-114-30t-78-85-28-127q0-72 28-127t77-85 115-30" horiz-adv-x="782" unicode="Q"/><glyph d="M469 484q0 47-28 75t-89 28H203V380h149q40 0 66 12t38 36 13 56M356 700q85 0 140-29t83-79 28-108q0-39-14-77t-44-70-77-51-116-19H203V0H68v700zm76-388L621 0H470L289 312z" horiz-adv-x="656" unicode="R"/><glyph d="M166 198q5-28 22-49t44-32 64-12q59 0 88 26t29 65q0 30-18 50t-50 34-76 27q-40 12-79 26t-71 35-50 54-19 85q0 64 31 109t87 68 127 23q61 0 110-17t82-51 50-83l-125-34q-5 22-22 38t-41 25-52 10q-30 1-55-9t-40-29-15-44q0-28 17-44t45-28 63-23q41-12 83-27t78-39 56-60 22-91q0-58-27-105t-83-75T303-7q-68 0-123 20T88 71t-47 92z" horiz-adv-x="591" unicode="S"/><glyph d="M35 700h567V587H386V0H251v587H35z" horiz-adv-x="635" unicode="T"/><glyph d="M64 700h135V258q0-49 20-82t54-51 80-17q46 0 81 17t55 50 20 83v442h135V265q0-69-24-120t-65-85-94-50T351-7q-76 0-141 30t-106 90-40 152z" horiz-adv-x="709" unicode="U"/><glyph d="M555 700h144L442 0H279L23 700h144l194-562z" horiz-adv-x="722" unicode="V"/><glyph d="M375 0H217L23 700h145l128-544 140 544h151l139-542 129 542h145L806 0H648L512 502z" horiz-adv-x="1023" unicode="W"/><glyph d="M45 700h154l180-246 177 246h153L458 350 709 0H556L379 246 199 0H45l255 350z" horiz-adv-x="754" unicode="X"/><glyph d="M530 700h152L420 246V0H285v245L23 700h151l178-325z" horiz-adv-x="705" unicode="Y"/><glyph d="M558 597 203 113h355V0H45v103l353 484H45v113h513z" horiz-adv-x="603" unicode="Z"/><glyph d="M64 800h243V689H192V12h115v-112H64z" horiz-adv-x="348" unicode="["/><glyph d="M373-100H241L0 800h132z" horiz-adv-x="373" unicode="\"/><glyph d="M284 800v-900H41V12h115v677H41v111z" horiz-adv-x="348" unicode="]"/><glyph d="M349 539 183 250H44l239 450h130l240-450H513z" horiz-adv-x="697" unicode="^"/><glyph d="M-2-40h582v-128H-2z" horiz-adv-x="578" unicode="_"/><glyph d="m10 807 229-118v-97L10 698z" horiz-adv-x="250" unicode="`"/><glyph d="m356 0-10 61q-25-31-56-49T205-6q-50 0-87 17T59 60t-21 75q0 63 45 104t138 53l125 14v35q0 21-19 39t-60 18q-36 0-62-17t-36-53L59 368q20 67 76 103t138 36q100 0 150-49t51-131V0zm-10 217-108-14q-33-4-50-19t-17-38q0-21 17-35t48-15q35 0 59 13t38 38 13 62z" horiz-adv-x="529" unicode="a"/><glyph d="M174 425q23 34 65 58t101 24q66 0 115-31t78-90 29-136q0-78-28-135t-79-90T340-7q-52 0-92 20t-62 49l-8-62H62v720h128V423zm250-175q0 63-32 101t-85 39q-32 0-58-16t-43-48-16-76q0-45 16-76t42-47 59-17q52 0 84 38t33 102" horiz-adv-x="593" unicode="b"/><glyph d="M282-7q-73 0-128 32t-86 89-31 134 31 135 87 91 129 33q79 0 140-39t87-105l-118-34q-13 29-40 46t-63 17q-35 0-61-18t-41-50-15-75q0-65 32-103t86-38q34 0 62 16t42 46l118-34q-27-65-89-104T282-7" horiz-adv-x="549" unicode="c"/><glyph d="m425 425-16-2v297h128V0H421l-8 62q-24-28-63-48T258-7q-65 0-115 32t-78 89-28 136q0 78 28 136t78 89 115 32q59 0 101-24t66-58M174 250q0-63 32-101t85-39q32 0 58 16t43 48 17 76q0 45-16 76t-43 47-59 17q-52 0-84-38t-33-102" horiz-adv-x="598" unicode="d"/><glyph d="M289-7q-75 0-132 33t-88 92-32 136q0 74 31 131t87 89 126 33q72 0 127-31t85-86 31-130q0-11-1-24t-4-29H175q4-32 20-54t41-35 56-13q37 0 66 15t43 41l113-34q-30-64-89-99T289-7m95 307q-1 28-15 50t-37 35-51 13q-25 0-47-12t-37-35-21-51z" horiz-adv-x="560" unicode="e"/><glyph d="M86 545q0 65 23 106t70 59 117 10V607q-44 6-62-12t-19-56v-39h86V387h-86V0H86v387H27v113h59z" horiz-adv-x="330" unicode="f"/><glyph d="M421 500h116V74q0-85-42-146t-121-95-191-33L163-92q121 2 183 43t63 118v2l17 6q-24-35-66-59T260-7q-66 0-116 32t-78 89-29 136q0 78 28 136t79 89 116 32q34 0 63-9t52-25 38-35zM174 250q0-63 32-101t87-39q31 0 57 16t42 49 17 75q0 45-16 76t-43 47-57 17q-54 0-86-38t-33-102" horiz-adv-x="598" unicode="g"/><glyph d="M62 720h128V451q23 25 57 40t78 16q57 0 99-25t65-72 24-118V0H378v275q0 58-23 87t-69 29q-47 0-71-31t-25-90V0H62z" horiz-adv-x="567" unicode="h"/><glyph d="M79 500h128V0H79zm65 64q-36 0-59 23t-23 55q0 33 23 55t59 23q34 0 57-22t24-56q0-32-23-55t-58-23" horiz-adv-x="285" unicode="i"/><glyph d="M75 38q0-53-30-87t-84-41l19-110q57 2 108 29t83 80 32 128v463H75zm63 526q-35 0-58 23t-23 55q0 33 23 55t58 23q36 0 59-22t23-56q0-32-23-55t-59-23" horiz-adv-x="279" unicode="j"/><glyph d="M62 720h129V305h32l165 195h167L335 252 557 0H389L222 198h-31V0H62z" horiz-adv-x="568" unicode="k"/><glyph d="M62 720h128V0H62z" horiz-adv-x="251" unicode="l"/><glyph d="M62 500h116l9-49q24 25 57 40t74 16q48 0 88-20t64-59q27 37 70 58t95 21q59 0 102-25t68-72 24-118V0H701v275q0 57-25 86t-71 29q-47 0-73-29t-27-88V0H377v275q0 57-22 86t-69 29-71-29-25-87V0H62z" horiz-adv-x="883" unicode="m"/><glyph d="M62 500h116l9-51q24 27 58 42t75 16q59 0 100-25t64-72 23-118V0H378v275q0 58-23 87t-69 29q-47 0-71-29t-25-88V0H62z" horiz-adv-x="561" unicode="n"/><glyph d="M289-7q-73 0-130 31t-89 89-33 136q0 79 33 137t92 89 130 32q72 0 130-31t92-89 34-136q0-79-34-137t-93-89T289-7m-1 115q31 0 59 15t46 47 18 81q0 47-17 78t-44 47-60 16q-31 0-57-15t-43-47-16-81q0-47 15-78t42-47 57-16" horiz-adv-x="585" unicode="o"/><glyph d="m174 75 16 2v-277H62v700h116l8-62q22 29 62 49t92 20q65 0 115-32t78-89 29-136q0-78-28-136t-78-89T340-7q-58 0-100 24t-66 58m250 175q0 63-32 101t-85 39q-32 0-58-16t-43-47-16-77q0-45 16-76t42-47 59-17q52 0 84 38t33 102" horiz-adv-x="598" unicode="p"/><glyph d="M425 75q-23-34-65-58T258-7q-65 0-115 31t-78 90-28 136q0 78 28 135t78 90 115 32q52 0 91-20t64-49l8 62h116v-700H409V77zM174 250q0-63 32-101t85-39q31 0 58 16t43 48 17 76q0 46-16 76t-44 47-58 17q-52 0-84-38t-33-102" horiz-adv-x="598" unicode="q"/><glyph d="M62 500h116l9-64q21 26 47 42t59 23 67-1V380q-27 9-56 5t-55-21-42-48-17-80V0H62z" horiz-adv-x="380" unicode="r"/><glyph d="M152 163q6-25 20-38t33-18 38-6q35 0 55 13t20 35q0 18-14 28t-35 17-46 11q-27 7-57 15t-58 25-44 41-18 65q0 47 25 81t70 55 106 20q71 0 120-30t71-86l-112-32q-6 14-18 23t-28 13-34 4q-29 0-48-11t-19-32q0-12 7-19t19-13 29-9 37-9q31-8 62-18t58-27 43-43 18-68q0-44-25-79t-72-57T241-7q-78 0-132 33T37 129z" horiz-adv-x="488" unicode="s"/><glyph d="M98 500v140h129V500h111V387H227V184q0-39 17-55t42-17 52 3V5q-46-10-89-6t-78 23-53 60-20 102v203H27v113z" horiz-adv-x="367" unicode="t"/><glyph d="M501 0H384l-8 52q-25-28-59-43T243-7q-58 0-100 25T78 90 55 208v292h129V224q0-57 22-86t70-30q47 0 72 30t25 87v275h128z" horiz-adv-x="562" unicode="u"/><glyph d="m159 500 119-356 120 356h137L349 0H206L21 500z" horiz-adv-x="555" unicode="v"/><glyph d="M300 0H169L21 500h132l83-338 88 338h128l85-338 82 338h131L602 0H468l-83 314z" horiz-adv-x="770" unicode="w"/><glyph d="M25 500h148l101-154 102 154h148L348 251 524 0H376L274 155 173 0H25l175 251z" horiz-adv-x="548" unicode="x"/><glyph d="M405 500h137L247-200H118l94 218L15 500h143l122-329z" horiz-adv-x="557" unicode="y"/><glyph d="M442 399 203 113h241V0H41v102l239 285H41v113h401z" horiz-adv-x="484" unicode="z"/><glyph d="M37 392q33 2 54 11t32 24 11 34q0 29-4 65t-9 75-5 70q0 63 46 96t120 33h69v-92h-42q-32 0-47-11t-15-37q0-24 4-60t8-73 4-70q0-41-25-69t-80-37v-1q55-9 80-37t25-70q0-32-4-69t-8-73-4-60q0-25 15-36t47-12h42v-93h-69q-74 0-120 34t-46 97q0 32 4 69t9 74 5 65q0 20-10 34t-32 24-55 11z" horiz-adv-x="389" unicode="{"/><glyph d="M217 800v-900H82v900z" horiz-adv-x="298" unicode="|"/><glyph d="M351 392v-84q-33-2-54-11t-32-23-11-35q0-28 4-64t9-74 5-70q0-63-46-97t-120-34H37v93h42q33 0 47 11t15 37q0 25-4 60t-8 72-4 70q0 41 25 69t80 38v1q-55 9-80 37t-25 69q0 33 4 70t8 73 4 60q0 25-14 36t-48 12H37v92h69q74 0 120-33t46-96q0-32-4-70t-9-74-5-66q0-19 10-34t32-24 55-11" horiz-adv-x="388" unicode="}"/><glyph d="M48 259q17 98 63 141t111 43q31 0 55-10t44-23 39-22 42-10q24 0 42 15t24 49h99q-16-98-63-141t-112-43q-31 0-54 9t-44 23-39 23-41 10q-26 0-44-16t-23-48z" horiz-adv-x="614" unicode="~"/><glyph horiz-adv-x="280"/><glyph d="M145 569q35 0 59-23t24-57-24-57-59-24q-36 0-60 23t-24 58q0 34 24 57t60 23M72-138l15 475h114l16-475z" horiz-adv-x="289" unicode="¡"/><glyph d="M259 600h64V433h-64zm0-518h64v-182h-64zm23-89q-73 0-128 32t-86 89-31 134 31 135 87 91 129 33q79 0 140-39t87-105l-118-34q-13 29-40 46t-63 17q-35 0-61-18t-41-50-15-75q0-65 32-103t86-38q34 0 62 16t42 46l118-34q-27-65-89-104T282-7" horiz-adv-x="549" unicode="¢"/><glyph d="M343 707q78 0 128-30t74-79 27-110H448q-1 46-24 76t-79 30q-30 0-54-12t-38-37-14-67q0-31 7-57t18-51 17-48 8-53q0-42-16-83t-51-77h355V0H96L75 70q28 28 47 56t28 62 10 82q0 27-7 48t-17 45-17 52-8 73q0 69 30 118t82 75 120 26m108-318v-93H47v93z" horiz-adv-x="618" unicode="£"/><glyph d="M275 556q56 0 100-22t69-61 26-96q0-54-26-94t-70-63-100-22q-57 0-100 22t-68 62-24 95q0 56 25 95t69 62 99 22m0-81q-34 0-59-24t-25-74q0-48 24-72t59-25q21 0 41 11t32 32 13 54q0 33-12 55t-32 32-41 11m-129-23-91 89 57 57 96-96zm196 49 97 97 56-57-97-97zm65-197 88-88-56-57-92 91zm-194-44L112 159l-57 57 92 92z" horiz-adv-x="550" unicode="¤"/><glyph d="M427 407h193v-96H418zM84 232h536v-94H84zm0 175h219l8-96H84zm446 293h152L420 246V0H285v245L23 700h151l178-325z" horiz-adv-x="705" unicode="¥"/><glyph d="M217 284v-384H82v384zM82 416v384h135V416z" horiz-adv-x="299" unicode="¦"/><glyph d="M67 575q0 55 43 93t121 39q72 0 116-36t47-99H292q-2 20-9 33t-20 21-32 8q-29 0-46-13t-17-38q0-18 10-30t35-26 72-32q43-17 74-37t47-47 16-61q0-33-15-60t-48-48-83-33l12 46q32-14 56-32t38-42 14-56q0-54-43-93T231-7q-71 0-116 36t-46 99h101q1-19 8-33t20-21 34-8q29 0 45 13t17 39q0 17-10 29t-35 26-72 32q-44 17-74 37t-46 47-16 61q0 33 15 61t47 48 83 27l-11-41q-33 15-57 33t-38 42-13 55m249-225q0 31-23 52t-62 21q-40 0-62-21t-22-52q0-30 22-52t63-22q40 0 62 22t22 52" horiz-adv-x="462" unicode="§"/><glyph d="M75 620q-27 0-46 19t-19 46 19 46 46 19q28 0 46-19t19-46q0-27-18-46t-47-19m183 0q-27 0-46 19t-19 46 19 46 46 19 46-19 19-46-19-46-46-19" horiz-adv-x="334" unicode="¨"/><glyph d="M396 707q104 0 182-45t123-126 45-186-44-185T579 39 396-7Q293-7 214 38T91 164 46 350q0 105 44 185t124 126 182 46m1-50q-92 0-158-37T136 513t-36-163q0-92 36-161T238 81t159-38q90 0 156 38t103 107 36 162q0 93-36 162T554 619t-157 38m-4-566q-73 0-128 32t-86 89-31 135q0 76 31 134t87 91 129 33q80 0 140-38t86-106l-118-34q-12 30-39 46t-63 17q-35 0-61-18t-41-50-15-75q0-64 32-102t86-38q34 0 62 16t42 45l117-34q-26-65-88-103T393 91" horiz-adv-x="791" unicode="©"/><glyph d="M28 530q0 54 23 94t61 63 84 23q45 0 75-15t48-37v46h104V353H319v45q-16-21-46-35t-75-15q-47 0-85 22t-62 64-23 96m108-1q0-48 28-74t63-26q37 0 64 26t28 74q0 48-27 73t-65 26q-35 0-63-25t-28-74" horiz-adv-x="465" unicode="ª"/><glyph d="M251 75H123L34 250l89 175h128l-92-175zm205 0H328l-90 175 90 175h128l-93-175z" horiz-adv-x="497" unicode="«"/><glyph d="M31 437h586V198H481v135H31z" horiz-adv-x="658" unicode="¬"/><glyph d="M44 336h423V222H44z" horiz-adv-x="511" unicode="­"/><glyph d="M46 495q0 62 27 109t75 75 111 28q61 0 108-27t75-75 28-110q0-61-27-109t-75-75-109-28q-62 0-110 27t-76 76-27 109m54 0q0-47 19-84t55-57 85-21q48 0 83 20t55 58 20 84q0 49-19 85t-56 57-83 20q-49 0-85-20t-55-56-19-86m71 110V391h66v75h38q35 0 56 19t21 50q0 32-21 51t-56 19zm115-214h78l-62 97h-71zm-18 156q7 0 12-3t6-12q0-8-5-12t-13-4h-32v31z" horiz-adv-x="516" unicode="®"/><glyph d="M10 730h379v-97H10z" horiz-adv-x="400" unicode="¯"/><glyph d="M20 525q0 56 25 94t69 60 100 21q56 0 99-21t69-59 25-95q0-54-25-93t-69-61-101-21q-85 0-138 46T20 525m280 0q0 52-26 76t-61 24q-33 0-60-24t-27-76q0-53 26-76t60-23 61 23 27 76" horiz-adv-x="428" unicode="°"/><glyph d="M414 601V140H286v461zM95 462h510V345H95zm0-246h510V99H95z" horiz-adv-x="700" unicode="±"/><glyph d="M31 593q2 50 41 82t107 32q46 0 77-16t48-42 16-55q0-24-8-43t-28-38-56-40l-111-71 2 31h199v-83H34v77l113 79q29 21 46 39t17 43q0 19-11 30t-26 12q-17 0-26-10t-11-27z" horiz-adv-x="355" unicode="²"/><glyph d="M34 598q3 30 21 55t51 39 81 15q42 0 75-14t52-37 19-54-17-49-47-25v-3q30-9 49-29t19-53q0-44-42-72t-110-28q-73 0-112 30t-43 85h105q3-20 15-30t31-10q20 0 32 10t13 31q0 18-13 29t-36 12h-35v57h31q22 0 35 8t13 29q0 17-11 27t-32 10q-19 0-29-9t-15-24z" horiz-adv-x="373" unicode="³"/><glyph d="M239 807V697L10 592v97z" horiz-adv-x="250" unicode="´"/><glyph d="M538 0H402v57q-23-28-57-43T272-4q-14 0-27 1t-25 5-24 10v-212H62v700h134V224q0-55 28-84t75-30q46 0 74 29t29 87v274h136z" horiz-adv-x="599" unicode="µ"/><glyph d="M587 700V0H471v596h-66V0H289v281h-17q-84 0-136 29t-77 77-24 103q0 57 24 104t77 77 136 29z" horiz-adv-x="654" unicode="¶"/><glyph d="M129 247q-37 0-60 23t-24 57q0 34 23 57t61 24q36 0 59-23t24-58q0-33-23-56t-60-24" horiz-adv-x="258" unicode="·"/><glyph d="M152-44q34 0 64-11t48-36 18-61q0-37-18-62t-48-37-66-13H10v80h117q24 0 37 7t13 26q0 20-13 26t-37 7H66V7h86z" horiz-adv-x="293" unicode="¸"/><glyph d="M79 624H23v76h160V350H79z" horiz-adv-x="228" unicode="¹"/><glyph d="M27 528q0 55 25 95t70 63 101 23q57 0 101-22t69-63 26-96q0-53-25-94t-71-64-102-23q-57 0-100 23t-69 64-25 94m285 0q0 50-27 75t-63 26q-34 0-61-25t-27-76q0-49 26-74t62-26q35 0 62 25t28 75" horiz-adv-x="447" unicode="º"/><glyph d="m245 75 93 175-93 175h128l90-175-90-175zM41 75l92 175-92 175h128l89-175-89-175z" horiz-adv-x="497" unicode="»"/><glyph d="M451 700h129L200 0H70zm232-572V65h-42V0H536v65H347v57l149 231h145V128zm-143 1v149l-91-149zM79 623H23v76h160V349H79z" horiz-adv-x="711" unicode="¼"/><glyph d="M450 700h130L200 0H70zM79 623H23v76h160V349H79zm318-381q2 50 41 82t108 32q45 0 76-16t48-42 16-55q0-24-8-43t-28-38-56-40L483 50l3 32h198V-1H400v77l114 79q29 21 45 39t17 43q0 19-11 30t-26 12q-17 0-26-10t-11-27z" horiz-adv-x="732" unicode="½"/><glyph d="M538 700h129L287 0H159zm232-572V65h-43V0H623v65H433v57l145 231h149V128zm-144 0v154l-91-154zM27 598q3 30 21 55t51 39 81 15q42 0 75-14t52-37 19-54-18-49-46-25v-3q30-9 49-29t19-53q0-44-42-72t-110-28q-73 0-113 30t-42 85h104q4-20 16-30t31-10 31 10 13 31q0 18-13 29t-35 12h-36v57h31q23 0 36 8t13 29q0 16-11 26t-32 11q-19 0-30-9t-15-24z" horiz-adv-x="792" unicode="¾"/><glyph d="M335 565q37 0 60-23t24-57q0-34-23-57t-61-24q-35 0-59 23t-24 58q0 33 24 56t59 24m-60-714q-68 0-119 24T75-53 45 62q0 68 30 112t82 67 119 23l4 77h119l5-168h-44q-39 0-72-4t-56-17-37-34-13-57q0-30 11-51t31-33 52-11q47 0 73 24t27 71h127q1-60-26-107t-78-75-124-28" horiz-adv-x="548" unicode="¿"/><glyph d="m249 968 229-119v-97L249 858zm139-381h-36L146 0H7l251 700h223L732 0H593zM159 274h408V161H159z" horiz-adv-x="738" unicode="À"/><glyph d="M478 968V857L249 752v97zm-90-381h-36L146 0H7l251 700h223L732 0H593zM159 274h408V161H159z" horiz-adv-x="738" unicode="Á"/><glyph d="m517 752-147 85-148-85v101l148 82 147-82zM388 587h-36L146 0H7l251 700h223L732 0H593zM159 274h408V161H159z" horiz-adv-x="738" unicode="Â"/><glyph d="M192 757q10 67 43 98t80 31q28 0 47-11t37-22 38-12q16 0 28 10t15 34h73q-11-67-43-98t-80-31q-28 0-48 11t-37 22-37 12q-17 0-28-11t-15-33zm196-170h-36L146 0H7l251 700h223L732 0H593zM159 274h408V161H159z" horiz-adv-x="738" unicode="Ã"/><glyph d="M278 781q-28 0-46 18t-19 46q0 28 18 47t47 19q27 0 46-19t19-47-19-46-46-18m183 0q-28 0-46 18t-19 46q0 28 18 47t47 19q26 0 45-19t20-47q0-28-19-46t-46-18m-73-194h-36L146 0H7l251 700h223L732 0H593zM159 274h408V161H159z" horiz-adv-x="738" unicode="Ä"/><glyph d="M486 856q0-52-34-82t-82-31q-48 0-82 30t-34 83q0 54 34 84t82 31q48 0 82-30t34-85m-68 1q0 23-14 36t-34 14q-20 0-34-13t-14-37q0-22 14-36t34-14q19 0 33 14t15 36m-30-270h-36L146 0H7l251 700h223L732 0H593zM159 274h408V161H159z" horiz-adv-x="738" unicode="Å"/><glyph d="M607 587V409h169V299H607V113h263V0H472v161H238L153 0H7l374 700h489V587zM297 274h175v329z" horiz-adv-x="918" unicode="Æ"/><glyph d="M431-45q34 0 63-11t48-36 19-62q0-36-18-61t-49-37-65-13H289v80h117q23 0 36 6t14 27q0 20-13 26t-37 7h-61V6h86zM35 350q0 79 26 144t75 113 112 74 140 26q108 0 191-51t126-148l-113-33q-22 42-54 68t-71 38-77 12q-64 0-114-30t-77-86-28-127q0-72 27-126t78-86 114-31q40 0 79 12t74 43 58 80l111-31Q669 102 584 48T388-7q-75 0-139 26T136 93 62 206 35 350" horiz-adv-x="757" unicode="Ç"/><glyph d="m192 968 228-119v-97L192 858zm368-381H203V409h267V300H203V113h357V0H68v700h492z" horiz-adv-x="608" unicode="È"/><glyph d="M420 968V857L192 752v97zm140-381H203V409h267V300H203V113h357V0H68v700h492z" horiz-adv-x="608" unicode="É"/><glyph d="m460 752-148 85-148-85v101l148 82 148-82zm100-165H203V409h267V300H203V113h357V0H68v700h492z" horiz-adv-x="608" unicode="Ê"/><glyph d="M220 781q-27 0-46 18t-19 46 19 47 46 19 46-19 20-47q0-28-19-46t-47-18m183 0q-27 0-46 18t-19 46 19 47 46 19 46-19 19-47-19-46-46-18m157-194H203V409h267V300H203V113h357V0H68v700h492z" horiz-adv-x="608" unicode="Ë"/><glyph d="m15 968 229-119v-97L15 858zm53-268h135V0H68z" horiz-adv-x="271" unicode="Ì"/><glyph d="M244 968V857L15 752v97zM68 700h135V0H68z" horiz-adv-x="271" unicode="Í"/><glyph d="m283 752-148 85-147-85v101l147 82 148-82zM68 700h135V0H68z" horiz-adv-x="271" unicode="Î"/><glyph d="M44 781q-28 0-46 18t-19 46q0 28 18 47t47 19q27 0 46-19t19-47-19-46-46-18m183 0q-28 0-47 18t-19 46 19 47 47 19q27 0 46-19t19-47-19-46-46-18M68 700h135V0H68z" horiz-adv-x="271" unicode="Ï"/><glyph d="M48 408h72v292h241q112 0 194-43t128-123 46-186-45-184T556 43 361 0H120v289H48zm208-299h101q112-1 172 64t61 175q0 111-60 175t-173 65H256V408h169V289H256z" horiz-adv-x="764" unicode="Ð"/><glyph d="M193 757q10 67 43 98t80 31q28 0 47-11t37-22 37-12q17 0 28 10t15 34h73q-10-67-42-98t-80-31q-28 0-48 11t-37 22-37 12q-16 0-28-11t-15-33zm454-57V0H510L203 486V0H68v700h137l307-486v486z" horiz-adv-x="715" unicode="Ñ"/><glyph d="m271 968 228-119v-97L271 858zM391-7q-74 0-139 26T139 92 63 205 35 350t27 144 76 113 114 74 139 26q75 0 139-26t114-74 76-113 28-144q0-79-27-144T644 93 531 19 391-7m1 115q63 0 112 30t78 85 29 127q0 73-28 127t-78 84-113 31q-65 0-114-30t-78-85-28-127q0-72 28-127t77-85 115-30" horiz-adv-x="782" unicode="Ò"/><glyph d="M499 968V857L271 752v97zM391-7q-74 0-139 26T139 92 63 205 35 350t27 144 76 113 114 74 139 26q75 0 139-26t114-74 76-113 28-144q0-79-27-144T644 93 531 19 391-7m1 115q63 0 112 30t78 85 29 127q0 73-28 127t-78 84-113 31q-65 0-114-30t-78-85-28-127q0-72 28-127t77-85 115-30" horiz-adv-x="782" unicode="Ó"/><glyph d="m539 752-148 85-147-85v101l147 82 148-82zM391-7q-74 0-138 26T139 92 63 205 35 350q0 78 27 143t77 114 113 74 139 26q75 0 139-26t114-74 76-113 28-144q0-79-27-144T644 93 531 19 391-7m0 115q64 0 113 30t78 85 29 127q0 73-28 127t-78 84-114 31q-64 0-113-30t-78-85-28-127q0-72 28-126t77-85 114-31" horiz-adv-x="782" unicode="Ô"/><glyph d="M214 757q9 67 42 98t81 31q28 0 47-11t37-22 38-12q16 0 27 11t15 33h73q-10-67-43-98t-79-31q-29 0-48 11t-37 22-37 12q-17 0-28-11t-15-33zM391-7q-74 0-139 26T139 92 63 205 35 350t27 144 76 113 114 74 139 26q75 0 139-26t114-74 76-113 28-144q0-79-27-144T644 93 531 19 391-7m1 115q63 0 112 30t78 85 29 127q0 73-28 127t-78 84-113 31q-65 0-114-30t-78-85-28-127q0-72 28-127t77-85 115-30" horiz-adv-x="782" unicode="Õ"/><glyph d="M299 781q-28 0-46 18t-19 46q0 28 18 47t47 19q27 0 46-19t20-47q0-28-19-46t-47-18m183 0q-28 0-46 18t-19 46q0 28 18 47t47 19q27 0 46-19t19-47-19-46-46-18M391-7q-74 0-139 26T139 92 63 205 35 350t27 144 76 113 114 74 139 26q75 0 139-26t114-74 76-113 28-144q0-79-27-144T644 93 531 19 391-7m1 115q63 0 112 30t78 85 29 127q0 73-28 127t-78 84-113 31q-65 0-114-30t-78-85-28-127q0-72 28-127t77-85 115-30" horiz-adv-x="782" unicode="Ö"/><glyph d="m143 583 378-378-88-88L55 496zM51 206l377 377 89-88-378-377z" horiz-adv-x="573" unicode="×"/><glyph d="m557 607 97-49-407-447-97 50zM391-7q-74 0-139 26T139 92 63 205 35 350t27 144 76 113 114 74 139 26q75 0 139-26t114-74 76-113 28-144q0-79-27-144T644 93 531 19 391-7m1 115q63 0 112 30t78 85 29 127q0 73-28 127t-78 84-113 31q-65 0-114-30t-78-85-28-127q0-72 28-127t77-85 115-30" horiz-adv-x="782" unicode="Ø"/><glyph d="m232 968 229-119v-97L232 858zM64 700h135V258q0-49 20-82t54-51 80-17q46 0 81 17t55 50 20 83v442h135V265q0-69-24-120t-65-85-94-50T351-7q-76 0-141 30t-106 90-40 152z" horiz-adv-x="709" unicode="Ù"/><glyph d="M461 968V857L232 752v97zM64 700h135V258q0-49 20-82t54-51 80-17q46 0 81 17t55 50 20 83v442h135V265q0-69-24-120t-65-85-94-50T351-7q-76 0-141 30t-106 90-40 152z" horiz-adv-x="709" unicode="Ú"/><glyph d="m500 752-147 85-148-85v101l148 82 147-82zM64 700h135V258q0-49 20-82t54-51 80-17q46 0 81 17t55 50 20 83v442h135V265q0-69-24-120t-65-85-94-50T351-7q-76 0-141 30t-106 90-40 152z" horiz-adv-x="709" unicode="Û"/><glyph d="M261 781q-27 0-46 18t-19 46 19 47 46 19q28 0 46-19t19-47q0-28-18-46t-47-18m183 0q-28 0-46 18t-19 46q0 28 18 47t47 19q27 0 46-19t19-47-19-46-46-18M64 700h135V258q0-49 20-82t54-51 80-17q46 0 81 17t55 50 20 83v442h135V265q0-69-24-120t-65-85-94-50T351-7q-76 0-141 30t-106 90-40 152z" horiz-adv-x="709" unicode="Ü"/><glyph d="M460 968V857L232 752v97zm70-268h152L420 246V0H285v245L23 700h151l178-325z" horiz-adv-x="705" unicode="Ý"/><glyph d="M317 243q61 0 89 29t28 78-28 78-89 30H204V243zm256 107q0-51-25-100t-80-80-146-31H204V0H68v700h135V563h119q84 0 139-28t84-77 28-108" horiz-adv-x="607" unicode="Þ"/><glyph d="M62 492q0 57 24 106t75 79 131 30q70 0 119-25t74-65 25-81q0-34-12-55t-30-37-36-31q-14-12-23-22t-9-20q0-11 15-21t67-29q70-25 101-71t31-102q0-70-51-112T423-7q-86 0-140 45t-62 131h132q2-34 19-52t51-19q27 0 41 9t15 34q0 24-16 47t-56 37q-73 26-108 54t-35 73q0 36 20 61t43 49q19 18 34 28t15 33q0 30-24 51t-63 21q-37 0-58-15t-31-42-10-58V0H62z" horiz-adv-x="650" unicode="ß"/><glyph d="m163 734 200-104v-84l-200 93zM356 0l-10 61q-25-31-56-49T205-6q-50 0-87 17T59 60t-21 75q0 63 45 104t138 53l125 14v35q0 21-19 39t-60 18q-36 0-62-17t-36-53L59 368q20 67 76 103t138 36q100 0 150-49t51-131V0zm-10 217-108-14q-33-4-50-19t-17-38q0-21 17-35t48-15q35 0 59 13t38 38 13 62z" horiz-adv-x="529" unicode="à"/><glyph d="M363 734v-96l-200-92v84zM356 0l-10 61q-25-31-56-49T205-6q-50 0-87 17T59 60t-21 75q0 63 45 104t138 53l125 14v35q0 21-19 39t-60 18q-36 0-62-17t-36-53L59 368q20 67 76 103t138 36q100 0 150-49t51-131V0zm-10 217-108-14q-33-4-50-19t-17-38q0-21 17-35t48-15q35 0 59 13t38 38 13 62z" horiz-adv-x="529" unicode="á"/><glyph d="m398 546-129 74-130-74v88l130 71 129-71zM356 0l-10 61q-25-31-56-49T205-6q-50 0-87 17T59 60t-21 75q0 63 45 104t138 53l125 14v35q0 21-19 39t-60 18q-36 0-62-17t-36-53L59 368q20 67 76 103t138 36q100 0 150-49t51-131V0zm-10 217-108-14q-33-4-50-19t-17-38q0-21 17-35t48-15q35 0 59 13t38 38 13 62z" horiz-adv-x="529" unicode="â"/><glyph d="M114 550q8 58 37 85t70 28q24 0 41-10t33-19 32-10q15 0 25 9t14 29h64q-9-59-38-86t-70-27q-25 0-42 10t-32 19-33 10q-15 0-25-9t-13-29zM356 0l-10 61q-25-31-56-49T205-6q-50 0-87 17T59 60t-21 75q0 63 45 104t138 53l125 14v35q0 21-19 39t-60 18q-36 0-62-17t-36-53L59 368q20 67 76 103t138 36q100 0 150-49t51-131V0zm-10 217-108-14q-33-4-50-19t-17-38q0-21 17-35t48-15q35 0 59 13t38 38 13 62z" horiz-adv-x="529" unicode="ã"/><glyph d="M188 570q-25 0-41 16t-16 41q0 24 16 41t41 17q24 0 41-17t17-41-17-40-41-17m160 0q-24 0-40 16t-16 41q0 24 16 41t40 17 41-17 17-41-17-40-41-17m8-570-10 61q-25-31-56-49T205-6q-50 0-87 17T59 60t-21 75q0 63 45 104t138 53l125 14v35q0 21-19 39t-60 18q-36 0-62-17t-36-53L59 368q20 67 76 103t138 36q100 0 150-49t51-131V0zm-10 217-108-14q-33-4-50-19t-17-38q0-21 17-35t48-15q35 0 59 13t38 38 13 62z" horiz-adv-x="529" unicode="ä"/><glyph d="M371 637q0-46-30-73t-72-27-72 27-30 73q0 47 30 73t72 27q42 0 72-26t30-74m-60 1q0 20-12 32t-30 12-30-12-12-32 12-32 30-12q17 0 29 12t13 32M356 0l-10 61q-25-31-56-49T205-6q-50 0-87 17T59 60t-21 75q0 63 45 104t138 53l125 14v35q0 21-19 39t-60 18q-36 0-62-17t-36-53L59 368q20 67 76 103t138 36q100 0 150-49t51-131V0zm-10 217-108-14q-33-4-50-19t-17-38q0-21 17-35t48-15q35 0 59 13t38 38 13 62z" horiz-adv-x="529" unicode="å"/><glyph d="M583-7q-73 0-126 32t-81 91-29 137q0 119 60 186t173 68q72 0 126-30t85-86 31-130q0-12-1-25t-4-29H473q4-32 19-54t39-35 53-13q45 0 72 13t43 43l113-34q-30-63-87-98T583-7m101 307q-2 30-15 52t-37 34-53 12q-27 0-49-12t-35-35-19-51zM410 193l12-78q-21-45-55-71T290 5 206-7q-49 0-86 16T60 57t-22 78q0 39 15 66t41 46 58 28 69 16l125 18v32q0 21-20 39t-59 18q-36 0-62-17t-36-53L59 368q21 67 76 103t138 36q98 0 148-49t50-131V220zm-64 25-107-15q-36-5-52-20t-16-38q0-24 18-35t49-11q30 0 54 12t39 36 15 61z" horiz-adv-x="858" unicode="æ"/><glyph d="M317-33q31 0 57-10t42-31 16-54q0-32-16-54t-42-33-57-11H193v70h103q21 0 32 6t12 23q0 18-11 23t-33 6h-54V12h75zM282-7q-73 0-128 32t-86 89-31 134 31 135 87 91 129 33q79 0 140-39t87-105l-118-34q-13 29-40 46t-63 17q-35 0-61-18t-41-50-15-75q0-65 32-103t86-38q34 0 62 16t42 46l118-34q-27-65-89-104T282-7" horiz-adv-x="549" unicode="ç"/><glyph d="m178 734 201-104v-84l-201 93zM289-7q-75 0-132 33t-88 92-32 136q0 74 31 131t87 89 126 33q72 0 127-31t85-86 31-130q0-11-1-24t-4-29H175q4-32 20-54t41-35 56-13q37 0 66 15t43 41l113-34q-30-64-89-99T289-7m95 307q-1 28-15 50t-37 35-51 13q-25 0-47-12t-37-35-21-51z" horiz-adv-x="560" unicode="è"/><glyph d="M379 734v-96l-201-92v84zM289-7q-75 0-132 33t-88 92-32 136q0 74 31 131t87 89 126 33q72 0 127-31t85-86 31-130q0-11-1-24t-4-29H175q4-32 20-54t41-35 56-13q37 0 66 15t43 41l113-34q-30-64-89-99T289-7m95 307q-1 28-15 50t-37 35-51 13q-25 0-47-12t-37-35-21-51z" horiz-adv-x="560" unicode="é"/><glyph d="m414 546-130 74-130-74v88l130 71 130-71zM289-7q-75 0-132 33t-88 92-32 136q0 74 31 131t87 89 126 33q72 0 127-31t85-86 31-130q0-11-1-24t-4-29H175q4-32 20-54t41-35 56-13q37 0 66 15t43 41l113-34q-30-64-89-99T289-7m95 307q-1 28-15 50t-37 35-51 13q-25 0-47-12t-37-35-21-51z" horiz-adv-x="560" unicode="ê"/><glyph d="M203 570q-24 0-40 16t-16 41q0 24 16 41t40 17 41-17 17-41-17-40-41-17m161 0q-25 0-41 16t-16 41q0 24 16 41t41 17q23 0 40-17t17-41-17-40-40-17M289-7q-75 0-132 33t-88 92-32 136q0 74 31 131t87 89 126 33q72 0 127-31t85-86 31-130q0-11-1-24t-4-29H175q4-32 20-54t41-35 56-13q37 0 66 15t43 41l113-34q-30-64-89-99T289-7m95 307q-1 28-15 50t-37 35-51 13q-25 0-47-12t-37-35-21-51z" horiz-adv-x="560" unicode="ë"/><glyph d="m23 728 201-104v-84L23 633zm39-228h135V0H62z" horiz-adv-x="258" unicode="ì"/><glyph d="M224 728v-96L23 540v84zM62 500h135V0H62z" horiz-adv-x="258" unicode="í"/><glyph d="m259 540-130 74-130-74v88l130 71 130-71zM62 500h135V0H62z" horiz-adv-x="258" unicode="î"/><glyph d="M48 564q-24 0-40 16t-16 41q0 24 16 41t40 17 41-17 17-41-17-40-41-17m161 0q-25 0-41 16t-16 41q0 24 16 41t41 17q24 0 40-17t17-41q0-24-16-40t-41-17M62 500h135V0H62z" horiz-adv-x="258" unicode="ï"/><glyph d="M505 668v-67l-43-13q45-70 69-148t24-154q0-97-34-162t-94-98T295-7q-73 0-131 31t-93 90-34 137q0 79 33 136t90 89 125 32q21 0 40-3t36-10 32-18q-10 18-21 38t-25 41l-107-32v67l69 22q-18 23-38 45t-42 42h138q28-26 54-57zM295 108q30 0 58 16t46 47 18 80q0 48-18 79t-45 47-59 16q-31 0-58-15t-44-47-17-80 16-79 44-48 59-16" horiz-adv-x="592" unicode="ð"/><glyph d="M147 550q9 58 38 85t70 28q25 0 42-10t32-19 33-10q14 0 24 9t14 29h63q-8-59-36-86t-71-27q-24 0-41 10t-33 19-32 10q-15 0-25-9t-14-29zm-85-50h116l9-51q24 27 58 42t75 16q59 0 100-25t64-72 23-118V0H378v275q0 58-23 87t-69 29q-47 0-71-29t-25-88V0H62z" horiz-adv-x="561" unicode="ñ"/><glyph d="m193 734 201-104v-84l-201 93zM289-7q-73 0-130 31t-89 89-33 136q0 79 33 137t92 89 130 32q72 0 130-31t92-89 34-136q0-79-34-137t-93-89T289-7m-1 115q31 0 59 15t46 47 18 81q0 47-17 78t-44 47-60 16q-31 0-57-15t-43-47-16-81q0-47 15-78t42-47 57-16" horiz-adv-x="585" unicode="ò"/><glyph d="M394 734v-96l-201-92v84zM289-7q-73 0-130 31t-89 89-33 136q0 79 33 137t92 89 130 32q72 0 130-31t92-89 34-136q0-79-34-137t-93-89T289-7m-1 115q31 0 59 15t46 47 18 81q0 47-17 78t-44 47-60 16q-31 0-57-15t-43-47-16-81q0-47 15-78t42-47 57-16" horiz-adv-x="585" unicode="ó"/><glyph d="m429 546-130 74-130-74v88l130 71 130-71zM289-7q-73 0-130 31t-89 89-33 136q0 79 33 137t92 89 130 32q72 0 130-31t92-89 34-136q0-79-34-137t-93-89T289-7m-1 115q31 0 59 15t46 47 18 81q0 47-17 78t-44 47-60 16q-31 0-57-15t-43-47-16-81q0-47 15-78t42-47 57-16" horiz-adv-x="585" unicode="ô"/><glyph d="M143 550q9 58 38 85t70 28q25 0 42-10t32-19 33-10q15 0 25 9t13 29h63q-8-59-36-86t-71-27q-24 0-41 10t-33 19-33 10q-14 0-24-9t-14-29zM289-7q-73 0-130 31t-89 89-33 136q0 79 33 137t92 89 130 32q72 0 130-31t92-89 34-136q0-79-34-137t-93-89T289-7m-1 115q31 0 59 15t46 47 18 81q0 47-17 78t-44 47-60 16q-31 0-57-15t-43-47-16-81q0-47 15-78t42-47 57-16" horiz-adv-x="585" unicode="õ"/><glyph d="M218 570q-24 0-40 16t-16 41q0 24 16 41t40 17 41-17 17-41-17-40-41-17m161 0q-25 0-41 16t-16 41q0 24 16 41t41 17q24 0 40-17t17-41q0-24-16-40t-41-17M289-7q-72 0-129 31t-90 89-33 136q0 79 33 137t92 89 130 32q72 0 130-31t92-89 34-136q0-79-34-137t-93-89T289-7m-1 115q31 0 59 15t46 47 18 81q0 47-17 78t-44 47-60 16q-31 0-57-15t-43-47-16-81q0-47 15-78t42-47 57-16" horiz-adv-x="585" unicode="ö"/><glyph d="M51 408h510V291H51zM312 50q-37 0-60 23t-24 58q0 33 23 56t61 24q36 0 59-23t24-58q0-33-23-56t-60-24m0 439q-37 0-60 23t-24 58q0 33 23 56t61 24q36 0 59-23t24-57q0-34-23-57t-60-24" horiz-adv-x="613" unicode="÷"/><glyph d="m418 447 72-51L191 68l-72 51zM289-7q-73 0-130 31t-89 89-33 136q0 79 33 137t92 89 130 32q72 0 130-31t92-89 34-136q0-79-34-137t-93-89T289-7m-1 115q31 0 59 15t46 47 18 81q0 47-17 78t-44 47-60 16q-31 0-57-15t-43-47-16-81q0-47 15-78t42-47 57-16" horiz-adv-x="585" unicode="ø"/><glyph d="m167 734 200-104v-84l-200 93zM501 0H384l-8 52q-25-28-59-43T243-7q-58 0-100 25T78 90 55 208v292h129V224q0-57 22-86t70-30q47 0 72 30t25 87v275h128z" horiz-adv-x="562" unicode="ù"/><glyph d="M367 734v-96l-200-92v84zM501 0H384l-8 52q-25-28-59-43T243-7q-58 0-100 25T78 90 55 208v292h129V224q0-57 22-86t70-30q47 0 72 30t25 87v275h128z" horiz-adv-x="562" unicode="ú"/><glyph d="m402 546-129 74-130-74v88l130 71 129-71zM501 0H384l-8 52q-25-28-59-43T243-7q-58 0-100 25T78 90 55 208v292h129V224q0-57 22-86t70-30q47 0 72 30t25 87v275h128z" horiz-adv-x="562" unicode="û"/><glyph d="M192 570q-24 0-40 16t-17 42q0 23 16 40t41 17q24 0 40-17t17-40q0-25-16-41t-41-17m160 0q-24 0-40 16t-17 42q0 23 16 40t41 17q24 0 41-17t17-40q0-25-17-41t-41-17M501 0H384l-8 52q-25-28-59-43T243-7q-58 0-100 25T78 90 55 208v292h129V224q0-57 22-86t70-30q47 0 72 30t25 87v275h128z" horiz-adv-x="562" unicode="ü"/><glyph d="M374 734v-96l-201-92v84zm31-234h137L247-200H118l94 218L15 500h143l122-329z" horiz-adv-x="557" unicode="ý"/><glyph d="M191-200H62v921h129V440q25 32 61 50t89 18q65 0 118-32t85-89 32-135q0-77-31-135t-85-91T341-7q-33 0-61 9t-51 26-38 38zm247 452q0 45-18 76t-47 47-59 16q-31 0-59-16t-46-47-18-77 17-77 46-48 60-16q31 0 59 16t46 48 19 78" horiz-adv-x="612" unicode="þ"/><glyph d="M198 570q-24 0-40 16t-17 41q0 24 16 41t41 17q24 0 40-17t17-41q0-24-16-40t-41-17m160 0q-24 0-40 16t-17 41q0 24 16 41t41 17q24 0 40-17t17-41q0-24-16-40t-41-17m47-70h137L247-200H118l94 218L15 500h143l122-329z" horiz-adv-x="557" unicode="ÿ"/><glyph d="M44 336h543V222H44z" horiz-adv-x="631" unicode="–"/><glyph d="M44 336h766V222H44z" horiz-adv-x="854" unicode="—"/><glyph d="m248 700-57-250H48l107 250z" horiz-adv-x="282" unicode="‘"/><glyph d="m35 450 57 250h143L128 450z" horiz-adv-x="282" unicode="’"/><glyph d="m35-100 57 247h143L128-100z" horiz-adv-x="282" unicode="‚"/><glyph d="m249 700-58-250H48l108 250zm198 0-57-250H246l108 250z" horiz-adv-x="481" unicode="“"/><glyph d="m233 450 57 250h143L326 450zm-198 0 57 250h143L128 450z" horiz-adv-x="481" unicode="”"/><glyph d="m35-100 57 247h143L128-100zm198 0 58 247h143L327-100z" horiz-adv-x="481" unicode="„"/><glyph d="M219 196q-37 0-68 18t-50 50-19 69q0 39 18 70t50 50 69 19q40 0 71-19t50-50 19-70q0-38-19-69t-50-49-71-19" horiz-adv-x="440" unicode="•"/><glyph d="M251 75H123L34 250l89 175h128l-92-175z" horiz-adv-x="292" unicode="‹"/><glyph d="m41 75 92 175-92 175h128l89-175-89-175z" horiz-adv-x="292" unicode="›"/></font>
</defs>
</svg>
