<svg xmlns="http://www.w3.org/2000/svg"><defs><font id="AlbertSans" horiz-adv-x="556"><font-face alphabetic="0" ascent="950" descent="-250" font-family="Albert Sans ExtraBold"/><glyph horiz-adv-x="280"/><glyph d="M65 700h168l-18-462H83zM149-8q-42 0-67 25T56 79q0 38 25 63t68 25q41 0 67-25t27-63q0-36-26-61T149-8" horiz-adv-x="298" unicode="!"/><glyph d="M37 700h131l-12-213H51zm180 0h131l-13-213H230z" horiz-adv-x="384" unicode="&quot;"/><glyph d="M294 700h146l-31-145h174l31 145h147l-31-145h126V416H700l-26-128h127V149H644L613 0H466l31 149H323L292 0H146l31 149H31v139h176l27 128H86v139h177zm59-412h174l26 128H380z" horiz-adv-x="886" unicode="#"/><glyph d="M262 775h64V-75h-64zm-82-569q6-29 22-48t41-28 57-10q53 0 80 23t27 57q0 28-16 45t-47 30-70 24q-40 11-80 25t-73 37-54 56-19 87q0 65 32 110t89 69 131 24q65 0 116-18t85-55 48-90l-142-31q-4 22-19 37t-38 23-45 9q-28 0-50-9t-36-26-14-39q0-25 15-40t43-27 59-22q41-13 83-28t79-38 58-60 22-91q0-59-28-106t-84-75T309-7q-72 0-129 21T86 75t-49 97z" horiz-adv-x="601" unicode="$"/><glyph d="M37 542q0 80 46 122t117 43q69 0 115-42t47-123q0-82-46-124t-116-43q-70 0-116 42T37 542m163 72q-25 0-39-17t-14-55 14-56 39-18q24 0 38 18t15 56q0 38-14 55t-39 17m347 86h151L309 0H158zm-52-541q0 82 46 124t116 42 116-42 46-124q0-81-46-123T657-7q-69 0-115 42t-47 124m161 73q-24 0-38-17t-14-56q0-38 14-55t38-18q24 0 38 17t15 56q0 39-14 56t-39 17" horiz-adv-x="856" unicode="%"/><glyph d="M371 546q-11 13-28 21t-43 8q-42 0-63-23t-21-63q0-31 17-47t44-23 64-7h259V293H341q-72 0-105-17t-34-68q0-26 10-44t30-29 51-10q51 0 71 25t21 79v150h151V229q0-85-31-137t-87-75T288-7q-76 0-129 25T77 89 49 195q0 46 15 77t44 52 64 33v4q-25 8-50 26t-43 49-17 74q0 55 27 99t79 71 128 27q63 0 113-19t82-55zm120 87-120-87zM341 412q16 0 28 6t18 20 7 36v41h147V412h102V293H541V191q0-35 15-48t46-14q7-1 18 0t24 3V5q-19-3-36-5t-33-3q-49 0-93 18t-70 61-27 115v103h-72v118z" horiz-adv-x="685" unicode="&amp;"/><glyph d="M40 700h131l-12-213H54z" horiz-adv-x="211" unicode="'"/><glyph d="M249-100Q183-50 138 20T68 175 44 349q0 90 24 173t72 155 120 123h156v-12q-74-57-123-128t-75-151-25-160q0-81 24-160t72-150T404-88v-12z" horiz-adv-x="452" unicode="("/><glyph d="M204-100H49v12q68 56 114 127t71 150 25 160q0 80-25 159t-74 151T37 788v12h155q71-52 119-123t73-154 25-174q0-90-24-174T315 21 204-100" horiz-adv-x="452" unicode=")"/><glyph d="m269 603 106 87 54-95-127-46 127-44-57-99-103 88 24-134H183l22 134-103-90-58 102 126 45-126 43 55 97 107-88-24 136h112z" horiz-adv-x="472" unicode="*"/><glyph d="M375 605V95H227v510zM46 418h510V281H46z" horiz-adv-x="602" unicode="+"/><glyph d="M89 153h152L128-133H28z" horiz-adv-x="287" unicode=","/><glyph d="M46 345h432V215H46z" horiz-adv-x="525" unicode="-"/><glyph d="M140-8Q98-8 72 17T46 79t26 62 68 26q41 0 67-25t26-63q0-36-26-61T140-8" horiz-adv-x="280" unicode="."/><glyph d="M241 800h151L151-100H0z" horiz-adv-x="392" unicode="/"/><glyph d="M49 350q0 79 14 145t46 113 85 73 131 26q77 0 130-26t85-73 46-113 14-145q0-80-14-146T540 91t-85-72T325-7q-78 0-131 25t-85 73-46 113-14 146m394 0q0 44-3 84t-15 72-35 50-65 19q-42 0-65-18t-35-50-15-72-4-85q0-47 3-87t15-71 35-49 66-18q41 0 64 18t35 48 15 71 4 88" horiz-adv-x="649" unicode="0"/><glyph d="M129 571H31v129h252V0H129z" horiz-adv-x="345" unicode="1"/><glyph d="m43 113 189 178q52 49 82 81t43 60 13 58q0 39-21 62t-66 23q-28 0-48-13t-31-39-13-64H42q2 86 35 140t90 81 122 27q81 0 134-28t78-76 26-107q0-45-14-84t-50-82-98-101L256 129h285V0H43z" horiz-adv-x="588" unicode="2"/><glyph d="M50 495q3 70 34 117t86 71 126 24q76 0 128-26t79-71 27-100q0-43-17-73t-42-49-51-27v-4q36-12 64-32t43-52 16-78q0-60-28-105t-81-71T304-7q-76 0-134 22T78 87 41 219h151q2-49 27-71t80-23q31 0 51 10t30 28 10 45q0 50-33 67t-106 18h-30v119h30q35 0 63 6t45 23 17 48q0 40-21 63t-63 23q-31 0-50-11t-28-29-12-40z" horiz-adv-x="592" unicode="3"/><glyph d="M373 141H31v119l321 440h176V271h86V141h-86V0H373zm10 130v260L197 271z" horiz-adv-x="655" unicode="4"/><glyph d="M519 700V571H214V423q20 23 50 36t75 14q61 0 103-20t70-55 41-75 13-81q0-76-31-132t-88-86T311-7q-80 0-137 27T86 95 49 204h152q7-32 33-55t74-24q35 0 57 14t33 40 11 62q0 53-26 80t-77 27q-38 0-63-20t-33-49H59v421z" horiz-adv-x="612" unicode="5"/><glyph d="M309-7q-77 0-137 32t-95 88-35 129q0 54 22 111t68 118l174 229h170L270 434 136 283q16 87 72 135t135 49q64 0 116-27t83-78 32-123q0-74-36-129t-96-86T309-7M198 238q0-34 13-60t38-40 60-14q34 0 58 14t37 40 13 60q0 35-12 60t-37 38-59 14q-35 0-60-13t-38-39-13-60" horiz-adv-x="611" unicode="6"/><glyph d="M514 700V585L255 0H97l260 571H31v129z" horiz-adv-x="544" unicode="7"/><glyph d="M158 373q-43 22-69 59t-27 92q0 50 27 91t82 67 140 25q84 0 139-25t83-67 27-91q0-54-27-92t-69-59q53-22 83-65t31-104q0-67-35-114t-96-72T311-7 176 17 80 89 45 204q0 60 30 103t83 66m247 129q0 43-25 62t-69 20q-44 0-69-19t-25-63q0-40 25-63t69-24q42 0 68 23t26 64m-94-193q-34 0-58-11t-38-33-13-54q0-43 26-69t83-26q54 0 82 26t28 69q0 31-13 53t-38 33-59 12" horiz-adv-x="622" unicode="8"/><glyph d="M302 707q77 0 137-32t95-88 35-129q0-54-22-111t-69-118L305 0H135l206 266 134 151q-16-87-72-135t-136-49q-63 0-115 27t-84 78-31 123q0 74 36 129t96 86 133 31m111-245q0 35-13 60t-39 40-59 14q-35 0-59-14t-37-39-13-61q0-34 13-59t37-39 59-14q34 0 59 13t38 39 14 60" horiz-adv-x="611" unicode="9"/><glyph d="M143-8q-42 0-68 25T49 79t26 62 68 26q41 0 67-25t26-63q0-36-26-61T143-8m0 411q-42 0-68 25t-26 62 26 62 68 26q41 0 67-25t26-63q0-36-26-61t-67-26" horiz-adv-x="286" unicode=":"/><glyph d="M165 397q-42 0-68 25t-26 62 26 62 68 26q41 0 67-25t26-63q0-36-26-61t-67-26M92 153h152L131-133H31z" horiz-adv-x="308" unicode=";"/><glyph d="M452 128H257L46 350l211 223h195L241 350z" horiz-adv-x="514" unicode="&lt;"/><glyph d="M56 294h553V158H56zm0 248h553V405H56z" horiz-adv-x="664" unicode="="/><glyph d="M272 350 62 573h195l210-223-210-222H62z" horiz-adv-x="513" unicode="&gt;"/><glyph d="M275 707q69 0 121-24t82-72 30-116q0-66-29-110t-80-68-117-23l-5-77H140l-5 179h53q37 0 67 4t52 15 33 30 12 50q-1 27-10 44t-26 27-44 10q-41 0-63-21t-22-61H41q-1 60 25 108t80 77 129 28M211-8q-41 0-67 25t-27 62q0 38 26 63t68 25 68-25 26-63q0-36-26-61T211-8" horiz-adv-x="549" unicode="?"/><glyph d="m578 174 22-62q-24-55-76-87T409-7q-76 0-118 45t-42 123q0 55 17 106t48 90 75 63 96 23q57 0 89-26t40-75l-23-16 19 109h128l-46-260q-6-36 0-57t39-22q27 0 46 19t33 51 19 69 6 72q0 79-33 135t-95 85-152 30q-86 0-159-32t-128-88-85-131-30-162q0-82 32-139t94-87 149-30q46 0 91 8t83 27l24-100q-49-22-103-32t-113-10q-114 0-198 43T81-53 34 132q0 113 40 210t112 169 171 111 214 40q119 0 205-44t132-123 46-183q0-61-16-118T891 92t-77-71T708-6q-73 0-107 40t-25 108zm-80 156q-34 0-59-20t-39-52-15-70q0-36 18-58t56-23q32 0 59 18t43 50 16 69q0 25-9 44t-26 31-44 11" horiz-adv-x="1010" unicode="@"/><glyph d="M401 571h-35L166 0H7l253 700h250L762 0H603zM176 280h408V151H176z" horiz-adv-x="768" unicode="A"/><glyph d="M473 494q0 39-25 58t-71 19H216V417h160q46 0 71 19t26 58M62 0v700h342q73 0 123-23t76-65 27-96q0-47-17-78t-48-50-70-26v-8q47-6 81-26t52-54 18-84q0-56-27-99t-78-67T416 0zm154 129h175q47 0 73 21t27 61q0 42-28 62t-75 21H216z" horiz-adv-x="687" unicode="B"/><glyph d="M31 350q0 78 26 143t74 114 112 74 141 26q113 0 197-55t122-154l-132-33q-19 40-48 64t-64 36-74 12q-60 0-105-29t-69-81-25-117q0-67 24-118t70-80 105-29q40 0 76 12t67 40 52 75l130-30Q670 109 585 51T384-7q-76 0-141 26T131 92 58 205 31 350" horiz-adv-x="750" unicode="C"/><glyph d="M335 700q112 0 194-43t129-123 46-185q0-105-46-183T530 44 335 0H62v700zm-8-571q105 0 162 59t58 161q0 103-57 162t-163 60H216V129z" horiz-adv-x="735" unicode="D"/><glyph d="M570 571H216V416h265V294H216V129h354V0H62v700h508z" horiz-adv-x="611" unicode="E"/><glyph d="M62 700h508V571H216V416h265V294H216V0H62z" horiz-adv-x="597" unicode="F"/><glyph d="M565 474q-29 53-73 77t-100 25q-58 0-104-29t-73-81-27-116q0-68 26-118t73-79 110-29q39 0 72 13t59 38 44 55v44H392v122h325V202q-24-55-70-102T536 23 388-7q-78 0-143 26T132 93 58 206 31 350q0 78 26 143t74 114 113 74 143 26q73 0 137-23t113-66 71-106z" horiz-adv-x="754" unicode="G"/><glyph d="M62 700h154V420h287v280h155V0H503v290H216V0H62z" horiz-adv-x="719" unicode="H"/><glyph d="M62 700h154V0H62z" horiz-adv-x="277" unicode="I"/><glyph d="M336 700h154V218q0-72-29-122t-80-76T263-7q-87 0-145 42T41 157l138 32q5-21 16-36t28-23 36-8q23 0 40 11t27 31 10 46z" horiz-adv-x="549" unicode="J"/><glyph d="M62 700h154V420h45l231 280h185L397 356 686 0H492L261 290h-45V0H62z" horiz-adv-x="695" unicode="K"/><glyph d="M216 700V129h308V0H62v700z" horiz-adv-x="545" unicode="L"/><glyph d="M216 0H62v700h179l208-499 208 499h180V0H682v426L511 0H387L216 426z" horiz-adv-x="898" unicode="M"/><glyph d="M656 700V0H500L216 455V0H62v700h156l283-457v457z" horiz-adv-x="717" unicode="N"/><glyph d="M390-7q-75 0-140 26T136 92 59 205 31 350t28 144 77 113 114 74 140 26q74 0 139-26t114-73 77-113 28-145-28-144-77-113-114-74T390-7m0 132q59 0 104 28t71 80 26 117q0 67-25 117t-71 79-105 29q-61 0-106-28t-70-79-26-118q0-66 25-117t71-79 106-29" horiz-adv-x="778" unicode="O"/><glyph d="M359 384q36 0 59 11t34 32 12 51q0 43-25 68t-80 25H216V384zm262 94q0-41-14-80t-45-72-79-52-116-19H216V0H62v700h305q85 0 141-30t85-81 28-111" horiz-adv-x="653" unicode="P"/><glyph d="M325 226h129V-90H325zM390-7q-75 0-140 26T136 92 59 205 31 350t28 144 77 113 114 74 140 26q74 0 139-26t115-73 76-113 28-145q0-79-28-144T643 93 529 19 390-7m0 132q59 0 104 28t71 80 26 117q0 67-25 117t-71 79-105 29q-61 0-106-28t-70-79-26-118q0-66 25-117t71-79 106-29" horiz-adv-x="778" unicode="Q"/><glyph d="M464 478q0 43-25 68t-80 25H216V384h143q36 0 59 11t34 32 12 51m-97 222q85 0 141-30t85-81 28-111q0-41-14-80t-45-72-79-52-116-19H216V0H62v700zm81-392L635 0H464L286 308z" horiz-adv-x="666" unicode="R"/><glyph d="M180 206q6-29 22-48t41-28 57-10q53 0 80 23t27 57q0 28-16 45t-47 30-70 24q-40 11-80 25t-73 37-54 56-19 87q0 65 32 110t89 69 131 24q65 0 116-18t85-55 48-90l-142-31q-4 22-19 37t-38 23-45 9q-28 0-50-9t-36-26-14-39q0-25 15-40t43-27 59-22q41-13 83-28t79-38 58-60 22-91q0-59-28-106t-84-75T309-7q-72 0-129 21T86 75t-49 97z" horiz-adv-x="601" unicode="S"/><glyph d="M31 700h588V571H402V0H248v571H31z" horiz-adv-x="650" unicode="T"/><glyph d="M58 700h155V263q0-44 18-75t49-47 74-16 75 15 51 47 18 76v437h155V275q0-71-24-124t-67-88-97-52T352-7q-79 0-146 31T99 117 58 275z" horiz-adv-x="711" unicode="U"/><glyph d="M552 700h165L465 0H273L20 700h166l183-543z" horiz-adv-x="738" unicode="V"/><glyph d="M393 0H207L20 700h168l113-519 130 519h173l127-518 114 518h167L826 0H640L517 478z" horiz-adv-x="1033" unicode="W"/><glyph d="M41 700h179l168-235 162 235h178L481 350 728 0H550L388 235 220 0H41l254 350z" horiz-adv-x="769" unicode="X"/><glyph d="M527 700h176L439 238V0H284v237L20 700h176l166-307z" horiz-adv-x="723" unicode="Y"/><glyph d="M567 580 220 129h347V0H41v119l345 452H41v129h526z" horiz-adv-x="607" unicode="Z"/><glyph d="M58 800h276V673H204V27h130v-127H58z" horiz-adv-x="371" unicode="["/><glyph d="M392-100H241L0 800h150z" horiz-adv-x="392" unicode="\"/><glyph d="M312 800v-900H37V27h129v646H37v127z" horiz-adv-x="371" unicode="]"/><glyph d="M357 518 198 250H40l241 450h150l241-450H514z" horiz-adv-x="712" unicode="^"/><glyph d="M-2-41h604v-148H-2z" horiz-adv-x="600" unicode="_"/><glyph d="m9 819 236-117V593L9 696z" horiz-adv-x="255" unicode="`"/><glyph d="m345 0-10 62q-26-32-56-50T199-6q-47 0-84 16T57 59t-22 77q0 62 44 103t139 51l117 13v33q0 17-16 33t-52 17q-31 0-53-16t-31-46L58 369q22 67 77 102t138 36q102 0 155-51t53-137V0zm-10 213-93-11q-28-4-42-17t-15-34q0-19 16-32t44-13 48 11 31 33 11 54z" horiz-adv-x="530" unicode="a"/><glyph d="M182 423q22 35 62 59t99 25q63 0 112-31t78-89 28-137q0-78-28-136t-78-89T343-7q-49 0-88 20t-58 50l-9-63H56v720h146V422zm222-173q0 55-28 89t-73 34q-28 0-51-14t-36-42-14-67q0-40 13-67t37-41 51-14q45 0 73 33t28 89" horiz-adv-x="592" unicode="b"/><glyph d="M281-7q-73-1-129 31t-87 90-31 135q0 76 31 134t87 91 129 33q83 0 145-41t88-114l-138-34q-10 27-33 42t-53 15-53-16-35-44-13-66q0-56 28-90t73-34q29 0 52 14t36 42l137-35q-25-69-88-110T281-7" horiz-adv-x="548" unicode="c"/><glyph d="m413 423-20-1v298h146V0H407l-9 63q-20-29-59-49T252-7q-63 0-112 31t-78 90-28 136q0 79 28 136t77 89 113 32q57 0 98-24t63-60M191 250q0-55 28-88t73-34q27 0 50 14t37 41 14 67-14 67-37 41-50 15q-46 0-73-34t-28-89" horiz-adv-x="594" unicode="d"/><glyph d="M288-7q-77 0-134 32t-88 92-32 138q0 73 31 130t87 89 127 33q75 0 130-30t86-87 31-130q0-12-1-25t-3-29H190q5-27 19-46t35-30 50-11q31 0 56 13t37 37l131-36q-30-67-90-103T288-7m79 308q-1 25-13 44t-31 30-42 10-41-11-32-29-16-44z" horiz-adv-x="559" unicode="e"/><glyph d="M82 537q0 71 26 114t77 60 122 9V590q-40 6-59-10t-20-54v-26h83V371h-83V0H82v371H25v129h57z" horiz-adv-x="337" unicode="f"/><glyph d="M407 500h132V72q0-85-42-145t-121-94-193-33L162-79q113 1 172 37t59 106v2l21 12q-22-34-63-59T253-7q-64 0-113 31t-78 90-28 136q0 79 28 136t77 89 114 32q32 0 60-9t50-25 35-36zM191 250q0-55 28-89t73-34q27 0 50 15t37 42 14 66q0 40-14 67t-37 41-49 14q-46 0-74-33t-28-89" horiz-adv-x="594" unicode="g"/><glyph d="M56 720h146V448q23 26 56 42t77 17q57 0 99-25t65-73 23-117V0H368v274q0 50-20 76t-62 26-63-30-21-81V0H56z" horiz-adv-x="571" unicode="h"/><glyph d="M75 500h146V0H75zm73 51q-41 0-66 24t-26 60q0 36 25 60t67 25q40 0 65-24t26-61q0-35-25-59t-66-25" horiz-adv-x="294" unicode="i"/><glyph d="M69 42q0-46-29-78t-82-37l22-127q60 2 114 29t87 81 34 131v459H69zm73 509q-40 0-66 24t-26 60 26 60 66 25q41 0 66-24t26-61q0-35-25-59t-67-25" horiz-adv-x="287" unicode="j"/><glyph d="M56 720h147V314h27l152 186h190L359 253 573 0H383L229 193h-26V0H56z" horiz-adv-x="584" unicode="k"/><glyph d="M56 720h146V0H56z" horiz-adv-x="257" unicode="l"/><glyph d="M56 500h132l10-51q24 26 57 42t72 16q46 0 85-20t64-58q28 35 69 56t92 22q59 0 102-25t68-73 24-117V0H685v274q0 48-22 73t-62 26q-42 0-65-26t-23-76V0H367v274q0 48-20 73t-61 26q-42 0-63-26t-21-74V0H56z" horiz-adv-x="881" unicode="m"/><glyph d="M56 500h132l10-54q25 27 59 44t74 17q59 0 99-25t62-73 22-117V0H368v274q0 50-20 76t-62 26-63-26-21-77V0H56z" horiz-adv-x="563" unicode="n"/><glyph d="M288-7q-73 0-131 31t-90 89-33 137q0 79 33 136t92 89 131 32q74 0 132-31t93-89 34-136q0-80-34-138t-94-89T288-7m0 132q26 0 50 14t39 41 15 70q0 42-15 69t-38 42-49 14q-28 0-50-14t-35-41-14-70q0-42 13-69t35-42 49-14" horiz-adv-x="581" unicode="o"/><glyph d="m182 77 20 1v-278H56v700h132l9-63q19 29 58 49t88 21q63 0 112-31t77-89 29-137q0-78-28-136t-77-89T343-7q-58 0-98 25t-63 59m222 173q0 55-28 88t-73 34q-28 0-51-14t-36-41-14-67q0-39 13-66t37-42 51-15q45 0 73 34t28 89" horiz-adv-x="594" unicode="p"/><glyph d="M413 77q-22-34-63-59T252-7q-64 0-113 31t-77 90-28 136q0 79 28 136t77 89 113 32q48 0 87-20t59-50l9 63h132v-700H393V78zM191 250q0-55 27-89t74-34q26 0 49 14t37 42 15 67q0 40-14 67t-38 41-49 14q-45 0-73-33t-28-89" horiz-adv-x="594" unicode="q"/><glyph d="M56 500h133l10-66q19 26 45 43t59 24 72-1V362q-26 9-56 6t-57-20-43-49-17-81V0H56z" horiz-adv-x="393" unicode="r"/><glyph d="M166 164q5-20 16-31t28-16 33-5q31 0 48 11t17 28-12 25-33 14-42 11q-25 6-56 14t-59 24-46 42-18 67q0 46 25 82t71 56 109 21q77 0 126-32t70-90l-127-32q-5 13-15 20t-24 11-29 4q-26 0-41-10t-15-25q0-10 6-17t18-11 27-7 34-8q30-7 61-17t59-26 44-44 18-71q0-44-25-80t-73-58T244-7q-83 0-139 34T34 132z" horiz-adv-x="491" unicode="s"/><glyph d="M95 500v140h149V500h103V371H244V191q0-34 15-48t40-14 48 3V5q-51-9-97-6t-80 25-55 62-20 105v180H25v129z" horiz-adv-x="373" unicode="t"/><glyph d="M509 0H376l-10 55q-25-28-58-45T234-7q-56 0-97 25T73 91 50 208v292h146V226q0-50 20-76t63-26q40 0 62 27t22 77v272h146z" horiz-adv-x="564" unicode="u"/><glyph d="m176 500 106-328 106 328h157L363 0H200L19 500z" horiz-adv-x="563" unicode="v"/><glyph d="M314 0H160L19 500h152l70-304 77 304h149l75-306 70 306h151L622 0H463l-74 287z" horiz-adv-x="781" unicode="w"/><glyph d="M22 500h172l94-145 93 145h171L376 251 552 0H381l-93 145L194 0H22l177 251z" horiz-adv-x="575" unicode="x"/><glyph d="M400 500h158L262-200H113l99 223L14 500h163l111-299z" horiz-adv-x="573" unicode="y"/><glyph d="M450 383 223 129h230V0H37v116l225 255H38v129h412z" horiz-adv-x="489" unicode="z"/><glyph d="M34 399q33 2 54 10t32 22 10 33q0 26-5 60t-10 71-5 67q0 67 50 102t130 36h71V696h-41q-31 0-46-11t-15-35q0-23 4-56t9-69 4-65q0-42-25-71t-80-38v-2q55-9 80-37t25-72q0-29-4-64t-8-68-5-57q0-23 15-35t46-12h41v-104h-71q-80 0-130 36T110 39q0 32 5 67t10 69 5 61q0 19-10 33t-31 22-55 10z" horiz-adv-x="395" unicode="{"/><glyph d="M228 800v-900H74v900z" horiz-adv-x="302" unicode="|"/><glyph d="M361 399v-98q-33-1-54-9t-32-23-10-33q0-26 5-60t9-70 5-67q0-67-49-103t-130-36H34V4h40q33 0 47 12t14 35q0 24-4 56t-8 68-4 65q0 43 25 71t80 38v2q-54 8-79 37t-26 72q0 30 4 65t8 68 4 57-14 35-47 11H34v104h71q80 0 129-35t50-103q0-31-4-67t-10-70-5-61q0-19 10-33t31-22 55-10" horiz-adv-x="395" unicode="}"/><glyph d="M44 249q17 108 67 155t121 48q32 0 57-10t46-23 41-22 43-10q24 0 41 15t23 50h115q-18-108-68-155t-121-48q-33 0-58 9t-46 23-40 23-42 10q-26 0-43-16t-23-49z" horiz-adv-x="641" unicode="~"/><glyph horiz-adv-x="280"/><glyph d="M149 571q41 0 67-25t27-62q0-37-26-62t-68-26q-42 0-67 25t-26 63q0 36 25 61t68 26M65-137l18 463h132l18-463z" horiz-adv-x="298" unicode="¡"/><glyph d="M257 600h64V419h-64zm0-504h64v-196h-64zM281-7q-73-1-129 31t-87 90-31 135q0 76 31 134t87 91 129 33q83 0 145-41t88-114l-138-34q-10 27-33 42t-53 15-53-16-35-44-13-66q0-56 28-90t73-34q29 0 52 14t36 42l137-35q-25-69-88-110T281-7" horiz-adv-x="548" unicode="¢"/><glyph d="M344 707q79 0 130-30t78-81 29-113H438q-1 41-22 68t-70 27q-27 0-48-11t-32-34-12-60q0-29 7-52t16-46 17-46 7-51q0-38-14-79t-51-76h350V0H88L65 78q30 28 49 56t30 62 10 83q0 24-7 44t-17 41-16 51-8 72q0 69 30 118t84 75 124 27m116-310V291H43v106z" horiz-adv-x="622" unicode="£"/><glyph d="M276 557q59 0 104-21t72-62 27-96-27-95-73-63-104-23q-59 0-104 22t-71 63-26 96q0 56 26 96t71 61 105 22m-1-91q-31 0-54-22t-24-67q0-44 23-65t55-22q20 0 38 9t29 29 12 49q0 31-11 50t-29 29-39 10m-132-18-93 93 63 62 101-101zm193 54 102 101 62-62-103-102zm72-194 92-92-62-62-96 95zm-187-45L113 154l-63 62 96 96z" horiz-adv-x="549" unicode="¤"/><glyph d="M445 417h194V311H441zM83 242h556V135H83zm0 175h228l4-106H83zm444 283h176L439 238V0H284v237L20 700h176l166-307z" horiz-adv-x="723" unicode="¥"/><glyph d="M230 286v-386H74v386zM74 414v386h156V414z" horiz-adv-x="303" unicode="¦"/><glyph d="M63 572q0 57 44 96t126 39q74 0 118-38t48-102H282q-2 19-7 31t-17 18-27 7q-23 0-36-10t-14-33q0-16 10-29t35-26 71-32q40-17 69-37t44-46 16-60q0-32-15-59t-48-47-87-33l14 53q34-15 58-35t38-46 13-55q0-57-44-96T230-7q-74 0-118 38T64 133h116q1-18 7-30t17-19 27-7q24 0 37 10t14 33q0 17-10 29t-36 26-70 32q-41 18-70 38t-44 46-15 59 15 61 47 47 87 25l-14-47q-34 16-58 36t-38 45-13 55m240-222q0 27-19 46t-53 19-52-19-19-46q0-27 19-46t53-20q34 0 52 19t19 47" horiz-adv-x="463" unicode="§"/><glyph d="M79 620q-30 0-50 20T9 689q0 30 20 50t50 21q30 0 50-20t20-51q0-29-20-49t-50-20m192 0q-29 0-49 20t-20 49q0 30 20 50t49 21q31 0 50-20t20-51q0-29-19-49t-51-20" horiz-adv-x="351" unicode="¨"/><glyph d="M393 707q105 0 183-45t123-124 45-186q0-106-44-187T577 39 393-7Q289-7 210 38T87 165 42 352q0 106 44 185t124 125 183 45m0-53q-90 0-156-37T136 513t-36-161q0-92 35-160T237 85t156-39q91 0 156 38t102 107 36 161q0 93-36 160T550 617t-157 37m-1-561q-73-1-128 31t-88 90-32 134q0 77 31 135t88 91 129 33q83 0 145-41t88-114l-138-34q-10 27-33 42t-52 15q-31 0-53-16t-36-44-14-67q0-55 28-89t74-34q29 0 52 14t36 42l137-35q-25-69-88-111T392 93" horiz-adv-x="785" unicode="©"/><glyph d="M26 530q0 56 22 96t60 62 84 22q45 0 74-14t47-36v45h119V354H313v43q-16-21-45-35t-73-14q-48 0-86 22t-60 64-23 96m122-1q0-43 25-65t58-23q32 0 57 23t25 65q0 44-25 66t-57 23q-33 0-58-23t-25-66" horiz-adv-x="469" unicode="ª"/><glyph d="M263 75H117L31 250l86 175h146l-90-175zm216 0H334l-87 175 87 175h145l-89-175z" horiz-adv-x="516" unicode="«"/><glyph d="M28 440h603V188H475v133H28z" horiz-adv-x="668" unicode="¬"/><glyph d="M40 345h433V215H40z" horiz-adv-x="513" unicode="­"/><glyph d="M42 493q0 63 27 111t76 75 112 28q63 0 111-27t76-76 28-111q0-63-27-111t-76-76-112-28-111 28-76 76-28 111m57 0q0-48 19-84t55-57 84-20q48 0 84 20t55 56 19 85q0 48-19 84t-55 56-84 21q-48 0-83-20t-55-57-20-84m68 109V389h70v74h39q34 0 55 19t22 51q0 31-21 50t-56 19zm118-213h79l-59 96-73-1zm-20 154q8 0 13-3t5-12q0-8-5-11t-12-4h-30v30z" horiz-adv-x="513" unicode="®"/><glyph d="M9 739h391V630H9z" horiz-adv-x="410" unicode="¯"/><glyph d="M18 526q0 55 26 94t71 59 104 21q60 0 105-20t70-60 25-94q0-56-25-95t-70-60-105-21q-89 0-145 46T18 526m281-2q0 49-25 70t-55 21-55-21-26-70q0-48 25-68t56-21q30 0 55 20t25 69" horiz-adv-x="438" unicode="°"/><glyph d="M415 605V139H267v466zM86 478h510V342H86zm0-245h510V96H86z" horiz-adv-x="682" unicode="±"/><glyph d="M28 585q3 54 45 88t116 34q49 0 81-16t48-42 16-53q0-25-7-44t-28-36-59-38l-115-66 4 31h202v-93H33v88l118 77q28 19 43 35t15 38q0 15-9 24t-21 9q-15 0-23-9t-10-27z" horiz-adv-x="366" unicode="²"/><glyph d="M32 591q2 31 20 57t53 43 88 16q45 0 79-13t53-38 19-54q0-31-18-48t-48-25v-3q34-10 52-30t19-53q0-44-43-72t-113-28q-82 0-122 32t-44 87h120q3-18 13-26t26-9q16 0 26 9t11 27q0 18-11 27t-32 10h-34v57h28q21 0 32 7t12 26q0 15-9 24t-28 9q-16 0-24-8t-13-24z" horiz-adv-x="382" unicode="³"/><glyph d="M245 819V695L9 593v109z" horiz-adv-x="255" unicode="´"/><glyph d="M547 0H391v52q-21-24-49-37T280-1q-13-1-24-1t-23 4-22 6v-208H56v700h155V227q0-48 24-73t65-26q41 0 66 26t25 75v271h156z" horiz-adv-x="601" unicode="µ"/><glyph d="M614 700V0H483v581h-63V0H290v276h-21q-84 0-136 29t-77 78-25 105 24 104 77 78 137 30z" horiz-adv-x="675" unicode="¶"/><glyph d="M135 232q-42 0-68 25t-26 62 26 62 68 26q41 0 67-25t26-63q0-36-26-61t-67-26" horiz-adv-x="269" unicode="·"/><glyph d="M163-40q32 0 62-11t49-36 19-65q0-38-19-63t-51-38-66-12H9v87h125q21 0 32 6t12 23q0 17-11 23t-33 6H67V7h96z" horiz-adv-x="303" unicode="¸"/><glyph d="M79 613H20v87h177V350H79z" horiz-adv-x="238" unicode="¹"/><glyph d="M25 529q0 54 25 94t71 63 104 23q59 0 104-22t70-63 26-95q0-53-25-94t-71-65-105-23q-60 0-104 23t-70 64-25 95m279-1q0 46-24 68t-56 22q-31 0-54-22t-24-68q0-44 23-66t55-23q31 0 55 22t25 67" horiz-adv-x="450" unicode="º"/><glyph d="m253 75 90 175-90 175h146l86-175-86-175zM37 75l89 175-89 175h145l87-175-87-175z" horiz-adv-x="515" unicode="»"/><glyph d="M454 700h150L224 0H73zm264-568V64h-41V0H559v64H366v62l147 226h164V132zm-155 2v138l-83-138zM79 613H20v87h177V350H79z" horiz-adv-x="743" unicode="¼"/><glyph d="M453 700h151L224 0H73zM79 613H20v87h177V350H79zm330-380q3 54 45 88t116 34q49 0 81-16t48-42 16-53q0-25-7-44t-28-36-59-38L506 60l4 31h202V-2H414v88l118 77q28 19 43 35t15 38q0 15-9 24t-21 9q-15 0-23-9t-10-27z" horiz-adv-x="756" unicode="½"/><glyph d="M549 700h149L318 0H169zm263-568V64h-41V0H653v64H460v62l140 226h171V132zm-154 0v147l-83-147zM25 591q2 31 20 57t53 43 88 16q46 0 80-13t52-38 19-54q0-31-17-48t-49-25v-3q34-10 52-30t19-53q0-44-43-72t-113-28q-82 0-122 32t-44 87h121q2-18 12-26t26-9q17 0 27 9t11 27q0 18-12 27t-32 10h-34v57h29q20 0 31 7t12 26q0 15-9 24t-27 9q-16 0-25-8t-12-24z" horiz-adv-x="833" unicode="¾"/><glyph d="M338 569q42 0 68-25t26-62-26-62-68-26q-41 0-67 25t-27 63q0 36 26 61t68 26m-64-715q-69 0-121 25T71-49 41 67q0 66 29 110t81 67 117 24l5 76h136l5-179h-52q-38 0-68-4t-52-14-33-31-11-50q0-26 9-43t27-27 44-10q41 0 62 21t22 61h146q2-60-25-108t-80-77-129-29" horiz-adv-x="549" unicode="¿"/><glyph d="m262 979 235-116V754L262 857zm139-408h-35L166 0H7l253 700h250L762 0H603zM176 280h408V151H176z" horiz-adv-x="768" unicode="À"/><glyph d="M497 979V856L262 754v109zm-96-408h-35L166 0H7l253 700h250L762 0H603zM176 280h408V151H176z" horiz-adv-x="768" unicode="Á"/><glyph d="m536 756-152 82-151-82v110l151 80 152-80zM401 571h-35L166 0H7l253 700h250L762 0H603zM176 280h408V151H176z" horiz-adv-x="768" unicode="Â"/><glyph d="M194 757q10 73 45 106t87 34q29 0 49-11t39-23 38-12q17 0 28 11t15 33h82q-12-73-47-106t-84-33q-30 0-51 11t-39 23-38 11q-17 0-28-10t-15-34zm207-186h-35L166 0H7l253 700h250L762 0H603zM176 280h408V151H176z" horiz-adv-x="768" unicode="Ã"/><glyph d="M287 781q-30 0-50 20t-20 49q0 30 20 50t50 21q29 0 50-20t21-51q0-29-21-49t-50-20m193 0q-30 0-50 20t-20 49q0 30 20 50t50 21q29 0 49-20t21-51q0-29-20-49t-50-20m-79-210h-35L166 0H7l253 700h250L762 0H603zM176 280h408V151H176z" horiz-adv-x="768" unicode="Ä"/><glyph d="M504 859q0-55-35-86t-85-32q-49 0-84 31t-36 87q0 55 35 86t85 32q50 0 85-31t35-87m-72 1q0 22-14 35t-34 14q-20 0-33-13t-14-36q0-23 13-36t34-14q20 0 34 13t14 37m-31-289h-35L166 0H7l253 700h250L762 0H603zM176 280h408V151H176z" horiz-adv-x="768" unicode="Å"/><glyph d="M631 571V416h161V293H631V129h259V0H477v150H252L175 0H7l366 700h517V571zM318 280h159v306z" horiz-adv-x="931" unicode="Æ"/><glyph d="M433-42q32 0 61-11t49-36 20-64-19-64-51-37-65-13H279v87h126q20 0 31 6t12 23q0 17-11 23t-32 6h-68V5h96zM31 350q0 78 26 143t74 114 112 74 141 26q113 0 197-55t122-154l-132-33q-19 40-48 64t-64 36-74 12q-60 0-105-29t-69-81-25-117q0-67 24-118t70-80 105-29q40 0 76 12t67 40 52 75l130-30Q670 109 585 51T384-7q-76 0-141 26T131 92 58 205 31 350" horiz-adv-x="750" unicode="Ç"/><glyph d="m189 979 236-116V754L189 857zm381-408H216V416h265V294H216V129h354V0H62v700h508z" horiz-adv-x="611" unicode="È"/><glyph d="M425 979V856L189 754v109zm145-408H216V416h265V294H216V129h354V0H62v700h508z" horiz-adv-x="611" unicode="É"/><glyph d="m464 756-152 82-152-82v110l152 80 152-80zm106-185H216V416h265V294H216V129h354V0H62v700h508z" horiz-adv-x="611" unicode="Ê"/><glyph d="M215 781q-30 0-50 20t-20 49q0 30 20 50t50 21q29 0 49-20t21-51q0-29-20-49t-50-20m193 0q-30 0-50 20t-20 49q0 30 20 50t50 21q29 0 49-20t21-51q0-29-20-49t-50-20m162-210H216V416h265V294H216V129h354V0H62v700h508z" horiz-adv-x="611" unicode="Ë"/><glyph d="m16 979 236-116V754L16 857zm46-279h154V0H62z" horiz-adv-x="277" unicode="Ì"/><glyph d="M252 979V856L16 754v109zM62 700h154V0H62z" horiz-adv-x="277" unicode="Í"/><glyph d="m291 756-152 82-152-82v110l152 80 152-80zM62 700h154V0H62z" horiz-adv-x="277" unicode="Î"/><glyph d="M41 781q-29 0-49 20t-20 49q0 30 20 50t49 21q30 0 50-20t21-51q0-29-20-49t-51-20m193 0q-29 0-49 20t-20 49q0 30 20 50t49 21q30 0 50-20t20-51q0-29-20-49t-50-20M62 700h154V0H62z" horiz-adv-x="277" unicode="Ï"/><glyph d="M42 416h66v284h254q113 0 195-43t128-123 45-185q0-105-45-183T558 44 362 0H108v283H42zm223-286h90q103-1 159 58t57 161q0 103-56 161t-160 59h-90V416h159V283H265z" horiz-adv-x="761" unicode="Ð"/><glyph d="M181 757q12 73 47 106t85 34q29 0 50-11t39-23 38-12q17 0 28 11t15 33h82q-12-73-47-106t-85-33q-29 0-50 11t-39 23-38 11q-17 0-28-10t-16-34zm475-57V0H500L216 455V0H62v700h156l283-457v457z" horiz-adv-x="717" unicode="Ñ"/><glyph d="m267 979 236-116V754L267 857zM390-7q-75 0-140 26T136 92 59 205 31 350t28 144 77 113 114 74 140 26q74 0 139-26t114-73 77-113 28-145-28-144-77-113-114-74T390-7m0 132q59 0 104 28t71 80 26 117q0 67-25 117t-71 79-105 29q-61 0-106-28t-70-79-26-118q0-66 25-117t71-79 106-29" horiz-adv-x="778" unicode="Ò"/><glyph d="M503 979V856L267 754v109zM390-7q-75 0-140 26T136 92 59 205 31 350t28 144 77 113 114 74 140 26q74 0 139-26t114-73 77-113 28-145-28-144-77-113-114-74T390-7m0 132q59 0 104 28t71 80 26 117q0 67-25 117t-71 79-105 29q-61 0-106-28t-70-79-26-118q0-66 25-117t71-79 106-29" horiz-adv-x="778" unicode="Ó"/><glyph d="m541 756-151 82-152-82v110l152 80 151-80zM390-7q-75 0-140 26T136 92 59 205 31 350t28 144 77 113 114 74 140 26q74 0 139-26t114-73 77-113 28-145-28-144-77-113-114-74T390-7m0 132q59 0 104 28t71 80 26 117q0 67-25 117t-71 79-105 29q-61 0-106-28t-70-79-26-118q0-66 25-117t71-79 106-29" horiz-adv-x="778" unicode="Ô"/><glyph d="M199 757q11 73 46 106t86 34q29 0 49-11t39-23 39-12q16 0 28 11t15 33h81q-12-73-46-106t-85-33q-30 0-51 11t-38 23-38 11q-18 0-29-10t-15-34zM390-7q-75 0-140 26T136 92 59 205 31 350t28 144 77 113 114 74 140 26q74 0 139-26t114-73 77-113 28-145-28-144-77-113-114-74T390-7m0 132q59 0 104 28t71 80 26 117q0 67-25 117t-71 79-105 29q-61 0-106-28t-70-79-26-118q0-66 25-117t71-79 106-29" horiz-adv-x="778" unicode="Õ"/><glyph d="M292 781q-30 0-49 20t-20 49q0 30 19 50t50 21q30 0 50-20t21-51q0-29-20-49t-51-20m193 0q-30 0-49 20t-20 49q0 30 19 50t50 21q29 0 49-20t21-51q0-29-20-49t-50-20M390-7q-75 0-140 26T136 92 59 205 31 350t28 144 77 113 114 74 140 26q74 0 139-26t115-73 76-113 28-145q0-79-28-144T643 93 529 19 390-7m0 132q59 0 104 28t71 80 26 117q0 67-25 117t-71 79-105 29q-61 0-106-28t-70-79-26-118q0-66 25-117t71-79 106-29" horiz-adv-x="778" unicode="Ö"/><glyph d="m152 591 381-381-102-101L50 491zM46 211l380 380 101-100-380-381z" horiz-adv-x="580" unicode="×"/><glyph d="m552 607 101-53-401-440-101 51zM390-7q-75 0-140 26T136 92 59 205 31 350t28 144 77 113 114 74 140 26q74 0 139-26t114-73 77-113 28-145-28-144-77-113-114-74T390-7m0 132q59 0 104 28t71 80 26 117q0 67-25 117t-71 79-105 29q-61 0-106-28t-70-79-26-118q0-66 25-117t71-79 106-29" horiz-adv-x="778" unicode="Ø"/><glyph d="m231 979 235-116V754L231 857zM58 700h155V263q0-44 18-75t49-47 74-16 75 15 51 47 18 76v437h155V275q0-71-24-124t-67-88-97-52T352-7q-79 0-146 31T99 117 58 275z" horiz-adv-x="711" unicode="Ù"/><glyph d="M466 979V856L231 754v109zM58 700h155V263q0-44 18-75t49-47 74-16 75 15 51 47 18 76v437h155V275q0-71-24-124t-67-88-97-52T352-7q-79 0-146 31T99 117 58 275z" horiz-adv-x="711" unicode="Ú"/><glyph d="m505 756-152 82-151-82v110l151 80 152-80zM58 700h155V263q0-44 18-75t49-47 74-16 75 15 51 47 18 76v437h155V275q0-71-24-124t-67-88-97-52T352-7q-79 0-146 31T99 117 58 275z" horiz-adv-x="711" unicode="Û"/><glyph d="M256 781q-29 0-49 20t-21 49q0 30 20 50t50 21q30 0 50-20t21-51q0-29-20-49t-51-20m193 0q-29 0-49 20t-21 49q0 30 20 50t50 21q30 0 50-20t20-51q0-29-20-49t-50-20M58 700h155V263q0-44 18-75t49-47 74-16 75 15 51 47 18 76v437h155V275q0-71-24-124t-67-88-97-52T352-7q-79 0-146 31T99 117 58 275z" horiz-adv-x="711" unicode="Ü"/><glyph d="M475 979V856L239 754v109zm52-279h176L439 238V0H284v237L20 700h176l166-307z" horiz-adv-x="723" unicode="Ý"/><glyph d="M319 254q56 0 81 26t25 71q0 44-25 70t-81 26H218V254zm265 97q0-55-26-104t-83-80-146-31H218V0H62v700h154V567h113q85 0 141-28t85-78 29-110" horiz-adv-x="615" unicode="Þ"/><glyph d="M56 480q0 60 26 111t80 84 132 32q71 0 121-26t78-67 27-85q0-32-11-53t-29-37-33-31q-13-11-21-20t-8-18 14-18 61-27q71-26 102-72t32-100q0-73-53-116T431-7q-90 0-144 46t-65 134h147q2-31 17-47t45-16q20 0 31 8t12 28q0 23-15 42t-52 33q-75 26-109 54t-35 72q0 35 18 59t41 48q17 17 30 27t14 30q0 26-21 46t-56 21q-31 0-50-15t-27-41-9-54V0H56z" horiz-adv-x="659" unicode="ß"/><glyph d="m162 742 205-100v-95l-205 90zM345 0l-10 62q-26-32-56-50T199-6q-47 0-84 16T57 59t-22 77q0 62 44 103t139 51l117 13v33q0 17-16 33t-52 17q-31 0-53-16t-31-46L58 369q22 67 77 102t138 36q102 0 155-51t53-137V0zm-10 213-93-11q-28-4-42-17t-15-34q0-19 16-32t44-13 48 11 31 33 11 54z" horiz-adv-x="530" unicode="à"/><glyph d="M367 742V636l-205-89v95zM345 0l-10 62q-26-32-56-50T199-6q-47 0-84 16T57 59t-22 77q0 62 44 103t139 51l117 13v33q0 17-16 33t-52 17q-31 0-53-16t-31-46L58 369q22 67 77 102t138 36q102 0 155-51t53-137V0zm-10 213-93-11q-28-4-42-17t-15-34q0-19 16-32t44-13 48 11 31 33 11 54z" horiz-adv-x="530" unicode="á"/><glyph d="m400 549-131 71-132-71v95l132 69 131-69zM345 0l-10 62q-26-32-56-50T199-6q-47 0-84 16T57 59t-22 77q0 62 44 103t139 51l117 13v33q0 17-16 33t-52 17q-31 0-53-16t-31-46L58 369q22 67 77 102t138 36q102 0 155-51t53-137V0zm-10 213-93-11q-28-4-42-17t-15-34q0-19 16-32t44-13 48 11 31 33 11 54z" horiz-adv-x="530" unicode="â"/><glyph d="M104 550q9 63 39 92t75 29q25 0 43-10t34-19 33-10q15 0 24 9t13 29h71q-10-64-40-92t-74-29q-25 0-43 9t-34 20-33 10q-15 0-25-9t-13-29zM345 0l-10 62q-26-32-56-50T199-6q-47 0-84 16T57 59t-22 77q0 62 44 103t139 51l117 13v33q0 17-16 33t-52 17q-31 0-53-16t-31-46L58 369q22 67 77 102t138 36q102 0 155-51t53-137V0zm-10 213-93-11q-28-4-42-17t-15-34q0-19 16-32t44-13 48 11 31 33 11 54z" horiz-adv-x="530" unicode="ã"/><glyph d="M184 570q-26 0-43 17t-17 44q0 25 17 43t43 18 43-18 18-43q0-26-17-43t-44-18m167 0q-25 0-42 17t-18 44q0 25 17 43t43 18 43-18 18-43q0-26-17-43t-44-18M345 0l-10 62q-26-32-56-50T199-6q-47 0-84 16T57 59t-22 77q0 62 44 103t139 51l117 13v33q0 17-16 33t-52 17q-31 0-53-16t-31-46L58 369q22 67 77 102t138 36q102 0 155-51t53-137V0zm-10 213-93-11q-28-4-42-17t-15-34q0-19 16-32t44-13 48 11 31 33 11 54z" horiz-adv-x="530" unicode="ä"/><glyph d="M372 638q0-47-30-74t-73-28q-43 0-74 27t-31 75 31 75 74 28q43 0 73-27t30-76m-62 1q0 19-12 30t-29 12q-17 0-29-11t-13-31q0-19 12-31t30-12q17 0 29 12t12 31M345 0l-10 62q-26-32-56-50T199-6q-47 0-84 16T57 59t-22 77q0 62 44 103t139 51l117 13v33q0 17-16 33t-52 17q-31 0-53-16t-31-46L58 369q22 67 77 102t138 36q102 0 155-51t53-137V0zm-10 213-93-11q-28-4-42-17t-15-34q0-19 16-32t44-13 48 11 31 33 11 54z" horiz-adv-x="530" unicode="å"/><glyph d="M570-7q-73 0-125 32t-81 92-29 138q0 118 60 185t174 67q73 0 128-30t85-86 31-132v-24q0-13-4-29H477q5-27 18-46t35-30 45-11q39 0 62 12t37 38l131-36q-31-69-89-104T570-7m85 308q-1 25-12 44t-30 29-46 11q-23 0-41-11t-31-30-15-43zM399 190l14-86q-24-43-56-67T284 3 199-7q-46 0-83 16T57 58t-22 78q0 38 14 64t39 45 59 28 71 17l117 17v28q0 17-17 34t-51 17q-31 0-53-16t-31-46L58 369q22 69 77 103t138 35q102 0 151-50t50-138V219zm-64 24-96-13q-28-4-41-18t-13-33q0-21 16-31t43-10q26 0 46 10t33 32 12 53z" horiz-adv-x="847" unicode="æ"/><glyph d="M321-28q27 0 53-10t43-31 17-56q0-34-17-55t-44-32-57-11H188v75h108q18 0 28 5t10 20-10 20-28 6h-58V13h83zM281-7q-73-1-129 31t-87 90-31 135q0 76 31 134t87 91 129 33q83 0 145-41t88-114l-138-34q-10 27-33 42t-53 15-53-16-35-44-13-66q0-56 28-90t73-34q29 0 52 14t36 42l137-35q-25-69-88-110T281-7" horiz-adv-x="548" unicode="ç"/><glyph d="m175 742 205-100v-95l-205 90zM288-7q-77 0-134 32t-88 92-32 138q0 73 31 130t87 89 127 33q75 0 130-30t86-87 31-130q0-12-1-25t-3-29H190q5-27 19-46t35-30 50-11q31 0 56 13t37 37l131-36q-30-67-90-103T288-7m79 308q-1 25-13 44t-31 30-42 10-41-11-32-29-16-44z" horiz-adv-x="559" unicode="è"/><glyph d="M380 742V636l-205-89v95zM288-7q-77 0-134 32t-88 92-32 138q0 73 31 130t87 89 127 33q75 0 130-30t86-87 31-130q0-12-1-25t-3-29H190q5-27 19-46t35-30 50-11q31 0 56 13t37 37l131-36q-30-67-90-103T288-7m79 308q-1 25-13 44t-31 30-42 10-41-11-32-29-16-44z" horiz-adv-x="559" unicode="é"/><glyph d="m414 549-131 71-132-71v95l132 69 131-69zM288-7q-77 0-134 32t-88 92-32 138q0 73 31 130t87 89 127 33q75 0 130-30t86-87 31-130q0-12-1-25t-3-29H190q5-27 19-46t35-30 50-11q31 0 56 13t37 37l131-36q-30-67-90-103T288-7m79 308q-1 25-13 44t-31 30-42 10-41-11-32-29-16-44z" horiz-adv-x="559" unicode="ê"/><glyph d="M197 570q-25 0-42 17t-17 44q0 25 17 43t42 18q26 0 44-18t18-43q0-26-18-43t-44-18m168 0q-26 0-43 17t-17 44q0 25 17 43t43 18 43-18 18-43q0-26-17-43t-44-18M288-7q-77 0-134 32t-88 92-32 138q0 73 31 130t87 89 127 33q75 0 130-30t86-87 31-130q0-12-1-25t-3-29H190q5-27 19-46t36-30 49-11q31 0 56 13t37 37l131-36q-30-67-90-103T288-7m79 308q-1 25-13 44t-31 30-42 10-41-11-32-29-16-44z" horiz-adv-x="559" unicode="ë"/><glyph d="m26 734 206-100v-95L26 629zm30-234h156V0H56z" horiz-adv-x="267" unicode="ì"/><glyph d="M232 734V628L26 539v95zM56 500h156V0H56z" horiz-adv-x="267" unicode="í"/><glyph d="m265 541-132 71L2 541v95l131 69 132-69zM56 500h156V0H56z" horiz-adv-x="267" unicode="î"/><glyph d="M49 562q-26 0-43 17t-17 44q0 25 17 43t43 18 43-18 18-43q0-26-17-43t-44-18m167 0q-26 0-43 17t-17 44q0 25 17 43t43 18 43-18 18-43q0-26-17-43t-44-18M56 500h156V0H56z" horiz-adv-x="267" unicode="ï"/><glyph d="M500 663v-70l-33-9q42-69 66-148t24-152q0-95-35-160t-95-98T295-7 164 25t-95 90-35 137q0 79 33 135t89 88 126 32q18 0 34-3t30-8 28-13q-9 15-19 32t-22 38l-97-26v69l60 16q-17 25-36 47t-41 41h155q27-25 52-57zM295 126q26 0 49 13t38 41 16 71q0 43-15 70t-38 40-51 14q-26 0-49-13t-38-41-15-70q0-43 14-70t38-41 51-14" horiz-adv-x="589" unicode="ð"/><glyph d="M141 550q10 63 40 92t74 29q25 0 43-10t34-19 33-10q15 0 25 9t13 29h70q-9-64-39-92t-74-29q-26 0-44 9t-34 20-33 10q-15 0-25-9t-13-29zm-85-50h132l10-54q25 27 59 44t74 17q59 0 99-25t62-73 22-117V0H368v274q0 50-20 76t-62 26-63-26-21-77V0H56z" horiz-adv-x="563" unicode="ñ"/><glyph d="m194 742 205-100v-95l-205 90zM288-7q-73 0-131 31t-90 89-33 137q0 79 33 136t92 89 131 32q74 0 132-31t93-89 34-136q0-80-34-138t-94-89T288-7m0 132q26 0 50 14t39 41 15 70q0 42-15 69t-38 42-49 14q-28 0-50-14t-35-41-14-70q0-42 13-69t35-42 49-14" horiz-adv-x="581" unicode="ò"/><glyph d="M399 742V636l-205-89v95zM288-7q-73 0-131 31t-90 89-33 137q0 79 33 136t92 89 131 32q74 0 132-31t93-89 34-136q0-80-34-138t-94-89T288-7m0 132q26 0 50 14t39 41 15 70q0 42-15 69t-38 42-49 14q-28 0-50-14t-35-41-14-70q0-42 13-69t35-42 49-14" horiz-adv-x="581" unicode="ó"/><glyph d="m433 549-131 71-132-71v95l132 69 131-69zM288-7q-73 0-131 31t-90 89-33 137q0 79 33 136t92 89 131 32q74 0 132-31t93-89 34-136q0-80-34-138t-94-89T288-7m0 132q26 0 50 14t39 41 15 70q0 42-15 69t-38 42-49 14q-28 0-50-14t-35-41-14-70q0-42 13-69t35-42 49-14" horiz-adv-x="581" unicode="ô"/><glyph d="M136 550q10 63 40 92t75 29q24 0 42-10t34-19 33-10q15 0 25 9t13 29h70q-9-64-39-92t-74-29q-26 0-44 9t-34 20-33 10q-15 0-25-9t-13-29zM288-7q-73 0-131 31t-90 89-33 137q0 79 33 136t92 89 131 32q74 0 132-31t93-89 34-136q0-80-34-138t-94-89T288-7m0 132q26 0 50 14t39 41 15 70q0 42-15 69t-38 42-49 14q-28 0-50-14t-35-41-14-70q0-42 13-69t35-42 49-14" horiz-adv-x="581" unicode="õ"/><glyph d="M217 570q-26 0-43 17t-17 44q0 25 17 43t43 18 43-18 18-43q0-26-17-43t-44-18m167 0q-26 0-43 17t-17 44q0 25 17 43t43 18 43-18 18-43q0-26-17-43t-44-18M288-7q-73 0-131 31t-90 89-33 137q0 79 33 136t92 89 132 32 131-31 93-89 34-136q0-80-34-138t-94-89T288-7m0 132q26 0 50 14t39 41 15 70q0 42-15 69t-38 42-49 14q-27 0-49-14t-36-41-14-70q0-42 13-69t35-42 49-14" horiz-adv-x="581" unicode="ö"/><glyph d="M46 419h511V281H46zM309 39q-43 0-68 25t-26 63q0 36 25 61t69 26q40 0 66-25t27-63q0-36-26-61t-67-26m0 448q-43 0-68 25t-26 62q0 37 25 62t69 26q40 0 66-25t27-63q0-37-26-62t-67-25" horiz-adv-x="603" unicode="÷"/><glyph d="m420 446 64-46L189 77l-64 45zM288-7q-73 0-131 31t-90 89-33 137q0 79 33 136t92 89 131 32q74 0 132-31t93-89 34-136q0-80-34-138t-94-89T288-7m0 132q26 0 50 14t39 41 15 70q0 42-15 69t-38 42-49 14q-28 0-50-14t-35-41-14-70q0-42 13-69t35-42 49-14" horiz-adv-x="581" unicode="ø"/><glyph d="m168 742 205-100v-95l-205 90zM509 0H376l-10 55q-25-28-58-45T234-7q-56 0-97 25T73 91 50 208v292h146V226q0-50 20-76t63-26q40 0 62 27t22 77v272h146z" horiz-adv-x="564" unicode="ù"/><glyph d="M373 742V636l-205-89v95zM509 0H376l-10 55q-25-28-58-45T234-7q-56 0-97 25T73 91 50 208v292h146V226q0-50 20-76t63-26q40 0 62 27t22 77v272h146z" horiz-adv-x="564" unicode="ú"/><glyph d="m406 549-131 71-132-71v95l132 69 131-69zM509 0H376l-10 55q-25-28-58-45T234-7q-56 0-97 25T73 91 50 208v292h146V226q0-50 20-76t63-26q40 0 62 27t22 77v272h146z" horiz-adv-x="564" unicode="û"/><glyph d="M190 570q-25 0-42 17t-17 44q0 25 17 43t42 18q26 0 44-18t18-43q0-26-18-43t-44-18m167 0q-25 0-42 17t-17 44q0 25 17 43t42 18q27 0 44-18t18-43q0-26-17-43t-45-18M509 0H376l-10 55q-25-28-58-45T234-7q-56 0-97 25T73 91 50 208v292h146V226q0-50 20-76t63-26q40 0 62 27t22 77v272h146z" horiz-adv-x="564" unicode="ü"/><glyph d="M385 742V636l-205-89v95zm15-242h158L262-200H113l99 223L14 500h163l111-299z" horiz-adv-x="573" unicode="ý"/><glyph d="M203-200H56v920h147V451q25 29 57 42t82 14q64 0 116-32t85-90 32-135q0-76-32-134t-84-90T342-7q-31 0-56 8t-46 23-37 33zm213 450q0 41-16 68t-40 41-50 14q-27 0-51-13t-40-41-16-68q0-41 15-68t40-41 52-14q25 0 49 13t41 41 16 68" horiz-adv-x="607" unicode="þ"/><glyph d="M202 570q-26 0-43 17t-17 44q0 25 17 43t43 18 43-18 18-43q0-26-17-43t-44-18m167 0q-25 0-42 17t-18 44q0 25 17 43t43 18 43-18 18-43q0-26-17-43t-44-18m31-70h158L262-200H113l99 223L14 500h163l111-299z" horiz-adv-x="573" unicode="ÿ"/><glyph d="M40 345h550V215H40z" horiz-adv-x="630" unicode="–"/><glyph d="M40 345h780V215H40z" horiz-adv-x="860" unicode="—"/><glyph d="m258 700-54-260H43l110 260z" horiz-adv-x="289" unicode="‘"/><glyph d="m31 440 55 260h161L137 440z" horiz-adv-x="289" unicode="’"/><glyph d="m31-100 55 259h161L137-100z" horiz-adv-x="289" unicode="‚"/><glyph d="m259 700-54-260H44l109 260zm215 0-54-260H259l109 260z" horiz-adv-x="504" unicode="“"/><glyph d="m246 440 55 260h161L352 440zm-215 0 55 260h161L137 440z" horiz-adv-x="504" unicode="”"/><glyph d="m31-100 55 259h161L137-100zm215 0 54 259h162L351-100z" horiz-adv-x="504" unicode="„"/><glyph d="M219 189q-40 0-73 19t-52 52-20 73q0 41 19 73t53 53 73 20q41 0 74-20t52-52 20-74q0-40-19-73t-53-52-74-19" horiz-adv-x="439" unicode="•"/><glyph d="M263 75H117L31 250l86 175h146l-90-175z" horiz-adv-x="300" unicode="‹"/><glyph d="m37 75 89 175-89 175h145l87-175-87-175z" horiz-adv-x="299" unicode="›"/></font>
</defs>
</svg>
