<svg xmlns="http://www.w3.org/2000/svg"><defs><font id="AlbertSans" horiz-adv-x="556"><font-face alphabetic="0" ascent="950" descent="-250" font-family="Albert Sans SemiBold"/><glyph horiz-adv-x="280"/><glyph d="M77 700h127l-14-487H91zM141-7q-31 0-53 21T66 68q0 31 22 52t53 22q31 0 52-21t22-53q0-32-21-53T141-7" horiz-adv-x="282" unicode="!"/><glyph d="M44 700h106l-12-202H57zm154 0h106l-12-202h-81z" horiz-adv-x="349" unicode="&quot;"/><glyph d="M300 700h113l-34-160h193l35 160h113l-34-160h134V436H664l-32-151h133V181H610L572 0H459l38 181H303L265 0H152l38 181H37v104h175l32 151H93v104h173zm25-415h194l31 151H357z" horiz-adv-x="857" unicode="#"/><glyph d="M258 775h64V-75h-64zM153 192q6-28 23-50t47-36 71-13q63 0 94 29t31 70q0 33-19 55t-55 37-80 30q-41 12-79 25t-68 34-49 53-17 82q0 64 30 108t84 68 124 23q59 0 106-16t81-48 49-78l-109-36q-6 22-24 39t-44 28-58 11q-34 1-60-10t-43-31-16-48q0-31 18-48t47-29 66-24q42-12 83-27t76-39 56-60 21-90q0-58-26-105t-81-75T298-7q-65 0-118 19T91 68t-47 87z" horiz-adv-x="583" unicode="$"/><glyph d="M44 550q0 75 44 116t109 41q66 0 110-41t44-116q0-76-44-117t-110-41q-65 0-109 41T44 550m153 85q-28 0-44-19t-17-66q0-45 16-65t45-21q28 0 45 20t17 66-17 65-45 20m346 65h117L262 0H146zm-86-549q0 76 43 116t110 41q65 0 108-40t44-117q0-76-43-117T610-7 501 34t-44 117m152 85q-29 0-45-19t-17-66q0-45 16-65t46-20q27 0 44 20t18 65q0 46-17 65t-45 20" horiz-adv-x="806" unicode="%"/><glyph d="M394 569q-14 17-37 27t-56 10q-57 0-83-33t-26-79q0-33 18-53t53-29 84-11h237v-98H348q-87 0-128-21t-41-85q0-33 11-56t37-35 68-12q62 0 87 30t26 95v143h116V219q0-81-29-131t-80-72T293-7q-76 0-128 24T86 86 59 188q0 46 15 78t44 54 66 33v4q-29 9-54 30t-42 52-16 69q0 53 26 98t76 73 123 28q61 0 110-19t82-56zm95 63-95-63zM362 401q16 0 28 4t18 19 7 50v48h110V401h117v-98H525V179q0-47 19-64t58-18q8 0 18 1t22 2V4q-15-3-30-5t-29-2q-46 0-85 17t-65 57-25 108v125h-73v97z" horiz-adv-x="691" unicode="&amp;"/><glyph d="M48 700h106l-12-202H61z" horiz-adv-x="202" unicode="'"/><glyph d="M255-100Q189-49 144 22T75 177 52 348q0 88 24 171t73 155 125 126h122v-9q-79-59-130-131t-75-152-25-160q0-79 24-158t71-151T377-91v-9z" horiz-adv-x="440" unicode="("/><glyph d="M185-100H63v9q70 58 117 130t70 151 24 158q0 80-24 159t-76 152T44 791v9h122q76-54 125-126t73-155 25-171q0-87-23-170T297 23 185-100" horiz-adv-x="441" unicode=")"/><glyph d="m267 592 114 88 46-81-136-51 136-50-47-84-113 90 22-144h-95l20 144-113-92-49 87 135 50-135 49 47 83 116-89-21 144h96z" horiz-adv-x="478" unicode="*"/><glyph d="M365 605V95H255v510zM55 400h510V300H55z" horiz-adv-x="621" unicode="+"/><glyph d="M103 139h127L110-139H33z" horiz-adv-x="285" unicode=","/><glyph d="M55 328h413V228H55z" horiz-adv-x="524" unicode="-"/><glyph d="M130-7Q98-7 77 14T55 68q0 31 21 52t54 22q31 0 53-21t22-53-22-53-53-22" horiz-adv-x="260" unicode="."/><glyph d="M240 800h117L116-100H0z" horiz-adv-x="357" unicode="/"/><glyph d="M59 350q0 78 12 143t42 113 80 74 128 27q77 0 127-26t80-74 42-113 12-144-12-145-42-113-80-73T321-7 194 19t-81 73-42 113-12 145m403 0q0 50-4 96t-18 82-42 57-77 21-77-20-43-57-18-83-4-96q0-53 4-99t18-82 42-55 78-20q49 0 77 20t42 55 18 81 4 100" horiz-adv-x="641" unicode="0"/><glyph d="M131 601H37v99h212V0H131z" horiz-adv-x="323" unicode="1"/><glyph d="m51 86 200 186q55 53 88 90t47 68 14 66q0 48-26 79t-89 31q-38 0-64-17t-41-49-16-75H50q2 83 33 136t85 80 118 26q75 0 127-26t80-74 28-110q0-45-16-87t-56-91-107-110L221 99h317V0H51z" horiz-adv-x="594" unicode="2"/><glyph d="M59 508q4 64 35 108t84 68 121 23q72 0 122-27t77-73 26-99q0-38-16-69t-42-52-54-30v-4q38-12 66-33t43-53 16-79q0-58-27-102t-79-68T302-7q-74 0-130 22T84 85 49 209h115q3-57 35-86t102-29q40 0 66 12t38 35 12 56q0 64-41 85t-129 21h-26v98h27q50 1 84 10t53 30 19 53q0 46-26 79t-83 33q-39 0-64-14t-40-36-17-48z" horiz-adv-x="596" unicode="3"/><glyph d="M396 154H36v86l335 460h144V253h90v-99h-90V0H396zm4 99v325L171 253z" horiz-adv-x="654" unicode="4"/><glyph d="M516 700v-99H193V415q20 27 55 43t85 16q64 0 108-22t72-58 40-75 13-78q0-71-30-127t-86-88T314-7q-76 0-130 25T99 89 59 192h115q11-45 47-71t93-27q45 0 74 18t43 50 14 76q0 64-34 100t-97 37q-49 0-81-25t-46-65H74v415z" horiz-adv-x="621" unicode="5"/><glyph d="M310-7q-74 0-133 32t-93 88-34 127q0 57 23 115t71 117l179 228h129L242 437 116 309q19 73 75 117t136 44q68 0 123-29t86-81 32-122q0-70-34-125t-93-88T310-7M170 238q0-44 16-76t48-50 76-18 74 17 47 50 16 77q0 45-16 76t-46 49-75 17q-45 0-76-17t-47-48-17-77" horiz-adv-x="612" unicode="6"/><glyph d="M519 700v-88L244 0H124l278 601H37v99z" unicode="7"/><glyph d="M174 369q-46 22-74 59t-29 96q0 50 26 91t80 67 135 25q81 0 134-25t80-66 27-92q0-55-30-95t-73-60q55-21 88-65t34-106q0-64-34-109t-92-71T312-7q-75 0-134 25T86 88 53 198q0 62 33 106t88 65m258 141q0 52-31 74t-89 23q-56 0-88-22t-33-76q0-46 33-74t88-29q55 0 87 29t33 75M312 318q-41 0-72-13t-49-38-17-66q0-51 35-79t103-29q67 0 103 28t36 80q0 38-17 64t-49 39-73 14" horiz-adv-x="625" unicode="8"/><glyph d="M302 707q74 0 133-32t93-88 34-127q0-57-23-115t-71-117L289 0H160l209 263 127 128q-19-73-75-117t-136-44q-70 0-124 29t-85 81-32 122q0 71 34 126t93 87 131 32m139-245q0 45-16 77t-48 49-75 18q-45 0-75-17t-46-50-16-77 16-76 46-49 75-17q44 0 75 17t47 49 17 76" horiz-adv-x="612" unicode="9"/><glyph d="M134-7q-32 0-53 21T59 68q0 31 21 52t54 22q31 0 53-21t22-53-22-53-53-22m0 419q-32 0-53 21t-22 54q0 31 21 52t54 22q31 0 53-21t22-53-22-53-53-22" horiz-adv-x="267" unicode=":"/><glyph d="M169 411q-32 0-53 21t-22 54q0 31 21 52t54 22q31 0 53-21t22-53-22-53-53-22m-62-272h127L114-139H37z" horiz-adv-x="303" unicode=";"/><glyph d="M432 124H283L55 350l228 227h149L204 350z" horiz-adv-x="506" unicode="&lt;"/><glyph d="M67 286h534V186H67zm0 229h534V415H67z" horiz-adv-x="667" unicode="="/><glyph d="M302 350 73 577h150l228-227-228-226H73z" horiz-adv-x="506" unicode="&gt;"/><glyph d="M272 707q68 0 118-25t79-72 29-112q0-70-30-115t-83-66-120-22l-4-79H158l-5 160h35q41 0 76 4t60 18 40 37 14 63q0 34-12 58t-35 37-58 13q-52 0-82-27t-31-79H49q-1 61 26 107t78 73 119 27M214-7q-33 0-54 21t-22 54q0 31 21 52t55 22q31 0 52-21t22-53q0-32-21-53T214-7" horiz-adv-x="547" unicode="?"/><glyph d="m581 153 23-40q-27-53-81-86T406-7q-77 0-120 47t-43 125q0 57 18 108t50 92 78 63 100 24q60 0 94-27t46-80l-29-15 20 113h102l-50-283q-6-40 1-64t44-24q30 0 52 22t37 59 21 76 7 77q0 84-33 142t-97 88-158 30q-89 0-164-32t-130-91-85-135-31-168q0-86 34-144t100-88 157-30q42 0 85 8t82 27l16-79q-47-20-99-29t-106-10q-111 0-192 41T86-47 40 130q0 109 38 203t108 165 165 110 209 40q117 0 199-43t126-118 44-176q0-58-15-114T870 94t-72-73-99-28q-64 0-93 35t-26 93zm-89 209q-44 0-75-26t-48-67-17-85q0-43 22-71t69-29q42 0 75 24t53 64 19 84q0 30-10 54t-33 38-55 14" horiz-adv-x="996" unicode="@"/><glyph d="M376 601h-36L130 0H8l248 700h202L707 0H585zM144 269h408v-98H144z" horiz-adv-x="714" unicode="A"/><glyph d="M487 502q0 47-30 73t-86 26H192V404h179q55 0 85 25t31 73M73 0v700h310q74 0 123-25t75-66 26-92q0-46-17-78t-46-51-65-27v-8q43-6 76-25t51-54 18-87q0-53-27-95t-79-67T396 0zm119 99h192q57 0 89 26t32 75q0 52-34 79t-91 27H192z" horiz-adv-x="673" unicode="B"/><glyph d="M37 350q0 79 27 144t76 113 113 74 139 26q103 0 186-49t128-141l-97-33q-23 44-59 71t-76 39-79 12q-68 0-122-31t-84-89-31-136q0-77 30-134t85-90 122-32q40 0 81 12t79 44 63 85l96-31Q668 96 583 45T392-7q-74 0-138 26T141 93 65 206 37 350" horiz-adv-x="762" unicode="C"/><glyph d="M323 700q113 0 195-43t128-122 46-188q0-107-45-185T519 42 323 0H73v700zm0-601q120 0 184 65t65 183q0 118-64 186t-185 68H192V99z" horiz-adv-x="730" unicode="D"/><glyph d="M551 601H192V404h269v-99H192V99h359V0H73v700h478z" horiz-adv-x="605" unicode="E"/><glyph d="M73 700h478v-99H192V404h269v-99H192V0H73z" horiz-adv-x="587" unicode="F"/><glyph d="M602 482q-37 66-91 95t-115 29q-66 0-120-32t-86-90-32-134 31-133 84-90 120-33q47 0 88 16t72 44 49 66v70H401v97h320V213q-24-62-71-112T537 22 392-7q-74 0-138 26T141 92 65 205 37 350q0 78 27 143t76 114 113 74 139 26q67 0 129-21t111-64 75-103z" horiz-adv-x="766" unicode="G"/><glyph d="M73 700h119V404h330v296h118V0H522v305H192V0H73z" horiz-adv-x="714" unicode="H"/><glyph d="M73 700h119V0H73z" horiz-adv-x="266" unicode="I"/><glyph d="M337 700h118V202q0-64-27-111t-75-72T244-7q-74 0-124 36T49 130l102 32q6-21 18-36t31-25 44-9q29 0 49 14t32 37 12 53z" horiz-adv-x="525" unicode="J"/><glyph d="M73 700h119V404h38l259 296h148L337 355 642 0H488L229 305h-37V0H73z" horiz-adv-x="653" unicode="K"/><glyph d="M192 700V99h314V0H73v700z" horiz-adv-x="531" unicode="L"/><glyph d="M192 0H73v700h133l236-544 236 544h132V0H692v473L487 0h-90L192 473z" horiz-adv-x="884" unicode="M"/><glyph d="M639 700V0H518L192 513V0H73v700h122l326-511v511z" horiz-adv-x="713" unicode="N"/><glyph d="M393-7q-74 0-139 26T141 92 65 205 37 350q0 78 27 143t76 114 114 74 139 26q74 0 138-26t113-74 76-113 28-144q0-79-27-144T645 93 532 19 393-7m0 101q68 0 121 31t83 89 30 136q0 79-30 136t-83 88-121 32q-68 0-121-31t-83-89-31-136q0-78 30-135t84-89 121-32" horiz-adv-x="784" unicode="O"/><glyph d="M347 376q44 0 71 13t42 39 14 61q0 53-31 82t-96 30H192V376zm247 113q0-38-13-75t-42-68-76-50-116-19H192V0H73v700h274q84 0 138-28t82-77 27-106" horiz-adv-x="632" unicode="P"/><glyph d="M337 203h116V-99H337zM393-7q-74 0-139 26T141 92 65 205 37 350q0 78 27 143t76 114 114 74 139 26q74 0 138-26t113-74 76-113 28-144q0-79-27-144T645 93 532 19 393-7m0 101q68 0 121 31t83 89 30 136q0 79-30 136t-83 88-121 32q-68 0-121-31t-83-89-31-136q0-78 30-135t84-89 121-32" horiz-adv-x="784" unicode="Q"/><glyph d="M474 489q0 52-31 82t-96 30H192V376h155q44 0 71 13t42 39 14 61M347 700q84 0 138-28t82-77 27-106q0-38-13-75t-42-68-76-50-116-19H192V0H73v700zm71-384L609 0H475L291 316z" horiz-adv-x="646" unicode="R"/><glyph d="M153 192q6-28 23-50t47-36 71-13q63 0 94 29t31 70q0 33-19 55t-55 37-80 30q-41 12-79 25t-68 34-49 53-17 82q0 64 30 108t84 68 124 23q59 0 106-16t81-48 49-78l-109-36q-6 22-24 39t-44 28-58 11q-34 1-60-10t-43-31-16-48q0-31 18-48t47-29 66-24q42-12 83-27t76-39 56-60 21-90q0-58-26-105t-81-75T298-7q-65 0-118 19T91 68t-47 87z" horiz-adv-x="583" unicode="S"/><glyph d="M37 700h550v-99H372V0H253v601H37z" horiz-adv-x="623" unicode="T"/><glyph d="M70 700h118V254q0-53 21-89t59-53 84-18q49 0 86 17t58 54 22 89v446h118V257q0-67-23-116t-64-83-91-49T351-7q-74 0-138 29t-103 87-40 148z" horiz-adv-x="707" unicode="U"/><glyph d="M558 700h126L423 0H284L24 700h126l204-579z" horiz-adv-x="709" unicode="V"/><glyph d="M359 0H225L24 700h128l140-564 149 564h133l147-562 142 562h126L790 0H654L507 523z" horiz-adv-x="1013" unicode="W"/><glyph d="M49 700h133l189-255 190 255h132L439 350 693 0H561L371 255 182 0H49l255 350z" horiz-adv-x="742" unicode="X"/><glyph d="M532 700h133L403 252V0H285v251L24 700h132l188-340z" horiz-adv-x="689" unicode="Y"/><glyph d="M550 611 189 99h361V0H49v89l360 512H49v99h501z" horiz-adv-x="599" unicode="Z"/><glyph d="M70 800h215v-98H181V-1h104v-99H70z" horiz-adv-x="329" unicode="["/><glyph d="M357-100H241L0 800h116z" horiz-adv-x="357" unicode="\"/><glyph d="M260 800v-900H44v99h104v703H44v98z" horiz-adv-x="329" unicode="]"/><glyph d="M343 557 170 250H48l237 450h113l238-450H513z" horiz-adv-x="684" unicode="^"/><glyph d="M-2-40h563v-111H-2z" horiz-adv-x="559" unicode="_"/><glyph d="m11 798 222-121v-87L11 700z" horiz-adv-x="245" unicode="`"/><glyph d="m365 0-10 61q-24-32-57-49T210-5q-52 0-90 17T62 61t-21 74q0 63 46 105t137 53l131 14v39q0 24-21 43t-67 20q-40 0-69-19t-40-59l-98 36q19 66 75 103t138 37q98 0 147-49t49-125V0zm-10 220-120-15q-38-5-57-21t-19-42q0-23 18-39t51-17q41 0 69 15t43 43 15 69z" horiz-adv-x="527" unicode="a"/><glyph d="M167 426q24 34 68 57t104 24q66 0 116-32t78-90 29-135q0-77-28-135t-79-90T339-7q-57 0-97 20t-65 49l-8-62H67v720h113V423zm274-176q0 69-36 112t-94 43q-36 0-65-18t-48-52-18-85q0-50 18-84t47-53 66-18q57 0 93 43t37 112" horiz-adv-x="595" unicode="b"/><glyph d="M283-7q-72 0-127 32t-85 90-31 133q0 77 31 135t86 91 129 33q77 0 137-36t86-99l-103-34q-13 31-44 49t-72 19q-40 0-69-19t-44-55-16-83q0-72 35-113t96-42q39 0 70 17t48 50l101-35q-29-61-90-97T283-7" horiz-adv-x="550" unicode="c"/><glyph d="m435 426-13-3v297h113V0H433l-8 62q-26-29-66-49T264-7q-67 0-117 32t-79 90-28 135q0 77 28 135t78 90 118 32q59 0 103-23t68-58M161 250q0-69 36-112t94-43q35 0 64 18t48 52 19 85q0 50-18 84t-48 53-65 18q-58 0-94-43t-36-112" horiz-adv-x="601" unicode="d"/><glyph d="M291-7q-75 0-131 33t-88 92-32 136q0 73 31 130t86 90 125 33q71 0 125-31t84-86 31-129q0-12-1-25t-3-29H162q5-35 22-60t45-40 62-14q42 0 75 17t47 45l99-33q-30-60-89-94T291-7m108 306q-1 31-17 56t-42 39-58 15q-28 0-53-14t-42-38-23-58z" horiz-adv-x="562" unicode="e"/><glyph d="M90 551q0 61 20 100t64 58 113 11v-98q-47 5-65-13t-19-59v-50h90v-99h-90V0H90v401H29v99h61z" horiz-adv-x="324" unicode="f"/><glyph d="M433 500h102V75q0-85-42-146t-121-95-190-34l-17 97q126 3 191 48t66 129v1h13q-23-34-66-58T265-7q-66 0-117 32t-79 90-29 135q0 77 28 135t80 90 117 32q37 0 67-9t54-25 39-35zM161 250q0-69 36-112t96-43q35 0 64 18t47 54 18 83q0 50-18 84t-47 53-64 18q-60 0-96-42t-36-113" horiz-adv-x="601" unicode="g"/><glyph d="M67 720h113V454q24 24 59 38t78 15q56 0 98-24t66-72 24-119V0H388v277q0 63-25 95t-77 32-79-33-27-96V0H67z" horiz-adv-x="564" unicode="h"/><glyph d="M83 500h113V0H83zm57 76q-31 0-52 21t-21 50q0 31 21 52t52 21q30 0 51-21t21-52q0-29-21-50t-51-21" horiz-adv-x="278" unicode="i"/><glyph d="M80 34q0-58-30-95t-88-42l18-97q55 2 103 29t79 79 31 125v467H80zm56 542q-31 0-52 21t-22 50q0 31 21 52t53 21q31 0 52-21t21-52q0-29-21-50t-52-21" horiz-adv-x="272" unicode="j"/><glyph d="M67 720h113V298h37l176 202h149L315 250 543 0H394L217 203h-37V0H67z" unicode="k"/><glyph d="M67 720h113V0H67z" horiz-adv-x="245" unicode="l"/><glyph d="M67 500h102l8-47q25 25 59 39t74 15q50 0 90-20t65-60q26 39 71 59t97 21q59 0 102-24t68-72 24-119V0H713v277q0 63-26 95t-78 32-81-32-29-97V0H386v277q0 63-24 95t-76 32-79-32-27-96V0H67z" horiz-adv-x="885" unicode="m"/><glyph d="M67 500h102l8-49q25 26 59 41t75 15q59 0 101-24t66-72 23-119V0H388v277q0 63-25 95t-77 32-79-32-27-96V0H67z" horiz-adv-x="559" unicode="n"/><glyph d="M290-7q-72 0-129 31t-89 89-32 136q0 79 33 137t91 89 129 32q72 0 129-31t92-89 34-136q0-79-34-137t-93-89T290-7m-1 101q35 0 66 17t52 51 20 89q0 52-19 86t-50 52-67 17q-35 0-64-17t-48-51-18-89q0-52 17-86t47-52 64-17" horiz-adv-x="587" unicode="o"/><glyph d="m167 74 13 3v-277H67v700h102l8-62q25 29 65 49t97 20q65 0 115-32t79-89 29-136q0-77-28-135t-79-90T339-7q-60 0-104 23t-68 58m274 176q0 69-36 112t-94 43q-36 0-65-18t-48-52-18-85q0-50 18-84t47-53 66-18q57 0 93 43t37 112" horiz-adv-x="601" unicode="p"/><glyph d="M435 74q-24-34-68-57T264-7q-67 0-117 32t-79 90-28 135q0 78 28 135t78 90 118 32q55 0 95-20t66-49l8 62h102v-700H422V77zM161 250q0-69 36-112t94-43q35 0 64 18t48 52 19 85-18 85-48 52-65 18q-58 0-94-43t-36-112" horiz-adv-x="601" unicode="q"/><glyph d="M67 500h102l9-62q20 25 47 41t58 23 64-2V396q-26 9-55 5t-55-22-41-49-16-78V0H67z" horiz-adv-x="369" unicode="r"/><glyph d="M139 161q7-28 24-43t39-20 40-6q39 0 61 15t23 40q0 20-15 31t-38 17-49 14q-27 7-57 16t-58 25-44 41-17 62q0 47 26 81t71 54 101 19q67 0 116-28t71-82l-99-32q-7 14-20 24t-32 14-38 5q-32 0-54-13t-22-37q0-12 7-21t21-14 31-10 38-11q32-9 63-19t58-27 42-42 18-66q0-43-25-78t-71-56T239-7q-74 0-127 32T40 128z" horiz-adv-x="485" unicode="s"/><glyph d="M99 500v140h115V500h117v-99H214V179q0-45 17-62t44-19 56 2V4q-43-9-84-6t-75 23-53 58-20 100v222H29v99z" horiz-adv-x="361" unicode="t"/><glyph d="M495 0H391l-7 50q-25-27-60-42T250-7q-59 0-101 24T83 89 60 207v293h113V222q0-62 25-94t77-33q50 0 78 32t29 97v276h113z" horiz-adv-x="560" unicode="u"/><glyph d="m144 500 131-380 132 380h119L336 0H212L23 500z" horiz-adv-x="548" unicode="v"/><glyph d="M288 0H177L23 500h115l94-366 97 366h110l93-365 93 365h113L585 0H472l-91 338z" horiz-adv-x="760" unicode="w"/><glyph d="M26 500h130l107-162 108 162h129L325 250 500 0H371L263 163 156 0H26l175 250z" horiz-adv-x="526" unicode="x"/><glyph d="M409 500h119L234-200H122l90 214L17 500h125l132-354z" horiz-adv-x="545" unicode="y"/><glyph d="M436 411 186 99h250V0H44v89l251 312H44v99h392z" horiz-adv-x="479" unicode="z"/><glyph d="M40 386q32 3 54 12t33 25 11 36q0 30-4 68t-8 78-4 73q0 60 42 91t111 31h67v-83h-43q-31 0-47-11t-16-36q0-27 4-64t8-77 4-73q0-41-24-68t-80-37v-1q55-9 79-37t25-69q0-33-4-72t-8-76-4-65q0-25 16-36t47-12h43v-83h-67q-68 0-110 32t-43 92q0 33 4 72t8 77 4 68q0 21-11 36t-33 25-54 12z" horiz-adv-x="383" unicode="{"/><glyph d="M207 800v-900H88v900z" horiz-adv-x="295" unicode="|"/><glyph d="M342 386v-72q-32-3-53-12t-33-24-11-37q0-29 4-67t8-78 4-72q0-59-43-91t-110-33H40v83h44q32 0 47 11t16 37q0 28-4 64t-8 76-5 73q0 41 25 69t80 37v1q-55 9-80 36t-25 69q0 34 4 73t9 76 4 65q0 25-15 36t-48 11H40v83h68q67 0 110-31t43-91q0-33-4-72t-8-78-4-69q0-20 11-36t32-25 54-12" horiz-adv-x="383" unicode="}"/><glyph d="M52 267q15 89 58 129t104 40q30 0 52-10t42-23 38-22 41-10q24 0 43 15t25 48h86q-15-89-58-129t-105-40q-30 0-52 9t-42 23-38 23-40 10q-25 0-44-16t-25-47z" horiz-adv-x="592" unicode="~"/><glyph horiz-adv-x="280"/><glyph d="M141 567q31 0 52-21t22-53q0-32-21-53t-53-22q-31 0-53 21t-22 54q0 31 22 52t53 22M77-140l14 487h99l14-487z" horiz-adv-x="282" unicode="¡"/><glyph d="M261 600h64V445h-64zm0-530h64v-170h-64zm22-77q-72 0-127 32t-85 90-31 133q0 77 31 135t86 91 129 33q77 0 137-36t86-99l-103-34q-13 31-44 49t-72 19q-40 0-69-19t-44-55-16-83q0-72 35-113t96-42q39 0 70 17t48 50l101-35q-29-61-90-97T283-7" horiz-adv-x="550" unicode="¢"/><glyph d="M343 707q76 0 124-29t72-78 25-107H456q0 49-25 81t-88 33q-32 0-58-12t-42-40-16-73q0-34 8-62t18-53 17-51 8-55q0-46-16-87t-51-78h359V0H103L83 64q26 28 44 55t29 62 10 81q0 30-7 53t-18 47-18 53-8 74q0 68 29 117t81 75 118 26m100-324v-82H51v82z" horiz-adv-x="614" unicode="£"/><glyph d="M275 555q54 0 96-22t67-61 25-95q0-54-25-94t-68-62-97-22-96 22-65 62-24 94q0 55 24 94t67 62 96 22m-1-72q-35 0-61-27t-27-79q0-52 26-78t61-27q23 0 44 12t34 35 14 58q0 35-13 58t-33 36-45 12m-127-29-87 87 52 52 91-91zm200 47 92 92 51-52-91-92zm58-201 85-85-51-52-88 87zm-198-42-95-95-52 52 88 89z" horiz-adv-x="550" unicode="¤"/><glyph d="M412 397h191v-85H399zM85 224h518v-85H85zm0 173h211l13-85H85zm447 303h133L403 252V0H285v251L24 700h132l188-340z" horiz-adv-x="689" unicode="¥"/><glyph d="M207 282v-382H88v382zM88 418v382h119V418z" horiz-adv-x="295" unicode="¦"/><glyph d="M69 576q0 54 43 92t118 39q69 0 114-34t45-96h-89q-2 20-10 34t-23 23-37 9q-34 0-53-14t-19-45q0-17 10-30t35-26 73-31q45-17 77-37t48-47 17-63q0-33-15-61t-47-48-80-33l10 39q30-13 54-30t38-39 15-54q0-54-43-92T232-7q-69 0-114 34t-45 96h89q1-20 9-34t23-23 38-9q34 0 53 14t19 45q0 17-10 30t-35 26-73 31q-46 18-77 38t-48 46-17 63q0 34 15 62t47 49 79 26l-9-34q-30 14-54 30t-39 40-14 53m257-226q0 33-26 56t-70 23-69-23-25-56q0-32 25-56t71-24q45 0 69 24t25 56" horiz-adv-x="462" unicode="§"/><glyph d="M72 620q-26 0-43 18t-18 43q0 26 17 43t44 18q25 0 43-17t18-44q0-25-18-43t-43-18m174 0q-25 0-43 18t-18 43q0 26 18 43t43 18q26 0 43-17t18-44q0-25-17-43t-44-18" horiz-adv-x="319" unicode="¨"/><glyph d="M399 707q104 0 182-46t122-127 45-186q0-105-44-185T581 38 399-7Q295-7 217 38T94 163 50 348q0 105 44 186t123 127 182 46m0-47q-92 0-159-38T137 513t-36-164 36-162T240 79t159-39q91 0 158 38t103 108 37 163q0 93-36 163T557 621t-158 39m-5-570q-73 0-127 32t-86 89-31 135q0 76 31 134t87 91 128 33q78 0 138-36t85-99l-103-34q-13 31-44 49t-71 19q-40 0-69-19t-45-55-16-84q0-71 35-112t96-42q40 0 71 17t47 50l101-34q-28-61-89-97T394 90" horiz-adv-x="797" unicode="©"/><glyph d="M30 530q0 53 23 93t61 63 84 23q47 0 78-16t48-37v47h92V353h-92v46q-16-21-47-36t-76-16q-48 0-86 23t-62 65-23 95m96-1q0-53 30-81t69-29q39 0 69 28t30 81-30 81-69 29q-38 0-68-28t-31-81" horiz-adv-x="461" unicode="ª"/><glyph d="M242 75H128L36 250l92 175h114l-96-175zm194 0H322l-91 175 91 175h114l-95-175z" horiz-adv-x="480" unicode="«"/><glyph d="M33 436h572V206H487v137H33z" horiz-adv-x="649" unicode="¬"/><glyph d="M48 328h413V228H48z" horiz-adv-x="509" unicode="­"/><glyph d="M50 497q0 62 26 109t74 74 110 27q60 0 107-27t74-74 27-109q0-61-27-108t-74-74-107-27q-62 0-109 27t-74 74-27 108m51 0q0-48 19-84t55-57 85-21q48 0 84 20t55 57 20 85q0 49-19 85t-56 57-84 21q-49 0-85-20t-55-57-19-86m72 110V393h64v74h38q34 0 55 19t22 51q0 32-21 51t-56 19zm115-214h76l-63 98-70-1zm-18 158q7 0 13-4t6-12q0-9-6-13t-13-4h-33v33z" horiz-adv-x="517" unicode="®"/><glyph d="M11 722h369v-88H11z" horiz-adv-x="391" unicode="¯"/><glyph d="M22 525q0 55 24 94t67 60 96 21q54 0 96-21t67-60 24-94q0-54-24-93t-68-60-97-22q-82 0-133 47T22 525m280 0q0 55-28 81t-67 27q-35 0-63-26t-29-82q0-55 27-80t65-26q36 0 65 25t30 81" horiz-adv-x="418" unicode="°"/><glyph d="M413 598V142H303v456zM103 448h509V347H103zm0-245h509V102H103z" horiz-adv-x="715" unicode="±"/><glyph d="M33 599q2 48 38 78t100 30q43 0 73-16t47-42 16-56q0-25-8-44t-28-39-52-42l-108-76v32h197v-74H36v68l109 81q30 23 47 43t18 47q0 22-12 35t-31 13q-18 0-28-10t-13-28z" horiz-adv-x="346" unicode="²"/><glyph d="M36 603q3 31 21 54t51 36 74 14q40 0 72-14t51-38 19-53q0-31-18-49t-44-26v-2q27-9 46-30t19-53q0-42-41-70t-107-29q-65 0-104 29t-43 82h92q4-22 18-32t35-11q22 0 36 11t14 33q0 20-14 32t-38 12h-37v58h33q24 0 38 9t15 30q0 20-13 31t-36 11q-21 0-33-9t-18-26z" horiz-adv-x="366" unicode="³"/><glyph d="M233 798V698L11 590v87z" horiz-adv-x="245" unicode="´"/><glyph d="M531 0H412v62q-25-33-63-50T266-6q-15 0-29 2t-27 7-26 11v-214H67v700h117V222q0-63 31-95t82-33q52 0 83 33t32 97v276h119z" horiz-adv-x="597" unicode="µ"/><glyph d="M564 700V0H460v608h-67V0H289v286h-15q-83 0-135 28t-77 75-25 103q0 57 25 104t77 76 135 28z" horiz-adv-x="637" unicode="¶"/><glyph d="M124 259q-32 0-53 21t-22 54q0 31 21 52t54 22q31 0 53-21t22-53-22-53-53-22" horiz-adv-x="248" unicode="·"/><glyph d="M143-47q36 0 65-12t47-35 18-59q0-34-17-59t-47-37-64-13H11v73h111q26 0 40 7t14 29q0 23-14 30t-40 7H65V7h78z" horiz-adv-x="284" unicode="¸"/><glyph d="M79 633H24v67h147V350H79z" horiz-adv-x="220" unicode="¹"/><glyph d="M29 528q0 56 25 96t69 63 99 22q55 0 98-22t68-62 25-97q0-54-25-95t-70-63-99-23q-55 0-97 22t-68 64-25 95m289-1q0 55-29 83t-68 28q-38 0-67-28t-29-83q0-53 28-80t67-28q38 0 68 27t30 81" horiz-adv-x="444" unicode="º"/><glyph d="m239 75 94 175-94 175h113l92-175-92-175zM44 75l94 175-94 175h113l92-175-92-175z" horiz-adv-x="481" unicode="»"/><glyph d="M448 700h112L180 0H67zm206-576V67h-45V0h-92v67H330v51l151 235h128V124zm-135 0v159l-97-159zM79 633H24v66h147V349H79z" horiz-adv-x="683" unicode="¼"/><glyph d="M447 700h113L180 0H67zM79 633H24v66h147V349H79zm308-384q2 48 37 78t101 30q42 0 73-16t47-42 16-56q0-25-8-45t-28-39-53-41L464 42l1 32h196V0H389v68l109 81q30 22 47 42t18 48q0 22-12 35t-30 13q-19 0-29-10t-12-28z" horiz-adv-x="711" unicode="½"/><glyph d="M529 700h112L261 0H149zm205-576V67h-45V0h-92v67H410v51l150 235h129V124zm-135 0v160l-97-160zM29 603q2 31 20 54t51 36 74 14q40 0 72-14t51-38 19-53q0-31-17-49t-45-26v-2q27-9 46-30t19-53q0-42-41-70t-107-29q-65 0-104 29t-43 82h92q4-22 18-32t35-11q23 0 37 11t14 33q0 20-15 32t-39 12h-36v58h34q23 0 37 9t15 30q0 19-12 30t-37 12q-21 0-33-9t-17-26z" horiz-adv-x="758" unicode="¾"/><glyph d="M334 562q31 0 53-22t22-53-22-52-53-22q-32 0-53 21t-22 53q0 31 21 53t54 22m-59-714q-67 0-118 25T78-55 49 57q0 71 30 115t83 66 120 22l5 79h102l5-160h-35q-41 0-76-5t-60-17-40-37-13-63q0-34 11-58t35-37 58-13q52 0 82 27t31 79h111q0-60-27-107t-77-73-119-27" horiz-adv-x="547" unicode="¿"/><glyph d="m239 959 223-122v-87L239 860zm137-358h-36L130 0H8l248 700h202L707 0H585zM144 269h408v-98H144z" horiz-adv-x="714" unicode="À"/><glyph d="M462 959V858L239 750v87zm-86-358h-36L130 0H8l248 700h202L707 0H585zM144 269h408v-98H144z" horiz-adv-x="714" unicode="Á"/><glyph d="m501 750-144 86-144-86v92l144 84 144-84zM376 601h-36L130 0H8l248 700h202L707 0H585zM144 269h408v-98H144z" horiz-adv-x="714" unicode="Â"/><glyph d="M191 757q9 61 40 90t75 30q28 0 46-11t35-22 37-11q16 0 28 10t15 32h66q-10-60-41-90t-74-30q-28 0-46 11t-35 23-37 12q-17 0-28-11t-15-33zm185-156h-36L130 0H8l248 700h202L707 0H585zM144 269h408v-98H144z" horiz-adv-x="714" unicode="Ã"/><glyph d="M270 780q-26 0-43 17t-18 44q0 26 17 43t44 18q25 0 43-17t18-44q0-26-18-43t-43-18m174 0q-26 0-43 17t-18 44q0 26 17 43t44 18q25 0 43-17t19-44q0-26-18-43t-44-18m-68-179h-36L130 0H8l248 700h202L707 0H585zM144 269h408v-98H144z" horiz-adv-x="714" unicode="Ä"/><glyph d="M471 855q0-52-33-81t-81-30q-46 0-79 29t-34 82q0 51 33 81t80 30q48 0 81-30t33-81m-65 1q0 22-14 36t-35 14q-20 0-34-14t-14-36q0-23 14-37t34-14 34 14 15 37m-30-255h-36L130 0H8l248 700h202L707 0H585zM144 269h408v-98H144z" horiz-adv-x="714" unicode="Å"/><glyph d="M586 601V403h177v-98H586V99h268V0H467v170H226L135 0H8l380 700h466v-99zM279 268h188v349z" horiz-adv-x="907" unicode="Æ"/><glyph d="M429-47q36 0 65-12t47-35 18-60q0-34-17-59t-47-38-64-13H297v74h111q25 0 39 7t15 29q0 23-14 29t-40 7h-57V7h78zM37 350q0 79 27 144t76 113 113 74 139 26q103 0 186-49t128-141l-97-33q-23 44-59 71t-76 39-79 12q-68 0-122-31t-84-89-31-136q0-77 30-134t85-90 122-32q40 0 81 12t79 44 63 85l96-31Q668 96 583 45T392-7q-74 0-138 26T141 93 65 206 37 350" horiz-adv-x="763" unicode="Ç"/><glyph d="m193 959 223-122v-87L193 860zm358-358H192V404h269v-99H192V99h359V0H73v700h478z" horiz-adv-x="605" unicode="È"/><glyph d="M416 959V858L193 750v87zm135-358H192V404h269v-99H192V99h359V0H73v700h478z" horiz-adv-x="605" unicode="É"/><glyph d="m456 750-144 86-144-86v92l144 84 144-84zm95-149H192V404h269v-99H192V99h359V0H73v700h478z" horiz-adv-x="605" unicode="Ê"/><glyph d="M225 780q-26 0-43 17t-18 44q0 26 17 43t44 18q25 0 43-17t18-44q0-26-18-43t-43-18m175 0q-26 0-44 17t-18 44q0 26 18 43t44 18q24 0 42-17t18-44q0-26-18-43t-42-18m151-179H192V404h269v-99H192V99h359V0H73v700h478z" horiz-adv-x="605" unicode="Ë"/><glyph d="m14 959 223-122v-87L14 860zm59-259h119V0H73z" horiz-adv-x="266" unicode="Ì"/><glyph d="M237 959V858L14 750v87zM73 700h119V0H73z" horiz-adv-x="266" unicode="Í"/><glyph d="m277 750-144 86-144-86v92l144 84 144-84zM73 700h119V0H73z" horiz-adv-x="266" unicode="Î"/><glyph d="M46 780q-26 0-44 17t-18 44q0 26 18 43t44 18q25 0 43-17t18-44q0-26-18-43t-43-18m174 0q-26 0-43 17t-18 44q0 26 17 43t44 18q25 0 43-17t18-44q0-26-18-43t-43-18M73 700h119V0H73z" horiz-adv-x="266" unicode="Ï"/><glyph d="M53 402h76v298h231q112 0 194-43t128-122 46-188q0-107-45-185T555 42 360 0H129v294H53zM249 92h111q119-1 183 68t64 187-64 187-183 70H249V402h176V294H249z" horiz-adv-x="765" unicode="Ð"/><glyph d="M202 757q9 61 40 90t75 30q28 0 46-11t35-22 37-11q17 0 28 10t15 32h66q-9-60-40-90t-75-30q-28 0-46 11t-35 23-37 12q-16 0-28-11t-15-33zm437-57V0H518L192 513V0H73v700h122l326-511v511z" horiz-adv-x="713" unicode="Ñ"/><glyph d="m274 959 223-122v-87L274 860zM393-7q-74 0-139 26T141 92 65 205 37 350q0 78 27 143t76 114 114 74 139 26q74 0 138-26t113-74 76-113 28-144q0-79-27-144T645 93 532 19 393-7m0 101q68 0 121 31t83 89 30 136q0 79-30 136t-83 88-121 32q-68 0-121-31t-83-89-31-136q0-78 30-135t84-89 121-32" horiz-adv-x="784" unicode="Ò"/><glyph d="M497 959V858L274 750v87zM393-7q-74 0-139 26T141 92 65 205 37 350q0 78 27 143t76 114 114 74 139 26q74 0 138-26t113-74 76-113 28-144q0-79-27-144T645 93 532 19 393-7m0 101q68 0 121 31t83 89 30 136q0 79-30 136t-83 88-121 32q-68 0-121-31t-83-89-31-136q0-78 30-135t84-89 121-32" horiz-adv-x="784" unicode="Ó"/><glyph d="m537 750-144 86-144-86v92l144 84 144-84zM393-7q-74 0-139 26T141 92 65 205 37 350q0 78 27 143t76 114 114 74 139 26q74 0 138-26t113-74 76-113 28-144q0-79-27-144T645 93 532 19 393-7m0 101q68 0 121 31t83 89 30 136q0 79-30 136t-83 88-121 32q-68 0-121-31t-83-89-31-136q0-78 30-135t84-89 121-32" horiz-adv-x="784" unicode="Ô"/><glyph d="M227 757q8 61 39 90t76 30q27 0 45-11t35-22 37-11q16 0 28 10t15 32h66q-9-60-40-90t-75-30q-28 0-46 11t-35 23-37 12q-17 0-28-11t-15-33zM393-7q-74 0-139 26T141 92 65 205 37 350q0 78 27 143t76 114 114 74 139 26q74 0 138-26t113-74 76-113 28-144q0-79-27-144T645 93 532 19 393-7m0 101q68 0 121 31t83 89 30 136q0 79-30 136t-83 88-121 32q-68 0-121-31t-83-89-31-136q0-78 30-135t84-89 121-32" horiz-adv-x="784" unicode="Õ"/><glyph d="M305 780q-26 0-43 17t-18 44q0 26 17 43t44 18q25 0 43-17t19-44q0-26-18-43t-44-18m175 0q-27 0-44 17t-17 44q0 26 17 43t44 18q24 0 42-17t19-44q0-26-18-43t-43-18M393-7q-74 0-139 26T141 92 65 205 37 350q0 78 27 143t76 114 114 74 139 26q74 0 138-26t113-74 76-113 28-144q0-79-27-144T645 93 532 19 393-7m0 101q68 0 121 31t83 89 30 136q0 79-30 136t-83 88-121 32q-68 0-121-31t-83-89-31-136q0-78 30-135t84-89 121-32" horiz-adv-x="784" unicode="Ö"/><glyph d="m135 577 376-377-76-76L59 501zM55 202l375 375 78-78-375-375z" horiz-adv-x="567" unicode="×"/><glyph d="m562 608 92-48-412-450-92 47zM393-7q-74 0-139 26T141 92 65 205 37 350q0 78 27 143t76 114 114 74 139 26q74 0 138-26t113-74 76-113 28-144q0-79-27-144T645 93 532 19 393-7m0 101q68 0 121 31t83 89 30 136q0 79-30 136t-83 88-121 32q-68 0-121-31t-83-89-31-136q0-78 30-135t84-89 121-32" horiz-adv-x="784" unicode="Ø"/><glyph d="m234 959 222-122v-87L234 860zM70 700h118V254q0-53 21-89t59-53 84-18q49 0 86 17t58 54 22 89v446h118V257q0-67-23-116t-64-83-91-49T351-7q-74 0-138 29t-103 87-40 148z" horiz-adv-x="707" unicode="Ù"/><glyph d="M456 959V858L234 750v87zM70 700h118V254q0-53 21-89t59-53 84-18q49 0 86 17t58 54 22 89v446h118V257q0-67-23-116t-64-83-91-49T351-7q-74 0-138 29t-103 87-40 148z" horiz-adv-x="707" unicode="Ú"/><glyph d="m496 750-144 86-144-86v92l144 84 144-84zM70 700h118V254q0-53 21-89t59-53 84-18q49 0 86 17t58 54 22 89v446h118V257q0-67-23-116t-64-83-91-49T351-7q-74 0-138 29t-103 87-40 148z" horiz-adv-x="707" unicode="Û"/><glyph d="M265 780q-26 0-43 17t-18 44q0 26 17 43t44 18q25 0 43-17t18-44q0-26-18-43t-43-18m174 0q-25 0-43 17t-18 44q0 26 18 43t43 18q26 0 43-17t18-44q0-26-17-43t-44-18M70 700h118V254q0-53 21-89t59-53 84-18q49 0 86 17t58 54 22 89v446h118V257q0-67-23-116t-64-83-91-49T351-7q-74 0-138 29t-103 87-40 148z" horiz-adv-x="707" unicode="Ü"/><glyph d="M448 959V858L226 750v87zm84-259h133L403 252V0H285v251L24 700h132l188-340z" horiz-adv-x="689" unicode="Ý"/><glyph d="M315 234q66 0 96 32t31 84q0 53-30 85t-97 32H192V234zm249 116q0-50-24-98t-78-79-145-31H192V0H73v700h118V559h126q83 0 137-28t82-75 28-106" horiz-adv-x="601" unicode="Þ"/><glyph d="M67 502q0 54 22 100t72 76 129 29q70 0 117-24t71-63 24-79q0-34-13-56t-32-37-37-30q-14-13-25-24t-11-22q0-13 17-24t71-30q70-24 101-71t31-103q0-68-49-109T417-7q-84 0-136 44t-60 128h120q0-36 19-57t57-21q31 0 48 11t18 38q0 27-16 52t-59 40q-73 25-108 54t-35 75q0 36 21 62t46 49q20 19 36 30t16 34q0 34-26 55t-70 21q-41 0-64-15t-34-42-10-62V0H67z" horiz-adv-x="643" unicode="ß"/><glyph d="m164 728 197-107v-77l-197 97zM365 0l-10 61q-24-32-57-49T210-5q-52 0-90 17T62 61t-21 74q0 63 46 105t137 53l131 14v39q0 24-21 43t-67 20q-40 0-69-19t-40-59l-98 36q19 66 75 103t138 37q98 0 147-49t49-125V0zm-10 220-120-15q-38-5-57-21t-19-42q0-23 18-39t51-17q41 0 69 15t43 43 15 69z" horiz-adv-x="527" unicode="à"/><glyph d="M361 728v-88l-197-96v77zm4-728-10 61q-24-32-57-49T210-5q-52 0-90 17T62 61t-21 74q0 63 46 105t137 53l131 14v39q0 24-21 43t-67 20q-40 0-69-19t-40-59l-98 36q19 66 75 103t138 37q98 0 147-49t49-125V0zm-10 220-120-15q-38-5-57-21t-19-42q0-23 18-39t51-17q41 0 69 15t43 43 15 69z" horiz-adv-x="527" unicode="á"/><glyph d="m396 545-127 75-128-75v80l128 74 127-74zM365 0l-10 61q-24-32-57-49T210-5q-52 0-90 17T62 61t-21 74q0 63 46 105t137 53l131 14v39q0 24-21 43t-67 20q-40 0-69-19t-40-59l-98 36q19 66 75 103t138 37q98 0 147-49t49-125V0zm-10 220-120-15q-38-5-57-21t-19-42q0-23 18-39t51-17q41 0 69 15t43 43 15 69z" horiz-adv-x="527" unicode="â"/><glyph d="M122 551q7 53 35 79t66 27q24 0 41-10t31-19 32-10q15 0 25 9t14 28h58q-8-54-35-80t-67-26q-24 0-41 10t-31 20-32 10q-15 0-25-9t-13-29zM365 0l-10 61q-24-32-57-49T210-5q-52 0-90 17T62 61t-21 74q0 63 46 105t137 53l131 14v39q0 24-21 43t-67 20q-40 0-69-19t-40-59l-98 36q19 66 75 103t138 37q98 0 147-49t49-125V0zm-10 220-120-15q-38-5-57-21t-19-42q0-23 18-39t51-17q41 0 69 15t43 43 15 69z" horiz-adv-x="527" unicode="ã"/><glyph d="M191 570q-23 0-38 15t-16 40q0 22 15 38t39 16q23 0 39-16t16-38q0-24-16-39t-39-16m155 0q-23 0-38 15t-16 40q0 22 15 38t39 16q22 0 38-16t17-38q0-24-16-39t-39-16M365 0l-10 61q-24-32-57-49T210-5q-52 0-90 17T62 61t-21 74q0 63 46 105t137 53l131 14v39q0 24-21 43t-67 20q-40 0-69-19t-40-59l-98 36q19 66 75 103t138 37q98 0 147-49t49-125V0zm-10 220-120-15q-38-5-57-21t-19-42q0-23 18-39t51-17q41 0 69 15t43 43 15 69z" horiz-adv-x="527" unicode="ä"/><glyph d="M369 636q0-45-29-71t-71-26q-41 0-71 26t-30 71q0 46 30 72t71 27q42 0 71-26t29-73m-57 1q0 21-12 33t-31 12q-18 0-30-12t-13-33q0-20 12-32t31-13q18 0 30 12t13 33M365 0l-10 61q-24-32-57-49T210-5q-52 0-90 17T62 61t-21 74q0 63 46 105t137 53l131 14v39q0 24-21 43t-67 20q-40 0-69-19t-40-59l-98 36q19 66 75 103t138 37q98 0 147-49t49-125V0zm-10 220-120-15q-38-5-57-21t-19-42q0-23 18-39t51-17q41 0 69 15t43 43 15 69z" horiz-adv-x="527" unicode="å"/><glyph d="M593-7q-72 0-125 32t-82 91-29 136q0 118 60 186t173 69q72 0 125-30t84-86 30-129q0-13-1-26t-4-29H469q3-36 19-61t43-39 60-14q50 0 81 14t47 48l99-33q-30-59-85-94T593-7m115 306q-2 35-17 60t-42 37-61 13q-30 0-54-13t-39-38-22-59zM419 196l10-71q-19-48-54-77T296 6 211-7q-50 0-88 16T63 56t-22 78q0 40 15 68t42 46 59 29 67 16l131 18v35q0 24-22 43t-66 20q-40 0-69-19t-40-59l-98 36q19 67 74 103t139 37q96 0 145-48t50-126V222zm-64 25-117-16q-41-5-60-22t-19-42q0-26 20-38t53-12q34 0 62 13t45 39 16 68z" horiz-adv-x="868" unicode="æ"/><glyph d="M315-37q32 0 58-10t41-31 16-52q0-31-15-53t-41-33-57-11H198v65h98q23 0 36 6t13 26q0 19-13 25t-36 7h-50V11h69zM283-7q-72 0-127 32t-85 90-31 133q0 77 31 135t86 91 129 33q77 0 137-36t86-99l-103-34q-13 31-44 49t-72 19q-40 0-69-19t-44-55-16-83q0-72 35-113t96-42q39 0 70 17t48 50l101-35q-29-61-90-97T283-7" horiz-adv-x="550" unicode="ç"/><glyph d="m179 728 198-107v-77l-198 97zM291-7q-75 0-131 33t-88 92-32 136q0 73 31 130t86 90 125 33q71 0 125-31t84-86 31-129q0-12-1-25t-3-29H162q5-35 22-60t45-40 62-14q42 0 75 17t47 45l99-33q-30-60-89-94T291-7m108 306q-1 31-17 56t-42 39-58 15q-28 0-53-14t-42-38-23-58z" horiz-adv-x="562" unicode="è"/><glyph d="M377 728v-88l-198-96v77zM291-7q-75 0-131 33t-88 92-32 136q0 73 31 130t86 90 125 33q71 0 125-31t84-86 31-129q0-12-1-25t-3-29H162q5-35 22-60t45-40 62-14q42 0 75 17t47 45l99-33q-30-60-89-94T291-7m108 306q-1 31-17 56t-42 39-58 15q-28 0-53-14t-42-38-23-58z" horiz-adv-x="562" unicode="é"/><glyph d="m413 545-127 75-129-75v80l129 74 127-74zM291-7q-75 0-131 33t-88 92-32 136q0 73 31 130t86 90 125 33q71 0 125-31t84-86 31-129q0-12-1-25t-3-29H162q5-35 22-60t45-40 62-14q42 0 75 17t47 45l99-33q-30-60-89-94T291-7m108 306q-1 31-17 56t-42 39-58 15q-28 0-53-14t-42-38-23-58z" horiz-adv-x="562" unicode="ê"/><glyph d="M208 570q-24 0-39 16t-15 38q0 23 15 39t39 16q22 0 38-16t16-39q0-22-16-38t-38-16m155 0q-24 0-39 16t-15 38q0 23 15 39t39 16q22 0 37-16t16-39q0-22-15-38t-38-16M291-7q-75 0-131 33t-88 92-32 136q0 73 31 130t86 90 125 33q71 0 125-31t84-86 31-129q0-12-1-25t-3-29H162q5-35 22-60t45-40 62-14q42 0 75 17t47 45l99-33q-30-60-89-94T291-7m108 306q-1 31-17 56t-42 39-58 15q-28 0-53-14t-42-38-23-58z" horiz-adv-x="562" unicode="ë"/><glyph d="m20 723 198-107v-76L20 637zm47-223h118V0H67z" horiz-adv-x="251" unicode="ì"/><glyph d="M218 723v-88L20 540v76zM67 500h118V0H67z" horiz-adv-x="251" unicode="í"/><glyph d="m253 540-127 76-128-76v81l128 73 127-73zM67 500h118V0H67z" horiz-adv-x="251" unicode="î"/><glyph d="M48 566q-23 0-38 15t-16 39q0 23 15 38t39 16q23 0 38-15t16-39q0-23-16-38t-38-16m155 0q-24 0-39 15t-15 39q0 23 15 38t39 16q22 0 38-15t16-39q0-23-16-38t-38-16M67 500h118V0H67z" horiz-adv-x="251" unicode="ï"/><glyph d="M510 673v-66l-53-17q48-69 72-148t25-155q0-97-34-163t-94-99T294-8 165 24t-91 90-34 137 33 136 89 90 124 32q26 0 47-4t40-12 36-21q-10 20-23 42t-28 45l-116-37v65l78 26q-18 23-39 45t-44 42h124q29-26 56-57zM294 92q35 0 66 18t52 53 21 88-20 88-51 52-67 18q-35 0-65-17t-49-53-19-88q0-53 18-88t48-53 66-18" horiz-adv-x="593" unicode="ð"/><glyph d="M153 551q8 53 35 79t67 27q24 0 41-10t31-19 32-10q15 0 25 9t14 28h57q-7-54-34-80t-67-26q-24 0-41 10t-31 20-32 10q-15 0-25-9t-14-29zm-86-51h102l8-49q25 26 59 41t75 15q59 0 101-24t66-72 23-119V0H388v277q0 63-25 95t-77 32-79-32-27-96V0H67z" horiz-adv-x="559" unicode="ñ"/><glyph d="m191 728 198-107v-77l-198 97zM290-7q-72 0-129 31t-89 89-32 136q0 79 33 137t91 89 129 32q72 0 129-31t92-89 34-136q0-79-34-137t-93-89T290-7m-1 101q35 0 66 17t52 51 20 89q0 52-19 86t-50 52-67 17q-35 0-64-17t-48-51-18-89q0-52 17-86t47-52 64-17" horiz-adv-x="587" unicode="ò"/><glyph d="M389 728v-88l-198-96v77zM290-7q-72 0-129 31t-89 89-32 136q0 79 33 137t91 89 129 32q72 0 129-31t92-89 34-136q0-79-34-137t-93-89T290-7m-1 101q35 0 66 17t52 51 20 89q0 52-19 86t-50 52-67 17q-35 0-64-17t-48-51-18-89q0-52 17-86t47-52 64-17" horiz-adv-x="587" unicode="ó"/><glyph d="m425 545-127 75-129-75v80l129 74 127-74zM290-7q-72 0-129 31t-89 89-32 136q0 79 33 137t91 89 129 32q72 0 129-31t92-89 34-136q0-79-34-137t-93-89T290-7m-1 101q35 0 66 17t52 51 20 89q0 52-19 86t-50 52-67 17q-35 0-64-17t-48-51-18-89q0-52 17-86t47-52 64-17" horiz-adv-x="587" unicode="ô"/><glyph d="M149 551q9 53 36 79t67 27q24 0 40-10t31-19 33-10q15 0 25 9t13 28h58q-7-54-34-80t-67-26q-25 0-41 10t-31 20-32 10q-15 0-25-9t-14-29zM290-7q-72 0-129 31t-89 89-32 136q0 79 33 137t91 89 129 32q72 0 129-31t92-89 34-136q0-79-34-137t-93-89T290-7m-1 101q35 0 66 17t52 51 20 89q0 52-19 86t-50 52-67 17q-35 0-64-17t-48-51-18-89q0-52 17-86t47-52 64-17" horiz-adv-x="587" unicode="õ"/><glyph d="M220 570q-24 0-39 16t-15 38q0 23 15 39t39 16q22 0 38-16t16-39q0-22-16-38t-38-16m154 0q-23 0-38 16t-16 38q0 23 15 39t39 16q23 0 38-16t16-39q0-22-15-38t-39-16M290-7q-72 0-129 31t-89 89-32 136q0 79 33 137t91 89 129 32q72 0 129-31t92-89 34-136q0-79-34-137t-93-89T290-7m-1 101q35 0 66 17t52 51 20 89q0 52-19 86t-50 52-67 17q-35 0-64-17t-48-51-18-89q0-52 17-86t47-52 64-17" horiz-adv-x="587" unicode="ö"/><glyph d="M55 399h510V299H55zM315 59q-32 0-53 22t-22 53q0 31 21 53t54 22q31 0 53-22t22-53-22-53-53-22m0 432q-32 0-53 22t-22 53q0 31 21 53t54 22q31 0 53-22t22-53-22-53-53-22" horiz-adv-x="621" unicode="÷"/><glyph d="m417 449 78-56L193 60l-79 56zM290-7q-72 0-129 31t-89 89-32 136q0 79 33 137t91 89 129 32q72 0 129-31t92-89 34-136q0-79-34-137t-93-89T290-7m-1 101q35 0 66 17t52 51 20 89q0 52-19 86t-50 52-67 17q-35 0-64-17t-48-51-18-89q0-52 17-86t47-52 64-17" horiz-adv-x="587" unicode="ø"/><glyph d="m165 728 197-107v-77l-197 97zM495 0H391l-7 50q-25-27-60-42T250-7q-59 0-101 24T83 89 60 207v293h113V222q0-62 25-94t77-33q50 0 78 32t29 97v276h113z" horiz-adv-x="560" unicode="ù"/><glyph d="M362 728v-88l-197-96v77zM495 0H391l-7 50q-25-27-60-42T250-7q-59 0-101 24T83 89 60 207v293h113V222q0-62 25-94t77-33q50 0 78 32t29 97v276h113z" horiz-adv-x="560" unicode="ú"/><glyph d="m398 545-127 75-129-75v80l129 74 127-74zM495 0H391l-7 50q-25-27-60-42T250-7q-59 0-101 24T83 89 60 207v293h113V222q0-62 25-94t77-33q50 0 78 32t29 97v276h113z" horiz-adv-x="560" unicode="û"/><glyph d="M193 570q-23 0-38 15t-16 40q0 22 15 38t39 16q22 0 38-16t17-38q0-24-16-39t-39-16m154 0q-22 0-37 15t-16 40q0 22 15 38t38 16 39-16 16-38q0-24-16-39t-39-16M495 0H391l-7 50q-25-27-60-42T250-7q-59 0-101 24T83 89 60 207v293h113V222q0-62 25-94t77-33q50 0 78 32t29 97v276h113z" horiz-adv-x="560" unicode="ü"/><glyph d="M365 728v-88l-198-96v77zm44-228h119L234-200H122l90 214L17 500h125l132-354z" horiz-adv-x="545" unicode="ý"/><glyph d="M180-200H67v921h113V431q25 35 65 56t96 22q66 0 119-32t86-89 32-135q0-77-32-136t-85-92T341-8q-36 0-66 10t-54 29-41 43zm277 453q0 50-20 84t-52 51-67 18q-36 0-67-18t-51-52-20-85q0-50 19-85t51-53 68-19q35 0 66 19t52 54 21 86" horiz-adv-x="617" unicode="þ"/><glyph d="M194 570q-22 0-38 16t-16 38q0 23 16 39t38 16q23 0 39-16t16-39q0-22-16-38t-39-16m155 0q-23 0-38 16t-16 38q0 23 16 39t38 16 38-16 16-39q0-22-16-38t-38-16m60-70h119L234-200H122l90 214L17 500h125l132-354z" horiz-adv-x="545" unicode="ÿ"/><glyph d="M48 328h537V228H48z" horiz-adv-x="633" unicode="–"/><glyph d="M48 328h753V228H48z" horiz-adv-x="849" unicode="—"/><glyph d="m240 700-60-242H52l105 242z" horiz-adv-x="277" unicode="‘"/><glyph d="m37 458 60 242h129L120 458z" horiz-adv-x="277" unicode="’"/><glyph d="m37-100 60 238h129L120-100z" horiz-adv-x="277" unicode="‚"/><glyph d="m240 700-60-242H52l105 242zm184 0-60-242H236l105 242z" horiz-adv-x="460" unicode="“"/><glyph d="m221 458 60 242h129L304 458zm-184 0 60 242h129L120 458z" horiz-adv-x="460" unicode="”"/><glyph d="m37-100 60 238h129L120-100zm186 0 60 238h128L306-100z" horiz-adv-x="462" unicode="„"/><glyph d="M220 201q-36 0-66 18t-48 47-18 67 18 67 48 48 66 18q37 0 67-18t48-47 18-68q0-37-17-66t-48-48-68-18" horiz-adv-x="442" unicode="•"/><glyph d="M242 75H128L36 250l92 175h114l-96-175z" horiz-adv-x="286" unicode="‹"/><glyph d="m44 75 94 175-94 175h113l92-175-92-175z" horiz-adv-x="287" unicode="›"/></font>
</defs>
</svg>
