<svg xmlns="http://www.w3.org/2000/svg"><defs><font id="AlbertSans" horiz-adv-x="556"><font-face alphabetic="0" ascent="950" descent="-250" font-family="Albert Sans"/><glyph horiz-adv-x="280"/><glyph d="M85 700h85l-9-509H94zM131-4q-24 0-39 16T77 51t15 39 39 16q22 0 38-16t16-39-16-39-38-16" horiz-adv-x="261" unicode="!"/><glyph d="M51 700h76l-10-190H62zm126 0h77l-10-190h-55z" horiz-adv-x="305" unicode="&quot;"/><glyph d="M294 700h76l-36-180h216l36 180h77l-36-180h142v-70H613l-36-182h148v-70H564L525 0h-77l39 198H271L232 0h-76l39 198H43v70h165l36 182H86v70h172zm-10-432h216l36 182H320z" horiz-adv-x="811" unicode="#"/><glyph d="M259 775h49V-75h-49zM124 178q6-27 25-53t54-44 89-18q77 0 114 36t37 85q0 39-21 64t-57 41-81 30q-40 11-79 24t-72 34-51 54-19 82q0 59 28 102t79 68 119 24q59 0 103-17t73-47 44-71l-71-27q-7 23-27 44t-52 36-73 14q-40 0-72-14t-52-40-19-63q0-40 22-63t60-38 83-28q41-13 79-28t69-37 49-55 18-81q0-53-25-98t-75-73T293-7q-66 0-116 20T95 69t-44 80z" horiz-adv-x="574" unicode="$"/><glyph d="M51 561q0 68 40 107t103 39q61 0 102-39t41-107-41-107-102-40q-62 0-102 39T51 561m143 96q-36 0-57-24t-22-72q0-47 21-72t58-25q35 0 57 25t22 72-22 71-57 25m349 43h79L214 0h-79zM422 139q0 68 40 107t102 40q61 0 102-39t41-108q0-67-41-106T564-7q-61 0-101 39t-41 107m142 96q-35 0-57-24t-22-72q0-46 22-70t57-25q35 0 57 24t22 71-22 71-57 25" horiz-adv-x="758" unicode="%"/><glyph d="M414 595q-20 20-49 30t-67 11q-69 0-102-36t-34-91q0-40 20-66t63-39 108-13h217v-70H354q-100 0-152-28t-53-102q0-38 15-67t47-44 83-16q77 0 109 37t32 113v128h77V214q0-79-26-127t-75-71T294-7q-75 0-125 24T93 85t-25 99q0 50 19 84t52 56 77 31v5q-43 8-73 31t-46 55-16 71q0 52 24 95t73 69 117 26q57 0 103-17t79-50zm63 45-63-45zm-80-249q13 0 23 5t15 16 5 23v79h73V391h134v-70H513V161q0-49 26-72t69-23q9 0 18 1t21 2V4q-13-3-26-5t-26-2q-42 0-78 17t-60 53-23 94v160h-75v70z" horiz-adv-x="704" unicode="&amp;"/><glyph d="M55 700h79l-12-190H67z" horiz-adv-x="190" unicode="'"/><glyph d="M262-100Q199-50 154 19T84 173 60 349q0 92 25 175t73 154 117 122h83v-6q-75-58-124-130t-73-152-24-163 23-163 69-151T345-93v-7z" horiz-adv-x="408" unicode="("/><glyph d="M147-100H64v7q69 57 115 128t69 151 24 163q0 83-24 163t-73 152T51 794v6h83q69-51 117-121t73-154 25-176-24-176-70-153-108-120" horiz-adv-x="409" unicode=")"/><glyph d="m258 579 126 87 32-58-141-61 142-61-33-59-126 87 14-154h-65l12 154-125-88-34 61 141 61-141 59 33 59 127-87-13 154h66z" horiz-adv-x="476" unicode="*"/><glyph d="M355 605V95h-74v510zM64 384h509v-68H64z" horiz-adv-x="636" unicode="+"/><glyph d="M112 121h88L92-145H38z" horiz-adv-x="264" unicode=","/><glyph d="M64 312h394v-68H64z" horiz-adv-x="521" unicode="-"/><glyph d="M118-5Q95-5 80 11T64 50q0 23 15 39t39 16q22 0 38-16t16-39-16-39-38-16" horiz-adv-x="235" unicode="."/><glyph d="M239 800h80L78-100H0z" horiz-adv-x="319" unicode="/"/><glyph d="M68 350q0 77 11 142t38 114 75 74 123 27q74 0 122-26t75-75 38-113 11-143q0-78-11-143T512 93t-75-74T315-7q-74 0-122 26t-76 74-38 113-11 144m412 0q0 59-5 110t-22 91-49 62-89 23q-55 0-88-22t-50-62-22-91-6-111q0-61 5-113t22-91 50-60 89-22q56 0 89 21t49 61 21 91 6 113" horiz-adv-x="629" unicode="0"/><glyph d="M141 630H43v70h178V0h-80z" horiz-adv-x="306" unicode="1"/><glyph d="m57 60 213 197q62 57 98 98t51 76 16 73q0 59-35 95t-107 37q-49 0-83-21t-52-58-19-87H62q2 78 32 130t83 80 116 27q70 0 120-25t76-71 27-107q0-45-17-87t-57-90-111-114L177 70h359V0H57z" horiz-adv-x="601" unicode="2"/><glyph d="M68 511q4 62 35 105t82 67 119 24q69 0 117-26t72-69 25-95q0-38-16-70t-46-56-73-31v-5q43-9 76-30t53-56 19-85q0-55-25-98t-75-68T305-7q-73 0-126 22T94 83 57 204h77q7-69 47-104t124-36q50 0 82 15t47 45 16 67q0 73-52 101t-153 29h-23v70h24q65 0 107 13t63 39 21 66q0 55-33 91t-103 36q-44 0-77-15t-53-42-26-68z" horiz-adv-x="599" unicode="3"/><glyph d="M417 166H43v60l358 474h96V236h102v-70H497V0h-80zm2 70v379L135 236z" horiz-adv-x="655" unicode="4"/><glyph d="M516 700v-70H162V397q23 32 67 52t99 20q64 0 108-21t71-55 40-74 13-80q0-66-27-122t-82-90T315-7q-70 0-122 25t-84 69-41 104h78q14-62 58-94t111-33q56 0 92 22t54 61 18 90q0 77-42 119t-120 42q-57 0-98-25t-62-70H82v397z" horiz-adv-x="624" unicode="5"/><glyph d="M304-7q-75 0-130 32t-86 88-31 124q0 52 17 103t57 105l186 255h86L198 421 97 309q21 72 78 116t138 44q71 0 124-29t82-82 29-123-31-125-86-86T304-7M138 236q0-52 19-91t57-60 90-21q53 0 89 21t55 59 19 91-18 89-55 55-90 19-90-19-56-55-20-88" horiz-adv-x="599" unicode="6"/><glyph d="M514 700v-60L236 0h-81l282 630H43v70z" unicode="7"/><glyph d="M202 368q-60 20-91 59t-31 98q0 51 27 92t79 65 130 25q77 0 129-24t80-66 27-92q0-57-32-97t-90-60q65-17 103-61t38-110q0-62-32-108t-89-71T316-7q-76 0-133 25T93 89 61 197q0 67 38 110t103 61m269 148q0 62-41 91t-114 29q-71 0-113-28t-42-93q0-57 42-87t113-30 113 30 42 88M316 331q-49 0-88-13t-63-41-23-78q0-65 46-100t128-35q81 0 127 35t47 100q0 48-23 77t-62 42-89 13" horiz-adv-x="632" unicode="8"/><glyph d="M295 707q75 0 130-32t86-88 31-124q0-52-17-103t-57-105L282 0h-86l205 279 101 112q-20-72-77-116t-139-44q-71 0-123 29t-82 83-30 122q0 71 31 125t86 86 127 31m166-243q0 53-19 91t-57 60-90 21q-53 0-89-21t-55-59-19-91q0-52 18-88t55-56 90-19q53 0 90 19t56 55 20 88" horiz-adv-x="599" unicode="9"/><glyph d="M122-5Q99-5 84 11T68 50q0 23 15 39t39 16q22 0 38-16t16-39-16-39-38-16m0 432q-23 0-38 16t-16 39q0 23 15 39t39 16q22 0 38-16t16-39-16-39-38-16" horiz-adv-x="244" unicode=":"/><glyph d="M158 428q-23 0-38 16t-16 39q0 23 15 39t39 16q22 0 38-16t16-39-16-39-38-16m-42-307h88L96-145H42z" horiz-adv-x="280" unicode=";"/><glyph d="M412 119H311L64 350l247 231h101L164 350z" horiz-adv-x="497" unicode="&lt;"/><glyph d="M77 280h514v-68H77zm0 209h514v-68H77z" horiz-adv-x="667" unicode="="/><glyph d="M332 350 85 581h100l247-231-247-231H85z" horiz-adv-x="496" unicode="&gt;"/><glyph d="M273 707q64 0 113-25t78-70 28-109q0-74-32-120t-87-67-126-21l-3-104h-68l-4 159h26q43 0 81 5t68 22 47 46 17 80q0 42-17 72t-47 45-74 16q-66 0-104-33t-38-95H57q-1 61 26 105t76 69 114 25M214-5q-23 0-38 16t-16 39q0 23 15 39t39 16q23 0 38-16t16-39q0-23-15-39T214-5" horiz-adv-x="548" unicode="?"/><glyph d="m594 155 17-27q-26-61-81-97T410-6q-77 0-119 46t-43 125q0 56 17 106t50 90 77 63 100 23q62 0 99-32t44-95l-22-13 23 129h69l-51-290q-7-43 4-70t49-28q33 0 58 23t42 62 25 82 9 85q0 89-36 151t-105 96-165 34q-91 0-168-33t-134-94-88-140-31-172q-1-90 36-153t106-96 164-33q41 0 84 8t81 26l11-54q-44-19-93-28t-100-9q-107 0-187 40T92-41 47 135q0 106 36 197t104 160 158 107 200 39q111 0 192-42t126-117 44-174q0-57-14-112T852 92t-67-71-90-27q-59 0-84 35t-20 92zM492 386q-53 0-90-30t-58-79-21-101q0-53 27-86t84-34q44 0 81 24t60 66 29 96q4 40-7 72t-37 52-68 20" horiz-adv-x="983" unicode="@"/><glyph d="M354 630h-33L90 0H9l256 700h144L664 0h-81zM134 254h408v-70H134z" horiz-adv-x="672" unicode="A"/><glyph d="M508 510q0 55-36 87t-109 33H165V391h201q68 0 105 32t37 87M85 0v700h285q74 0 122-25t71-65 24-90q0-48-17-80t-47-52-65-26v-7q42-6 75-26t52-56 19-85q0-52-26-95t-76-68T378 0zm80 70h207q72 0 112 32t41 94q0 61-42 93t-114 32H165z" horiz-adv-x="660" unicode="B"/><glyph d="M43 350q0 79 26 144t73 113 110 74 137 26q108 0 189-50t124-142l-65-24q-23 49-61 80t-86 48-101 16q-75 0-135-34t-94-98-35-153q0-88 34-152t95-98 135-35q54 0 103 17t88 53 64 90l65-24Q666 98 583 46T389-7q-74 0-136 26T143 93 69 206 43 350" horiz-adv-x="765" unicode="C"/><glyph d="M316 700q116 0 198-42t127-122 45-188-44-186T515 42 316 0H85v700zm0-630q143 0 216 73t73 205q0 133-73 207t-216 75H165V70z" horiz-adv-x="729" unicode="D"/><glyph d="M544 630H165V391h285v-70H165V70h379V0H85v700h459z" horiz-adv-x="609" unicode="E"/><glyph d="M85 700h459v-70H165V391h285v-70H165V0H85z" horiz-adv-x="587" unicode="F"/><glyph d="M633 490q-38 75-101 110t-140 36q-76 0-137-35t-96-99-35-152q0-87 35-151t96-99 137-35q57 0 106 19t85 56 55 88v81H398v65h321V224q-23-67-70-119T536 23 392-7q-74 0-137 26T144 92 70 205 43 350q0 79 26 144t74 113 111 74 138 26q69 0 129-22t108-65 74-104z" horiz-adv-x="770" unicode="G"/><glyph d="M85 700h80V391h375v309h80V0h-80v321H165V0H85z" horiz-adv-x="705" unicode="H"/><glyph d="M85 700h80V0H85z" horiz-adv-x="250" unicode="I"/><glyph d="M347 700h80V183q0-55-24-98t-66-67T237-7q-72 0-118 36T56 130l69 25q7-26 20-47t36-33 56-12q39 0 63 18t35 45 12 57z" horiz-adv-x="508" unicode="J"/><glyph d="M85 700h80V391h34l289 309h103L269 356 594 0H488L198 321h-33V0H85z" horiz-adv-x="607" unicode="K"/><glyph d="M165 700V70h327V0H85v700z" horiz-adv-x="520" unicode="L"/><glyph d="M165 0H85v700h88l260-590 259 590h87V0h-80v542L461 0h-57L165 542z" horiz-adv-x="864" unicode="M"/><glyph d="M620 700V0h-81L165 572V0H85v700h81l374-571v571z" horiz-adv-x="705" unicode="N"/><glyph d="M392-7q-74 0-137 26T144 92 70 205 43 350q0 79 26 144t74 113 111 74 138 26q73 0 136-26t111-73 73-113 27-145q0-79-26-144T639 93 529 19 392-7m0 70q75 0 135 35t95 99 35 153-35 153-95 99-135 35q-76 0-136-34t-96-99-35-154q0-88 35-152t95-100 137-35" horiz-adv-x="781" unicode="O"/><glyph d="M332 356q56 0 91 17t51 48 17 72q0 65-37 101t-122 36H165V356zm238 137q0-41-13-78t-43-67-74-45-108-17H165V0H85v700h247q82 0 134-28t78-75 26-104" horiz-adv-x="612" unicode="P"/><glyph d="M353 163h80v-263h-80zM392-7q-74 0-137 26T144 92 70 205 43 350q0 79 26 144t74 113 111 74 138 26q73 0 136-26t111-73 73-113 27-145q0-79-26-144T639 93 529 19 392-7m0 70q75 0 135 35t95 99 35 153-35 153-95 99-135 35q-76 0-136-34t-96-99-35-154q0-88 35-152t95-100 137-35" horiz-adv-x="781" unicode="Q"/><glyph d="M489 493q0 63-37 100t-121 37H165V356h167q55 0 89 17t51 48 17 72M331 700q82 0 134-28t79-74 26-105q0-41-13-78t-43-66-74-46-108-17H165V0H85v700zm58-384L583 0h-91L303 316z" horiz-adv-x="625" unicode="R"/><glyph d="M124 178q6-27 25-53t54-44 89-18q77 0 114 36t37 85q0 39-21 64t-57 41-81 30q-40 11-79 24t-72 34-51 54-19 82q0 59 28 102t79 68 119 24q59 0 103-17t73-47 44-71l-71-27q-7 23-27 44t-52 36-73 14q-40 0-72-14t-52-40-19-63q0-40 22-63t60-38 83-28q41-13 79-28t69-37 49-55 18-81q0-53-25-98t-75-73T293-7q-66 0-116 20T95 69t-44 80z" horiz-adv-x="574" unicode="S"/><glyph d="M43 700h525v-70H346V0h-80v630H43z" horiz-adv-x="610" unicode="T"/><glyph d="M81 700h80V258q0-69 25-112t67-63 97-20q53 0 95 20t67 63 25 112v442h80V259q0-69-21-119t-60-82-86-49T349-7q-72 0-133 28t-98 88-37 150z" horiz-adv-x="697" unicode="U"/><glyph d="M563 700h85L382 0h-92L28 700h85L338 85z" horiz-adv-x="677" unicode="V"/><glyph d="M313 0h-88L28 700h85L269 97l172 603h89L701 98l157 602h84L745 0h-88L485 580z" horiz-adv-x="971" unicode="W"/><glyph d="M57 700h88l209-286 209 286h89L399 350 652 0h-89L354 286 145 0H57l252 350z" horiz-adv-x="708" unicode="X"/><glyph d="M531 700h89L364 269V0h-80v268L28 700h89l207-355z" horiz-adv-x="649" unicode="Y"/><glyph d="M536 637 150 70h390V0H57v63l385 567H61v70h475z" horiz-adv-x="596" unicode="Z"/><glyph d="M81 800h166v-66h-91V-33h91v-67H81z" horiz-adv-x="298" unicode="["/><glyph d="M320-100h-79L0 800h79z" horiz-adv-x="320" unicode="\"/><glyph d="M217 800v-900H51v67h91v767H51v66z" horiz-adv-x="298" unicode="]"/><glyph d="M326 602 137 250H55l234 450h73l235-450h-83z" horiz-adv-x="653" unicode="^"/><glyph d="M-2-36h519v-74H-2z" horiz-adv-x="515" unicode="_"/><glyph d="m13 775 208-125v-60L13 706z" horiz-adv-x="234" unicode="`"/><glyph d="m390 0-6 90q-21-46-62-71T218-7q-54 0-92 17T68 58t-21 75q0 63 47 103t136 50l154 17v40q0 42-31 67t-84 26q-52 0-86-24t-48-69l-68 24q20 66 73 103t131 37q89 0 138-45t50-124V0zm-6 239-155-18q-50-6-76-27t-26-57q0-35 25-56t74-21q55 0 90 22t51 59 17 82z" horiz-adv-x="528" unicode="a"/><glyph d="M144 399q22 46 69 77t119 31q69 0 120-32t80-89 29-136q0-78-29-136t-80-89T332-7q-68 0-113 29t-68 71l-5-93H77v720h75V398zm336-149q0 86-44 136t-120 51q-47 0-84-22t-59-64-21-101q0-59 21-101t58-64 85-22q75 0 119 50t45 137" horiz-adv-x="606" unicode="b"/><glyph d="M290-7q-73 0-128 32t-85 89-31 134q0 77 30 135t86 91 128 33q77 0 135-35t84-99l-69-24q-15 40-54 63t-92 24q-51 0-88-23t-58-65-21-99q0-84 45-134t120-51q51 0 91 23t59 62l68-24q-27-62-85-97T290-7" unicode="c"/><glyph d="m463 399-8-1v322h75V0h-69l-5 93q-23-42-68-71T275-7q-69 0-120 31t-80 90-29 136q0 78 28 135t80 90 121 32q71 0 118-31t70-77M127 250q0-86 44-136t120-51q47 0 84 22t58 64 22 101q0 59-21 100t-59 64-84 23q-75 0-119-50t-45-137" horiz-adv-x="606" unicode="d"/><glyph d="M287-7q-70 0-124 34t-86 93-31 135q0 73 31 130t85 89 123 33q68 0 121-30t84-83 28-121q0-11-1-23t-2-26H128q2-47 23-83t55-56 79-21q58 0 98 22t59 63l65-26q-30-63-87-96T287-7m149 296q1 43-18 76t-55 52-81 19q-40 0-73-19t-54-52-26-76z" horiz-adv-x="564" unicode="e"/><glyph d="M104 559q0 55 18 93t57 55 106 13v-67q-60 5-83-19t-23-75v-59h110v-70H179V0h-75v430H34v70h70z" horiz-adv-x="324" unicode="f"/><glyph d="M461 500h69V92q0-92-41-157T370-165t-190-35l-12 69q141 2 214 58t73 165v11l8-2q-23-44-69-75T275-7q-69 0-120 31t-80 90-29 136q0 78 28 135t80 90 121 32q45 0 80-13t60-36 41-51zM127 250q0-86 44-136t121-51q46 0 83 22t58 64 22 101q0 59-21 100t-59 64-83 23q-75 0-120-51t-45-136" horiz-adv-x="606" unicode="g"/><glyph d="M77 720h75V432q24 36 65 55t92 20q55 0 98-25t67-74 25-122V0h-80v277q0 78-33 119t-96 42q-65 0-101-44t-37-128V0H77z" horiz-adv-x="567" unicode="h"/><glyph d="M92 500h74V0H92zm38 100q-23 0-38 15t-15 37q0 23 15 38t38 15q21 0 36-15t16-38q0-22-15-37t-37-15" horiz-adv-x="258" unicode="i"/><glyph d="M88 13q0-64-32-101t-90-43l11-69q50 2 92 27t68 73 26 112v488H88zm38 587q-22 0-37 15t-16 37q0 23 15 38t38 15q22 0 37-15t15-38q0-22-15-37t-37-15" horiz-adv-x="251" unicode="j"/><glyph d="M77 720h76V283h46l197 217h106L266 250 503 0H396L199 218h-46V0H77z" horiz-adv-x="518" unicode="k"/><glyph d="M77 720h75V0H77z" horiz-adv-x="228" unicode="l"/><glyph d="M77 500h69l5-72q22 36 59 57t90 22q53 0 96-25t68-76q23 51 70 76t104 25q56 0 99-24t67-73 24-122V0h-75v279q0 78-33 118t-96 41q-63 0-100-43t-37-129V0h-75v279q0 78-32 118t-94 41q-63 0-98-43t-36-129V0H77z" horiz-adv-x="896" unicode="m"/><glyph d="M77 500h69l4-71q24 37 63 57t91 21q57 0 100-24t67-73 24-122V0h-75v279q0 78-33 118t-97 41q-65 0-101-43t-37-127V0H77z" horiz-adv-x="563" unicode="n"/><glyph d="M293-7q-71 0-127 31t-88 88-32 137 32 138 89 89 128 31 127-31 89-88 33-137-33-138-90-89T293-7m-1 71q44 0 83 19t63 61 25 106q0 65-24 106t-62 60-83 20q-44 0-82-19t-61-61-24-106q0-65 23-106t60-60 82-20" horiz-adv-x="590" unicode="o"/><glyph d="m144 101 8 1v-302H77v700h69l5-93q23 42 68 71t113 29q65 0 117-31t82-89 30-137q0-78-28-135t-80-90T332-7q-72 0-119 31t-69 77m336 149q0 86-44 136t-120 51q-47 0-84-22t-59-64-21-101q0-58 21-100t58-64 85-23q75 0 119 50t45 137" horiz-adv-x="606" unicode="p"/><glyph d="M463 101q-23-46-70-77T275-7q-69 0-120 32t-80 89-29 136 28 136 80 89 121 32q67 0 112-29t69-71l5 93h69v-700h-75v302zM127 250q0-86 44-136t120-51q47 0 84 22t58 65 22 100q0 59-21 101t-59 64-84 22q-76 0-120-50t-44-137" horiz-adv-x="606" unicode="q"/><glyph d="M77 500h69l4-73q20 27 48 46t63 26 74 1v-75q-42 8-75 0t-58-30-37-55-13-78V0H77z" horiz-adv-x="360" unicode="r"/><glyph d="M118 153q6-30 22-49t41-30 60-10q53 0 80 20t28 52q0 26-16 42t-44 26-60 19q-26 6-56 14t-57 24-44 39-17 63q0 43 23 75t65 51 96 18q62 0 110-27t68-84l-70-24q-7 26-25 40t-41 19-45 5q-45 0-72-17t-28-53q0-19 9-31t25-21 38-13 48-13q29-7 59-17t56-27 42-42 17-64q0-44-24-76t-66-51-99-18q-77 0-127 34T46 129z" horiz-adv-x="475" unicode="s"/><glyph d="M109 500v140h75V500h133v-70H184V161q0-46 19-67t50-25 64 0V4q-39-9-76-5t-67 22-47 53-18 87v269H34v70z" horiz-adv-x="352" unicode="t"/><glyph d="M486 0h-68l-5 72q-23-38-62-58T260-7q-58 0-101 24T93 89 69 210v290h74V218q0-77 33-116t97-40q64 0 101 41t38 126v271h74z" horiz-adv-x="562" unicode="u"/><glyph d="M106 500 264 84l159 416h79L302 0h-78L26 500z" horiz-adv-x="527" unicode="v"/><glyph d="M251 0h-68L26 500h76L217 93l129 407h68L541 94l114 406h74L573 0h-69L378 388z" horiz-adv-x="754" unicode="w"/><glyph d="M31 500h86l128-191 128 191h87L287 251 460 0h-87L245 193 117 0H31l173 251z" horiz-adv-x="491" unicode="x"/><glyph d="M416 500h78L208-200h-72L221 7 19 500h82L261 96z" horiz-adv-x="513" unicode="y"/><glyph d="M425 435 144 70h284V0H50v65l281 365H53v70h372z" horiz-adv-x="479" unicode="z"/><glyph d="M47 376q40 7 62 20t32 32 10 38q0 32-5 69t-11 75-6 73q0 59 41 88t106 29h54v-55h-39q-41 0-62-15t-22-51q0-32 5-70t10-75 6-71q0-41-26-71t-84-41v-2q58-10 84-40t26-71q0-33-5-71t-11-75-5-70q0-36 21-51t63-15h39v-56h-54q-65 0-106 29t-41 88q0 35 5 73t11 76 6 69q0 20-9 38t-32 31-63 21z" horiz-adv-x="377" unicode="{"/><glyph d="M182 800v-900h-80v900z" horiz-adv-x="284" unicode="|"/><glyph d="M330 376v-51q-40-7-63-20t-32-32-9-38q0-31 5-68t11-76 6-74q0-58-41-87t-106-30H47v56h39q40 0 62 15t22 51q0 32-5 69t-11 76-5 71q0 41 26 71t84 40v2q-58 11-84 41t-26 71q0 33 5 70t10 76 6 70q0 35-22 50t-62 16H47v55h54q65 0 106-29t41-88q0-34-5-72t-11-76-6-69q0-20 9-38t32-31 63-21" horiz-adv-x="376" unicode="}"/><glyph d="M60 282q12 69 46 103t86 34q27 0 49-10t41-23 38-24 40-10q26 0 44 18t22 48h60q-12-70-46-103t-86-34q-28 0-49 10t-41 23-37 24-41 10q-27 0-45-18t-22-48z" horiz-adv-x="545" unicode="~"/><glyph horiz-adv-x="280"/><glyph d="M131 561q22 0 38-16t16-39-16-39-38-16q-24 0-39 16t-15 39 15 39 39 16M85-143l9 509h67l9-509z" horiz-adv-x="261" unicode="¡"/><glyph d="M273 600h49V472h-49zm0-549h49v-151h-49zm17-58q-73 0-128 32t-85 89-31 134q0 77 30 135t86 91 128 33q77 0 135-35t84-99l-69-24q-15 40-54 63t-92 24q-51 0-88-23t-58-65-21-99q0-84 45-134t120-51q51 0 91 23t59 62l68-24q-27-62-85-97T290-7" unicode="¢"/><glyph d="M338 707q70 0 116-28t70-74 28-102h-73q-3 59-38 98t-103 39q-37 0-68-14t-50-46-19-83q0-38 9-70t20-63 21-60 10-64q0-51-18-93t-55-81h366V0H116l-14 46q24 28 43 55t30 61 11 77q0 35-9 63t-22 57-21 63-9 79q0 63 26 109t75 71 112 26m87-339v-57H60v57z" horiz-adv-x="605" unicode="£"/><glyph d="M269 553q48 0 87-21t63-61 24-94q0-53-23-92t-64-62-88-22q-50 0-88 22t-60 61-22 93 22 93 61 61 88 22m0-51q-44 0-74-32t-31-93q0-60 30-92t74-32q27 0 51 14t40 42 16 68-15 68-39 42-52 15m-118-37-82 81 37 37 81-81zm201 36 81 82 37-37-84-84zm38-211 80-79-37-38-78 79zm-201-34-83-83-37 38 82 82z" horiz-adv-x="539" unicode="¤"/><glyph d="M374 377h189v-59H362zM84 225h479v-59H84zm0 152h200l12-59H84zm447 323h89L364 269V0h-80v268L28 700h89l207-355z" horiz-adv-x="649" unicode="¥"/><glyph d="M181 277v-377h-79v377zm-79 148v375h79V425z" horiz-adv-x="283" unicode="¦"/><glyph d="M73 588q0 50 39 84t111 35q67 0 111-33t47-97h-60q-2 22-12 41t-32 32-54 13q-41 0-66-17t-25-53q0-21 11-36t37-29 74-30q47-15 82-34t54-46 19-67q0-34-17-63t-51-49-85-25l5 22q32-11 61-26t47-39 18-58q0-50-39-85T239-7q-68 0-112 33t-48 97h59q3-23 14-42t32-32 55-12q40 0 64 18t24 53q0 21-10 36t-37 30-74 29q-47 15-81 34t-54 46-20 68q0 34 17 63t52 49 84 23l-6-21q-32 12-60 27t-47 38-18 58m275-237q0 40-32 67t-88 27-86-28-30-66q0-40 31-67t88-28q56 0 86 28t31 67" horiz-adv-x="460" unicode="§"/><glyph d="M62 622q-21 0-35 14t-14 34 14 35 35 15q20 0 34-15t15-35q0-20-14-34t-35-14m158 0q-21 0-35 14t-14 34 14 35 35 15q19 0 34-15t15-35-15-34-34-14" horiz-adv-x="282" unicode="¨"/><glyph d="M404 707q103 0 180-46t121-126 44-185q0-104-43-184T585 39 404-7Q301-7 223 39T101 165 57 350q0 104 44 184t122 127 181 46m0-36q-94 0-163-41T134 517 96 350q0-94 38-166T241 70t163-41q94 0 163 41t106 113 37 167q0 94-37 166T567 630t-163 41m-4-581q-73 0-128 32t-85 89-31 135q0 77 30 135t86 90 128 33q77 0 135-35t84-99l-69-24q-16 40-55 63t-91 24q-51 0-88-23t-58-65-21-98q0-85 45-135t120-51q50 0 90 23t60 62l68-24q-27-61-85-96T400 90" horiz-adv-x="807" unicode="©"/><glyph d="M35 529q0 54 21 94t59 63 85 23q51 0 85-21t50-53v68h63V353h-63v67q-15-31-49-52t-84-21q-48 0-85 23t-60 65-22 94m65 0q0-61 34-96t82-36q50 0 84 35t35 96q0 62-34 96t-85 35q-47 0-81-34t-35-96" horiz-adv-x="450" unicode="ª"/><glyph d="M220 75h-79L43 250l98 175h79L119 250zm175 0h-80l-97 175 97 175h80L294 250z" horiz-adv-x="446" unicode="«"/><glyph d="M38 431h562V225h-78v142H38z" horiz-adv-x="651" unicode="¬"/><glyph d="M55 312h394v-68H55z" horiz-adv-x="504" unicode="­"/><glyph d="M57 505q0 58 26 103t71 72 103 27q59 0 104-26t70-72 26-104q0-58-25-104t-71-72-104-27q-58 0-103 26t-71 73-26 104m39 0q0-48 20-85t56-59 85-22 85 21 57 59 20 86q0 49-20 86t-56 58-86 22q-49 0-85-21t-56-59-20-86m83 109V399h47v82h47q33 0 53 18t20 49q0 30-20 48t-53 18zm119-215 56 1-67 98h-51zm-28 172q12 0 20-5t9-20q0-13-8-19t-21-6h-44v50z" horiz-adv-x="515" unicode="®"/><glyph d="M13 704h345v-60H13z" horiz-adv-x="371" unicode="¯"/><glyph d="M25 525q0 54 22 93t61 60 89 22q50 0 89-21t60-61 22-93q0-53-22-92t-61-61-90-22q-75 0-122 48T25 525m278 0q0 62-31 94t-76 33q-45 0-76-32t-31-95q0-62 30-94t76-32q45 0 76 32t32 94" horiz-adv-x="394" unicode="°"/><glyph d="M410 606V146h-74v460zM119 426h509v-67H119zm0-265h509V94H119z" horiz-adv-x="747" unicode="±"/><glyph d="M38 599q3 46 34 77t93 31q37 0 64-14t42-39 15-55q0-27-10-48t-29-42-49-44l-99-83-6 20h198v-52H39v45l111 94q29 24 49 48t20 59q0 30-16 45t-40 16q-27 0-42-15t-18-43z" horiz-adv-x="335" unicode="²"/><glyph d="M41 610q3 28 20 50t45 34 68 13q35 0 64-13t46-37 18-52q0-31-17-51t-47-28v-2q27-8 46-30t20-55q0-38-36-67t-98-29q-57 0-93 27t-39 78h63q4-31 22-44t47-13q30 0 48 15t18 41q0 27-19 42t-50 16h-45v43h45q29 0 47 13t19 41q0 25-17 40t-46 15q-30 0-46-13t-22-34z" horiz-adv-x="349" unicode="³"/><glyph d="M221 775v-70L13 590v60z" horiz-adv-x="234" unicode="´"/><glyph d="M522 0h-79v82q-26-46-69-68T280-9q-24 0-47 6t-44 21-33 40v-258H77v700h79V230q0-85 40-127t104-43q63 0 103 41t40 127v272h79z" horiz-adv-x="598" unicode="µ"/><glyph d="M513 700V0h-72v637h-82V0h-71v297h-9q-81 0-133 26t-78 72-25 103q0 57 25 103t77 72 134 27z" horiz-adv-x="597" unicode="¶"/><glyph d="M111 288q-23 0-38 16t-16 39q0 23 15 39t39 16q22 0 38-16t16-39-16-39-38-16" horiz-adv-x="221" unicode="·"/><glyph d="M110-63q38 1 67-9t45-33 17-54q0-30-15-52t-43-35-62-13H13v52h91q35 0 51 11t17 37q0 23-16 34t-52 12H55V7h55z" horiz-adv-x="252" unicode="¸"/><glyph d="M82 650H28v50h117V350H82z" horiz-adv-x="202" unicode="¹"/><glyph d="M34 527q0 56 24 96t66 63 93 23q52 0 93-22t65-63 24-97q0-54-24-95t-65-63-94-23q-52 0-93 22t-65 64-24 95m299 0q0 65-35 98t-82 33q-46 0-81-33t-35-98q0-63 34-96t82-34q47 0 82 33t35 97" horiz-adv-x="434" unicode="º"/><glyph d="m226 75 100 175-100 175h79l98-175-98-175zM51 75l101 175L51 425h79l98-175-98-175z" horiz-adv-x="445" unicode="»"/><glyph d="M440 700h75L135 0H59zm142-587V70h-48V0h-64v70H289v38l161 246h84V113zm-111 0v181L354 113zM82 650H28v50h117V350H82z" horiz-adv-x="616" unicode="¼"/><glyph d="M435 700h76L131 0H56zM82 650H28v50h117V350H82zm276-401q3 46 34 77t93 31q37 0 64-14t42-39 15-55q0-27-10-48t-29-42-49-44l-99-83-6 20h198V0H359v45l111 94q29 24 49 48t20 59q0 30-16 45t-40 16q-27 0-42-15t-18-43z" horiz-adv-x="668" unicode="½"/><glyph d="M523 700h76L219 0h-75zm142-587V70h-48V0h-64v70H372v38l161 246h84V113zm-111 0v181L437 113zM31 610q3 28 20 50t46 34 67 13q36 0 65-13t46-37 17-52q0-31-17-51t-47-28v-2q28-8 47-30t19-55q0-38-36-67t-98-29q-57 0-92 27t-40 78h63q5-31 23-44t46-13q30 0 48 15t18 41q0 27-19 42t-50 16h-45v43h45q30 0 48 13t18 41q0 25-16 40t-47 15q-30 0-46-13t-22-34z" horiz-adv-x="693" unicode="¾"/><glyph d="M334 553q23 0 38-16t16-39q0-23-15-39t-39-16q-23 0-38 16t-16 39q0 23 15 39t39 16m-58-712q-65 0-114 25T85-63 57 45q0 75 31 120t87 67 127 21l3 104h68l4-159h-26q-44 0-82-5t-68-22-46-46-17-80q0-42 16-71t48-46 74-16q65 0 103 33t39 95h74q0-60-27-105t-76-69-113-25" horiz-adv-x="548" unicode="¿"/><glyph d="m223 939 208-126v-60L223 869zm131-309h-33L90 0H9l256 700h144L664 0h-81zM134 254h408v-70H134z" horiz-adv-x="672" unicode="À"/><glyph d="M431 939v-71L223 753v60zm-77-309h-33L90 0H9l256 700h144L664 0h-81zM134 254h408v-70H134z" horiz-adv-x="672" unicode="Á"/><glyph d="m473 764-136 84-136-84v64l136 82 136-82zM354 630h-33L90 0H9l256 700h144L664 0h-81zM134 254h408v-70H134z" horiz-adv-x="672" unicode="Â"/><glyph d="M191 763q6 48 31 72t62 24q26 0 43-11t33-23 37-12q16 0 28 10t16 31h47q-6-47-32-71t-62-24q-27 0-45 11t-33 23-35 12q-18 0-29-9t-14-33zm163-133h-33L90 0H9l256 700h144L664 0h-81zM134 254h408v-70H134z" horiz-adv-x="672" unicode="Ã"/><glyph d="M258 785q-21 0-35 14t-14 34q0 21 14 35t35 15q20 0 34-14t15-36q0-20-14-34t-35-14m158 0q-21 0-35 14t-14 34q0 21 14 35t35 15q19 0 34-14t15-36q0-20-15-34t-34-14m-62-155h-33L90 0H9l256 700h144L664 0h-81zM134 254h408v-70H134z" horiz-adv-x="672" unicode="Ä"/><glyph d="M441 854q0-47-31-74t-73-28q-43 0-73 27t-31 75q0 48 30 76t74 28q42 0 73-28t31-76m-47 0q0 28-16 43t-41 16q-24 0-40-15t-16-44q0-26 16-42t40-16 40 16 17 42m-40-224h-33L90 0H9l256 700h144L664 0h-81zM134 254h408v-70H134z" horiz-adv-x="672" unicode="Å"/><glyph d="M539 630V391h198v-70H539V70h289V0H459v184H201L96 0H9l401 700h418v-70zM240 254h219v382z" horiz-adv-x="892" unicode="Æ"/><glyph d="M423-63q38 1 67-10t45-32 17-54q0-31-15-53t-43-35-62-13H326v53h91q35 0 51 11t17 37q0 23-16 34t-52 12h-49V7h55zM43 350q0 79 26 144t73 113 110 74 137 26q108 0 189-50t124-142l-65-24q-23 49-61 80t-86 48-101 16q-75 0-135-34t-94-98-35-153q0-88 34-152t95-98 135-35q54 0 103 17t88 53 64 90l65-24Q666 98 583 46T389-7q-74 0-136 26T143 93 69 206 43 350" horiz-adv-x="765" unicode="Ç"/><glyph d="m200 939 208-126v-60L200 869zm344-309H165V391h285v-70H165V70h379V0H85v700h459z" horiz-adv-x="609" unicode="È"/><glyph d="M408 939v-71L200 753v60zm136-309H165V391h285v-70H165V70h379V0H85v700h459z" horiz-adv-x="609" unicode="É"/><glyph d="m450 764-136 84-136-84v64l136 82 136-82zm94-134H165V391h285v-70H165V70h379V0H85v700h459z" horiz-adv-x="609" unicode="Ê"/><glyph d="M235 785q-21 0-35 14t-14 34q0 21 14 35t35 15q20 0 34-14t15-36q0-20-14-34t-35-14m158 0q-21 0-35 14t-14 34q0 21 14 35t35 15q20 0 34-14t15-36q0-20-14-34t-35-14m151-155H165V391h285v-70H165V70h379V0H85v700h459z" horiz-adv-x="609" unicode="Ë"/><glyph d="m10 939 208-126v-60L10 869zm75-239h80V0H85z" horiz-adv-x="250" unicode="Ì"/><glyph d="M218 939v-71L10 753v60zM85 700h80V0H85z" horiz-adv-x="250" unicode="Í"/><glyph d="m260 764-136 84-136-84v64l136 82 136-82zM85 700h80V0H85z" horiz-adv-x="250" unicode="Î"/><glyph d="M45 785q-21 0-35 14t-14 34q0 21 14 35t35 15q20 0 34-14t15-36q0-20-14-34t-35-14m158 0q-21 0-35 14t-14 34q0 21 14 35t35 15q20 0 34-14t15-36q0-20-14-34t-35-14M85 700h80V0H85z" horiz-adv-x="250" unicode="Ï"/><glyph d="M65 385h90v315h213q116 0 198-42t127-122 44-188q0-108-44-186T567 42 368 0H155v312H65zM236 62h132q142-1 215 76t73 210-73 210-215 77H236V385h198v-73H236z" horiz-adv-x="780" unicode="Ð"/><glyph d="M215 763q7 48 31 72t62 24q27 0 44-11t32-23 37-12q17 0 29 10t15 31h47q-6-47-31-71t-63-24q-27 0-44 11t-33 23-36 12q-17 0-28-9t-15-33zm405-63V0h-81L165 572V0H85v700h81l374-571v571z" horiz-adv-x="705" unicode="Ñ"/><glyph d="m281 939 208-126v-60L281 869zM392-7q-74 0-137 26T144 92 70 205 43 350q0 79 26 144t74 113 111 74 138 26q73 0 136-26t111-73 73-113 27-145q0-79-26-144T639 93 529 19 392-7m0 70q75 0 135 35t95 99 35 153-35 153-95 99-135 35q-76 0-136-34t-96-99-35-154q0-88 35-152t95-100 137-35" horiz-adv-x="781" unicode="Ò"/><glyph d="M489 939v-71L281 753v60zM392-7q-74 0-137 26T144 92 70 205 43 350q0 79 26 144t74 113 111 74 138 26q73 0 136-26t111-73 73-113 27-145q0-79-26-144T639 93 529 19 392-7m0 70q75 0 135 35t95 99 35 153-35 153-95 99-135 35q-76 0-136-34t-96-99-35-154q0-88 35-152t95-100 137-35" horiz-adv-x="781" unicode="Ó"/><glyph d="m531 764-136 84-136-84v64l136 82 136-82zM392-7q-74 0-137 26T144 92 70 205 43 350q0 79 26 144t74 113 111 74 138 26q73 0 136-26t111-73 73-113 27-145q0-79-26-144T639 93 529 19 392-7m0 70q75 0 135 35t95 99 35 153-35 153-95 99-135 35q-76 0-136-34t-96-99-35-154q0-88 35-152t95-100 137-35" horiz-adv-x="781" unicode="Ô"/><glyph d="M249 763q6 48 31 72t62 24q26 0 43-11t33-23 37-12q16 0 28 10t16 31h47q-6-47-32-71t-62-24q-27 0-45 11t-33 23-35 12q-18 0-29-9t-14-33zM392-7q-74 0-137 26T144 92 70 205 43 350q0 79 26 144t74 113 111 74 138 26q73 0 136-26t111-73 73-113 27-145q0-79-26-144T639 93 529 19 392-7m0 70q75 0 135 35t95 99 35 153-35 153-95 99-135 35q-76 0-136-34t-96-99-35-154q0-88 35-152t95-100 137-35" horiz-adv-x="781" unicode="Õ"/><glyph d="M316 785q-21 0-35 14t-14 34q0 21 14 35t35 15q20 0 34-14t15-36q0-20-14-34t-35-14m158 0q-21 0-35 14t-14 34q0 21 14 35t35 15q19 0 34-14t15-36q0-20-15-34t-34-14M392-7q-74 0-137 26T144 92 70 205 43 350q0 79 26 144t74 113 111 74 138 26q73 0 136-26t111-73 73-113 27-145q0-79-26-144T639 93 529 19 392-7m0 70q75 0 135 35t95 99 35 153-35 153-95 99-135 35q-76 0-136-34t-96-99-35-154q0-88 35-152t95-100 137-35" horiz-adv-x="781" unicode="Ö"/><glyph d="m117 564 375-375-51-52L66 513zM64 190l374 374 52-52-374-374z" horiz-adv-x="555" unicode="×"/><glyph d="m582 608 63-34-433-471-63 34zM392-7q-74 0-137 26T144 92 70 205 43 350q0 79 26 144t74 113 111 74 138 26q73 0 136-26t111-73 73-113 27-145q0-79-26-144T639 93 529 19 392-7m0 70q75 0 135 35t95 99 35 153-35 153-95 99-135 35q-76 0-136-34t-96-99-35-154q0-88 35-152t95-100 137-35" horiz-adv-x="781" unicode="Ø"/><glyph d="m234 939 208-126v-60L234 869zM81 700h80V258q0-69 25-112t67-63 97-20q53 0 95 20t67 63 25 112v442h80V259q0-69-21-119t-60-82-86-49T349-7q-72 0-133 28t-98 88-37 150z" horiz-adv-x="697" unicode="Ù"/><glyph d="M442 939v-71L234 753v60zM81 700h80V258q0-69 25-112t67-63 97-20q53 0 95 20t67 63 25 112v442h80V259q0-69-21-119t-60-82-86-49T349-7q-72 0-133 28t-98 88-37 150z" horiz-adv-x="697" unicode="Ú"/><glyph d="m484 764-136 84-136-84v64l136 82 136-82zM81 700h80V258q0-69 25-112t67-63 97-20q53 0 95 20t67 63 25 112v442h80V259q0-69-21-119t-60-82-86-49T349-7q-72 0-133 28t-98 88-37 150z" horiz-adv-x="697" unicode="Û"/><glyph d="M269 785q-21 0-35 14t-14 34q0 21 14 35t35 15q20 0 34-14t15-36q0-20-14-34t-35-14m158 0q-21 0-35 14t-14 34q0 21 14 35t35 15q19 0 34-14t15-36q0-20-15-34t-34-14M81 700h80V258q0-69 25-112t67-63 97-20q53 0 95 20t67 63 25 112v442h80V259q0-69-21-119t-60-82-86-49T349-7q-72 0-133 28t-98 88-37 150z" horiz-adv-x="697" unicode="Ü"/><glyph d="M418 939v-71L210 753v60zm113-239h89L364 269V0h-80v268L28 700h89l207-355z" horiz-adv-x="649" unicode="Ý"/><glyph d="M302 213q84 0 120 37t36 100q0 65-36 102t-120 37H164V213zm238 137q0-55-24-100t-77-73-137-28H164V0H85v700h78V552h139q82 0 134-26t78-72 26-104" horiz-adv-x="582" unicode="Þ"/><glyph d="M77 510q0 55 21 99t67 71 116 27q64 0 108-21t66-56 23-75q0-33-13-56t-32-40-38-33-33-31-14-33q0-19 20-34t81-34q67-23 96-63t30-93q0-65-44-105T405-7q-78 0-128 43t-58 123h81q3-47 30-74t75-28q42 0 65 19t24 57q0 33-20 58t-69 42q-74 24-105 50t-32 70q0 37 21 62t48 48q24 20 42 39t19 48q0 41-31 65t-86 25q-45 0-74-17t-42-49-13-73V0H77z" horiz-adv-x="620" unicode="ß"/><glyph d="m164 715 188-113v-54L164 653zM390 0l-6 90q-21-46-62-71T218-7q-54 0-92 17T68 58t-21 75q0 63 47 103t136 50l154 17v40q0 42-31 67t-84 26q-52 0-86-24t-48-69l-68 24q20 66 73 103t131 37q89 0 138-45t50-124V0zm-6 239-155-18q-50-6-76-27t-26-57q0-35 25-56t74-21q55 0 90 22t51 59 17 82z" horiz-adv-x="528" unicode="à"/><glyph d="M352 715v-63L164 548v54zM390 0l-6 90q-21-46-62-71T218-7q-54 0-92 17T68 58t-21 75q0 63 47 103t136 50l154 17v40q0 42-31 67t-84 26q-52 0-86-24t-48-69l-68 24q20 66 73 103t131 37q89 0 138-45t50-124V0zm-6 239-155-18q-50-6-76-27t-26-57q0-35 25-56t74-21q55 0 90 22t51 59 17 82z" horiz-adv-x="528" unicode="á"/><glyph d="m390 558-123 76-123-76v58l123 74 123-74zm0-558-6 90q-21-46-62-71T218-7q-54 0-92 17T68 58t-21 75q0 63 47 103t136 50l154 17v40q0 42-31 67t-84 26q-52 0-86-24t-48-69l-68 24q20 66 73 103t131 37q89 0 138-45t50-124V0zm-6 239-155-18q-50-6-76-27t-26-57q0-35 25-56t74-21q55 0 90 22t51 59 17 82z" horiz-adv-x="528" unicode="â"/><glyph d="M135 557q7 43 29 65t55 22q24 0 40-10t30-21 32-11q15 0 26 8t14 29h43q-6-43-29-64t-56-22q-25 0-41 10t-29 21-32 11q-16 0-26-9t-13-29zM390 0l-6 90q-21-46-62-71T218-7q-54 0-92 17T68 58t-21 75q0 63 47 103t136 50l154 17v40q0 42-31 67t-84 26q-52 0-86-24t-48-69l-68 24q20 66 73 103t131 37q89 0 138-45t50-124V0zm-6 239-155-18q-50-6-76-27t-26-57q0-35 25-56t74-21q55 0 90 22t51 59 17 82z" horiz-adv-x="528" unicode="ã"/><glyph d="M196 577q-19 0-31 12t-13 31q0 18 12 31t32 14q18 0 31-13t13-32q0-18-13-30t-31-13m143 0q-19 0-32 12t-13 31q0 18 13 31t32 14q17 0 30-13t14-32q0-18-13-30t-31-13M390 0l-6 90q-21-46-62-71T218-7q-54 0-92 17T68 58t-21 75q0 63 47 103t136 50l154 17v40q0 42-31 67t-84 26q-52 0-86-24t-48-69l-68 24q20 66 73 103t131 37q89 0 138-45t50-124V0zm-6 239-155-18q-50-6-76-27t-26-57q0-35 25-56t74-21q55 0 90 22t51 59 17 82z" horiz-adv-x="528" unicode="ä"/><glyph d="M361 639q0-43-27-67t-67-25q-38 0-66 24t-28 68q0 43 28 68t66 25q39 0 66-25t28-68m-42 0q0 25-15 39t-37 14q-21 0-35-14t-15-39q0-24 14-38t36-14 37 14 15 38M390 0l-6 90q-21-46-62-71T218-7q-54 0-92 17T68 58t-21 75q0 63 47 103t136 50l154 17v40q0 42-31 67t-84 26q-52 0-86-24t-48-69l-68 24q20 66 73 103t131 37q89 0 138-45t50-124V0zm-6 239-155-18q-50-6-76-27t-26-57q0-35 25-56t74-21q55 0 90 22t51 59 17 82z" horiz-adv-x="528" unicode="å"/><glyph d="M621-7q-71 0-123 32t-82 92-29 138q0 118 61 185t171 67q74 0 126-31t79-83 28-120v-22q0-12-3-27H462q3-54 24-89t56-53 77-18q59 0 98 21t59 64l65-26q-28-58-82-94T621-7m150 296q1 49-19 81t-56 49-79 17q-39 0-72-16t-55-48-26-83zm-346-88 7-76q-19-50-53-79T302 5 218-7q-50 0-88 16T69 56t-22 78q0 40 16 67t42 45 59 27 66 13l154 18v39q0 35-28 64t-87 29q-49 0-85-23t-49-70l-68 24q19 65 71 102t133 38q89 0 139-46t51-123v-88zm-41 37-154-17q-53-5-78-26t-25-57q0-40 29-57t71-18q49 0 84 21t54 59 19 81z" horiz-adv-x="898" unicode="æ"/><glyph d="M309-53q35 1 61-8t41-30 15-49q0-27-14-47t-38-32-57-11h-96v47h83q31 0 46 10t15 33q0 21-15 31t-46 11h-45V10h50zM290-7q-73 0-128 32t-85 89-31 134q0 77 30 135t86 91 128 33q77 0 135-35t84-99l-69-24q-15 40-54 63t-92 24q-51 0-88-23t-58-65-21-99q0-84 45-134t120-51q51 0 91 23t59 62l68-24q-27-62-85-97T290-7" unicode="ç"/><glyph d="m183 715 188-113v-54L183 653zM287-7q-70 0-124 34t-86 93-31 135q0 73 31 130t85 89 123 33q68 0 121-30t84-83 28-121q0-11-1-23t-2-26H128q2-47 23-83t55-56 79-21q58 0 98 22t59 63l65-26q-30-63-87-96T287-7m149 296q1 43-18 76t-55 52-81 19q-40 0-73-19t-54-52-26-76z" horiz-adv-x="564" unicode="è"/><glyph d="M371 715v-63L183 548v54zM287-7q-70 0-124 34t-86 93-31 135q0 73 31 130t85 89 123 33q68 0 121-30t84-83 28-121q0-11-1-23t-2-26H128q2-47 23-83t55-56 79-21q58 0 98 22t59 63l65-26q-30-63-87-96T287-7m149 296q1 43-18 76t-55 52-81 19q-40 0-73-19t-54-52-26-76z" horiz-adv-x="564" unicode="é"/><glyph d="m409 558-123 76-123-76v58l123 74 123-74zM287-7q-70 0-124 34t-86 93-31 135q0 73 31 130t85 89 123 33q68 0 121-30t84-83 28-121q0-11-1-23t-2-26H128q2-47 23-83t55-56 79-21q58 0 98 22t59 63l65-26q-30-63-87-96T287-7m149 296q1 43-18 76t-55 52-81 19q-40 0-73-19t-54-52-26-76z" horiz-adv-x="564" unicode="ê"/><glyph d="M215 577q-19 0-32 12t-13 31q0 18 13 31t32 14q18 0 31-13t13-32q0-18-13-30t-31-13m142 0q-19 0-31 12t-13 31q0 18 12 31t32 14q18 0 31-13t14-32q0-18-13-30t-32-13M287-7q-70 0-124 34t-86 93-31 135q0 73 31 130t85 89 123 33q68 0 121-30t84-83 28-121q0-11-1-23t-2-26H128q2-47 23-83t55-56 79-21q58 0 98 22t59 63l65-26q-30-63-87-96T287-7m149 296q1 43-18 76t-55 52-81 19q-40 0-73-19t-54-52-26-76z" horiz-adv-x="564" unicode="ë"/><glyph d="m14 713 187-113v-54L14 651zm63-213h80V0H77z" horiz-adv-x="233" unicode="ì"/><glyph d="M201 713v-63L14 546v54zM77 500h80V0H77z" horiz-adv-x="233" unicode="í"/><glyph d="m239 556-122 76-123-76v58l123 74 122-74zM77 500h80V0H77z" horiz-adv-x="233" unicode="î"/><glyph d="M45 575q-19 0-31 12T1 618q0 18 12 31t32 14q18 0 31-13t13-32q0-18-13-30t-31-13m143 0q-19 0-31 12t-13 31q0 18 12 31t32 14q17 0 30-13t14-32q0-18-13-30t-31-13M77 500h80V0H77z" horiz-adv-x="233" unicode="ï"/><glyph d="M513 679v-48l-75-26q56-71 84-153t28-166q0-97-33-162t-90-99T296-8q-74 0-130 32t-88 92-32 138q0 77 32 134t87 88 127 32q34 0 65-9t55-28 43-49q-13 38-33 79t-50 82l-133-45v48l103 35q-17 20-37 40t-45 39h84q33-27 62-57zM296 60q45 0 84 22t64 64 25 105-24 105-63 64-85 21q-47 0-85-21t-61-63-23-103q0-63 22-106t61-66 85-22" horiz-adv-x="596" unicode="ð"/><glyph d="M157 557q6 43 28 65t56 22q24 0 39-10t30-21 33-11q15 0 26 8t13 29h43q-6-43-29-64t-56-22q-24 0-40 10t-30 21-32 11q-16 0-26-9t-13-29zm-80-57h69l4-71q24 37 63 57t91 21q57 0 100-24t67-73 24-122V0h-75v279q0 78-33 118t-97 41q-65 0-101-43t-37-127V0H77z" horiz-adv-x="563" unicode="ñ"/><glyph d="m196 715 188-113v-54L196 653zM293-7q-71 0-127 31t-88 88-32 137 32 138 89 89 128 31 127-31 89-88 33-137-33-138-90-89T293-7m-1 71q44 0 83 19t63 61 25 106q0 65-24 106t-62 60-83 20q-44 0-82-19t-61-61-24-106q0-65 23-106t60-60 82-20" horiz-adv-x="590" unicode="ò"/><glyph d="M384 715v-63L196 548v54zM293-7q-71 0-127 31t-88 88-32 137 32 138 89 89 128 31 127-31 89-88 33-137-33-138-90-89T293-7m-1 71q44 0 83 19t63 61 25 106q0 65-24 106t-62 60-83 20q-44 0-82-19t-61-61-24-106q0-65 23-106t60-60 82-20" horiz-adv-x="590" unicode="ó"/><glyph d="m422 558-123 76-123-76v58l123 74 123-74zM293-7q-71 0-127 31t-88 88-32 137 32 138 89 89 128 31 127-31 89-88 33-137-33-138-90-89T293-7m-1 71q44 0 83 19t63 61 25 106q0 65-24 106t-62 60-83 20q-44 0-82-19t-61-61-24-106q0-65 23-106t60-60 82-20" horiz-adv-x="590" unicode="ô"/><glyph d="M167 557q6 43 28 65t56 22q24 0 39-10t30-21 33-11q15 0 26 8t14 29h42q-5-43-28-64t-57-22q-24 0-40 10t-30 21-32 11q-15 0-25-9t-14-29zM293-7q-71 0-127 31t-88 88-32 137 32 138 89 89 128 31 127-31 89-88 33-137-33-138-90-89T293-7m-1 71q44 0 83 19t63 61 25 106q0 65-24 106t-62 60-83 20q-44 0-82-19t-61-61-24-106q0-65 23-106t60-60 82-20" horiz-adv-x="590" unicode="õ"/><glyph d="M228 577q-19 0-32 12t-13 31q0 18 13 31t32 14q18 0 31-13t13-32q0-18-13-30t-31-13m142 0q-19 0-31 12t-13 31q0 18 12 31t32 14q18 0 31-13t14-32q0-18-13-30t-32-13M293-7q-71 0-127 31t-88 88-32 137 32 138 89 89 128 31 127-31 89-88 33-137-33-138-90-89T293-7m-1 71q44 0 83 19t63 61 25 106q0 65-24 106t-62 60-83 20q-44 0-82-19t-61-61-24-106q0-65 23-106t60-60 82-20" horiz-adv-x="590" unicode="ö"/><glyph d="M64 384h510v-67H64zM326 81q-23 0-38 16t-16 39q0 23 15 39t39 16q22 0 38-16t16-39-16-39-38-16m0 429q-23 0-38 16t-16 39q0 23 15 39t39 16q22 0 38-16t16-39-16-39-38-16" horiz-adv-x="637" unicode="÷"/><glyph d="m434 445 56-38L175 61l-56 39zM293-7q-71 0-127 31t-88 88-32 137 32 138 89 89 128 31 127-31 89-88 33-137-33-138-90-89T293-7m-1 71q44 0 83 19t63 61 25 106q0 65-24 106t-62 60-83 20q-44 0-82-19t-61-61-24-106q0-65 23-106t60-60 82-20" horiz-adv-x="590" unicode="ø"/><glyph d="m169 715 188-113v-54L169 653zM486 0h-68l-5 72q-23-38-62-58T260-7q-58 0-101 24T93 89 69 210v290h74V218q0-77 33-116t97-40q64 0 101 41t38 126v271h74z" horiz-adv-x="562" unicode="ù"/><glyph d="M357 715v-63L169 548v54zM486 0h-68l-5 72q-23-38-62-58T260-7q-58 0-101 24T93 89 69 210v290h74V218q0-77 33-116t97-40q64 0 101 41t38 126v271h74z" horiz-adv-x="562" unicode="ú"/><glyph d="m395 558-123 76-123-76v58l123 74 123-74zM486 0h-68l-5 72q-23-38-62-58T260-7q-58 0-101 24T93 89 69 210v290h74V218q0-77 33-116t97-40q64 0 101 41t38 126v271h74z" horiz-adv-x="562" unicode="û"/><glyph d="M200 577q-18 0-31 12t-13 31q0 18 13 31t31 14q19 0 32-13t13-32q0-18-13-30t-32-13m143 0q-19 0-31 12t-13 31q0 18 12 31t32 14q18 0 31-13t13-32q0-18-13-30t-31-13M486 0h-68l-5 72q-23-38-62-58T260-7q-58 0-101 24T93 89 69 210v290h74V218q0-77 33-116t97-40q64 0 101 41t38 126v271h74z" horiz-adv-x="562" unicode="ü"/><glyph d="M341 715v-63L153 548v54zm75-215h78L208-200h-72L221 7 19 500h82L261 96z" horiz-adv-x="513" unicode="ý"/><glyph d="M151-213H77v921h74V398q23 48 70 79t117 32q68 0 122-32t86-89 32-136q0-78-31-136t-86-91T338-8q-44 0-80 15t-64 41-43 58zm346 465q0 60-23 101t-63 64-87 22q-47 0-86-22t-63-65-24-101q0-59 23-101t63-66 87-23q48 0 87 23t62 65 24 103" horiz-adv-x="623" unicode="þ"/><glyph d="M185 577q-19 0-31 12t-13 31q0 18 12 31t32 14q18 0 31-13t13-32q0-18-13-30t-31-13m142 0q-18 0-31 12t-13 31q0 18 13 31t31 14q18 0 31-13t14-32q0-18-13-30t-32-13m89-77h78L208-200h-72L221 7 19 500h82L261 96z" horiz-adv-x="513" unicode="ÿ"/><glyph d="M55 312h523v-67H55z" horiz-adv-x="634" unicode="–"/><glyph d="M55 312h726v-67H55z" horiz-adv-x="837" unicode="—"/><glyph d="m207 700-58-220H59l91 220z" horiz-adv-x="250" unicode="‘"/><glyph d="m43 480 58 220h90l-91-220z" horiz-adv-x="250" unicode="’"/><glyph d="m43-100 59 220h90l-91-220z" horiz-adv-x="251" unicode="‚"/><glyph d="m208 700-58-220H60l91 220zm153 0-58-220h-90l91 220z" horiz-adv-x="403" unicode="“"/><glyph d="m196 480 58 220h90l-91-220zm-153 0 58 220h90l-91-220z" horiz-adv-x="403" unicode="”"/><glyph d="m43-100 59 220h90l-91-220zm156 0 58 220h90l-91-220z" horiz-adv-x="406" unicode="„"/><glyph d="M220 215q-32 0-59 16t-43 42-16 60 16 60 43 43 59 16q34 0 61-16t43-42 16-61q0-33-16-59t-43-43-61-16" horiz-adv-x="442" unicode="•"/><glyph d="M220 75h-79L43 250l98 175h79L119 250z" horiz-adv-x="271" unicode="‹"/><glyph d="m51 75 101 175L51 425h79l98-175-98-175z" horiz-adv-x="270" unicode="›"/></font>
</defs>
</svg>
