<svg xmlns="http://www.w3.org/2000/svg"><defs><font id="AlbertSans" horiz-adv-x="563"><font-face alphabetic="0" ascent="950" descent="-250" font-family="Albert Sans SemiBold"/><glyph horiz-adv-x="280"/><glyph d="M167 700h127L183 213H84zM90-7Q58-7 41 14T30 68q6 31 32 52t58 22q30 0 48-21t12-53-32-53T90-7" horiz-adv-x="282" unicode="!"/><glyph d="M134 700h106l-52-202h-81zm154 0h106l-52-202h-81z" horiz-adv-x="349" unicode="&quot;"/><glyph d="M389 700h113l-65-160h194l65 160h113l-65-160h134l-21-104H701l-62-151h132l-20-104H596L522 0H409l74 181H290L215 0H102l75 181H23l20 104h176l62 151H130l20 104h174zm-56-415h193l62 151H394z" horiz-adv-x="857" unicode="#"/><glyph d="M362 775h64L257-75h-64zM142 192q0-28 13-50t40-36 67-13q64 0 100 29t45 70q7 33-8 55t-46 37-75 30q-39 12-74 25t-62 34-37 53-2 82q12 64 51 108t98 68 129 23q59 0 103-16t71-48 33-78l-116-36q-1 22-16 39t-39 28-55 11q-33 1-62-10t-49-31-26-48q-6-31 8-48t42-29 61-24q39-12 78-27t69-39 43-60 3-90q-11-58-47-105t-95-75T247-7q-65 0-114 19T55 68t-30 87z" horiz-adv-x="583" unicode="$"/><glyph d="M104 550q10 50 36 85t65 53 83 19q66 0 101-41t21-116q-10-51-37-86t-65-53-82-19q-67 0-102 41t-20 117m170 85q-29 0-49-19t-30-66q-9-45 3-65t41-21q29 0 50 20t30 66-4 65-41 20m359 65h117L212 0H96zM437 151q10 51 37 86t65 53 82 18q66 0 101-40t20-117q-10-50-36-85t-65-54-82-19q-66 0-101 41t-21 117m169 85q-28 0-49-19t-30-66q-8-45 4-65t41-20q28 0 49 20t30 65q9 46-4 65t-41 20" horiz-adv-x="806" unicode="%"/><glyph d="M457 569q-11 17-32 27t-53 10q-57 0-89-33t-42-79q-7-33 7-53t46-29 83-11h237l-19-98H359q-88 0-133-21t-58-85q-7-33 0-56t31-35 65-12q63 0 94 30t44 95l28 143h116l-28-143q-17-81-55-131t-95-72T242-7q-76 0-123 24T53 86t-7 102q14 68 56 107t102 58l1 4q-27 9-48 30t-31 52-3 69q11 53 45 98t90 73 130 28q61 0 106-19t71-56zm108 63-108-63zM393 401q16 0 28 4t23 19 16 50l10 48h110l-25-121h117l-19-98H536l-25-124q-10-47 6-64t55-18q8 0 18 1t23 2L593 4q-15-3-30-5t-30-2q-46 0-82 17t-54 57-3 108l25 125h-73l19 97z" horiz-adv-x="691" unicode="&amp;"/><glyph d="M137 700h106l-52-202h-81z" horiz-adv-x="202" unicode="'"/><glyph d="M185-100Q129-49 98 22T61 177t10 171q18 88 58 171t104 155 150 126h122l-2-9q-91-59-156-131T242 508t-57-160q-16-79-8-158t41-151 91-130l-2-9z" horiz-adv-x="440" unicode="("/><glyph d="M115-100H-7l2 9Q77-33 138 39t100 151 55 158q16 80 8 159t-45 152-104 132l1 9h122q66-54 100-126t43-155-10-171q-17-87-57-170T251 23 115-100" horiz-adv-x="440" unicode=")"/><glyph d="m335 592 131 88 30-81-146-51 126-50-64-84-95 90-7-144h-95l49 144-131-92-32 87 145 50-125 49 63 83 98-89 8 144h96z" horiz-adv-x="478" unicode="*"/><glyph d="M436 605 334 95H224l102 510zM85 400h510l-20-100H65z" horiz-adv-x="621" unicode="+"/><glyph d="M81 139h127L32-139h-77z" horiz-adv-x="285" unicode=","/><glyph d="M70 328h414l-20-100H51z" horiz-adv-x="524" unicode="-"/><glyph d="M79-7Q47-7 30 14T19 68q6 31 32 52t58 22q31 0 48-21t12-53q-6-32-32-53T79-7" horiz-adv-x="260" unicode="."/><glyph d="M349 800h117L46-100H-70z" horiz-adv-x="357" unicode="/"/><glyph d="M79 350q15 78 40 143t65 113 94 74 134 27q76 0 121-26t66-74 19-113-16-144q-16-79-41-145T497 92t-95-73T270-7q-78 0-123 26T82 92 62 205t17 145m403 0q10 50 14 96t-1 82-30 57-73 21q-49 0-82-20t-53-57-34-83-24-96q-10-53-15-99t1-82 30-55 74-20q49 0 81 20t53 55 34 81 25 100" horiz-adv-x="641" unicode="0"/><glyph d="M200 601h-94l20 99h212L199 0H81z" horiz-adv-x="323" unicode="1"/><glyph d="m18 86 237 186q67 53 107 90t60 68 27 66q9 48-11 79t-83 31q-38 0-67-17t-50-49-31-75H93q18 83 60 136t101 80 123 26q75 0 122-26t65-74 6-110q-9-45-33-87t-73-91-131-110L191 99h317L488 0H1z" horiz-adv-x="594" unicode="2"/><glyph d="M110 508q17 64 57 108t98 68 125 23q72 0 117-27t62-73 6-99q-7-38-29-69t-53-52-60-30l-1-4q36-12 60-33t32-53 0-79q-11-58-46-102t-93-68T251-7q-74 0-125 22T52 85 41 209h115q-8-57 18-86t96-29q41 0 69 12t44 35 23 56q13 64-24 85t-124 21h-26l19 98h28q49 1 85 10t59 30 29 53q9 46-10 79t-76 33q-39 0-67-14t-47-36-26-48z" horiz-adv-x="596" unicode="3"/><glyph d="M378 154H18l17 86 426 460h144l-89-447h90l-19-99h-91L466 0H347zm23 99 65 325-293-325z" horiz-adv-x="654" unicode="4"/><glyph d="m606 700-20-99H263l-37-186q25 27 64 43t88 16q63 0 103-22t61-58 24-75-2-78q-14-71-55-127T405 26 263-7q-76 0-125 25T67 89 47 192h116q1-45 32-71t88-27q45 0 77 18t54 50 29 76q13 64-14 100t-91 37q-48 0-85-25t-59-65H81l83 415z" horiz-adv-x="621" unicode="5"/><glyph d="M259-7q-74 0-127 32t-75 88-9 127q11 57 46 115t94 117l224 228h129L279 437 127 309q34 73 99 117t144 44q69 0 118-29t70-81 7-122-59-125-110-88T259-7m-91 245q-9-44 1-76t37-50 73-18q43 0 77 17t57 50 31 77q9 45 0 76t-37 49-72 17q-44 0-78-17t-58-48-31-77" horiz-adv-x="612" unicode="6"/><glyph d="m608 700-17-88L194 0H74l398 601H106l20 99z" horiz-adv-x="556" unicode="7"/><glyph d="M197 369q-42 22-62 59t-9 96q9 50 44 91t93 67 140 25q80 0 129-25t67-66 9-92q-12-55-49-95t-86-60q52-21 76-65t12-106q-12-64-55-109T400 18 261-7q-75 0-129 25T54 88 42 198q13 62 55 106t100 65m286 141q11 52-15 74t-85 23q-57 0-93-22t-47-76q-10-46 17-74t83-29q55 0 93 29t47 75M326 318q-41 0-75-13t-56-38-31-66q-10-51 19-79t97-29q68 0 110 28t51 80q8 38-4 64t-40 39-71 14" horiz-adv-x="625" unicode="8"/><glyph d="M393 707q74 0 126-32t76-88 9-127q-12-57-47-115t-93-117L239 0H110l262 263 152 128q-34-73-98-117t-145-44q-69 0-117 29t-70 81-8 122q14 71 59 126t110 87 138 32m91-245q8 45-1 77t-38 49-72 18q-45 0-79-17t-56-50-31-77 0-76 37-49 72-17q45 0 79 17t57 49 32 76" horiz-adv-x="612" unicode="9"/><glyph d="M83-7Q51-7 34 14T22 68q7 31 33 52t58 22q31 0 48-21t11-53-32-53T83-7m83 419q-31 0-48 21t-12 53q6 32 32 53t58 22q31 0 48-21t12-54q-7-31-33-52t-57-22" horiz-adv-x="267" unicode=":"/><glyph d="M202 411q-32 0-49 21t-12 54q6 32 32 53t59 22q31 0 48-21t11-54q-6-32-32-53t-57-22M85 139h127L36-139h-77z" horiz-adv-x="303" unicode=";"/><glyph d="M408 124H258L75 350l273 227h149L224 350z" horiz-adv-x="506" unicode="&lt;"/><glyph d="M73 286h534l-20-100H53zm46 229h535l-21-100H98z" horiz-adv-x="667" unicode="="/><glyph d="M322 350 138 577h150l183-227-273-226H49z" horiz-adv-x="506" unicode="&gt;"/><glyph d="M363 707q68 0 113-25t65-72 6-112q-14-70-53-115t-96-66-124-22l-20-79H151l26 160h36q42 0 77 4t64 18 46 37 27 63q10 51-10 79t-73 29q-53 0-88-27t-46-79H99q11 61 47 107t92 73 125 27M163-7q-33 0-50 21t-10 54q6 31 31 52t58 22q32 0 49-21t11-53q-7-32-32-53T163-7" horiz-adv-x="547" unicode="?"/><glyph d="m561 153 16-40q-38-53-99-86T355-7q-77 0-110 47t-18 125q11 57 38 108t69 92 91 63 105 24q60 0 88-27t30-80l-32-15 43 113h102L655 160q-14-40-12-64t38-24q31 0 57 22t49 59 36 76 22 77q17 84-4 142t-80 88-152 30q-89 0-170-32t-148-91-113-135-64-168Q97 54 120-4t82-88 151-30q42 0 87 8t87 27l1-79q-52-20-105-29t-109-10q-110 0-184 41T26-47 16 130q22 109 79 203t141 165 186 110 218 40q116 0 190-43t102-118 9-176q-11-58-37-114T839 94t-87-73T648-7q-65 0-87 35t-6 93zm-47 209q-32 0-61-15t-53-41-38-57-23-65q-9-43 7-71t64-29q42 0 80 24t65 64 37 84q6 30 0 54t-26 38-52 14" horiz-adv-x="990" unicode="@"/><glyph d="M445 601h-36L80 0H-42l387 700h202L657 0H535zM147 269h408l-19-98H128z" horiz-adv-x="714" unicode="A"/><glyph d="M537 502q7 31-3 53t-33 34-60 12H262l-40-197h179q55 0 91 25t45 73M23 0l140 700h310q73 0 118-25t62-66 7-92q-9-46-32-78t-56-51-71-27l-2-8q64-9 96-48t16-118q-10-53-46-95t-92-67T346 0zm139 99h192q56 0 94 26t47 75q10 52-19 79t-85 27H203z" horiz-adv-x="673" unicode="B"/><glyph d="M56 350q16 79 56 144t99 113 128 74 143 26q103 0 177-49t99-141l-103-33q-14 44-44 71t-68 39-78 12q-68 0-128-31t-102-89-58-136q-15-77 4-134t67-90 115-32q40 0 84 12t88 44 80 85l90-31Q638 96 542 45T340-7q-73 0-132 26t-98 74-54 113 0 144" horiz-adv-x="762" unicode="C"/><glyph d="M413 700q112 0 186-43t104-122 9-188q-21-107-82-185T477 42 273 0H23l140 700zM292 99q121 0 198 65t101 183-26 186-172 68H262L162 99z" horiz-adv-x="730" unicode="D"/><glyph d="M622 601H262l-40-197h270l-20-99H203L162 99h359L501 0H23l140 700h478z" horiz-adv-x="605" unicode="E"/><glyph d="M163 700h478l-19-99H262l-40-197h270l-20-99H203L142 0H23z" horiz-adv-x="587" unicode="F"/><glyph d="M648 482q-23 66-71 95t-111 29q-66 0-126-32t-104-90-59-134 4-133 67-90 114-33q46 0 90 16t81 44 62 66l15 70H408l20 97h321l-36-174q-36-62-93-112T491 22 340-7q-73 0-132 26t-98 73-54 113 0 145q16 78 56 143t99 114 128 74 143 26q68 0 126-21t97-64 55-103z" horiz-adv-x="765" unicode="G"/><glyph d="M163 700h119l-60-296h330l60 296h118L590 0H472l60 305H203L142 0H23z" horiz-adv-x="714" unicode="H"/><glyph d="M163 700h119L142 0H23z" horiz-adv-x="266" unicode="I"/><glyph d="M426 700h118l-98-498q-13-64-50-111t-90-72T192-7Q119-7 76 29T25 130l107 32q3-21 12-36t26-25 42-9q30 0 53 14t39 37 21 53z" horiz-adv-x="525" unicode="J"/><glyph d="M163 700h119l-60-296h38l319 296h148L358 355 592 0H438L240 305h-37L142 0H23z" horiz-adv-x="653" unicode="K"/><glyph d="M282 700 162 99h314L456 0H23l140 700z" horiz-adv-x="531" unicode="L"/><glyph d="M142 0H23l140 700h133l127-544 345 544h132L760 0H642l95 473L437 0h-90L237 473z" horiz-adv-x="884" unicode="M"/><glyph d="M729 700 589 0H468L245 513 142 0H23l140 700h122l223-511 103 511z" horiz-adv-x="713" unicode="N"/><glyph d="M341-7q-74 0-133 26t-98 73-54 113 0 145q16 78 56 143t99 114 129 74 143 26q75 0 134-26t98-74 53-113-1-144-55-144-99-113-127-74T341-7m20 101q68 0 127 31t102 89 56 136q16 79-3 136t-65 88-115 32q-68 0-127-31t-101-89-58-136q-15-78 3-135t66-89 115-32" horiz-adv-x="784" unicode="O"/><glyph d="M372 376q43 0 73 13t50 39 26 61q7 36-1 61t-34 38-69 13H262l-45-225zm270 113q-10-50-44-99t-94-81-151-32H197L142 0H23l140 700h274q83 0 132-28t66-77 7-106" horiz-adv-x="632" unicode="P"/><glyph d="M328 203h116L383-99H268zM341-7q-73 0-132 26t-99 73-54 113 0 145q16 78 56 143t99 114 129 74 143 26q75 0 134-26t98-74 53-113-1-144-55-144-99-113-127-74T341-7m20 101q68 0 127 31t101 89 57 136q16 79-3 136t-65 88-115 32q-68 0-127-31t-101-89-58-136q-15-78 3-135t66-89 115-32" horiz-adv-x="784" unicode="Q"/><glyph d="M521 489q7 35-1 60t-34 38-69 14H262l-45-225h155q65 0 102 31t47 82m-84 211q83 0 132-28t66-77 7-106q-10-50-44-99t-94-81-151-32H197L142 0H23l140 700zm-6-384L559 0H425L304 316z" horiz-adv-x="646" unicode="R"/><glyph d="M142 192q0-28 13-50t40-36 67-13q64 0 100 29t45 70q7 33-8 55t-46 37-75 30q-39 12-74 25t-62 34-37 53-2 82q12 64 51 108t98 68 129 23q59 0 103-16t71-48 33-78l-116-36q-1 22-16 39t-39 28-55 11q-33 1-62-10t-49-31-26-48q-6-31 8-48t42-29 61-24q39-12 78-27t69-39 43-60 3-90q-11-58-47-105t-95-75T247-7q-65 0-114 19T55 68t-30 87z" horiz-adv-x="583" unicode="S"/><glyph d="M126 700h550l-20-99H441L322 0H203l120 601H106z" horiz-adv-x="623" unicode="T"/><glyph d="M160 700h118l-89-446q-10-53 4-89t47-53 81-18q48 0 89 17t69 54 40 89l89 446h118l-88-443q-14-67-47-116t-81-83T410 9 300-7q-74 0-132 29t-86 87-11 148z" horiz-adv-x="707" unicode="U"/><glyph d="M648 700h126L374 0H235L114 700h126l89-579z" horiz-adv-x="709" unicode="V"/><glyph d="M309 0H175l-61 700h127l28-564 261 564h133l36-562 253 562h127L740 0H604l-43 523z" horiz-adv-x="1013" unicode="W"/><glyph d="M138 700h133l140-255 239 255h132L459 350 643 0H511L373 255 132 0H-1l325 350z" horiz-adv-x="742" unicode="X"/><glyph d="M622 700h133L404 252 353 0H235l51 251-172 449h132l120-340z" horiz-adv-x="689" unicode="Y"/><glyph d="M622 611 159 99h361L500 0H-1l18 89 462 512H119l19 99h501z" horiz-adv-x="599" unicode="Z"/><glyph d="M180 800h215l-20-98H271L132-1h104l-20-99H1z" horiz-adv-x="329" unicode="["/><glyph d="M287-100H171l-62 900h116z" horiz-adv-x="357" unicode="\"/><glyph d="M369 800 190-100H-26L-6-1H98l141 703H134l19 98z" horiz-adv-x="329" unicode="]"/><glyph d="M404 557 170 250H48l326 450h113l149-450H513z" horiz-adv-x="684" unicode="^"/><glyph d="M9-40h564l-23-111H-13z" horiz-adv-x="559" unicode="_"/><glyph d="m120 798 199-121-17-87-201 110z" horiz-adv-x="245" unicode="`"/><glyph d="m315 0 2 61q-30-32-66-49T159-5q-52 0-86 17T24 61t-6 74q12 63 67 105t147 53l134 14 8 39q5 24-12 43t-64 20q-39 0-72-19t-52-59l-91 36q32 66 96 103t145 37q98 0 137-49t24-125L419 0zm34 220-123-15q-38-5-61-21t-28-42q-4-23 11-39t48-17q41 0 72 15t51 43 29 69z" horiz-adv-x="527" unicode="a"/><glyph d="M202 426q30 34 79 57t109 24q66 0 110-32t60-90 1-135-54-135-97-90T287-7q-56 0-92 20t-56 49L119 0H17l143 720h113l-59-297zm238-176q15 69-12 112t-87 43q-35 0-68-18t-59-52-35-85q-10-50 1-84t37-53 63-18q39 0 72 19t56 55 32 81" horiz-adv-x="595" unicode="b"/><glyph d="M232-7q-72 0-120 32t-68 90-5 133q15 77 58 135t105 91 135 33q77 0 129-36t66-99l-109-34q-7 31-34 49t-68 19q-40 0-73-19t-56-55-32-83q-14-72 12-113t89-42q38 0 73 17t58 50l93-35q-40-61-108-97T232-7" horiz-adv-x="550" unicode="c"/><glyph d="m470 426-14-3 59 297h113L485 0H383l4 62q-31-29-75-49T212-7q-66 0-110 32t-61 90-2 135q16 77 55 135t97 90 124 32q59 0 98-23t57-58M160 250q-14-69 14-112t86-43q35 0 68 18t59 52 34 85q11 50 0 84t-37 53-63 18q-39 0-72-19t-56-55-33-81" horiz-adv-x="601" unicode="d"/><glyph d="M240-7q-75 0-125 33t-70 92-5 136q15 73 57 130t104 90 132 33q71 0 119-31t67-86 5-129q-3-12-6-25t-9-29H153q-2-35 10-60t37-40 61-14q41 0 77 17t55 45l93-33q-42-60-107-94T240-7m168 306q6 31-5 56t-34 39-56 15q-28 0-55-14t-50-38-35-58z" horiz-adv-x="562" unicode="e"/><glyph d="M151 551q17 90 72 135t158 34l-20-98q-46 5-68-13t-29-59l-11-50h90l-19-99h-91L154 0H41l79 401H60l19 99h61z" horiz-adv-x="324" unicode="f"/><glyph d="M482 500h102L500 75q-17-85-71-146t-140-95-197-34l2 97q127 3 201 48t92 129v1h13q-29-34-77-58T213-7q-65 0-109 32t-62 90-3 135q16 77 56 135t97 90 124 32q37 0 65-9t49-25 32-35zM160 250q-14-69 14-112t88-43q35 0 68 18t58 54 33 83q11 50 0 84t-37 53-61 18q-40 0-73-19t-57-54-33-82" horiz-adv-x="601" unicode="g"/><glyph d="M160 720h113l-53-266q29 24 67 38t81 15q56 0 93-24t52-72 0-119L455 0H338l54 277q13 63-6 95t-70 32-85-33-47-96L130 0H17z" horiz-adv-x="564" unicode="h"/><glyph d="M132 500h113L146 0H33zm72 76q-31 0-48 21t-11 50q6 31 31 52t57 21q30 0 47-21t11-52q-6-29-31-50t-56-21" horiz-adv-x="278" unicode="i"/><glyph d="M36 34Q24-24-13-61t-96-42l-1-97q55 2 109 29t95 79 55 125l93 467H129zm164 542q-31 0-47 21t-12 50q6 31 31 52t57 21q31 0 48-21t11-52q-5-29-31-50t-57-21" horiz-adv-x="272" unicode="j"/><glyph d="M160 720h113l-84-422h37l216 202h149L315 250 493 0H344L207 203h-37L130 0H17z" horiz-adv-x="556" unicode="k"/><glyph d="M160 720h113L130 0H17z" horiz-adv-x="245" unicode="l"/><glyph d="M116 500h102v-47q29 25 66 39t77 15q50 0 86-20t54-60q33 39 82 59t101 21q59 0 97-24t53-72 1-119L777 0H663l55 277q13 63-7 95t-72 32-87-32-48-97L449 0H336l55 277q12 63-6 95t-69 32-85-32-46-96L130 0H17z" horiz-adv-x="885" unicode="m"/><glyph d="M116 500h102l-1-49q30 26 67 41t78 15q59 0 96-24t51-72 0-119L451 0H338l54 277q13 63-6 95t-70 32-85-32-46-96L130 0H17z" horiz-adv-x="559" unicode="n"/><glyph d="M239-7q-72 0-122 31t-72 89-6 136q16 79 61 137t108 89 136 32q72 0 123-31t74-89 7-136q-16-79-62-137T376 25 239-7m19 101q35 0 70 17t62 51 37 89q10 52-2 86t-39 52-64 17q-35 0-68-17t-58-51-36-89q-10-52 0-86t37-52 61-17" horiz-adv-x="587" unicode="o"/><glyph d="m131 74 14 3-55-277H-23l139 700h102l-4-62q21 20 47 35t59 25 70 9q65 0 109-32t61-89 1-136q-15-77-54-135t-97-90T287-7q-60 0-99 23t-57 58m309 176q15 69-12 112t-87 43q-35 0-68-18t-59-52-35-85q-10-50 1-84t37-53 63-18q39 0 72 19t56 55 32 81" horiz-adv-x="601" unicode="p"/><glyph d="M399 74q-29-34-78-57T212-7q-67 0-111 32t-60 90-2 135q16 78 55 135t97 90 124 32q36 0 64-9t49-24 34-36l20 62h102L445-200H332l55 277zM160 250q-14-69 14-112t86-43q35 0 68 18t59 52 34 85q11 51 0 85t-37 52-63 18q-39 0-72-19t-56-55-33-81" horiz-adv-x="601" unicode="q"/><glyph d="M116 500h102l-3-62q25 25 55 41t63 23 63-2l-20-104q-24 9-54 5t-60-22-51-49-32-78L129 0H16z" horiz-adv-x="369" unicode="r"/><glyph d="M121 161q1-28 15-43t35-20 40-6q39 0 64 15t30 40q4 20-8 31t-35 17-47 14q-25 7-53 16t-53 25-36 41-5 62q9 47 42 81t82 54 105 19q67 0 110-28t55-82l-106-32q-3 14-15 24t-29 14-36 5q-33 0-57-13t-30-37q-2-12 3-21t18-14 29-10 37-11q30-9 59-19t52-27 34-42 4-66q-8-43-40-78t-82-56T188-7Q114-7 68 25T15 128z" horiz-adv-x="485" unicode="s"/><glyph d="m149 500 28 140h115l-28-140h117l-20-99H244l-44-222q-9-45 5-62t40-19 57 2L282 4q-45-9-85-6t-70 23-41 58 0 100l44 222H60l19 99z" horiz-adv-x="361" unicode="t"/><glyph d="M445 0H341l3 50q-30-27-68-42T199-7q-59 0-96 24T51 89t0 118l58 293h113l-55-278q-13-62 6-94t70-33q52 0 86 32t47 97l55 276h113z" horiz-adv-x="560" unicode="u"/><glyph d="m193 500 55-380 208 380h119L286 0H162L72 500z" horiz-adv-x="548" unicode="v"/><glyph d="M238 0H127L72 500h115l22-366 169 366h110l21-365 165 365h113L535 0H422l-24 338z" horiz-adv-x="760" unicode="w"/><glyph d="M76 500h129l75-162 140 162h130L325 250 450 0H321l-75 163L106 0H-24l225 250z" horiz-adv-x="526" unicode="x"/><glyph d="M459 500h119L145-200H32L165 14 67 500h125l61-354z" horiz-adv-x="545" unicode="y"/><glyph d="M467 411 155 99h251L386 0H-6l18 89 312 312H73l20 99h392z" horiz-adv-x="479" unicode="z"/><glyph d="M67 386q34 3 57 12t37 25 19 36q6 30 9 68t7 78 11 73q11 60 60 91t118 31h67l-16-83h-44q-32 0-50-11t-23-36q-5-27-8-64t-7-77-11-73q-8-41-38-68t-87-37v-1q53-9 72-37t11-69q-7-33-18-72t-23-76-18-65q-5-25 8-36t46-12h44l-17-83h-67q-68 0-104 32T77 24q6 33 18 72t24 77 18 68q4 21-4 36t-28 25-52 12z" horiz-adv-x="383" unicode="{"/><glyph d="M316 800 137-100H18l179 900z" horiz-adv-x="295" unicode="|"/><glyph d="m370 386-15-72q-32-3-56-12t-38-24-18-37q-6-29-9-67t-8-78-10-72q-12-59-61-91T39-100h-68l17 83h43q31 0 49 11t23 37q6 28 9 64t7 76 10 73q8 41 39 69t87 37v1q-53 9-72 36t-11 69q6 34 18 73t23 76 17 65q5 25-8 36t-45 11h-43l16 83h68q67 0 103-31t25-91q-6-33-18-72t-23-78-18-69q-4-20 4-36t27-25 52-12" horiz-adv-x="383" unicode="}"/><glyph d="M54 267q33 89 84 129t113 40q30 0 51-10t37-23 32-22 39-10q25 0 47 15t34 48h87q-34-89-85-129t-112-40q-31 0-51 9t-36 23-33 23-39 10q-25 0-48-16t-34-47z" horiz-adv-x="592" unicode="~"/><glyph horiz-adv-x="280"/><glyph d="m0-140 110 487h100l-83-487zm205 707q31 0 48-21t11-53-31-53-58-22q-32 0-49 21t-12 54q7 31 33 52t58 22" horiz-adv-x="282" unicode="¡"/><glyph d="M331 600h64l-30-155h-65zM225 70h65l-34-170h-65zm7-77q-72 0-120 32t-68 90-5 133q15 77 58 135t105 91 135 33q77 0 129-36t66-99l-109-34q-7 31-34 49t-68 19q-40 0-73-19t-56-55-32-83q-14-72 12-113t89-42q38 0 73 17t58 50l93-35q-40-61-108-97T232-7" horiz-adv-x="550" unicode="¢"/><glyph d="M434 707q76 0 118-29t57-78 4-107H505q9 49-10 81t-80 33q-33 0-61-12t-50-40-30-73q-7-34-5-62t7-53 7-51-3-55q-9-46-33-87t-66-78h359L521 0H54l-8 64q48 41 78 84t44 114q7 30 4 53t-8 47-8 53 7 74q14 68 52 117t96 75 123 26m36-324-16-82H62l16 82z" horiz-adv-x="614" unicode="£"/><glyph d="M335 555q55 0 93-22t54-61 6-95q-11-54-43-94t-80-62-102-22q-82 0-124 48t-26 130q11 55 43 94t79 62 100 22m-15-72q-36 0-67-27t-42-79 10-78 57-27q22 0 45 12t42 35 25 58-1 58-27 36-42 12m-132-29-70 87 62 52 73-91zm209 47 110 92 41-52-110-92zm18-201 68-85-61-52-71 87zm-207-42L95 163l-42 52 105 89z" horiz-adv-x="550" unicode="¤"/><glyph d="M442 397h191l-18-85H411zM79 224h519l-17-85H63zm35 173h211l-4-85H97zm508 303h133L404 252 353 0H235l51 251-172 449h132l120-340z" horiz-adv-x="689" unicode="¥"/><glyph d="m213 282-76-382H18l76 382zm-91 136 75 382h119l-75-382z" horiz-adv-x="295" unicode="¦"/><glyph d="M134 576q7 36 32 65t65 48 90 18q69 0 107-34t26-96h-89q3 20-2 34t-18 23-36 9q-35 0-56-14t-28-45q-6-26 14-43t86-44q42-17 69-37t39-47 5-63q-7-33-28-61t-56-48-86-33l17 39q27-13 48-30t31-39 4-54q-7-36-32-66t-65-47-90-18Q112-7 74 27t-26 96h89q-3-20 2-34t18-23 36-9q34 0 56 14t28 45q4 17-3 30t-31 26-65 31q-43 18-71 38t-39 46-4 63q7 34 28 62t56 49 84 26l-15-34q-28 14-49 30t-30 40-4 53m212-226q7 33-15 56t-65 23q-45 0-74-23t-36-56q-7-32 14-56t66-24q44 0 73 24t37 56" horiz-adv-x="462" unicode="§"/><glyph d="M146 620q-27 0-40 18t-9 43q5 26 26 43t47 18q25 0 39-17t10-44q-5-25-26-43t-47-18m174 0q-26 0-40 18t-9 43q5 26 26 43t47 18q25 0 40-17t10-44q-5-25-26-43t-48-18" horiz-adv-x="319" unicode="¨"/><glyph d="M490 707q103 0 172-46t98-126 7-187q-15-78-53-143T619 93 494 19 348-7Q244-7 175 38T77 163t-8 185q16 79 54 144t94 114 125 74 148 27m-10-47q-92 0-166-38T190 513t-70-165q-18-92 4-161t82-108 151-39q68 0 127 22t107 63 79 97 46 126q19 94-3 164t-82 109-151 39M363 90q-72 0-121 32t-68 89-5 134q16 77 58 135t105 91 135 33q77 0 130-36t65-99l-108-34q-7 31-35 49t-68 19q-39 0-72-19t-57-55-32-84q-14-71 13-112t88-42q39 0 74 17t57 50l94-34q-40-61-108-97T363 90" horiz-adv-x="797" unicode="©"/><glyph d="M86 530q11 53 41 93t73 63 90 23q46 0 74-16t41-37l9 47h92l-69-350h-92l9 46q-21-21-55-36t-78-16q-48 0-82 23t-49 65-4 95m96-1q-11-53 13-81t63-29q40 0 75 28t47 81q9 53-15 81t-63 29q-38 0-74-28t-46-81" horiz-adv-x="461" unicode="ª"/><glyph d="M208 75H94L36 250l127 175h114L146 250zm194 0H288l-57 175 126 175h114L341 250z" horiz-adv-x="480" unicode="«"/><glyph d="M70 436h572l-46-230H477l28 137H52z" horiz-adv-x="649" unicode="¬"/><glyph d="M63 328h414l-20-100H44z" horiz-adv-x="509" unicode="­"/><glyph d="M99 497q12 62 48 109t90 74 114 27 101-27 59-74 6-109q-12-61-48-108t-89-74-113-27q-62 0-103 27t-59 74-6 108m51 0q-10-48 2-84t44-57 81-21q48 0 88 20t66 57 36 85q10 49-2 85t-44 57-80 21q-49 0-88-20t-66-57-37-86m94 110-43-214h64l15 74h38q34 0 59 19t32 51q6 32-11 51t-52 19zm72-214h76l-44 98-69-1zm14 158q7 0 12-4t4-12q-2-9-8-13t-15-4h-33l7 33z" horiz-adv-x="517" unicode="®"/><glyph d="M105 722h369l-18-88H88z" horiz-adv-x="391" unicode="¯"/><glyph d="M77 525q11 55 43 94t78 60 101 21q80 0 124-46t28-129q-11-54-43-93t-80-60-101-22q-82 0-124 47T77 525m280 0q10 55-13 81t-60 27q-36 0-69-26t-45-82q-11-55 11-80t60-26q35 0 70 25t46 81" horiz-adv-x="418" unicode="°"/><glyph d="m482 598-90-456H281l91 456zM143 448h509l-21-101H122zM94 203h509l-20-101H74z" horiz-adv-x="715" unicode="±"/><glyph d="M103 599q11 48 53 78t106 30q43 0 70-16t38-42 5-56q-5-25-17-44t-35-39-61-42l-123-76 7 32h196l-14-74H56l13 68 125 81q34 23 56 43t27 47q5 22-5 35t-28 13-30-10-18-28z" horiz-adv-x="346" unicode="²"/><glyph d="M107 603q8 31 31 54t58 36 77 14q60 0 95-30t26-75q-6-31-27-49t-50-26v-2q25-9 40-30t8-53q-8-42-55-70t-112-29q-65 0-98 29t-27 82h92q-1-22 10-32t35-11q21 0 38 11t21 33q4 20-8 32t-36 12h-37l11 58h33q24 0 40 9t21 30q4 20-6 31t-35 11q-22 0-35-9t-22-26z" horiz-adv-x="366" unicode="³"/><glyph d="m343 798-21-100L79 590l17 87z" horiz-adv-x="245" unicode="´"/><glyph d="M481 0H362l12 62q-31-33-73-50T214-6q-15 0-28 2t-26 7-23 11L94-200H-23l139 700h117l-55-278q-8-42 0-70t31-43 57-15q52 0 90 33t50 97l55 276h119z" horiz-adv-x="597" unicode="µ"/><glyph d="M653 700 514 0H410l120 608h-66L343 0H239l57 286h-15q-83 0-129 28t-62 75-5 103q11 57 45 104t93 76 140 28z" horiz-adv-x="637" unicode="¶"/><glyph d="M126 259q-32 0-49 21t-11 53 32 53 57 22q32 0 49-21t11-54q-6-31-32-52t-57-22" horiz-adv-x="248" unicode="·"/><glyph d="M84-47q36 0 63-12t40-35 6-59q-8-34-29-59t-54-37-67-13H-91l15 73H35q25 0 41 7t20 29q5 23-8 30t-39 7H-8L17 7h78z" horiz-adv-x="284" unicode="¸"/><glyph d="M155 633h-54l13 67h146l-69-350H99z" horiz-adv-x="220" unicode="¹"/><glyph d="M85 528q11 56 44 96t81 63 103 22q55 0 94-22t56-62 6-97q-11-54-45-95t-82-63-102-23q-56 0-94 22t-55 64-6 95m288-1q12 55-13 83t-62 28-72-28-46-83q-10-53 13-80t61-28q37 0 73 27t46 81" horiz-adv-x="444" unicode="º"/><glyph d="m204 75 129 175-59 175h113l57-175L317 75zM9 75l129 175-59 175h113l57-175L122 75z" horiz-adv-x="481" unicode="»"/><glyph d="M538 700h112L130 0H17zm91-576-11-57h-45L559 0h-92l14 67H294l11 51 197 235h128l-45-229zm-134 0 31 159-129-159zM155 633h-54l13 66h146l-69-350H99z" horiz-adv-x="683" unicode="¼"/><glyph d="M537 700h113L130 0H17zm-382-67h-54l13 66h146l-69-350H99zm231-384q12 48 53 78t107 30q43 0 70-16t38-42 5-56q-5-25-17-45t-36-39-61-41L423 42l6 32h197L611 0H339l14 68 125 81q34 22 55 42t28 48q4 22-5 35t-28 13q-18 0-30-10t-18-28z" horiz-adv-x="711" unicode="½"/><glyph d="M618 700h112L211 0H99zm90-576-11-57h-45L639 0h-92l13 67H373l10 51 197 235h129l-45-229zm-134 0 32 160-130-160zM99 603q8 31 31 54t57 36 79 14q58 0 93-30t27-75q-6-31-27-49t-50-26v-2q24-9 39-30t9-53q-8-42-55-70t-113-29q-65 0-98 29t-26 82h91q0-22 11-32t35-11q21 0 37 11t22 33q4 20-8 32t-36 12h-37l11 58h34q23 0 39 9t21 30q4 20-6 31t-34 11q-23 0-37-9t-21-26z" horiz-adv-x="758" unicode="¾"/><glyph d="M195-152q-67 0-113 25T16-55 10 57q14 71 53 115t97 66 124 22l19 79h104l-27-160h-35q-41 0-77-5t-64-17-46-37-27-63q-10-50 10-79t73-29q52 0 88 27t46 79h112Q448-5 412-52t-92-73-125-27m201 714q31 0 48-21t12-54q-6-31-32-52t-58-22q-31 0-48 21t-12 53q6 32 32 53t58 22" horiz-adv-x="547" unicode="¿"/><glyph d="M445 601h-36L80 0H-42l387 700h202L657 0H535zM147 269h408l-19-98H128zm232 690 199-122-17-87-201 110z" horiz-adv-x="714" unicode="À"/><glyph d="M445 601h-36L80 0H-42l387 700h202L657 0H535zM147 269h408l-19-98H128zm455 690-20-101-244-108 17 87z" horiz-adv-x="714" unicode="Á"/><glyph d="M445 601h-36L80 0H-42l387 700h202L657 0H535zM147 269h408l-19-98H128zm454 481-128 86-160-86 18 92 160 84 128-84z" horiz-adv-x="714" unicode="Â"/><glyph d="M445 601h-36L80 0H-42l387 700h202L657 0H535zM147 269h408l-19-98H128zm144 488q22 61 58 90t82 30q20 0 34-6t25-16 23-15 26-7q17 0 30 10t21 32h66q-21-60-57-90t-81-30q-21 0-35 7t-25 16-22 16-27 7-30-11-22-33z" horiz-adv-x="714" unicode="Ã"/><glyph d="M445 601h-36L80 0H-42l387 700h202L657 0H535zM147 269h408l-19-98H128zm228 511q-26 0-40 17t-9 44q5 26 26 43t48 18q25 0 39-17t10-44q-6-26-27-43t-47-18m174 0q-26 0-39 17t-9 44q5 26 25 43t48 18q25 0 39-17t10-44q-5-26-26-43t-48-18" horiz-adv-x="714" unicode="Ä"/><glyph d="M445 601h-36L80 0H-42l387 700h202L657 0H535zM147 269h408l-19-98H128zm444 586q-10-52-49-81t-87-30q-46 0-73 29t-17 82q10 51 49 81t86 30 74-30 17-81m-65 1q5 22-7 36t-32 14q-19 0-35-14t-22-36q-5-23 6-37t32-14q19 0 36 14t22 37" horiz-adv-x="714" unicode="Å"/><glyph d="m655 601-39-198h177l-20-98H596L555 99h268L804 0H417l34 170H210L85 0H-42l519 700h466l-20-99zM282 268h189l68 349z" horiz-adv-x="907" unicode="Æ"/><glyph d="M56 350q16 79 56 144t99 113 128 74 143 26q103 0 177-49t99-141l-103-33q-14 44-44 71t-68 39-78 12q-68 0-128-31t-102-89-58-136q-15-77 4-134t67-90 115-32q40 0 84 12t88 44 80 85l90-31Q638 96 542 45T340-7q-73 0-132 26t-98 74-54 113 0 144M369-47q36 0 63-12t40-35 6-60q-7-34-29-59t-54-38-67-13H194l15 74h111q25 0 41 7t20 29q5 23-8 29t-39 7h-56L302 7h78z" horiz-adv-x="763" unicode="Ç"/><glyph d="M622 601H262l-40-197h270l-20-99H203L162 99h359L501 0H23l140 700h478zM334 959l199-122-18-87-201 110z" horiz-adv-x="605" unicode="È"/><glyph d="M622 601H262l-40-197h270l-20-99H203L162 99h359L501 0H23l140 700h478zm-65 358-20-101-244-108 17 87z" horiz-adv-x="605" unicode="É"/><glyph d="M622 601H262l-40-197h270l-20-99H203L162 99h359L501 0H23l140 700h478zm-67 149-126 86-162-86 19 92 161 84 127-84z" horiz-adv-x="605" unicode="Ê"/><glyph d="M622 601H262l-40-197h270l-20-99H203L162 99h359L501 0H23l140 700h478zM330 780q-26 0-40 17t-9 44q5 26 26 43t47 18q26 0 40-17t9-44q-5-26-26-43t-47-18m174 0q-25 0-39 17t-10 44q5 26 26 43t48 18q25 0 39-17t9-44q-5-26-26-43t-47-18" horiz-adv-x="605" unicode="Ë"/><glyph d="M223 700h118L201 0H83zm-9 259 199-122-18-87-201 110z" horiz-adv-x="370" unicode="Ì"/><glyph d="M223 700h118L201 0H83zm214 259-20-101-244-108 17 87z" horiz-adv-x="370" unicode="Í"/><glyph d="M248 700h119L227 0H108zm213 50-127 86-161-86 18 92 161 84 127-84z" horiz-adv-x="435" unicode="Î"/><glyph d="M253 700h118L231 0H113zm-13 80q-26 0-40 17t-9 44q5 26 26 43t47 18q26 0 40-17t9-44q-5-26-26-43t-47-18m174 0q-26 0-40 17t-9 44q5 26 26 43t47 18q26 0 40-17t9-44q-5-26-26-43t-47-18" horiz-adv-x="444" unicode="Ï"/><glyph d="M84 402h76l59 298h231q111 0 185-43t104-122 8-188q-21-107-82-185T513 42 310 0H79l59 294H62zM218 92h110q120-1 197 68t101 187q23 118-27 187t-169 70H319l-40-202h176l-21-108H258z" horiz-adv-x="765" unicode="Ð"/><glyph d="M729 700 589 0H468L245 513 142 0H23l140 700h122l223-511 103 511zm-426 57q21 61 58 90t81 30q21 0 35-6t25-16 22-15 27-7q16 0 30 10t21 32h66q-21-60-58-90t-80-30q-22 0-35 7t-25 16-22 16-27 7-31-11-21-33z" horiz-adv-x="713" unicode="Ñ"/><glyph d="M341-7q-73 0-132 26t-99 73-54 113 0 145q16 78 56 143t99 114 129 74 143 26q75 0 134-26t98-74 53-113-1-144-55-144-99-113-127-74T341-7m20 101q68 0 127 31t101 89 57 136q16 79-3 136t-65 88-115 32q-68 0-127-31t-101-89-58-136q-15-78 3-135t66-89 115-32m54 865 198-122-17-87-201 110z" horiz-adv-x="784" unicode="Ò"/><glyph d="M341-7q-73 0-132 26t-99 73-54 113 0 145q16 78 56 143t99 114 129 74 143 26q75 0 134-26t98-74 53-113-1-144-55-144-99-113-127-74T341-7m20 101q68 0 127 31t101 89 57 136q16 79-3 136t-65 88-115 32q-68 0-127-31t-101-89-58-136q-15-78 3-135t66-89 115-32m276 865-20-101-244-108 18 87z" horiz-adv-x="784" unicode="Ó"/><glyph d="M341-7q-73 0-132 26t-99 73-54 113 0 145q16 78 56 143t99 114 129 74 143 26q75 0 134-26t98-74 53-113-1-144-55-144-99-113-127-74T341-7m20 101q68 0 127 31t101 89 57 136q16 79-3 136t-65 88-115 32q-68 0-127-31t-101-89-58-136q-15-78 3-135t66-89 115-32m275 656-127 86-161-86 18 92 160 84 128-84z" horiz-adv-x="784" unicode="Ô"/><glyph d="M341-7q-73 0-132 26t-99 73-54 113 0 145q16 78 56 143t99 114 129 74 143 26q75 0 134-26t98-74 53-113-1-144-55-144-99-113-127-74T341-7m20 101q68 0 127 31t101 89 57 136q16 79-3 136t-65 88-115 32q-68 0-127-31t-101-89-58-136q-15-78 3-135t66-89 115-32m-34 663q21 61 57 90t82 30q20 0 34-6t26-16 22-15 26-7q17 0 30 10t21 32h66q-20-60-56-90t-82-30q-20 0-34 7t-26 16-22 16-27 7q-16 0-30-11t-22-33z" horiz-adv-x="784" unicode="Õ"/><glyph d="M341-7q-74 0-133 26t-98 73-54 113 0 145q16 78 56 143t99 114 129 74 143 26q75 0 134-26t98-74 53-113-1-144-55-144-99-113-127-74T341-7m20 101q68 0 127 31t102 89 56 136q16 79-3 136t-65 88-115 32q-68 0-127-31t-101-89-58-136q-15-78 3-135t66-89 115-32m49 686q-26 0-40 17t-8 44q5 26 25 43t48 18q26 0 40-17t9-44q-5-26-26-43t-48-18m175 0q-27 0-40 17t-9 44q5 26 26 43t47 18q26 0 40-17t9-44q-5-26-26-43t-47-18" horiz-adv-x="784" unicode="Ö"/><glyph d="m200 577 301-377-92-76-300 377zM45 202l451 375 62-78-450-375z" horiz-adv-x="566" unicode="×"/><glyph d="m633 608 83-48-502-450-83 47zM341-7q-73 0-132 26t-99 73-54 113 0 145q16 78 56 143t99 114 129 74 143 26q75 0 134-26t98-74 53-113-1-144-55-144-99-113-127-74T341-7m20 101q68 0 127 31t101 89 57 136q16 79-3 136t-65 88-115 32q-68 0-127-31t-101-89-58-136q-15-78 3-135t66-89 115-32" horiz-adv-x="784" unicode="Ø"/><glyph d="M160 700h118l-89-446q-10-53 4-89t47-53 81-18q48 0 89 17t69 54 40 89l89 446h118l-88-443q-14-67-47-116t-81-83T410 9 300-7q-74 0-132 29t-86 87-11 148zm215 259 198-122-17-87-200 110z" horiz-adv-x="707" unicode="Ù"/><glyph d="M160 700h118l-89-446q-10-53 4-89t47-53 81-18q48 0 89 17t69 54 40 89l89 446h118l-88-443q-14-67-47-116t-81-83T410 9 300-7q-74 0-132 29t-86 87-11 148zm438 259-21-101-243-108 16 87z" horiz-adv-x="707" unicode="Ú"/><glyph d="M160 700h118l-89-446q-10-53 4-89t47-53 81-18q48 0 89 17t69 54 40 89l89 446h118l-88-443q-14-67-47-116t-81-83T410 9 300-7q-74 0-132 29t-86 87-11 148zm436 50-127 86-161-86 18 92 161 84 127-84z" horiz-adv-x="707" unicode="Û"/><glyph d="M160 700h118l-89-446q-10-53 4-89t47-53 81-18q48 0 89 17t69 54 40 89l89 446h118l-88-443q-14-67-47-116t-81-83T410 9 300-7q-74 0-132 29t-86 87-11 148zm211 80q-27 0-41 17t-8 44q5 26 26 43t47 18q25 0 39-17t10-44q-6-26-27-43t-46-18m174 0q-26 0-40 17t-9 44q5 26 26 43t48 18q24 0 39-17t10-44q-7-26-28-43t-46-18" horiz-adv-x="707" unicode="Ü"/><glyph d="M622 700h133L404 252 353 0H235l51 251-172 449h132l120-340zm-33 259-20-101-244-108 17 87z" horiz-adv-x="689" unicode="Ý"/><glyph d="M312 234q66 0 102 32t48 84q11 53-13 85t-90 32H236l-47-233zm272 116q-11-50-44-98t-94-79-151-31H171L142 0H23l140 700h118l-29-141h126q83 0 132-28t67-75 7-106" horiz-adv-x="601" unicode="Þ"/><glyph d="M116 502q11 54 43 100t87 76 134 29q71 0 113-24t58-63 9-79q-7-34-24-56t-40-37-43-30q-18-13-30-24t-15-22q-3-13 12-24t65-30q66-24 87-71t10-103q-13-68-70-109T365-7q-83 0-127 44t-35 128h120q-6-36 9-57t51-21q33 0 52 11t25 38q5 27-5 52t-52 40q-68 25-97 54t-20 75q6 36 33 62t56 49q24 19 41 30t23 34q7 34-14 55t-66 21q-40 0-67-15t-42-42-23-62L130 0H17z" horiz-adv-x="643" unicode="ß"/><glyph d="m315 0 2 61q-30-32-66-49T159-5q-52 0-86 17T24 61t-6 74q12 63 67 105t147 53l134 14 8 39q5 24-12 43t-64 20q-39 0-72-19t-52-59l-91 36q32 66 96 103t145 37q98 0 137-49t24-125L419 0zm34 220-123-15q-38-5-61-21t-28-42q-4-23 11-39t48-17q41 0 72 15t51 43 29 69zm-91 508 177-107-15-77-178 97z" horiz-adv-x="527" unicode="à"/><glyph d="m315 0 2 61q-30-32-66-49T159-5q-52 0-86 17T24 61t-6 74q12 63 67 105t147 53l134 14 8 39q5 24-12 43t-64 20q-39 0-72-19t-52-59l-91 36q32 66 96 103t145 37q98 0 137-49t24-125L419 0zm34 220-123-15q-38-5-61-21t-28-42q-4-23 11-39t48-17q41 0 72 15t51 43 29 69zm107 508-17-88-217-96 15 77z" horiz-adv-x="527" unicode="á"/><glyph d="m315 0 2 61q-30-32-66-49T159-5q-52 0-86 17T24 61t-6 74q12 63 67 105t147 53l134 14 8 39q5 24-12 43t-64 20q-39 0-72-19t-52-59l-91 36q32 66 96 103t145 37q98 0 137-49t24-125L419 0zm34 220-123-15q-38-5-61-21t-28-42q-4-23 11-39t48-17q41 0 72 15t51 43 29 69zm106 325-113 75-142-75 16 80 142 74 113-74z" horiz-adv-x="527" unicode="â"/><glyph d="m315 0 2 61q-30-32-66-49T159-5q-52 0-86 17T24 61t-6 74q12 63 67 105t147 53l134 14 8 39q5 24-12 43t-64 20q-39 0-72-19t-52-59l-91 36q32 66 96 103t145 37q98 0 137-49t24-125L419 0zm34 220-123-15q-38-5-61-21t-28-42q-4-23 11-39t48-17q41 0 72 15t51 43 29 69zM181 551q18 53 51 79t73 27q24 0 38-10t27-19 30-10q15 0 27 9t19 28h59q-19-54-51-80t-72-26q-24 0-39 10t-27 20-31 10q-14 0-26-9t-20-29z" horiz-adv-x="527" unicode="ã"/><glyph d="m315 0 2 61q-30-32-66-49T159-5q-52 0-86 17T24 61t-6 74q12 63 67 105t147 53l134 14 8 39q5 24-12 43t-64 20q-39 0-72-19t-52-59l-91 36q32 66 96 103t145 37q98 0 137-49t24-125L419 0zm34 220-123-15q-38-5-61-21t-28-42q-4-23 11-39t48-17q41 0 72 15t51 43 29 69zm-94 350q-23 0-35 15t-9 40q5 22 23 38t42 16q23 0 35-16t9-38q-5-24-23-39t-42-16m155 0q-24 0-36 15t-8 40q5 22 24 38t41 16 35-16 9-38q-5-24-24-39t-41-16" horiz-adv-x="527" unicode="ä"/><glyph d="m315 0 2 61q-30-32-66-49T159-5q-52 0-86 17T24 61t-6 74q12 63 67 105t147 53l134 14 8 39q5 24-12 43t-64 20q-39 0-72-19t-52-59l-91 36q32 66 96 103t145 37q98 0 137-49t24-125L419 0zm34 220-123-15q-38-5-61-21t-28-42q-4-23 11-39t48-17q41 0 72 15t51 43 29 69zm97 416q-9-45-43-71t-77-26q-40 0-65 26t-15 71q9 46 43 72t76 27q42 0 66-26t15-73m-57 1q4 21-6 33t-28 12-33-12-19-33q-4-20 6-32t28-13q18 0 33 12t19 33" horiz-adv-x="527" unicode="å"/><glyph d="M541-7q-72 0-118 32t-64 91-2 136q23 118 97 186t187 69q72 0 119-30t67-86 4-129l-6-26q-3-13-10-29H460q-4-36 7-61t35-39 58-14q50 0 83 14t57 48l93-33q-42-59-104-94T541-7m176 306q6 35-4 60t-35 37-58 13q-30 0-57-13t-48-38-33-59zM409 196l-5-71q-28-48-69-77T247 6 159-7Q110-7 75 9T24 56t-6 78q8 40 29 68t51 46 65 29 69 16l135 18 7 35q5 24-13 43t-63 20q-39 0-72-19t-52-59l-91 36q32 67 95 103t146 37q97 0 136-48t24-126l-22-111zm-60 25-120-16q-42-5-64-22t-28-42q-5-26 13-38t51-12q34 0 64 13t52 39 30 68z" horiz-adv-x="868" unicode="æ"/><glyph d="M232-7q-72 0-120 32t-68 90-5 133q15 77 58 135t105 91 135 33q77 0 129-36t66-99l-109-34q-7 31-34 49t-68 19q-40 0-73-19t-56-55-32-83q-14-72 12-113t89-42q38 0 73 17t58 50l93-35q-40-61-108-97T232-7m26-30q32 0 56-10t35-31 6-52q-6-31-26-53t-48-33-59-11H103l13 65h98q23 0 37 6t18 26q4 19-8 25t-34 7h-50l22 109h68z" horiz-adv-x="550" unicode="ç"/><glyph d="M240-7q-75 0-125 33t-70 92-5 136q15 73 57 130t104 90 132 33q71 0 119-31t67-86 5-129q-3-12-6-25t-9-29H153q-2-35 10-60t37-40 61-14q41 0 77 17t55 45l93-33q-42-60-107-94T240-7m168 306q6 31-5 56t-34 39-56 15q-28 0-55-14t-50-38-35-58zM275 728l176-107-15-77-179 97z" horiz-adv-x="562" unicode="è"/><glyph d="M240-7q-75 0-125 33t-70 92-5 136q15 73 57 130t104 90 132 33q71 0 119-31t67-86 5-129q-3-12-6-25t-9-29H153q-2-35 10-60t37-40 61-14q41 0 77 17t55 45l93-33q-42-60-107-94T240-7m168 306q6 31-5 56t-34 39-56 15q-28 0-55-14t-50-38-35-58zm65 429-18-88-216-96 15 77z" horiz-adv-x="562" unicode="é"/><glyph d="M240-7q-75 0-125 33t-70 92-5 136q15 73 57 130t104 90 132 33q71 0 119-31t67-86 5-129q-3-12-6-25t-9-29H153q-2-35 10-60t37-40 61-14q41 0 77 17t55 45l93-33q-42-60-107-94T240-7m168 306q6 31-5 56t-34 39-56 15q-28 0-55-14t-50-38-35-58zm63 246-112 75-143-75 16 80 142 74 114-74z" horiz-adv-x="562" unicode="ê"/><glyph d="M240-7q-75 0-125 33t-70 92-5 136q15 73 57 130t104 90 132 33q71 0 119-31t67-86 5-129q-3-12-6-25t-9-29H153q-2-35 10-60t37-40 61-14q41 0 77 17t55 45l93-33q-42-60-107-94T240-7m168 306q6 31-5 56t-34 39-56 15q-28 0-55-14t-50-38-35-58zM272 570q-24 0-36 15t-8 40q4 22 23 38t42 16q22 0 35-16t9-38q-5-24-24-39t-41-16m154 0q-23 0-35 15t-8 40q4 22 22 38t43 16q22 0 34-16t9-38q-5-24-23-39t-42-16" horiz-adv-x="562" unicode="ë"/><glyph d="M161 500h119L181 0H62zm-1 223 177-107-16-76-178 97z" horiz-adv-x="330" unicode="ì"/><glyph d="M161 500h119L181 0H62zm197 223-18-88-216-95 15 76z" horiz-adv-x="330" unicode="í"/><glyph d="M184 500h119L204 0H85zm196 40-113 76-143-76 16 81 142 73 113-73z" horiz-adv-x="388" unicode="î"/><glyph d="M188 500h119L208 0H89zm-5 66q-23 0-35 15t-8 39q4 23 22 38t43 16q22 0 34-15t9-39q-5-23-23-38t-42-16m155 0q-23 0-35 15t-9 39q5 23 23 38t42 16q23 0 35-15t9-39q-5-23-24-38t-41-16" horiz-adv-x="395" unicode="ï"/><glyph d="m594 673-14-66-55-17q33-69 42-148t-6-155q-20-97-67-163T382 25 242-8q-72 0-123 32t-73 90-6 137q15 79 60 136t107 90 130 32q26 0 46-4t38-12 32-21q-6 20-14 42t-19 45l-125-37 14 65 83 26q-13 23-29 45t-37 42h124q25-26 45-57zM262 92q35 0 70 18t63 53 38 88q9 53-3 88t-40 52-64 18q-35 0-69-17t-59-53-36-88q-16-79 16-119t84-40" horiz-adv-x="593" unicode="ð"/><glyph d="M116 500h102l-1-49q30 26 67 41t78 15q59 0 96-24t51-72 0-119L451 0H338l54 277q13 63-6 95t-70 32-85-32-46-96L130 0H17zm96 51q19 53 52 79t72 27q24 0 38-10t27-19 31-10q15 0 27 9t19 28h59q-19-54-52-80t-72-26q-24 0-38 10t-27 20-31 10q-15 0-27-9t-19-29z" horiz-adv-x="559" unicode="ñ"/><glyph d="M239-7q-72 0-122 31t-72 89-6 136q16 79 61 137t108 89 136 32q72 0 123-31t74-89 7-136q-16-79-62-137T376 25 239-7m19 101q35 0 70 17t62 51 37 89q10 52-2 86t-39 52-64 17q-35 0-68-17t-58-51-36-89q-10-52 0-86t37-52 61-17m29 634 176-107-15-77-179 97z" horiz-adv-x="587" unicode="ò"/><glyph d="M239-7q-72 0-122 31t-72 89-6 136q16 79 61 137t108 89 136 32q72 0 123-31t74-89 7-136q-16-79-62-137T376 25 239-7m19 101q35 0 70 17t62 51 37 89q10 52-2 86t-39 52-64 17q-35 0-68-17t-58-51-36-89q-10-52 0-86t37-52 61-17m227 634-18-88-217-96 16 77z" horiz-adv-x="587" unicode="ó"/><glyph d="M239-7q-72 0-122 31t-72 89-6 136q16 79 61 137t108 89 136 32q72 0 123-31t74-89 7-136q-16-79-62-137T376 25 239-7m19 101q35 0 70 17t62 51 37 89q10 52-2 86t-39 52-64 17q-35 0-68-17t-58-51-36-89q-10-52 0-86t37-52 61-17m225 451-112 75-143-75 16 80 142 74 114-74z" horiz-adv-x="587" unicode="ô"/><glyph d="M239-7q-72 0-122 31t-72 89-6 136q16 79 61 137t108 89 136 32q72 0 123-31t74-89 7-136q-16-79-62-137T376 25 239-7m19 101q35 0 70 17t62 51 37 89q10 52-2 86t-39 52-64 17q-35 0-68-17t-58-51-36-89q-10-52 0-86t37-52 61-17m-49 457q19 53 52 79t72 27q24 0 38-10t27-19 31-10q15 0 27 9t19 28h58q-18-54-51-80t-72-26q-25 0-39 10t-26 20-31 10q-15 0-27-9t-19-29z" horiz-adv-x="587" unicode="õ"/><glyph d="M239-7q-72 0-122 31t-72 89-6 136q16 79 61 137t108 89 136 32q72 0 123-31t74-89 7-136q-16-79-62-137T376 25 239-7m19 101q35 0 70 17t62 51 37 89q10 52-2 86t-39 52-64 17q-35 0-68-17t-58-51-36-89q-10-52 0-86t37-52 61-17m26 476q-24 0-36 15t-8 40q4 22 23 38t42 16q22 0 35-16t9-38q-5-24-24-39t-41-16m154 0q-23 0-35 15t-8 40q4 22 22 38t43 16q22 0 34-16t9-38q-5-24-23-39t-42-16" horiz-adv-x="587" unicode="ö"/><glyph d="M84 399h510l-19-100H64zM278 59q-33 0-50 21t-11 54q6 32 32 53t58 22q32 0 49-21t10-54q-6-32-31-53t-57-22m85 432q-32 0-49 21t-11 54q6 32 31 53t59 22q31 0 48-21t12-54q-6-32-32-53t-58-22" horiz-adv-x="621" unicode="÷"/><glyph d="m457 449 67-56L155 60l-67 56zM239-7q-72 0-122 31t-72 89-6 136q16 79 61 137t108 89 136 32q72 0 123-31t74-89 7-136q-16-79-62-137T376 25 239-7m19 101q35 0 70 17t62 51 37 89q10 52-2 86t-39 52-64 17q-35 0-68-17t-58-51-36-89q-10-52 0-86t37-52 61-17" horiz-adv-x="587" unicode="ø"/><glyph d="M445 0H341l3 50q-30-27-68-42T199-7q-59 0-96 24T51 89t0 118l58 293h113l-55-278q-13-62 6-94t70-33q52 0 86 32t47 97l55 276h113zM260 728l177-107-16-77-178 97z" horiz-adv-x="560" unicode="ù"/><glyph d="M445 0H341l3 50q-30-27-68-42T199-7q-59 0-96 24T51 89t0 118l58 293h113l-55-278q-13-62 6-94t70-33q52 0 86 32t47 97l55 276h113zm13 728-18-88-216-96 15 77z" horiz-adv-x="560" unicode="ú"/><glyph d="M445 0H341l3 50q-30-27-68-42T199-7q-59 0-96 24T51 89t0 118l58 293h113l-55-278q-13-62 6-94t70-33q52 0 86 32t47 97l55 276h113zm11 545-112 75-143-75 17 80 142 74 113-74z" horiz-adv-x="560" unicode="û"/><glyph d="M445 0H341l3 50q-30-27-68-42T199-7q-59 0-96 24T51 89t0 118l58 293h113l-55-278q-13-62 6-94t70-33q52 0 86 32t47 97l55 276h113zM257 570q-24 0-36 15t-8 40q5 22 23 38t42 16q22 0 35-16t9-38q-5-24-24-39t-41-16m154 0q-23 0-35 15t-8 40q5 22 23 38t42 16q22 0 34-16t9-38q-4-24-23-39t-42-16" horiz-adv-x="560" unicode="ü"/><glyph d="M459 500h119L145-200H32L165 14 67 500h125l61-354zm0 228-18-88-216-96 15 77z" horiz-adv-x="545" unicode="ý"/><glyph d="M90-200H-23l183 921h113l-58-290q32 35 77 56t100 22q67 0 114-32t67-89 5-135q-15-77-58-136T416 25 289-8q-35 0-63 10t-49 29-33 43zm367 453q10 50-3 84t-42 51-64 18q-35 0-70-18t-61-52-37-85q-11-50 2-85t41-53 64-19q35 0 70 19t63 54 37 86" horiz-adv-x="617" unicode="þ"/><glyph d="M459 500h119L145-200H32L165 14 67 500h125l61-354zm-201 70q-23 0-35 15t-9 40q5 22 24 38t41 16q23 0 35-16t9-38q-4-24-23-39t-42-16m155 0q-24 0-36 15t-8 40q5 22 24 38t41 16 35-16 9-38q-5-24-24-39t-41-16" horiz-adv-x="545" unicode="ÿ"/><glyph d="M63 328h537l-20-100H44z" horiz-adv-x="633" unicode="–"/><glyph d="M63 328h754l-20-100H44z" horiz-adv-x="849" unicode="—"/><glyph d="M329 700 221 458H92l154 242z" horiz-adv-x="277" unicode="‘"/><glyph d="m78 458 108 242h129L161 458z" horiz-adv-x="277" unicode="’"/><glyph d="M-33-100 75 138h128L50-100z" horiz-adv-x="277" unicode="‚"/><glyph d="M329 700 221 458H92l154 242zm184 0L405 458H276l154 242z" horiz-adv-x="460" unicode="“"/><glyph d="m262 458 108 242h129L345 458zm-184 0 108 242h129L161 458z" horiz-adv-x="460" unicode="”"/><glyph d="M-33-100 75 138h128L50-100zm186 0 108 238h128L236-100z" horiz-adv-x="462" unicode="„"/><glyph d="M210 201q-36 0-62 18t-39 48-4 66q7 37 31 67t57 48 70 18q38 0 64-18t39-48 4-67q-8-36-31-66t-57-48-72-18" horiz-adv-x="442" unicode="•"/><glyph d="M208 75H94L36 250l127 175h114L146 250z" horiz-adv-x="286" unicode="‹"/><glyph d="m9 75 129 175-59 175h113l57-175L122 75z" horiz-adv-x="287" unicode="›"/></font>
</defs>
</svg>
