<svg xmlns="http://www.w3.org/2000/svg"><defs><font id="AlbertSans" horiz-adv-x="556"><font-face alphabetic="0" ascent="950" descent="-250" font-family="Albert Sans Medium"/><glyph horiz-adv-x="280"/><glyph d="M82 700h105l-11-498H93zM136-6q-27 0-46 19T71 60q0 27 19 46t46 19 46-19 19-46q0-28-19-47T136-6" horiz-adv-x="272" unicode="!"/><glyph d="M48 700h91l-11-196H60zm140 0h92l-11-196h-68z" horiz-adv-x="328" unicode="&quot;"/><glyph d="M298 700h95l-35-170h204l36 170h95l-35-170h138v-87H640l-34-165h139v-88H588L549 0h-95l39 190H288L249 0h-95l39 190H40v88h171l34 165H91v87h172zm8-422h204l34 165H340z" horiz-adv-x="835" unicode="#"/><glyph d="M258 775h58V-75h-58zM139 185q6-28 24-52t51-39 79-15q70 0 103 32t34 77q0 36-20 59t-56 40-82 30q-40 12-78 25t-70 34-49 53-18 82q0 61 29 105t81 67 122 24q58 0 104-16t77-47 47-74l-91-33q-6 22-25 41t-48 32-65 12q-37 1-66-11t-47-36-18-55q0-35 20-55t53-33 74-25q42-13 82-28t72-38 53-57 20-87q0-56-26-102t-78-74T295-7q-65 0-117 20T93 68t-45 83z" horiz-adv-x="578" unicode="$"/><glyph d="M48 555q0 72 42 112t106 40q63 0 105-40t43-112q0-72-42-112t-106-41q-64 0-106 40T48 555m148 91q-32 0-51-22t-19-69q0-46 19-69t51-23q31 0 50 23t19 69q0 47-19 69t-50 22m347 54h98L238 0h-98zM439 145q0 72 42 112t106 41q63 0 105-40t43-113q0-71-42-111T587-7q-63 0-105 40t-43 112m148 91q-32 0-51-22t-19-69q0-46 19-68t51-22q30 0 49 22t20 68q0 47-19 69t-50 22" horiz-adv-x="782" unicode="%"/><glyph d="M404 582q-17 18-43 28t-61 11q-63 0-92-35t-30-85q0-37 19-59t57-34 96-12h227v-85H351q-94 0-140-24t-46-93q0-36 13-61t41-40 76-14q69 0 97 33t29 104v136h97V216q0-80-27-129t-78-71T294-7q-76 0-127 24T90 85 63 186q0 47 17 80t47 55 71 32v5q-35 9-62 31t-44 53-16 70q0 52 25 96t75 72 120 27q59 0 107-18t81-54zm80 53-80-53zM379 396q14 0 25 4t17 18 6 40v61h92V396h125v-85H519V170q0-48 22-68t64-20q8 0 18 1t21 2V4q-14-3-28-5t-27-2q-44 0-82 17t-62 55-24 101v142h-74v84z" horiz-adv-x="697" unicode="&amp;"/><glyph d="M52 700h92l-12-196H64z" horiz-adv-x="196" unicode="'"/><glyph d="M259-100Q194-49 149 21T80 175 56 348q0 90 24 173t74 155 122 124h103v-8q-78-58-128-130t-75-152-24-162q0-80 23-159t70-151T362-92v-8z" horiz-adv-x="426" unicode="("/><glyph d="M168-100H65v8q69 58 115 129t70 151 24 160q0 82-24 161t-74 152T48 792v8h103q73-53 122-124t73-154 24-174q0-89-23-172T278 22 168-100" horiz-adv-x="426" unicode=")"/><glyph d="m263 585 120 89 39-71-138-55 139-56-41-72-119 89 18-149h-80l16 149-119-91-42 75 138 56-138 53 40 72 122-89-17 150h81z" horiz-adv-x="478" unicode="*"/><glyph d="M360 605V95h-92v510zM59 392h510v-84H59z" horiz-adv-x="628" unicode="+"/><glyph d="M108 130h109L101-142H36z" horiz-adv-x="276" unicode=","/><glyph d="M59 320h404v-84H59z" horiz-adv-x="523" unicode="-"/><glyph d="M124-6Q97-6 78 13T59 59q0 28 19 47t46 19 46-19 19-47q0-27-19-46T124-6" horiz-adv-x="248" unicode="."/><glyph d="M240 800h99L98-100H0z" horiz-adv-x="339" unicode="/"/><glyph d="M63 350q0 78 12 143t40 113 78 74 125 27q76 0 125-26t77-74 40-113 12-144-11-144-40-113-78-74T318-7q-75 0-125 26t-78 73-40 113-12 145m408 0q0 54-5 103t-19 87-46 59-83 22q-52 0-83-21t-46-60-19-87-5-103q0-57 4-106t20-86 46-58 83-21q52 0 83 21t45 58 20 86 5 106" horiz-adv-x="635" unicode="0"/><glyph d="M135 616H40v84h195V0H135z" horiz-adv-x="314" unicode="1"/><glyph d="m54 73 206 192q59 54 93 93t49 72 15 70q0 53-30 87t-99 34q-43 0-73-19t-46-53-17-81H56q2 80 33 133t83 79 117 27q72 0 123-26t79-72 27-109q0-45-16-87t-57-91-109-113L200 84h337V0H54z" horiz-adv-x="598" unicode="2"/><glyph d="M63 510q4 63 35 107t84 67 119 23q71 0 120-27t74-71 26-97q0-38-16-69t-43-54-63-31v-5q40-10 70-31t48-55 17-81q0-57-26-100t-77-68T303-7q-73 0-128 22T89 84 53 206h96q5-62 41-94t113-33q45 0 74 14t42 39 14 62q0 68-46 92t-141 25h-25v85h26q57 1 95 12t58 33 20 60q0 50-30 85t-92 35q-42 0-71-14t-46-40-21-57z" horiz-adv-x="597" unicode="3"/><glyph d="M407 160H40v73l345 467h121V245h96v-85h-96V0h-99zm2 85v352L154 245z" horiz-adv-x="654" unicode="4"/><glyph d="M516 700v-84H178V407q21 29 61 47t91 18q65 0 109-22t71-57 40-75 13-78q0-68-28-124t-85-89T314-7q-72 0-125 25t-85 70-41 102h97q13-52 53-81t102-30q50 0 83 20t48 55 16 84q0 70-38 109t-108 39q-53 0-90-25t-53-68H79v407z" horiz-adv-x="623" unicode="5"/><glyph d="M307-7q-74 0-131 32t-90 88-32 126q0 55 20 110t65 112l183 239h108L222 430 106 311q21 71 77 115t137 44q70 0 124-29t84-82 31-122q0-70-32-125t-90-87T307-7M155 237q0-48 17-83t52-55 83-20q49 0 82 19t51 55 18 84q0 49-17 83t-51 52-83 18q-48 0-82-18t-52-52-18-83" horiz-adv-x="607" unicode="6"/><glyph d="M517 700v-74L239 0H139l281 616H40v84z" horiz-adv-x="557" unicode="7"/><glyph d="M187 368q-52 21-82 59t-30 97q0 51 27 92t79 66 133 25q79 0 132-25t79-66 27-92q0-55-31-95t-81-61q60-19 95-63t36-108q0-63-33-108t-90-71T314-7q-76 0-134 25T90 88 57 197q0 64 35 108t95 63m263 145q0 57-35 82t-101 26q-64 0-100-25t-37-84q0-51 37-80t100-30q63 0 99 29t37 82M314 324q-45 0-80-13t-56-40-20-71q0-58 40-89t116-32q74 0 115 32t41 89q0 42-20 69t-55 41-81 14" horiz-adv-x="628" unicode="8"/><glyph d="M299 707q74 0 131-32t90-88 33-126q0-55-21-110t-65-112L285 0H177l208 270 115 119q-20-71-76-115t-137-44q-71 0-124 29t-84 82-31 122q0 71 32 126t89 86 130 32m153-244q0 49-18 84t-52 54-83 20q-49 0-82-19t-51-55-17-84q0-48 17-82t50-53 83-18q48 0 82 18t53 52 18 83" horiz-adv-x="607" unicode="9"/><glyph d="M128-6q-27 0-46 19T63 59q0 28 19 47t46 19 46-19 19-47q0-27-19-46T128-6m0 425q-27 0-46 19t-19 46q0 28 19 47t46 19 46-19 19-47q0-27-19-46t-46-19" horiz-adv-x="256" unicode=":"/><glyph d="M165 419q-27 0-46 19t-19 46q0 28 19 47t46 19 46-19 19-47q0-27-19-46t-46-19m-53-289h109L105-142H40z" horiz-adv-x="293" unicode=";"/><glyph d="M422 121H297L59 350l238 229h125L184 350z" horiz-adv-x="502" unicode="&lt;"/><glyph d="M72 283h524v-84H72zm0 219h524v-84H72z" horiz-adv-x="667" unicode="="/><glyph d="M317 350 79 579h126l237-229-237-229H79z" horiz-adv-x="501" unicode="&gt;"/><glyph d="M272 707q66 0 116-25t78-71 29-111q0-72-31-117t-85-66-123-22l-3-90h-86l-5 158h30q43 0 79 5t64 20 43 41 16 71q0 38-14 65t-41 41-66 15q-58 0-92-30t-35-87H53q-1 61 26 106t77 71 116 26M214-6q-28 0-46 19t-19 46q0 28 18 47t47 19q27 0 45-19t19-47q0-27-18-46T214-6" horiz-adv-x="547" unicode="?"/><glyph d="m586 152 21-33q-27-56-81-91T408-7q-78 0-120 47t-43 126q0 56 17 107t51 91 78 63 100 23q61 0 96-29t46-87l-27-14 21 121h87l-51-288q-6-41 2-67t47-26q31 0 55 23t39 61 23 79 8 80q0 87-34 147t-101 91-161 32q-90 0-166-33t-132-92-86-137-31-171q-1-87 34-147t103-92 161-31q41 0 84 8t82 26l13-66q-46-20-96-29t-103-9q-109 0-190 40T89-44 44 132q0 107 37 200t105 162 162 109 205 40q114 0 196-42t125-118 44-175q0-57-14-113T861 94t-70-73-94-28q-62 0-89 35t-23 91zm-95 222q-48 0-82-28t-53-73-19-93 25-79 76-31q43 0 79 25t57 65 23 91q2 34-9 62t-35 44-62 17" horiz-adv-x="989" unicode="@"/><glyph d="M365 616h-35L110 0H8l252 700h173L685 0H583zM137 262h408v-84H137z" horiz-adv-x="692" unicode="A"/><glyph d="M497 506q0 51-33 80t-97 30H179V397h189q61 0 95 29t34 80M79 0v700h297q74 0 123-25t73-66 25-91q0-47-17-79t-46-51-65-27v-7q43-6 75-25t51-55 19-87q0-52-27-95t-77-67T387 0zm100 84h199q64 0 100 29t37 85q0 56-38 85t-102 30H179z" horiz-adv-x="666" unicode="B"/><glyph d="M40 350q0 79 27 144t75 113 111 74 138 26q105 0 187-49t126-141l-80-29q-24 47-61 76t-81 43-89 14q-71 0-128-33t-90-94-33-144q0-82 32-143t90-94 129-34q46 0 91 15t84 48 64 88l80-28Q667 96 583 45T391-7q-74 0-137 26T142 93 67 206 40 350" horiz-adv-x="764" unicode="C"/><glyph d="M319 700q114 0 196-43t128-122 46-188q0-108-45-185T516 42 319 0H79v700zm0-616q132 0 200 69t69 194q0 126-68 197t-201 72H179V84z" horiz-adv-x="729" unicode="D"/><glyph d="M547 616H179V397h276v-84H179V84h368V0H79v700h468z" horiz-adv-x="606" unicode="E"/><glyph d="M79 700h468v-84H179V397h276v-84H179V0H79z" horiz-adv-x="586" unicode="F"/><glyph d="M618 486q-38 71-96 103t-128 32-128-34-91-94-34-143q0-81 33-142t90-95 129-34q51 0 96 18t78 50 53 76v76H400v82h321V218q-24-64-71-115T537 23 393-7q-74 0-138 26T142 92 67 205 40 350q0 78 27 143t75 114 112 74 139 26q67 0 128-22t109-64 75-103z" horiz-adv-x="768" unicode="G"/><glyph d="M79 700h100V397h352v303h99V0h-99v313H179V0H79z" horiz-adv-x="710" unicode="H"/><glyph d="M79 700h100V0H79z" horiz-adv-x="258" unicode="I"/><glyph d="M341 700h100V193q0-60-26-105t-71-70T240-7q-73 0-121 35T53 128l85 29q7-23 20-41t33-28 49-11q34 0 56 16t33 41 12 55z" horiz-adv-x="516" unicode="J"/><glyph d="M79 700h100V397h36l274 303h126L304 355 619 0H488L214 313h-35V0H79z" horiz-adv-x="631" unicode="K"/><glyph d="M179 700V84h320V0H79v700z" horiz-adv-x="525" unicode="L"/><glyph d="M179 0H79v700h110l249-567 248 567h109V0h-99v506L474 0h-73L179 506z" horiz-adv-x="874" unicode="M"/><glyph d="M630 700V0H528L179 542V0H79v700h102l349-540v540z" horiz-adv-x="709" unicode="N"/><glyph d="M393-7q-74 0-138 26T142 92 67 205 40 350q0 79 27 144t75 113 112 74 139 26q73 0 137-26t112-74 75-113 27-144-27-144-75-113-112-74T393-7m0 86q71 0 127 33t90 94 33 144q0 84-33 144t-89 94-128 33q-72 0-129-33t-89-93-33-145q0-83 32-144t90-94 129-33" horiz-adv-x="783" unicode="O"/><glyph d="M340 367q49 0 80 15t47 44 15 65q0 59-34 92t-108 33H179V367zm242 124q0-38-13-75t-42-68-75-47-112-18H179V0H79v700h261q82 0 135-28t80-76 27-105" horiz-adv-x="622" unicode="P"/><glyph d="M345 184h100v-284H345zM393-7q-74 0-138 26T142 92 67 205 40 350q0 79 27 144t75 113 112 74 139 26q73 0 137-26t112-74 75-113 27-144-27-144-75-113-112-74T393-7m0 86q71 0 127 33t90 94 33 144q0 84-33 144t-89 94-128 33q-72 0-129-33t-89-93-33-145q0-83 32-144t90-94 129-33" horiz-adv-x="783" unicode="Q"/><glyph d="M481 491q0 57-34 91t-108 34H179V367h161q49 0 80 15t46 44 15 65M339 700q83 0 136-28t80-76 27-105q0-38-13-75t-42-67-75-48-112-18H179V0H79v700zm64-383L596 0H483L297 317z" horiz-adv-x="636" unicode="R"/><glyph d="M139 185q6-28 24-52t51-39 79-15q70 0 103 32t34 77q0 36-20 59t-56 40-82 30q-40 12-78 25t-70 34-49 53-18 82q0 61 29 105t81 67 122 24q58 0 104-16t77-47 47-74l-91-33q-6 22-25 41t-48 32-65 12q-37 1-66-11t-47-36-18-55q0-35 20-55t53-33 74-25q42-13 82-28t72-38 53-57 20-87q0-56-26-102t-78-74T295-7q-65 0-117 20T93 68t-45 83z" horiz-adv-x="578" unicode="S"/><glyph d="M40 700h537v-84H359V0H259v616H40z" horiz-adv-x="616" unicode="T"/><glyph d="M75 700h100V255q0-60 23-99t63-58 90-19q51 0 90 18t63 58 23 100v445h100V257q0-68-22-117t-62-82-89-49T350-7q-72 0-135 28t-101 87-39 149z" horiz-adv-x="702" unicode="U"/><glyph d="M561 700h105L403 0H288L26 700h106l214-597z" horiz-adv-x="693" unicode="V"/><glyph d="M337 0H226L26 700h107l149-584 160 584h111l159-582 150 582h105L768 0H656L497 551z" horiz-adv-x="994" unicode="W"/><glyph d="M53 700h110l200-270 199 270h111L419 350 673 0H562L363 270 163 0H53l254 350z" horiz-adv-x="726" unicode="X"/><glyph d="M532 700h111L384 260V0h-99v259L26 700h111l197-349z" horiz-adv-x="670" unicode="Y"/><glyph d="M543 624 170 84h375V0H53v76l372 540H55v84h488z" horiz-adv-x="597" unicode="Z"/><glyph d="M75 800h190v-82h-96V-17h96v-83H75z" horiz-adv-x="313" unicode="["/><glyph d="M339-100h-98L0 800h98z" horiz-adv-x="339" unicode="\"/><glyph d="M238 800v-900H48v83h96v735H48v82z" horiz-adv-x="313" unicode="]"/><glyph d="M335 579 154 250H52l235 450h93l237-450H513z" horiz-adv-x="669" unicode="^"/><glyph d="M-2-38h542v-93H-2z" horiz-adv-x="538" unicode="_"/><glyph d="m12 787 215-123v-74L12 703z" horiz-adv-x="240" unicode="`"/><glyph d="m377 0-8 73q-23-38-59-58T215-6q-54 0-92 17T65 60t-21 74q0 63 47 104t136 52l142 16v39q0 32-26 54t-75 23q-46 0-78-21t-43-64l-84 30q19 66 74 103t135 37q94 0 143-47t49-124V0zm-8 229-137-17q-44-6-66-24t-22-49q0-28 21-46t61-19q48 0 80 18t47 50 16 76z" horiz-adv-x="527" unicode="a"/><glyph d="M156 415q23 39 68 65t111 27q68 0 119-32t79-90 29-135q0-77-29-135t-80-90T335-7q-61 0-103 24t-67 58l-7-75H72v720h94V412zm304-165q0 77-40 124t-106 47q-42 0-75-20t-53-59-20-92q0-54 20-92t53-59 75-20q65 0 105 47t41 124" horiz-adv-x="600" unicode="b"/><glyph d="M286-7q-72 0-127 32t-85 90-31 133q0 77 31 135t86 91 128 33q77 0 135-36t85-97l-85-30q-15 35-50 56t-81 21-79-21-51-60-18-91q0-78 40-124t108-46q45 0 80 20t54 55l84-30q-28-60-88-95T286-7" horiz-adv-x="553" unicode="c"/><glyph d="m449 415-11-3v308h95V0h-86l-7 75q-25-34-67-58T269-7q-68 0-118 32t-79 90-29 135 28 135 79 90 119 32q65 0 110-26t70-66M144 250q0-77 40-124t107-47q41 0 74 20t53 58 20 93q0 54-20 92t-53 58-74 21q-66 0-106-47t-41-124" horiz-adv-x="604" unicode="d"/><glyph d="M289-7q-72 0-127 33t-87 93-32 135q0 73 31 130t85 90 124 33 124-30 84-85 29-126q0-12-1-24t-3-28H146q3-40 22-70t50-48 70-17q50 0 87 19t52 53l82-29q-30-61-87-95T289-7m128 302q0 36-18 65t-48 45-69 17q-34 0-62-16t-48-45-25-66z" horiz-adv-x="563" unicode="e"/><glyph d="M96 556q0 57 19 96t61 56 108 12v-83q-52 5-72-16t-21-65v-56h99v-84h-99V0H96v416H32v84h64z" horiz-adv-x="323" unicode="f"/><glyph d="M447 500h86V82q0-88-42-151t-120-97-190-34l-15 83q134 3 203 53t69 146v5l11-1q-24-38-68-65T270-7q-67 0-118 32t-80 90-29 135 28 135 80 90 119 32q41 0 73-11t57-29 40-42zM144 250q0-77 40-124t109-47q40 0 73 20t52 59 20 92q0 54-19 92t-53 58-73 21q-68 0-108-47t-41-124" horiz-adv-x="604" unicode="g"/><glyph d="M72 720h94V445q24 29 62 45t84 17q56 0 98-24t67-73 24-121V0h-99v277q0 70-29 107t-85 37q-58 0-90-38t-32-111V0H72z" horiz-adv-x="565" unicode="h"/><glyph d="M87 500h95V0H87zm48 88q-27 0-45 18t-18 44q0 27 18 45t45 19q26 0 44-18t19-46q0-26-18-44t-45-18" horiz-adv-x="268" unicode="i"/><glyph d="M84 25q0-62-31-99t-89-43l15-83q52 2 97 28t74 76 29 120v476H84zm47 563q-26 0-44 18t-19 44q0 27 18 45t45 19q27 0 45-18t18-46q0-26-18-44t-45-18" horiz-adv-x="262" unicode="j"/><glyph d="M72 720h95V291h41l187 209h128L291 250 524 0H395L208 210h-41V0H72z" horiz-adv-x="538" unicode="k"/><glyph d="M72 720h94V0H72z" horiz-adv-x="237" unicode="l"/><glyph d="M72 500h86l6-58q24 30 60 47t81 18q51 0 92-22t66-67q25 44 71 66t101 23q57 0 100-24t68-73 24-120V0h-95v278q0 70-30 106t-86 37q-57 0-90-38t-33-111V0h-95v278q0 70-28 106t-84 37q-57 0-88-38t-32-111V0H72z" horiz-adv-x="890" unicode="m"/><glyph d="M72 500h86l6-58q24 31 61 48t82 17q58 0 100-24t66-73 24-120V0h-94v278q0 70-29 106t-86 37q-58 0-90-37t-32-111V0H72z" horiz-adv-x="561" unicode="n"/><glyph d="M291-7q-71 0-127 31t-89 89-32 136q0 79 33 137t90 89 128 32q71 0 128-31t91-89 33-136q0-79-33-137t-92-89T291-7m-1 86q40 0 75 18t57 57 23 97q0 58-21 95t-57 56-75 19-72-18-55-57-21-97q0-58 20-95t54-56 72-19" horiz-adv-x="589" unicode="o"/><glyph d="m156 85 10 3v-288H72v700h86l7-75q24 34 66 58t104 24q66 0 117-32t80-89 30-136q0-77-28-135t-80-90T335-7q-65 0-110 26t-69 66m304 165q0 77-40 124t-106 47q-42 0-75-20t-53-58-20-93q0-54 20-92t53-58 75-21q65 0 105 47t41 124" horiz-adv-x="604" unicode="p"/><glyph d="M449 85q-24-39-69-65T269-7q-68 0-118 32t-79 90-29 135q0 78 28 135t79 90 119 32q61 0 103-24t68-58l7 75h86v-700h-95V88zM144 250q0-77 40-124t107-47q41 0 74 20t53 59 20 92q0 55-20 93t-53 58-74 20q-67 0-107-47t-40-124" horiz-adv-x="604" unicode="q"/><glyph d="M72 500h86l6-67q21 26 48 43t60 25 68-1v-89q-33 8-64 2t-55-25-40-52-15-77V0H72z" horiz-adv-x="363" unicode="r"/><glyph d="M128 158q7-30 24-47t40-24 50-8q45 0 70 18t25 45q0 23-15 36t-41 22-55 15q-26 7-56 16t-57 24-44 40-17 63q0 45 24 78t68 52 99 19q64 0 112-27t71-83l-85-28q-7 19-23 31t-36 16-41 5q-38 0-63-15t-25-44q0-16 8-26t22-17 35-12 43-11q30-9 61-19t57-27 42-42 17-64q0-44-24-78t-69-53T239-7q-74 0-126 33T43 128z" horiz-adv-x="480" unicode="s"/><glyph d="M104 500v140h95V500h125v-84H199V170q0-46 18-65t47-21 60 1V4q-41-9-80-6t-71 23-50 55-19 94v246H32v84z" horiz-adv-x="357" unicode="t"/><glyph d="M490 0h-86l-7 59q-24-32-60-49T255-7q-58 0-101 24T88 89 64 208v292h95V220q0-69 28-105t87-36q57 0 89 37t33 110v274h94z" horiz-adv-x="561" unicode="u"/><glyph d="m126 500 144-399 145 399h100L320 0H218L24 500z" horiz-adv-x="538" unicode="v"/><glyph d="M271 0h-90L24 500h96l105-388 112 388h90l108-386 104 386h93L577 0h-91L379 363z" horiz-adv-x="756" unicode="w"/><glyph d="M29 500h108l117-175 117 175h108L305 250 479 0H371L254 177 137 0H29l173 250z" horiz-adv-x="508" unicode="x"/><glyph d="M413 500h98L221-200h-93l88 210L18 500h104l145-379z" horiz-adv-x="529" unicode="y"/><glyph d="M430 423 165 84h266V0H47v77l266 339H48v84h382z" horiz-adv-x="478" unicode="z"/><glyph d="M44 381q35 4 57 15t32 28 11 37q0 32-4 70t-9 77-5 73q0 59 41 89t107 30h62v-69h-42q-35 0-53-13t-19-43q0-29 4-67t9-76 5-74q0-40-25-68t-81-39v-1q56-10 81-39t25-69q0-34-4-73t-9-76-5-67 18-43 54-13h42v-70h-62q-65 0-106 31t-42 89q0 34 4 73t9 77 5 69q0 21-10 37t-33 28-57 16z" horiz-adv-x="380" unicode="{"/><glyph d="M195 800v-900H95v900z" horiz-adv-x="290" unicode="|"/><glyph d="M336 381v-61q-36-5-58-16t-32-27-11-38q0-30 5-68t9-78 5-73q0-58-41-89t-108-31H44v70h41q36 0 54 13t18 43-4 67-9 76-5 73q0 40 25 69t82 39v1q-57 10-82 38t-25 69q0 35 4 73t9 77 5 67q0 30-18 43t-54 13H44v69h61q66 0 107-30t42-89q0-33-4-72t-10-78-5-70q0-20 10-36t33-28 58-16" horiz-adv-x="379" unicode="}"/><glyph d="M56 274q14 80 52 117t96 37q28 0 50-10t41-23 38-23 40-10q25 0 44 16t23 48h74q-14-80-53-116t-95-37q-30 0-51 9t-41 23-37 24-41 10q-25 0-44-17t-24-48z" horiz-adv-x="569" unicode="~"/><glyph horiz-adv-x="280"/><glyph d="M136 564q27 0 46-18t19-47q0-28-19-46t-46-19q-27 0-46 18t-19 47q0 28 19 46t46 19M82-141l11 498h83l11-498z" horiz-adv-x="272" unicode="¡"/><glyph d="M266 600h58V458h-58zm0-540h58v-160h-58zm20-67q-72 0-127 32t-85 90-31 133q0 77 31 135t86 91 128 33q77 0 135-36t85-97l-85-30q-15 35-50 56t-81 21-79-21-51-60-18-91q0-78 40-124t108-46q45 0 80 20t54 55l84-30q-28-60-88-95T286-7" horiz-adv-x="553" unicode="¢"/><glyph d="M341 707q73 0 120-29t71-76 26-104h-91q-1 54-31 89t-95 36q-35 0-64-13t-46-43-17-78q0-36 8-66t19-58 19-55 9-59q0-49-17-90t-52-79h362V0H110L92 55q25 28 44 55t29 61 10 80q0 33-8 58t-19 51-19 58-9 76q0 66 28 113t78 74 115 26m93-331v-70H55v70z" horiz-adv-x="610" unicode="£"/><glyph d="M272 554q51 0 92-21t65-61 24-95q0-54-24-93t-65-62-93-22q-52 0-92 22t-63 61-23 94 23 94 64 61 92 22m0-62q-39 0-67-29t-29-86q0-56 28-85t67-29q25 0 47 13t37 38 15 63-14 63-36 39-48 13m-123-33-85 84 45 45 87-86zm201 42 86 87 45-45-87-88zm49-206 82-82-45-45-83 83zm-201-38-89-89-45 45 85 86z" horiz-adv-x="545" unicode="¤"/><glyph d="M394 387h190v-72H380zM85 223h499v-72H85zm0 164h205l13-72H85zm447 313h111L384 260V0h-99v259L26 700h111l197-349z" horiz-adv-x="670" unicode="¥"/><glyph d="M194 279v-379H95v379zM95 422v378h99V422z" horiz-adv-x="289" unicode="¦"/><glyph d="M71 582q0 51 41 88t115 37q68 0 112-33t46-96h-75q-2 20-11 37t-27 27-45 11q-37 0-59-16t-23-49q0-19 10-33t37-27 73-31q46-16 80-35t51-46 18-66q0-33-16-61t-49-49-81-29l7 30q31-12 57-28t42-38 16-56q0-52-41-89T235-7q-68 0-112 33t-47 96h75q2-21 11-38t27-27 46-10q37 0 58 16t22 49q0 19-10 33t-36 27-73 31q-47 16-80 35t-50 47-18 65q0 34 16 63t48 49 81 25l-7-28q-31 13-57 29t-42 38-16 56m266-232q0 37-29 62t-79 25-77-26-28-61q0-36 28-61t80-26q50 0 77 26t28 61" horiz-adv-x="461" unicode="§"/><glyph d="M67 621q-23 0-39 16t-16 39 16 39 39 17q23 0 39-16t17-40q0-23-16-39t-40-16m166 0q-23 0-39 16t-16 39 16 39 39 17q23 0 39-16t17-40q0-23-16-39t-40-16" horiz-adv-x="301" unicode="¨"/><glyph d="M402 707q103 0 180-46t122-127 44-185q0-105-44-185T583 39 401-7Q298-7 220 38T98 164 54 349t44 185 122 127 182 46m0-42q-93 0-161-39T136 515 99 349t37-164T241 75t161-40q92 0 160 39t104 110 37 165q0 94-36 165T562 625t-160 40m-6-575q-72 0-126 32t-86 89-31 135q0 76 31 134t86 91 128 33q77 0 136-36t84-97l-85-30q-15 35-50 56t-81 21q-45 0-78-21t-51-60-19-91q0-78 40-124t108-46q45 0 81 20t53 55l84-30q-28-60-87-95T396 90" horiz-adv-x="802" unicode="©"/><glyph d="M33 530q0 53 22 93t60 63 84 23q49 0 81-18t49-44v56h78V353h-78v55q-15-25-47-43t-80-18-86 23-60 65-23 95m80-1q0-57 32-89t76-32 76 31 32 89q0 57-32 88t-76 32q-43 0-75-31t-33-88" horiz-adv-x="456" unicode="ª"/><glyph d="M231 75h-97L40 250l94 175h97l-98-175zm185 0h-98l-94 175 94 175h98l-98-175z" horiz-adv-x="463" unicode="«"/><glyph d="M36 433h565V215h-99v140H36z" horiz-adv-x="649" unicode="¬"/><glyph d="M52 320h403v-84H52z" horiz-adv-x="507" unicode="­"/><glyph d="M54 501q0 60 26 106t72 73 107 27q59 0 105-27t73-73 26-106q0-60-26-106t-72-74-106-27q-60 0-106 27t-73 73-26 107m45 0q0-48 19-85t56-58 85-21 84 21 56 58 20 85q0 49-19 85t-56 58-85 21q-49 0-85-21t-55-57-20-86m77 110V396h56v77h42q34 0 54 19t21 50q0 31-20 50t-55 19zm116-215h68l-65 99-62-1zm-21 164q9 0 16-4t7-16q0-10-7-15t-16-5h-39v40z" horiz-adv-x="517" unicode="®"/><glyph d="M12 713h357v-74H12z" horiz-adv-x="381" unicode="¯"/><glyph d="M23 525q0 55 24 94t64 60 92 21 93-21 63-60 23-94q0-54-23-93t-64-60-94-22q-79 0-128 47T23 525m279 0q0 59-29 88t-71 29q-40 0-70-29t-30-88 29-87 70-29q40 0 70 28t31 88" horiz-adv-x="407" unicode="°"/><glyph d="M412 601V144h-93v457zM111 436h509v-83H111zm0-253h509V99H111z" horiz-adv-x="731" unicode="±"/><glyph d="M36 600q2 47 35 77t96 30q40 0 69-15t45-41 15-55q0-26-9-47t-28-40-51-43l-103-79-3 27h197v-64H37v57l110 87q29 23 48 45t19 53q0 26-14 40t-35 15q-23 0-35-12t-15-35z" horiz-adv-x="340" unicode="²"/><glyph d="M39 607q3 29 20 51t48 36 71 13q37 0 68-14t49-37 18-53q0-31-17-49t-45-27v-2q26-9 45-30t20-54q0-41-39-69t-103-29q-60 0-98 28t-41 80h78q4-26 20-38t40-12q26 0 42 13t16 37q0 23-16 37t-44 14h-40v51h38q26 0 42 11t17 35q0 22-15 35t-41 13q-25 0-39-11t-19-29z" horiz-adv-x="358" unicode="³"/><glyph d="M227 787v-86L12 590v74z" horiz-adv-x="240" unicode="´"/><glyph d="M526 0h-99v71q-26-39-67-59T271-8q-19 0-37 4t-35 14-29 23v-233H72v700h98V225q0-73 35-110t93-38q57 0 93 37t36 111v275h99z" horiz-adv-x="597" unicode="µ"/><glyph d="M539 700V0h-89v622h-73V0h-88v291h-12q-82 0-134 27t-78 74-25 103q0 57 25 103t77 74 135 28z" horiz-adv-x="617" unicode="¶"/><glyph d="M118 273q-27 0-46 19t-19 46q0 28 19 47t46 19 46-19 19-47q0-27-19-46t-46-19" horiz-adv-x="235" unicode="·"/><glyph d="M127-54q38 0 67-11t46-34 17-57q0-32-16-55t-45-37-63-13H12v64h101q31 0 46 9t15 32-15 32-46 9H61V7h66z" horiz-adv-x="269" unicode="¸"/><glyph d="M80 642H26v58h132V350H80z" horiz-adv-x="211" unicode="¹"/><glyph d="M32 528q0 56 25 96t67 63 96 22q53 0 95-22t67-62 25-97q0-54-25-95t-68-63-96-23q-54 0-96 22t-66 64-24 95m293-1q0 60-32 90t-75 31q-41 0-73-30t-32-91q0-58 31-88t74-30q42 0 74 30t33 88" horiz-adv-x="439" unicode="º"/><glyph d="m232 75 97 175-97 175h97l95-175-95-175zM48 75l97 175-97 175h96l95-175-95-175z" horiz-adv-x="463" unicode="»"/><glyph d="M444 700h94L158 0H63zm175-581V68h-46V0h-79v68H310v45l156 240h107V119zm-123 0v170L389 119zM80 641H26v58h132V349H80z" horiz-adv-x="651" unicode="¼"/><glyph d="M441 700h95L156 0H62zM80 641H26v58h132V349H80zm293-391q2 47 35 77t97 30q40 0 69-15t44-41 16-55q0-26-9-47t-29-40-50-43L442 37l-2 27h196V0H375v57l109 87q29 23 48 45t19 53q0 26-14 40t-35 15q-22 0-34-12t-16-35z" horiz-adv-x="689" unicode="½"/><glyph d="M525 700h94L239 0h-93zm174-581V68h-46V0h-79v68H390v45l156 240h107V119zm-123 0v170L469 119zM30 607q3 29 21 51t48 36 70 13q38 0 68-14t49-37 18-53q0-31-17-49t-45-27v-2q27-9 46-30t19-54q0-41-39-69t-103-29q-60 0-98 28t-41 80h78q4-26 20-38t41-12q26 0 42 13t16 37q0 23-17 37t-44 14h-40v51h38q27 0 43 11t17 35q0 22-15 35t-42 13q-25 0-39-11t-19-29z" horiz-adv-x="725" unicode="¾"/><glyph d="M333 558q27 0 46-19t19-47q0-27-19-46t-46-19-45 19-19 46q0 28 18 47t46 19m-58-714q-65 0-115 25T81-59 53 51q0 73 31 118t85 66 123 21l3 90h86l5-158h-30q-43 0-79-5t-64-19-43-42-16-71q0-38 14-64t41-42 66-15q58 0 92 31t35 87h93q0-60-27-106t-76-72-117-26" horiz-adv-x="547" unicode="¿"/><glyph d="m231 949 215-124v-74L231 864zm134-333h-35L110 0H8l252 700h173L685 0H583zM137 262h408v-84H137z" horiz-adv-x="692" unicode="À"/><glyph d="M446 949v-87L231 751v74zm-81-333h-35L110 0H8l252 700h173L685 0H583zM137 262h408v-84H137z" horiz-adv-x="692" unicode="Á"/><glyph d="m487 755-140 86-140-86v79l140 84 140-84zM365 616h-35L110 0H8l252 700h173L685 0H583zM137 262h408v-84H137z" horiz-adv-x="692" unicode="Â"/><glyph d="M191 760q7 54 35 81t70 27q26 0 44-11t34-22 36-12q16 0 28 10t16 32h57q-8-54-36-81t-69-27q-27 0-45 11t-34 23-36 12q-18 0-29-10t-14-33zm174-144h-35L110 0H8l252 700h173L685 0H583zM137 262h408v-84H137z" horiz-adv-x="692" unicode="Ã"/><glyph d="M264 782q-24 0-40 16t-16 39 16 39 40 17q22 0 38-16t17-40q0-23-16-39t-39-16m166 0q-24 0-39 16t-16 39q0 23 15 39t40 17q22 0 38-16t17-40q0-23-16-39t-39-16m-65-166h-35L110 0H8l252 700h173L685 0H583zM137 262h408v-84H137z" horiz-adv-x="692" unicode="Ä"/><glyph d="M456 854q0-49-32-78t-77-29-77 29-32 78q0 50 32 79t77 29 77-29 32-79m-57 1q0 25-15 39t-37 15q-22 0-37-14t-15-40q0-25 15-39t37-15q22 0 37 14t15 40m-34-239h-35L110 0H8l252 700h173L685 0H583zM137 262h408v-84H137z" horiz-adv-x="692" unicode="Å"/><glyph d="M563 616V397h187v-85H563V84h277V0H463v177H214L116 0H8l390 700h442v-84zM260 262h203v365z" horiz-adv-x="899" unicode="Æ"/><glyph d="M426-54q37 0 66-11t46-34 17-57q0-33-16-56t-44-37-64-13H310v64h102q30 0 45 9t16 33q0 23-15 32t-46 9h-53V7h67zM40 350q0 79 27 144t75 113 111 74 138 26q105 0 187-49t126-141l-80-29q-24 47-61 76t-81 43-89 14q-71 0-128-33t-90-94-33-144q0-82 32-143t90-94 129-34q46 0 91 15t84 48 64 88l80-28Q667 96 583 45T391-7q-74 0-137 26T142 93 67 206 40 350" horiz-adv-x="765" unicode="Ç"/><glyph d="m197 949 215-124v-74L197 864zm350-333H179V397h276v-84H179V84h368V0H79v700h468z" horiz-adv-x="606" unicode="È"/><glyph d="M412 949v-87L197 751v74zm135-333H179V397h276v-84H179V84h368V0H79v700h468z" horiz-adv-x="606" unicode="É"/><glyph d="m453 755-140 86-140-86v79l140 84 140-84zm94-139H179V397h276v-84H179V84h368V0H79v700h468z" horiz-adv-x="606" unicode="Ê"/><glyph d="M230 782q-24 0-40 16t-16 39 16 39 40 17q23 0 39-16t16-40q0-23-16-39t-39-16m166 0q-23 0-39 16t-16 39 16 39 39 17q23 0 39-16t16-40q0-23-16-39t-39-16m151-166H179V397h276v-84H179V84h368V0H79v700h468z" horiz-adv-x="606" unicode="Ë"/><glyph d="m12 949 216-124v-74L12 864zm67-249h100V0H79z" horiz-adv-x="258" unicode="Ì"/><glyph d="M228 949v-87L12 751v74zM79 700h100V0H79z" horiz-adv-x="258" unicode="Í"/><glyph d="m269 755-140 86-140-86v79l140 84 140-84zM79 700h100V0H79z" horiz-adv-x="258" unicode="Î"/><glyph d="M46 782q-24 0-40 16t-16 39 16 39 40 17q22 0 38-16t17-40q0-23-16-39t-39-16m166 0q-24 0-40 16t-16 39 16 39 40 17q22 0 38-16t17-40q0-23-16-39t-39-16M79 700h100V0H79z" horiz-adv-x="258" unicode="Ï"/><glyph d="M59 394h83v306h221q114 0 196-43t128-122 45-188q0-107-45-185T560 42 363 0H142v302H59zM242 76h121q131-1 199 73t68 198q0 126-68 199t-199 73H242V394h187v-92H242z" horiz-adv-x="772" unicode="Ð"/><glyph d="M209 760q8 54 36 81t69 27q27 0 45-11t33-22 37-12q17 0 28 10t15 32h57q-7-54-35-81t-70-27q-27 0-45 11t-34 23-36 12q-16 0-28-10t-15-33zm421-60V0H528L179 542V0H79v700h102l349-540v540z" horiz-adv-x="709" unicode="Ñ"/><glyph d="m278 949 215-124v-74L278 864zM393-7q-74 0-138 26T142 92 67 205 40 350q0 79 27 144t75 113 112 74 139 26q73 0 137-26t112-74 75-113 27-144-27-144-75-113-112-74T393-7m0 86q71 0 127 33t90 94 33 144q0 84-33 144t-89 94-128 33q-72 0-129-33t-89-93-33-145q0-83 32-144t90-94 129-33" horiz-adv-x="783" unicode="Ò"/><glyph d="M493 949v-87L278 751v74zM393-7q-74 0-138 26T142 92 67 205 40 350q0 79 27 144t75 113 112 74 139 26q73 0 137-26t112-74 75-113 27-144-27-144-75-113-112-74T393-7m0 86q71 0 127 33t90 94 33 144q0 84-33 144t-89 94-128 33q-72 0-129-33t-89-93-33-145q0-83 32-144t90-94 129-33" horiz-adv-x="783" unicode="Ó"/><glyph d="m534 755-140 86-140-86v79l140 84 140-84zM393-7q-74 0-138 26T142 92 67 205 40 350q0 78 27 143t75 114 112 74 139 26q73 0 137-26t112-74 75-113 27-144-27-144-75-113-112-74T393-7m0 86q71 0 127 33t90 94 33 144q0 84-33 144t-89 94-128 33q-72 0-129-33t-89-93-33-145q0-83 32-144t90-94 129-33" horiz-adv-x="783" unicode="Ô"/><glyph d="M238 760q7 54 35 81t70 27q26 0 44-11t34-22 37-12q15 0 27 10t16 32h57q-8-54-37-81t-68-27q-28 0-46 11t-33 23-36 12q-18 0-29-10t-14-33zM393-7q-74 0-138 26T142 92 67 205 40 350q0 79 27 144t75 113 112 74 139 26q73 0 137-26t112-74 75-113 27-144-27-144-75-113-112-74T393-7m0 86q71 0 127 33t90 94 33 144q0 84-33 144t-89 94-128 33q-72 0-129-33t-89-93-33-145q0-83 32-144t90-94 129-33" horiz-adv-x="783" unicode="Õ"/><glyph d="M311 782q-24 0-40 16t-16 39 16 39 40 17q22 0 38-16t17-40q0-23-16-39t-39-16m166 0q-24 0-39 16t-16 39q0 23 15 39t40 17q22 0 38-16t17-40q0-23-16-39t-39-16M393-7q-74 0-138 26T142 92 67 205 40 350q0 79 27 144t75 113 112 74 139 26q73 0 137-26t112-74 75-113 27-144-27-144-75-113-112-74T393-7m0 86q71 0 127 33t90 94 33 144q0 84-33 144t-89 94-128 33q-72 0-129-33t-89-93-33-145q0-83 32-144t90-94 129-33" horiz-adv-x="783" unicode="Ö"/><glyph d="m126 570 375-375-63-64L63 507zM59 196l375 374 65-65-374-374z" horiz-adv-x="561" unicode="×"/><glyph d="m571 608 79-42-421-460-79 42zM393-7q-74 0-138 26T142 92 67 205 40 350q0 79 27 144t75 113 112 74 139 26q73 0 137-26t112-74 75-113 27-144-27-144-75-113-112-74T393-7m0 86q71 0 127 33t90 94 33 144q0 84-33 144t-89 94-128 33q-72 0-129-33t-89-93-33-145q0-83 32-144t90-94 129-33" horiz-adv-x="783" unicode="Ø"/><glyph d="m234 949 216-124v-74L234 864zM75 700h100V255q0-60 23-99t63-58 90-19q51 0 90 18t63 58 23 100v445h100V257q0-68-22-117t-62-82-89-49T350-7q-72 0-135 28t-101 87-39 149z" horiz-adv-x="702" unicode="Ù"/><glyph d="M450 949v-87L234 751v74zM75 700h100V255q0-60 23-99t63-58 90-19q51 0 90 18t63 58 23 100v445h100V257q0-68-22-117t-62-82-89-49T350-7q-72 0-135 28t-101 87-39 149z" horiz-adv-x="702" unicode="Ú"/><glyph d="m490 755-140 86-140-86v79l140 84 140-84zM75 700h100V255q0-60 23-99t63-58 90-19q51 0 90 18t63 58 23 100v445h100V257q0-68-22-117t-62-82-89-49T350-7q-72 0-135 28t-101 87-39 149z" horiz-adv-x="702" unicode="Û"/><glyph d="M267 782q-23 0-39 16t-16 39 16 39 39 17q23 0 39-16t17-40q0-23-16-39t-40-16m166 0q-23 0-39 16t-16 39 16 39 39 17q23 0 39-16t17-40q0-23-16-39t-40-16M75 700h100V255q0-60 23-99t63-58 90-19q51 0 90 18t63 58 23 100v445h100V257q0-68-22-117t-62-82-89-49T350-7q-72 0-135 28t-101 87-39 149z" horiz-adv-x="702" unicode="Ü"/><glyph d="M434 949v-87L218 751v74zm98-249h111L384 260V0h-99v259L26 700h111l197-349z" horiz-adv-x="670" unicode="Ý"/><glyph d="M310 224q74 0 107 34t33 92q0 59-33 93t-107 34H178V224zm242 126q0-52-24-98t-77-76-141-30H178V0H79v700h98V555h133q82 0 135-27t80-74 27-104" horiz-adv-x="592" unicode="Þ"/><glyph d="M72 507q0 54 21 99t69 73 124 28q67 0 113-23t69-59 23-77q0-34-13-56t-33-39-37-31-29-27-13-27q0-16 18-29t77-32q68-23 98-67t31-99q0-66-47-107T411-7q-81 0-132 44t-59 125h101q2-41 25-65t65-24q37 0 57 15t20 46q0 30-18 56t-63 41q-74 24-107 52t-34 73q0 37 21 62t48 49q22 19 39 33t17 41q0 38-28 60t-78 23q-43 0-69-16t-38-45-12-67V0H72z" horiz-adv-x="632" unicode="ß"/><glyph d="m164 721 193-110v-65L164 647zM377 0l-8 73q-23-38-59-58T215-6q-54 0-92 17T65 60t-21 74q0 63 47 104t136 52l142 16v39q0 32-26 54t-75 23q-46 0-78-21t-43-64l-84 30q19 66 74 103t135 37q94 0 143-47t49-124V0zm-8 229-137-17q-44-6-66-24t-22-49q0-28 21-46t61-19q48 0 80 18t47 50 16 76z" horiz-adv-x="527" unicode="à"/><glyph d="M357 721v-76l-193-99v65zM377 0l-8 73q-23-38-59-58T215-6q-54 0-92 17T65 60t-21 74q0 63 47 104t136 52l142 16v39q0 32-26 54t-75 23q-46 0-78-21t-43-64l-84 30q19 66 74 103t135 37q94 0 143-47t49-124V0zm-8 229-137-17q-44-6-66-24t-22-49q0-28 21-46t61-19q48 0 80 18t47 50 16 76z" horiz-adv-x="527" unicode="á"/><glyph d="m393 550-125 76-126-76v70l126 74 125-74zM377 0l-8 73q-23-38-59-58T215-6q-54 0-92 17T65 60t-21 74q0 63 47 104t136 52l142 16v39q0 32-26 54t-75 23q-46 0-78-21t-43-64l-84 30q19 66 74 103t135 37q94 0 143-47t49-124V0zm-8 229-137-17q-44-6-66-24t-22-49q0-28 21-46t61-19q48 0 80 18t47 50 16 76z" horiz-adv-x="527" unicode="â"/><glyph d="M129 554q7 48 32 72t61 24q24 0 40-10t30-20 32-10q15 0 26 9t14 28h51q-7-49-32-72t-62-24q-25 0-41 10t-30 20-32 11q-15 0-25-9t-13-29zM377 0l-8 73q-23-38-59-58T215-6q-54 0-92 17T65 60t-21 74q0 63 47 104t136 52l142 16v39q0 32-26 54t-75 23q-46 0-78-21t-43-64l-84 30q19 66 74 103t135 37q94 0 143-47t49-124V0zm-8 229-137-17q-44-6-66-24t-22-49q0-28 21-46t61-19q48 0 80 18t47 50 16 76z" horiz-adv-x="527" unicode="ã"/><glyph d="M194 573q-22 0-36 14t-14 35 14 35 36 15q20 0 34-14t15-36q0-21-14-35t-35-14m148 0q-20 0-34 14t-15 35q0 21 14 35t35 15q20 0 35-14t15-36q0-21-15-35t-35-14M377 0l-8 73q-23-38-59-58T215-6q-54 0-92 17T65 60t-21 74q0 63 47 104t136 52l142 16v39q0 32-26 54t-75 23q-46 0-78-21t-43-64l-84 30q19 66 74 103t135 37q94 0 143-47t49-124V0zm-8 229-137-17q-44-6-66-24t-22-49q0-28 21-46t61-19q48 0 80 18t47 50 16 76z" horiz-adv-x="527" unicode="ä"/><glyph d="M366 637q0-44-28-69t-70-26q-40 0-68 25t-29 70q0 45 28 70t69 26q41 0 69-25t29-71m-51 1q0 23-13 35t-34 13q-19 0-32-12t-14-36q0-22 13-35t33-13 33 13 14 35M377 0l-8 73q-23-38-59-58T215-6q-54 0-92 17T65 60t-21 74q0 63 47 104t136 52l142 16v39q0 32-26 54t-75 23q-46 0-78-21t-43-64l-84 30q19 66 74 103t135 37q94 0 143-47t49-124V0zm-8 229-137-17q-44-6-66-24t-22-49q0-28 21-46t61-19q48 0 80 18t47 50 16 76z" horiz-adv-x="527" unicode="å"/><glyph d="M607-7q-72 0-125 32t-82 91-29 137q0 118 61 186t172 68q72 0 125-30t82-85 29-125q0-12-1-25t-3-28H465q3-44 21-74t49-45 69-16q54 0 89 17t54 55l82-29q-29-58-83-93T607-7m132 302q-1 41-19 69t-48 43-70 15q-34 0-63-15t-47-43-23-69zm-316-96 8-72q-18-50-53-79T299 6 215-7q-50 0-88 16T66 56t-22 78q0 40 16 68t42 46 59 28 66 14l142 19v36q0 30-25 53t-76 24q-45 0-77-21t-44-64l-84 30q19 66 73 103t136 37q93 0 142-47t50-124V234zm-54 30-134-17q-48-5-69-24t-22-49q0-32 24-46t61-15q41 0 73 16t49 48 18 75z" horiz-adv-x="882" unicode="æ"/><glyph d="M312-44q34 0 60-10t41-30 15-51q0-29-14-50t-40-32-57-12H208v57h91q27 0 41 8t14 29-14 29-41 8h-47V11h60zM286-7q-72 0-127 32t-85 90-31 133q0 77 31 135t86 91 128 33q77 0 135-36t85-97l-85-30q-15 35-50 56t-81 21-79-21-51-60-18-91q0-78 40-124t108-46q45 0 80 20t54 55l84-30q-28-60-88-95T286-7" horiz-adv-x="553" unicode="ç"/><glyph d="m181 721 193-110v-65L181 647zM289-7q-72 0-127 33t-87 93-32 135q0 73 31 130t85 90 124 33 124-30 84-85 29-126q0-12-1-24t-3-28H146q3-40 22-70t50-48 70-17q50 0 87 19t52 53l82-29q-30-61-87-95T289-7m128 302q0 36-18 65t-48 45-69 17q-34 0-62-16t-48-45-25-66z" horiz-adv-x="563" unicode="è"/><glyph d="M374 721v-76l-193-99v65zM289-7q-72 0-127 33t-87 93-32 135q0 73 31 130t85 90 124 33 124-30 84-85 29-126q0-12-1-24t-3-28H146q3-40 22-70t50-48 70-17q50 0 87 19t52 53l82-29q-30-61-87-95T289-7m128 302q0 36-18 65t-48 45-69 17q-34 0-62-16t-48-45-25-66z" horiz-adv-x="563" unicode="é"/><glyph d="m411 550-125 76-126-76v70l126 74 125-74zM289-7q-72 0-127 33t-87 93-32 135q0 73 31 130t85 90 124 33 124-30 84-85 29-126q0-12-1-24t-3-28H146q3-40 22-70t50-48 70-17q50 0 87 19t52 53l82-29q-30-61-87-95T289-7m128 302q0 36-18 65t-48 45-69 17q-34 0-62-16t-48-45-25-66z" horiz-adv-x="563" unicode="ê"/><glyph d="M211 573q-21 0-35 14t-14 35 14 35 35 15q21 0 35-14t15-36q0-20-14-34t-36-15m149 0q-21 0-35 14t-14 35 14 35 35 15q20 0 35-14t15-36q0-20-15-34t-35-15M289-7q-72 0-127 33t-87 93-32 135q0 73 31 130t85 90 124 33 124-30 84-85 29-126q0-12-1-24t-3-28H146q3-40 22-70t50-48 70-17q50 0 87 19t52 53l82-29q-30-61-87-95T289-7m128 302q0 36-18 65t-48 45-69 17q-34 0-62-16t-48-45-25-66z" horiz-adv-x="563" unicode="ë"/><glyph d="m17 718 193-110v-65L17 643zm55-218h99V0H72z" horiz-adv-x="242" unicode="ì"/><glyph d="M210 718v-76L17 543v65zM72 500h99V0H72z" horiz-adv-x="242" unicode="í"/><glyph d="m247 547-125 76-126-76v70l126 74 125-74zM72 500h99V0H72z" horiz-adv-x="242" unicode="î"/><glyph d="M47 570q-22 0-35 14t-14 35q0 20 14 35t35 15q20 0 34-15t15-35q0-21-14-35t-35-14m149 0q-22 0-36 14t-14 35q0 20 14 35t36 15q19 0 34-15t15-35q0-21-15-35t-34-14M72 500h99V0H72z" horiz-adv-x="242" unicode="ï"/><glyph d="M512 676v-58l-64-21q52-70 78-150t26-160q0-97-33-163t-92-99T295-8 165 24t-89 91-33 137q0 78 32 135t89 90 125 32q29 0 55-6t48-20 39-33q-12 28-27 58t-38 62l-125-42v58l90 30q-18 22-38 43t-45 41h105q31-26 59-57zM295 76q40 0 75 20t58 59 23 96q0 58-22 96t-57 58-76 20-75-19-55-58-21-96q0-58 20-97t55-59 75-20" horiz-adv-x="595" unicode="ð"/><glyph d="M155 554q7 48 32 72t62 24q24 0 40-10t30-20 33-10q15 0 25 9t14 28h50q-6-49-31-72t-62-24q-24 0-40 10t-31 20-32 11q-15 0-25-9t-14-29zm-83-54h86l6-58q24 31 61 48t82 17q58 0 100-24t66-73 24-120V0h-94v278q0 70-29 106t-86 37q-58 0-90-37t-32-111V0H72z" horiz-adv-x="561" unicode="ñ"/><glyph d="m193 721 193-110v-65L193 647zM291-7q-71 0-127 31t-89 89-32 136q0 79 33 137t90 89 128 32q71 0 128-31t91-89 33-136q0-79-33-137t-92-89T291-7m-1 86q40 0 75 18t57 57 23 97q0 58-21 95t-57 56-75 19-72-18-55-57-21-97q0-58 20-95t54-56 72-19" horiz-adv-x="589" unicode="ò"/><glyph d="M386 721v-76l-193-99v65zM291-7q-71 0-127 31t-89 89-32 136q0 79 33 137t90 89 128 32q71 0 128-31t91-89 33-136q0-79-33-137t-92-89T291-7m-1 86q40 0 75 18t57 57 23 97q0 58-21 95t-57 56-75 19-72-18-55-57-21-97q0-58 20-95t54-56 72-19" horiz-adv-x="589" unicode="ó"/><glyph d="m423 550-125 76-126-76v70l126 74 125-74zM291-7q-71 0-127 31t-89 89-32 136q0 79 33 137t90 89 128 32q71 0 128-31t91-89 33-136q0-79-33-137t-92-89T291-7m-1 86q40 0 75 18t57 57 23 97q0 58-21 95t-57 56-75 19-72-18-55-57-21-97q0-58 20-95t54-56 72-19" horiz-adv-x="589" unicode="ô"/><glyph d="M158 554q7 48 32 72t62 24q24 0 40-10t30-20 32-10q15 0 26 9t14 28h50q-6-49-31-72t-63-24q-24 0-40 10t-31 20-32 11q-15 0-25-9t-14-29zM291-7q-71 0-127 31t-89 89-32 136q0 79 33 137t90 89 128 32q71 0 128-31t91-89 33-136q0-79-33-137t-92-89T291-7m-1 86q40 0 75 18t57 57 23 97q0 58-21 95t-57 56-75 19-72-18-55-57-21-97q0-58 20-95t54-56 72-19" horiz-adv-x="589" unicode="õ"/><glyph d="M223 573q-21 0-35 14t-14 35 14 35 35 15q20 0 35-14t15-36q0-20-15-34t-35-15m149 0q-21 0-35 14t-14 35 14 35 35 15q20 0 34-14t15-36q0-20-14-34t-35-15M291-7q-71 0-127 31t-89 89-32 136q0 79 33 137t90 89 128 32q71 0 128-31t91-89 33-136q0-79-33-137t-92-89T291-7m-1 86q40 0 75 18t57 57 23 97q0 58-21 95t-57 56-75 19-72-18-55-57-21-97q0-58 20-95t54-56 72-19" horiz-adv-x="589" unicode="ö"/><glyph d="M59 392h510v-84H59zM320 70q-27 0-46 19t-19 46q0 28 19 47t46 19 46-19 19-47q0-27-19-46t-46-19m0 430q-27 0-46 19t-19 46 19 46 46 19 46-19 19-46-19-46-46-19" horiz-adv-x="629" unicode="÷"/><glyph d="m424 447 70-49L185 59l-69 50zM291-7q-71 0-127 31t-89 89-32 136q0 79 33 137t90 89 128 32q71 0 128-31t91-89 33-136q0-79-33-137t-92-89T291-7m-1 86q40 0 75 18t57 57 23 97q0 58-21 95t-57 56-75 19-72-18-55-57-21-97q0-58 20-95t54-56 72-19" horiz-adv-x="589" unicode="ø"/><glyph d="m167 721 192-110v-65L167 647zM490 0h-86l-7 59q-24-32-60-49T255-7q-58 0-101 24T88 89 64 208v292h95V220q0-69 28-105t87-36q57 0 89 37t33 110v274h94z" horiz-adv-x="561" unicode="ù"/><glyph d="M359 721v-76l-192-99v65zM490 0h-86l-7 59q-24-32-60-49T255-7q-58 0-101 24T88 89 64 208v292h95V220q0-69 28-105t87-36q57 0 89 37t33 110v274h94z" horiz-adv-x="561" unicode="ú"/><glyph d="m396 550-125 76-126-76v70l126 74 125-74zM490 0h-86l-7 59q-24-32-60-49T255-7q-58 0-101 24T88 89 64 208v292h95V220q0-69 28-105t87-36q57 0 89 37t33 110v274h94z" horiz-adv-x="561" unicode="û"/><glyph d="M196 573q-20 0-34 14t-15 35q0 21 14 35t35 15q21 0 35-14t15-36q0-21-14-35t-36-14m149 0q-21 0-35 14t-14 35 14 35 35 15q20 0 35-14t15-36q0-21-15-35t-35-14M490 0h-86l-7 59q-24-32-60-49T255-7q-58 0-101 24T88 89 64 208v292h95V220q0-69 28-105t87-36q57 0 89 37t33 110v274h94z" horiz-adv-x="561" unicode="ü"/><glyph d="M353 721v-76l-193-99v65zm60-221h98L221-200h-93l88 210L18 500h104l145-379z" horiz-adv-x="529" unicode="ý"/><glyph d="M166-205H72v921h94V416q24 40 68 66t106 27q67 0 120-32t86-89 32-135q0-78-32-136t-85-92T340-8q-40 0-73 12t-59 35-42 50zm311 458q0 54-22 92t-57 57-77 20q-41 0-76-20t-57-58-22-93q0-54 21-93t57-59 77-21q41 0 76 21t58 60 22 94" horiz-adv-x="620" unicode="þ"/><glyph d="M190 573q-21 0-35 14t-15 35q0 21 14 35t36 15q20 0 34-14t15-36q0-20-14-34t-35-15m148 0q-20 0-34 14t-15 35q0 21 14 35t35 15q20 0 35-14t15-36q0-20-15-34t-35-15m75-73h98L221-200h-93l88 210L18 500h104l145-379z" horiz-adv-x="529" unicode="ÿ"/><glyph d="M52 320h529v-84H52z" horiz-adv-x="633" unicode="–"/><glyph d="M52 320h739v-84H52z" horiz-adv-x="843" unicode="—"/><glyph d="m225 700-60-232H56l99 232z" horiz-adv-x="264" unicode="‘"/><glyph d="m40 468 60 232h109l-99-232z" horiz-adv-x="264" unicode="’"/><glyph d="m40-100 60 229h110l-99-229z" horiz-adv-x="265" unicode="‚"/><glyph d="m225 700-59-232H56l99 232zm169 0-60-232H225l99 232z" horiz-adv-x="433" unicode="“"/><glyph d="m209 468 59 232h110l-99-232zm-169 0 60 232h109l-99-232z" horiz-adv-x="433" unicode="”"/><glyph d="m40-100 60 229h110l-99-229zm171 0 60 229h110L281-100z" horiz-adv-x="435" unicode="„"/><glyph d="M220 208q-34 0-62 17t-46 45-17 63q0 36 17 64t45 45 63 17q36 0 64-17t46-45 17-64q0-35-17-63t-45-45-65-17" horiz-adv-x="442" unicode="•"/><glyph d="M231 75h-97L40 250l94 175h97l-98-175z" horiz-adv-x="279" unicode="‹"/><glyph d="m48 75 97 175-97 175h96l95-175-95-175z" horiz-adv-x="279" unicode="›"/></font>
</defs>
</svg>
