<svg xmlns="http://www.w3.org/2000/svg"><defs><font id="AlbertSans" horiz-adv-x="556"><font-face alphabetic="0" ascent="950" descent="-250" font-family="Albert Sans ExtraLight"/><glyph horiz-adv-x="280"/><glyph d="M90 700h43l-5-533H95zM114-1q-13 0-22 9t-9 24q0 14 9 23t22 10q15 0 24-9t9-24q0-14-9-23T114-1" horiz-adv-x="230" unicode="!"/><glyph d="M55 700h45l-8-183H64zm98 0h45l-8-183h-28z" horiz-adv-x="253" unicode="&quot;"/><glyph d="M302 700h37l-45-212h241l45 212h37l-45-212h152v-34H565l-38-187h153v-34H520L472 0h-37l48 233H242L195 0h-38l48 233H47v34h165l38 187H90v34h167zm-53-433h240l39 187H288z" horiz-adv-x="770" unicode="#"/><glyph d="M262 775h29V-75h-29zM89 156q8-29 28-58t60-50 103-20q90 0 134 41t45 103q0 50-24 81t-67 50-93 35q-41 11-78 24t-68 33-47 50-18 75q0 56 26 98t74 65 113 24q60 0 102-18t68-48 37-64l-34-13q-7 24-28 49t-58 43-87 18q-47 0-87-17t-63-51-24-80q0-49 25-77t67-44 94-32q41-12 79-27t67-37 45-54 17-79q0-49-21-90t-69-67T282-7q-68 0-114 20T94 67t-39 75z" horiz-adv-x="552" unicode="$"/><glyph d="M55 573q0 59 37 96t95 38q56 0 94-37t38-97q0-59-38-97t-94-38q-57 0-94 38t-38 97m132 106q-44 0-71-29t-28-77q0-48 27-77t72-30q43 0 70 29t28 78q0 47-27 76t-71 30m352 21h40L161 0h-40zM382 127q0 59 37 97t94 38q56 0 94-38t38-97-38-96-94-38q-56 0-93 37t-38 97m131 107q-44 0-71-30t-28-77q0-47 27-76t72-30q44 0 71 29t27 77q0 47-27 77t-71 30" horiz-adv-x="700" unicode="%"/><glyph d="M435 620q-27 27-65 40t-80 13q-81 0-123-41t-42-106q0-47 24-80t74-50 133-18h209v-35H357q-115 0-180-38t-65-123q0-43 19-78t58-55 101-20q90 0 133 41t44 137v108h37V207q0-79-26-126t-74-67T290-7q-75 0-123 25T97 86t-23 94q0 55 23 92t62 58 90 29v5q-60 7-95 31t-51 60-16 74q0 49 23 89t68 65 111 24q57 0 101-17t75-48zm30 22-30-22zm-28-265q10 0 17 4t11 12 3 18v89h36V377h27v-34h-27V142q0-50 32-80t81-31q9 0 18 1t18 2V3q-10-3-21-4t-23-2q-37 0-69 17t-53 50-21 78v201h-80v34z" horiz-adv-x="716" unicode="&amp;"/><glyph d="M60 700h51l-11-183H72z" horiz-adv-x="171" unicode="'"/><glyph d="M266-100Q208-44 163 22T91 168 64 350q0 100 26 180t73 147 107 123h41v-5q-69-65-115-134t-70-146-24-165 23-164 69-146T307-95v-5z" horiz-adv-x="366" unicode="("/><glyph d="M101-100H60v5q67 66 112 135t69 145 24 165q0 88-23 164t-70 146T55 795v5h42q60-56 106-122t72-147 27-181q0-101-26-181T205 22 101-100" horiz-adv-x="367" unicode=")"/><glyph d="m245 565 138 84 17-30-145-73 147-73-17-31-140 84 5-166h-33l5 166-140-84-17 31 147 73-146 73 18 30 138-84-5 164h34z" horiz-adv-x="466" unicode="*"/><glyph d="M341 605V95h-36v510zM69 366h509v-33H69z" horiz-adv-x="648" unicode="+"/><glyph d="M118 102h45L72-152H42z" horiz-adv-x="232" unicode=","/><glyph d="M69 296h373v-33H69z" horiz-adv-x="511" unicode="-"/><glyph d="M101-3Q87-3 78 6t-9 24q0 14 9 23t23 10q14 0 23-9t9-24q0-14-9-23T101-3" horiz-adv-x="203" unicode="."/><glyph d="M240 800h39L38-100H0z" horiz-adv-x="279" unicode="/"/><glyph d="M74 350q0 76 9 141t34 114 70 75 117 27q72 0 117-27t70-75 34-113 10-142q0-77-9-142T491 94t-70-74T304-7q-71 0-116 26t-70 75-34 113-10 143m423 0q0 68-7 127t-27 102-58 69-101 25q-61 0-99-25t-59-68-27-103-7-127q0-70 7-128t27-103 58-68 100-24q63 0 101 24t58 68 27 102 7 129" horiz-adv-x="609" unicode="0"/><glyph d="M150 666H47v34h142V0h-39z" horiz-adv-x="280" unicode="1"/><glyph d="m62 26 227 215q67 64 107 109t58 83 18 80q0 72-45 116t-125 44q-62 0-104-26t-63-71-23-102H75q1 74 30 126t80 79 117 28q63 0 110-24t72-68 26-102q0-45-17-86t-59-89-113-116L123 34h409V0H62z" horiz-adv-x="603" unicode="2"/><glyph d="M74 512q5 60 34 103t80 68 118 24q66 0 111-24t69-64 23-90q0-38-16-73t-51-60-96-32v-5q50-7 90-28t63-59 23-92q0-51-23-94t-70-68T306-7q-72 0-123 20t-83 66-39 120h38q10-86 60-128t147-42q61 0 100 20t58 55 19 78q0 84-64 122t-180 39h-19v35h20q81 0 131 17t75 51 24 80q0 64-41 105t-124 42q-47 0-89-17t-70-52-35-92z" horiz-adv-x="595" unicode="3"/><glyph d="M436 183H46v29l385 488h43V217h116v-34H474V0h-38zm0 34v435L91 217z" horiz-adv-x="651" unicode="4"/><glyph d="M512 700v-34H124V375q27 39 79 63t116 25q62 0 106-19t71-51 39-73 13-83q0-63-24-119t-76-90T312-7q-65 0-115 24t-82 69-41 106h37q17-81 70-122t130-41q69 0 112 27t65 74 22 106q0 90-50 141t-145 52q-66 0-116-28t-78-77H86v376z" horiz-adv-x="618" unicode="5"/><glyph d="M305-7q-77 0-131 32t-83 88-29 120q0 46 14 89t46 90l193 288h41L156 402l-71-97q21 73 79 117t143 45q72 0 125-29t84-83 30-123q0-70-30-124t-85-84T305-7M101 234q0-62 25-108t71-73 108-26q61 0 106 26t71 72 25 107q0 61-25 105t-70 70-107 26-108-25-71-69-25-105" horiz-adv-x="601" unicode="6"/><glyph d="M505 700v-30L225 0h-39l283 666H47v34z" horiz-adv-x="550" unicode="7"/><glyph d="M229 369q-75 18-109 60T86 530q0 52 27 92t78 62 126 23q73 0 125-22t79-63 27-92q0-58-34-100t-110-61q76-14 119-59t44-117q0-62-29-106t-86-69T317-7 183 17 96 86 66 193q0 71 44 116t119 60m280 158q0 73-52 109t-140 37q-86 0-139-36t-54-110q0-70 52-106t141-37q89 0 140 36t52 107M317 351q-57 0-105-15t-78-49-29-94q0-81 57-123t155-43q96 0 154 43t58 123q0 58-29 93t-77 50-106 15" horiz-adv-x="634" unicode="8"/><glyph d="M296 707q77 0 131-32t83-87 29-121q0-45-13-88t-46-91L286 0h-41l200 298 71 97q-20-73-78-117t-144-45q-72 0-125 29t-84 83-30 123q0 71 30 124t85 84 126 31m205-241q0 62-25 108t-72 73-108 26q-61 0-106-26t-71-72-25-107q0-60 25-105t70-70 107-26q62 0 108 25t71 70 26 104" horiz-adv-x="601" unicode="9"/><glyph d="M106-3Q92-3 83 6t-9 24q0 14 9 23t23 10q14 0 23-9t9-24q0-14-9-23T106-3m0 446q-14 0-23 9t-9 24q0 14 9 23t23 10q14 0 23-9t9-24q0-14-9-23t-23-10" horiz-adv-x="212" unicode=":"/><glyph d="M142 445q-14 0-23 9t-9 24q0 14 9 23t23 10q14 0 23-9t9-24q0-14-9-23t-23-10m-19-343h45L77-152H47z" horiz-adv-x="248" unicode=";"/><glyph d="M385 115h-49L69 350l267 235h49L116 350z" horiz-adv-x="477" unicode="&lt;"/><glyph d="M83 259h493v-33H83zm0 187h493v-34H83z" horiz-adv-x="659" unicode="="/><glyph d="M359 350 92 585h48l268-235-268-235H92z" horiz-adv-x="477" unicode="&gt;"/><glyph d="M270 707q62 0 110-25t75-69 28-105q0-79-33-126t-91-67-134-21l-2-133h-32l-2 162h18q45 0 87 6t76 26 54 56 20 97q0 51-22 88t-61 57-91 20q-79 0-126-42T97 515H61q0 61 27 104t75 65 107 23M210-3q-14 0-23 9t-9 24q0 14 9 23t23 10q13 0 22-9t10-24q0-14-9-23T210-3" horiz-adv-x="544" unicode="?"/><glyph d="m605 161 11-14q-25-72-82-112T411-5q-76 0-117 46t-42 123q0 54 17 103t48 89 75 61 98 23q65 0 105-38t41-112l-13-10 26 146h33l-52-294q-7-47 8-77t55-31q36 0 64 24t48 63 30 87 10 95q0 93-40 161T692 560t-173 38q-92 0-171-35t-138-97-91-145-34-175q0-96 40-164t112-105 170-36q43 0 85 8t79 24l7-29q-40-16-86-24t-94-9q-103 0-181 40T95-35 51 140q0 103 35 191t99 156 150 104 189 37q106 0 186-42t125-116 45-173q0-56-12-110t-38-97-61-69-81-26q-53 0-75 37t-14 93zM488 409q-61 0-106-35t-69-89-25-117q0-65 35-103t98-39q46 0 86 23t69 67 38 108q9 51-1 93t-42 67-83 25" horiz-adv-x="963" unicode="@"/><glyph d="M332 666h-32L48 0H10l264 700h83L621 0h-39zM112 237h408v-34H112z" horiz-adv-x="630" unicode="A"/><glyph d="M526 521q0 62-42 103t-133 42H130V376h227q83 0 126 39t43 106M92 0v700h262q74 0 120-24t68-63 22-89q0-49-18-82t-49-53-65-27v-6q41-6 75-28t53-58 20-84q0-51-24-93t-74-68T356 0zm38 34h225q88 0 137 41t50 113q0 72-50 113t-140 41H130z" horiz-adv-x="641" unicode="B"/><glyph d="M47 350q0 79 24 144t70 113 106 74 133 26q118 0 197-53t118-144l-31-12q-23 53-62 92t-95 60-127 22q-82 0-149-38T125 523 85 350q0-100 39-172T231 67t149-39q72-1 128 22t98 65 62 98l32-12q-39-97-119-152T380-7q-72 0-133 26T141 93 72 206 47 350" horiz-adv-x="761" unicode="C"/><glyph d="M304 700q122 0 204-42t125-120 43-189q0-110-42-188T509 42 304 0H92v700zm0-666q167 0 250 84t83 231q0 148-83 232t-250 85H130V34z" horiz-adv-x="722" unicode="D"/><glyph d="M533 666H130V376h303v-34H130V34h403V0H92v700h441z" horiz-adv-x="605" unicode="E"/><glyph d="M92 700h441v-34H130V376h303v-34H130V0H92z" horiz-adv-x="581" unicode="F"/><glyph d="M660 499q-35 78-105 126t-168 48q-85 0-153-39T125 523 85 350q0-100 40-172T233 67t154-39q66 0 124 25t99 72 62 113v93H389v32h321V236q-20-73-66-127T532 24 387-7q-74 0-136 26T143 92 72 205 47 350t25 144 71 113 108 74 136 26q73 0 132-24t103-68 70-104z" horiz-adv-x="766" unicode="G"/><glyph d="M92 700h38V376h427v324h39V0h-39v342H130V0H92z" horiz-adv-x="688" unicode="H"/><glyph d="M92 700h38V0H92z" horiz-adv-x="223" unicode="I"/><glyph d="M356 700h39V163q0-45-20-84t-57-62-90-24q-70 0-112 37T61 134l34 12q6-32 21-59t42-44 70-16q49 0 77 22t39 53 12 61z" horiz-adv-x="482" unicode="J"/><glyph d="M92 700h38V376h34l330 324h51L198 359 546 0h-52L164 342h-34V0H92z" horiz-adv-x="559" unicode="K"/><glyph d="M130 700V34h343V0H92v700z" horiz-adv-x="504" unicode="L"/><glyph d="M130 0H92v700h41L416 52l283 648h40V0h-38v618L431 0h-31L130 618z" horiz-adv-x="832" unicode="M"/><glyph d="M596 700V0h-38L130 636V0H92v700h38L557 64v636z" horiz-adv-x="688" unicode="N"/><glyph d="M387-7q-74 0-136 26T143 92 72 205 47 350t25 144 71 113 108 74 136 26q73 0 135-26t107-73 71-113 26-145-25-144-71-113-108-74T387-7m0 34q84 0 151 39t108 111 41 173-40 173-108 111-152 39q-85 0-153-39T126 523 86 350q0-100 40-172T234 66t153-39" horiz-adv-x="772" unicode="O"/><glyph d="M312 334q70 0 112 21t60 59 19 86q0 77-43 121t-148 45H130V334zm229 166q0-46-14-83t-43-63-72-40-100-14H130V0H92v700h220q84 0 134-26t72-71 23-103" horiz-adv-x="588" unicode="P"/><glyph d="M370 119h38v-219h-38zM387-7q-74 0-136 26T143 92 72 205 47 350t25 144 71 113 108 74 136 26q73 0 135-26t107-73 71-113 26-145-25-144-71-113-108-74T387-7m0 34q84 0 151 39t108 111 41 173-40 173-108 111-152 39q-85 0-153-39T126 523 86 350q0-100 40-172T234 66t153-39" horiz-adv-x="772" unicode="Q"/><glyph d="M503 500q0 75-44 120t-149 46H130V334h182q67 0 109 21t62 59 20 86M310 700q84 0 134-26t74-71 23-103q0-45-14-82t-43-63-72-41-100-14H130V0H92v700zm46-386L552 0h-43L314 314z" horiz-adv-x="598" unicode="R"/><glyph d="M89 156q8-29 28-58t60-50 103-20q90 0 134 41t45 103q0 50-24 81t-67 50-93 35q-41 11-78 24t-68 33-47 50-18 75q0 56 26 98t74 65 113 24q60 0 102-18t68-48 37-64l-34-13q-7 24-28 49t-58 43-87 18q-47 0-87-17t-63-51-24-80q0-49 25-77t67-44 94-32q41-12 79-27t67-37 45-54 17-79q0-49-21-90t-69-67T282-7q-68 0-114 20T94 67t-39 75z" horiz-adv-x="552" unicode="S"/><glyph d="M47 700h500v-34H316V0h-38v666H47z" horiz-adv-x="593" unicode="T"/><glyph d="M87 700h39V263q0-86 29-138t78-75 108-23 107 23 76 75 29 138v437h38V263q0-71-19-122t-53-84-80-48-98-16q-70 0-127 28t-92 88-35 154z" horiz-adv-x="679" unicode="U"/><glyph d="M567 700h41L340 0h-42L31 700h42L319 47z" horiz-adv-x="639" unicode="V"/><glyph d="M262 0h-40L31 700h41L242 57l197 643h42L677 57l171 643h41L697 0h-39L460 640z" horiz-adv-x="920" unicode="W"/><glyph d="M61 700h43l228-320 229 320h43L353 350 604 0h-43L332 320 104 0H61l251 350z" horiz-adv-x="666" unicode="X"/><glyph d="M530 700h41L321 287V0h-38v287L31 700h42l229-376z" horiz-adv-x="601" unicode="Y"/><glyph d="M518 667 105 35h421V0H61v32l413 633H71v35h447z" horiz-adv-x="588" unicode="Z"/><glyph d="M87 800h117v-33h-80V-67h80v-33H87z" horiz-adv-x="259" unicode="["/><glyph d="M281-100h-39L0 800h40z" horiz-adv-x="281" unicode="\"/><glyph d="M172 800v-900H55v33h80v834H55v33z" horiz-adv-x="259" unicode="]"/><glyph d="M307 650 99 250H60l231 450h31l231-450h-39z" horiz-adv-x="613" unicode="^"/><glyph d="M-2-32h473v-35H-2z" horiz-adv-x="469" unicode="_"/><glyph d="m14 750 193-132v-32L14 712z" horiz-adv-x="221" unicode="`"/><glyph d="m415 0-1 125q-20-64-68-98T222-7q-54 0-92 16T72 55t-21 74q0 63 47 101t145 48l171 19v45q0 63-38 97t-108 34q-67 0-109-30t-57-88l-33 12q18 68 68 104t130 36q87 0 135-42t48-119V0zm-1 264-172-19q-80-8-116-36t-36-78 34-78 98-28q61 0 104 25t65 71 23 108z" horiz-adv-x="525" unicode="a"/><glyph d="M117 367q19 59 70 99t134 41q70 0 122-32t81-89 29-136q0-78-29-136t-81-89T321-7q-78 0-129 39t-72 98L119 0H83v720h37V364zm398-117q0 103-54 163t-144 60q-60 0-104-28t-68-78-25-117q0-67 25-117t69-78 103-28q91 0 144 60t54 163" horiz-adv-x="602" unicode="b"/><glyph d="M290-7q-73 0-127 31t-83 89-30 136q0 77 29 135t84 91 126 32q77 0 133-36t80-99l-33-11q-19 52-67 82t-112 30q-61 0-106-28t-71-78-25-118q0-101 55-161t148-61q61 0 107 28t72 82l34-10q-28-64-83-99T290-7" horiz-adv-x="554" unicode="c"/><glyph d="m485 367-3-3v356h37V0h-35l-1 130q-20-58-72-97T281-7q-69 0-121 31t-81 90-29 136q0 78 28 135t81 90 122 32q83 0 134-40t70-100M88 250q0-103 53-163t145-60q58 0 102 28t69 78 25 117-24 117-68 78-104 28q-91 0-144-60T88 250" horiz-adv-x="602" unicode="d"/><glyph d="M282-7q-69 0-121 33t-81 93-30 136q0 74 29 131t82 89 120 32q66 0 116-29t80-78 29-114v-43H88q2-64 27-112t68-76 98-28q67 0 115 29t71 84l31-13q-26-64-82-99T282-7m186 282q1 58-22 102t-65 70-100 26q-53 0-95-25t-69-71-28-102z" horiz-adv-x="557" unicode="e"/><glyph d="M118 566q0 51 16 87t54 53 99 13v-34q-75 6-103-25t-29-94v-66h133v-35H155V0h-37v465H37v35h81z" horiz-adv-x="326" unicode="f"/><glyph d="M484 500h35V110q0-99-40-168T361-163t-190-37l-5 34q155 1 235 71t81 205v25l3-1q-20-58-70-98T281-7q-70 0-122 31t-80 90-29 136q0 78 28 135t81 90 122 32q56 0 96-19t67-49 39-68zM88 250q0-103 53-163t146-60q58 0 102 28t68 78 25 117q0 67-24 117t-69 78-102 28q-92 0-145-60T88 250" horiz-adv-x="602" unicode="g"/><glyph d="M83 720h37V387q20 59 67 89t111 31q55 0 98-23t68-74 25-128V0h-38v281q0 93-41 142t-118 50q-79 0-125-55t-47-163V0H83z" horiz-adv-x="563" unicode="h"/><glyph d="M96 500h36V0H96zm18 125q-13 0-22 8t-9 23q0 14 9 22t22 9q13 0 22-8t9-23q0-14-9-22t-22-9" horiz-adv-x="227" unicode="i"/><glyph d="M94-11q0-69-33-109t-96-46l6-34q44 3 80 24t58 63 22 101v512H94zm19 636q-13 0-22 8t-9 23q0 14 9 22t22 9q13 0 21-8t9-23q0-14-8-22t-22-9" horiz-adv-x="223" unicode="j"/><glyph d="M83 720h38V269h56l224 231h51L208 252 455 0h-51L177 236h-56V0H83z" horiz-adv-x="472" unicode="k"/><glyph d="M83 714h37V0H83z" horiz-adv-x="203" unicode="l"/><glyph d="M83 500h36l1-113q17 53 57 86t111 33q61 0 107-33t66-101q19 71 68 102t114 32q53 0 95-24t68-73 25-126V0h-37v281q0 93-41 142t-114 50q-75 0-120-55t-46-164V0h-37v281q0 93-39 142t-113 50q-76 0-120-55t-44-164V0H83z" horiz-adv-x="905" unicode="m"/><glyph d="M83 500h36l1-113q18 55 61 87t115 33q55 0 98-24t69-73 26-126V0h-37v282q0 93-42 142t-119 50q-78 0-124-54t-47-161V0H83z" horiz-adv-x="562" unicode="n"/><glyph d="M292-7q-70 0-124 31t-86 88-32 138q0 79 31 137t87 89 124 31q70 0 124-31t85-89 32-137q0-80-31-137t-86-89T292-7m-1 34q53 0 99 24t76 73 29 126q0 77-29 126t-75 73-99 24-99-24-75-73-29-126 28-126 75-73 99-24" horiz-adv-x="584" unicode="o"/><glyph d="m117 134 3 2v-336H83v700h36l1-129q19 56 69 96t132 40q69 0 121-31t82-89 29-137q0-78-29-135t-80-90T322-7q-81 0-133 40t-72 101m398 116q0 103-54 163t-144 60q-60 0-104-28t-68-78-25-117q0-67 25-117t69-78 103-28q91 0 144 60t54 163" horiz-adv-x="602" unicode="p"/><glyph d="M485 134q-19-60-71-100T281-7q-70 0-122 32t-80 89-29 136q0 79 28 136t81 89 122 32q82 0 132-40t70-96l1 129h35v-700h-37v336zM88 250q0-103 53-163t144-60q59 0 103 28t69 78 25 117-24 117-68 78-104 28q-91 0-144-60T88 250" horiz-adv-x="602" unicode="q"/><glyph d="M83 500h36l1-107q14 35 43 62t69 41 90 4v-36q-43 9-80-1t-64-37-42-65-16-87V0H83z" horiz-adv-x="349" unicode="r"/><glyph d="M84 137q7-36 24-60t49-37 76-13q72 0 107 29t36 74q0 37-20 57t-54 32-70 19q-23 5-53 12t-58 22-46 37-19 63q0 40 22 71t62 47 91 17q61 0 108-27t64-88l-32-11q-11 39-34 58t-52 27-54 7q-61 0-98-26t-38-73q0-28 13-45t35-28 47-17 53-12q29-6 59-15t55-25 42-40 16-63q0-42-22-73T329 9 232-7q-74 0-121 32T50 126z" horiz-adv-x="465" unicode="s"/><glyph d="M117 500v140h37V500h149v-34H154V142q0-43 21-69t56-37 72-2V3q-34-9-67-4t-60 23-43 48-16 72v324H37v34z" horiz-adv-x="340" unicode="t"/><glyph d="M479 0h-34l-2 109q-18-55-62-85T267-7q-55 0-98 23t-69 71-25 125v288h36V213q0-93 41-139t119-47q79 0 125 51t46 158v264h37z" horiz-adv-x="561" unicode="u"/><glyph d="M68 500 255 47l187 453h39L272 0h-35L28 500z" horiz-adv-x="508" unicode="v"/><glyph d="M217 0h-31L28 500h38L203 53l164 447h31L563 54l135 446h37L579 0h-33L382 441z" horiz-adv-x="763" unicode="w"/><glyph d="M33 500h42l151-221 150 221h42L246 252 418 0h-42L226 225 75 0H33l172 252z" horiz-adv-x="451" unicode="x"/><glyph d="M427 500h37L188-200h-37L232 2 20 500h39L250 45z" horiz-adv-x="486" unicode="y"/><glyph d="M412 465 98 34h322V0H54v34l314 432H62v34h350z" horiz-adv-x="475" unicode="z"/><glyph d="M51 365q50 12 73 30t30 40 7 40q0 33-6 68t-14 71-7 73q0 61 38 87t103 26h38v-27h-33q-51 0-79-19t-29-68q0-37 6-74t13-72 7-67q0-42-27-75t-90-46v-2q63-12 90-45t27-78q0-31-6-66t-13-72-7-74q0-48 28-68t80-20h33v-27h-38q-64 0-102 27t-39 86q0 38 7 74t13 71 7 68q0 20-7 41t-30 39-73 31z" horiz-adv-x="364" unicode="{"/><glyph d="M149 800v-900h-38v900z" horiz-adv-x="260" unicode="|"/><glyph d="M313 365v-28q-49-12-72-30t-31-40-7-41q0-32 7-67t13-72 7-74q0-59-38-86T89-100H51v27h33q51 0 79 20t29 68q0 37-6 74t-13 72-7 66q0 45 27 78t90 45v2q-62 12-89 45t-28 76q0 32 6 67t13 72 7 74q0 48-28 67t-80 20H51v27h38q65 0 103-26t38-87q0-36-6-72t-14-72-7-68q0-19 7-40t30-39 73-31" horiz-adv-x="364" unicode="}"/><glyph d="M65 299q8 48 32 75t68 28q25 0 46-10t41-24 38-24 40-11q29 0 44 20t20 48h32q-8-48-31-75t-67-28q-26 0-47 10t-40 25-38 24-41 10q-28 0-44-21t-21-47z" horiz-adv-x="490" unicode="~"/><glyph horiz-adv-x="280"/><glyph d="M114 555q15 0 24-9t9-24-9-24-24-10q-13 0-22 9t-9 25q0 14 9 23t22 10M90-147l5 533h33l5-533z" horiz-adv-x="230" unicode="¡"/><glyph d="M279 600h29V492h-29zm0-582h29v-118h-29zm11-25q-73 0-127 31t-83 89-30 136q0 77 29 135t84 91 126 32q77 0 133-36t80-99l-33-11q-19 52-67 82t-112 30q-61 0-106-28t-71-78-25-118q0-101 55-161t148-61q61 0 107 28t72 82l34-10q-28-64-83-99T290-7" horiz-adv-x="554" unicode="¢"/><glyph d="M326 707q64 0 108-26t69-69 32-96h-37q-6 69-51 114t-121 45q-41 0-77-16t-58-51-23-92q0-43 10-80t25-73 25-71 11-75q0-55-21-97t-60-86h373V0H125l-8 27q23 29 42 56t32 58 12 72q0 40-11 75t-25 70-25 73-11 87q0 55 24 98t68 67 103 24m75-355v-29H65v29z" horiz-adv-x="590" unicode="£"/><glyph d="M259 550q42 0 78-21t58-60 22-92q0-52-21-91t-58-60-79-22q-45 0-80 21t-56 61-20 91q0 53 20 91t56 60 80 22m0-28q-52 0-87-38t-35-107 35-107 87-38q32 0 60 17t46 50 18 78-17 77-46 50-61 18m-109-45-75 74 20 20 70-69zm203 25 69 69 21-20-76-75zm15-223 75-74-21-20-68 68zm-203-24-70-70-20 20 75 75z" horiz-adv-x="518" unicode="¤"/><glyph d="M333 355h188v-30H324zM83 228h438v-32H83zm0 127h189l10-30H83zm447 345h41L321 287V0h-38v287L31 700h42l229-376z" horiz-adv-x="601" unicode="¥"/><glyph d="M149 271v-371h-38v371zm-38 159v370h38V430z" horiz-adv-x="259" unicode="¦"/><glyph d="M74 600q0 46 34 76t98 31q63 0 104-34t49-98h-29q-2 25-15 50t-40 42-69 17q-46 0-75-20t-30-63q0-25 11-43t39-32 72-27q45-12 81-30t59-45 22-74q0-34-18-65t-55-49-88-17l1 4q33-8 65-21t54-38 22-63q0-46-34-77T237-7q-65 0-107 34t-49 97h28q3-26 16-51t41-41 71-16q44 0 73 20t29 64q0 25-12 43t-38 32-72 27q-45 12-81 29t-59 46-22 73q0 36 18 66t55 49 88 16l-1-4q-32 9-64 22t-55 38-22 63m282-250q0 49-36 80t-102 31-100-33-34-78q0-48 36-79t102-32q66 0 100 34t34 77" horiz-adv-x="440" unicode="§"/><glyph d="M49 627q-14 0-24 10t-11 25q0 15 10 25t25 11q15 0 25-10t11-26q0-14-10-24t-26-11m141 0q-14 0-25 10t-11 25 11 25 25 11q14 0 25-10t11-26q0-14-11-24t-25-11" horiz-adv-x="240" unicode="¨"/><glyph d="M406 707q102 0 178-46t120-126 44-184q0-102-43-183T585 40 405-7Q304-7 227 39T106 167 62 352t43 183 121 126 180 46m-1-24q-97 0-168-43T127 521 87 351q0-94 39-170T237 61t168-44q97 0 168 44t110 120 39 170q0 95-38 170T574 639t-169 44m-1-589q-72 0-126 31t-83 89-30 135q0 77 29 135t84 91 126 33q76 0 133-36t80-100l-33-11q-20 52-67 82t-112 30q-61 0-106-27t-71-78-25-118q0-102 55-162t147-60q62 0 108 28t72 82l34-10q-28-65-84-99T404 94" horiz-adv-x="810" unicode="©"/><glyph d="M39 528q0 54 20 94t57 64 85 23q56 0 93-27t52-71v92h33V354h-33v91q-14-44-51-71t-93-27q-49 0-85 23t-57 64-21 94m33 0q0-70 38-111t96-42q61 0 100 41t40 112q0 71-39 112t-101 41q-57 0-95-41T72 528" horiz-adv-x="435" unicode="ª"/><glyph d="M193 75h-43L47 250l103 175h43L87 250zm154 0h-43L201 250l103 175h43L241 250z" horiz-adv-x="403" unicode="«"/><glyph d="M42 426h556V246h-36v147H42z" horiz-adv-x="653" unicode="¬"/><glyph d="M60 296h373v-33H60z" horiz-adv-x="492" unicode="­"/><glyph d="M62 512q0 55 24 99t67 70 98 26q56 0 99-26t67-70 24-99q0-54-24-98t-67-70-99-26q-55 0-98 25t-67 70-24 99m25 0q0-48 21-86t57-61 86-22q49 0 86 22t57 60 21 87q0 49-20 87t-58 61-86 23q-49 0-85-23t-58-61-21-87m94 108V406h28v91h58q32 0 50 16t18 46q0 29-18 45t-50 16zm126-214 33 1-71 98h-31zm-42 188q18 0 30-8t12-28q0-19-12-27t-30-9h-56v72z" horiz-adv-x="503" unicode="®"/><glyph d="M14 685h320v-31H14z" horiz-adv-x="348" unicode="¯"/><glyph d="M27 525q0 53 20 92t55 61 81 22 81-22 54-61 20-92q0-52-19-91t-55-62-82-22q-68 0-111 48T27 525m277 0q0 70-33 109t-89 39q-53 0-87-39T61 525q0-69 33-108t88-40q54 0 88 39t34 109" horiz-adv-x="366" unicode="°"/><glyph d="M401 618V150h-35v468zM129 405h509v-32H129zm0-289h509V83H129z" horiz-adv-x="767" unicode="±"/><glyph d="M42 598q3 44 30 76t86 33q30 0 54-12t37-35 14-53q0-30-11-54t-31-48-47-48l-97-90-6 11h201v-28H42v21l113 108q28 26 50 55t23 72q0 38-21 55t-50 18q-36 0-57-20t-24-61z" horiz-adv-x="319" unicode="²"/><glyph d="M42 616q5 26 20 46t40 33 60 12q32 0 57-12t41-35 15-51q0-30-16-52t-50-30v-2q29-8 48-31t20-58q0-35-30-64t-88-29q-51 0-82 25t-36 74h33q5-42 28-57t57-15q40 0 61 19t22 49q0 35-24 55t-62 20h-56v26h58q37 0 59 17t23 52q0 31-21 50t-58 20q-38 0-58-17t-28-45z" horiz-adv-x="326" unicode="³"/><glyph d="M207 750v-38L14 586v32z" horiz-adv-x="221" unicode="´"/><glyph d="M509 0h-38v117q-22-67-71-97T294-10q-35 0-69 10t-62 37-42 73v-310H83v700h38V240q0-111 50-164t128-53q75 0 123 51t49 159v267h38z" horiz-adv-x="592" unicode="µ"/><glyph d="M457 700V0h-36v669H321V0h-36v309h-3q-80 0-132 25t-78 69-25 101q0 58 25 102t78 69 132 25z" horiz-adv-x="548" unicode="¶"/><glyph d="M93 320q-14 0-23 9t-9 24q0 14 9 23t23 10q14 0 23-9t9-24q0-14-9-23t-23-10" horiz-adv-x="187" unicode="·"/><glyph d="M73-81q40 2 68-7t44-28 15-49q0-27-13-47t-38-32-60-11H14v29h69q46 0 64 16t19 45q0 24-18 40t-65 16H42V7h31z" horiz-adv-x="215" unicode="¸"/><glyph d="M85 672H31v28h87V350H85z" horiz-adv-x="179" unicode="¹"/><glyph d="M37 526q0 56 22 96t62 64 88 23q49 0 88-23t61-63 22-97q0-54-22-95t-61-64-88-23-88 23-61 64-23 95m310 0q0 75-40 114t-98 40q-56 0-97-39T71 526q0-74 40-113t98-40q57 0 97 39t41 114" horiz-adv-x="418" unicode="º"/><glyph d="m209 75 107 175-107 175h43l104-175L252 75zM55 75l107 175L55 425h43l104-175L98 75z" horiz-adv-x="402" unicode="»"/><glyph d="M431 700h36L87 0H50zm75-599V74h-53V0h-34v74H244v24l173 257h36V101zm-86 0v203L281 101zM85 672H31v28h87V350H85z" horiz-adv-x="543" unicode="¼"/><glyph d="M423 700h37L80 0H43zM85 672H31v28h87V350H85zm241-424q3 44 31 76t86 33q30 0 54-12t37-35 14-53q0-30-11-54t-31-48-48-48l-97-90-5 11h201V0H327v21l113 108q27 26 50 55t23 72q0 38-21 55t-50 18q-36 0-57-20t-25-61z" horiz-adv-x="618" unicode="½"/><glyph d="M521 700h37L178 0h-36zm75-599V74h-53V0h-33v74H335v24l172 257h36V101zm-86 0v203L371 101zM32 616q4 26 19 46t41 33 60 12q32 0 57-12t41-35 15-51q0-30-17-52t-49-30v-2q30-8 49-31t19-58-30-64-88-29q-51 0-82 25t-36 74h33q5-42 28-57t57-15q39 0 61 19t22 49q0 35-24 55t-62 20H90v26h58q37 0 59 17t23 52q0 31-21 50t-58 20q-38 0-59-17t-27-45z" horiz-adv-x="626" unicode="¾"/><glyph d="M335 543q13 0 22-9t9-24q0-14-9-23t-22-10q-14 0-23 9t-10 24q0 15 9 24t24 9m-61-710q-62 0-110 25T89-72 61 32q0 80 33 126t91 68 134 21l2 132h32l2-162h-18q-44 0-86-6t-76-25-55-56-20-98q0-51 22-88t61-57 91-20q79 0 126 43t47 115h36q0-60-27-103t-75-66-107-23" horiz-adv-x="544" unicode="¿"/><glyph d="m208 917 193-131v-32L208 880zm124-251h-32L48 0H10l264 700h83L621 0h-39zM112 237h408v-34H112z" horiz-adv-x="630" unicode="À"/><glyph d="M401 917v-37L208 754v32zm-69-251h-32L48 0H10l264 700h83L621 0h-39zM112 237h408v-34H112z" horiz-adv-x="630" unicode="Á"/><glyph d="m444 781-127 82-128-82v34l128 81 127-81zM332 666h-32L48 0H10l264 700h83L621 0h-39zM112 237h408v-34H112z" horiz-adv-x="630" unicode="Â"/><glyph d="M192 764q4 35 22 54t48 20q25 0 40-12t31-24 38-12q15 0 28 11t16 34h27q-3-33-23-53t-49-21q-26 0-43 12t-31 24-35 12q-18 0-28-11t-14-34zm140-98h-32L48 0H10l264 700h83L621 0h-39zM112 237h408v-34H112z" horiz-adv-x="630" unicode="Ã"/><glyph d="M246 794q-15 0-25 10t-10 25q0 16 10 26t25 11q15 0 26-10t11-26q0-15-11-25t-26-11m142 0q-15 0-25 10t-11 25q0 16 10 26t26 11q14 0 24-10t11-26q0-15-10-25t-25-11m-56-128h-32L48 0H10l264 700h83L621 0h-39zM112 237h408v-34H112z" horiz-adv-x="630" unicode="Ä"/><glyph d="M411 847q0-44-28-68t-67-25q-39 0-66 24t-28 69q0 43 27 68t67 26q38 0 66-25t29-69m-29 0q0 32-19 50t-47 18-46-18-19-50q0-31 18-49t47-18q28 0 47 18t19 49m-50-181h-32L48 0H10l264 700h83L621 0h-39zM112 237h408v-34H112z" horiz-adv-x="630" unicode="Å"/><glyph d="M486 666V376h224v-34H486V34h314V0H448v203H175L53 0H10l423 700h367v-34zM195 237h253v418z" horiz-adv-x="872" unicode="Æ"/><glyph d="M415-80q40 1 68-8t44-28 15-49q0-26-13-46t-38-32-60-12h-75v29h69q45 0 63 17t19 44q0 25-18 41t-64 16h-41V7h31zM47 350q0 79 24 144t70 113 106 74 133 26q118 0 197-53t118-144l-31-12q-23 53-62 92t-95 60-127 22q-82 0-149-38T125 523 85 350q0-100 39-172T231 67t149-39q72-1 128 22t98 65 62 98l32-12q-39-97-119-152T380-7q-72 0-133 26T141 93 72 206 47 350" horiz-adv-x="761" unicode="Ç"/><glyph d="m204 917 192-131v-32L204 880zm329-251H130V376h303v-34H130V34h403V0H92v700h441z" horiz-adv-x="605" unicode="È"/><glyph d="M396 917v-37L204 754v32zm137-251H130V376h303v-34H130V34h403V0H92v700h441z" horiz-adv-x="605" unicode="É"/><glyph d="m440 781-127 82-128-82v34l128 81 127-81zm93-115H130V376h303v-34H130V34h403V0H92v700h441z" horiz-adv-x="605" unicode="Ê"/><glyph d="M242 794q-15 0-25 10t-10 25q0 16 10 26t25 11q15 0 25-10t11-26q0-15-10-25t-26-11m142 0q-16 0-26 10t-10 25q0 16 10 26t26 11q14 0 24-10t11-26q0-15-10-25t-25-11m149-128H130V376h303v-34H130V34h403V0H92v700h441z" horiz-adv-x="605" unicode="Ë"/><glyph d="m2 917 193-131v-32L2 880zm90-217h38V0H92z" horiz-adv-x="223" unicode="Ì"/><glyph d="M195 917v-37L2 754v32zM92 700h38V0H92z" horiz-adv-x="223" unicode="Í"/><glyph d="m238 781-127 82-127-82v34l127 81 127-81zM92 700h38V0H92z" horiz-adv-x="223" unicode="Î"/><glyph d="M41 794q-16 0-26 10T5 829q0 16 10 26t26 11q14 0 25-10t11-26q0-15-11-25t-25-11m141 0q-15 0-25 10t-11 25q0 16 10 26t26 11q15 0 25-10t10-26q0-15-10-25t-25-11m-90-94h38V0H92z" horiz-adv-x="223" unicode="Ï"/><glyph d="M72 367h107v333h194q120 0 203-42t125-120 43-189q0-110-42-188T576 42 373 0H179v332H72zM218 31h155q167 0 250 85t83 233-83 233-250 86H218V367h222v-35H218z" horiz-adv-x="791" unicode="Ð"/><glyph d="M221 764q5 35 23 54t47 20q25 0 40-12t31-24 38-12q16 0 28 11t16 34h27q-2-33-22-53t-50-21q-26 0-42 12t-31 24-36 12q-17 0-28-11t-14-34zm375-64V0h-38L130 636V0H92v700h38L557 64v636z" horiz-adv-x="688" unicode="Ñ"/><glyph d="m286 917 193-131v-32L286 880zM387-7q-74 0-136 26T143 92 72 205 47 350t25 144 71 113 108 74 136 26q73 0 135-26t107-73 71-113 26-145-25-144-71-113-108-74T387-7m0 34q84 0 151 39t108 111 41 173-40 173-108 111-152 39q-85 0-153-39T126 523 86 350q0-100 40-172T234 66t153-39" horiz-adv-x="772" unicode="Ò"/><glyph d="M479 917v-37L286 754v32zM387-7q-74 0-136 26T143 92 72 205 47 350t25 144 71 113 108 74 136 26q73 0 135-26t107-73 71-113 26-145-25-144-71-113-108-74T387-7m0 34q84 0 151 39t108 111 41 173-40 173-108 111-152 39q-85 0-153-39T126 523 86 350q0-100 40-172T234 66t153-39" horiz-adv-x="772" unicode="Ó"/><glyph d="m522 781-127 82-127-82v34l127 81 127-81zM387-7q-74 0-136 26T143 92 72 205 47 350t25 144 71 113 108 74 136 26q73 0 135-26t107-73 71-113 26-145-25-144-71-113-108-74T387-7m0 34q84 0 151 39t108 111 41 173-40 173-108 111-152 39q-85 0-153-39T126 523 86 350q0-100 40-172T234 66t153-39" horiz-adv-x="772" unicode="Ô"/><glyph d="M270 764q4 35 22 54t48 20q25 0 41-12t30-24 38-12q16 0 28 11t16 34h27q-3-33-23-53t-49-21q-26 0-43 12t-31 24-35 12q-18 0-28-11t-14-34zM387-7q-74 0-136 26T143 92 72 205 47 350t25 144 71 113 108 74 136 26q73 0 135-26t107-73 71-113 26-145-25-144-71-113-108-74T387-7m0 34q84 0 151 39t108 111 41 173-40 173-108 111-152 39q-85 0-153-39T126 523 86 350q0-100 40-172T234 66t153-39" horiz-adv-x="772" unicode="Õ"/><glyph d="M325 794q-16 0-26 10t-10 25q0 16 10 26t26 11q14 0 25-10t11-26q0-15-11-25t-25-11m141 0q-15 0-25 10t-11 25q0 16 10 26t26 11q14 0 24-10t11-26q0-15-10-25t-25-11M387-7q-74 0-136 26T143 92 72 205 47 350t25 144 71 113 108 74 136 26q73 0 135-26t107-73 71-113 26-145-25-144-71-113-108-74T387-7m0 34q84 0 151 39t108 111 41 173q0 100-40 172T539 634t-152 39q-85 0-153-39T126 523 86 350q0-100 40-172T234 66t153-39" horiz-adv-x="772" unicode="Ö"/><glyph d="m95 550 375-375-25-25L70 525zM70 176l374 374 24-25L94 151z" horiz-adv-x="539" unicode="×"/><glyph d="m606 609 27-19L177 96l-29 17zM387-7q-74 0-136 26T143 92 72 205 47 350t25 144 71 113 108 74 136 26q73 0 135-26t107-73 71-113 26-145-25-144-71-113-108-74T387-7m0 34q84 0 151 39t108 111 41 173-40 173-108 111-152 39q-85 0-153-39T126 523 86 350q0-100 40-172T234 66t153-39" horiz-adv-x="772" unicode="Ø"/><glyph d="m230 917 193-131v-32L230 880zM87 700h39V263q0-86 29-138t78-75 108-23 107 23 76 75 29 138v437h38V263q0-71-19-122t-53-84-80-48-98-16q-70 0-127 28t-92 88-35 154z" horiz-adv-x="679" unicode="Ù"/><glyph d="M423 917v-37L230 754v32zM87 700h39V263q0-86 29-138t78-75 108-23 107 23 76 75 29 138v437h38V263q0-71-19-122t-53-84-80-48-98-16q-70 0-127 28t-92 88-35 154z" horiz-adv-x="679" unicode="Ú"/><glyph d="m466 781-127 82-128-82v34l128 81 127-81zM87 700h39V263q0-86 29-138t78-75 108-23 107 23 76 75 29 138v437h38V263q0-71-19-122t-53-84-80-48-98-16q-70 0-127 28t-92 88-35 154z" horiz-adv-x="679" unicode="Û"/><glyph d="M268 794q-14 0-24 10t-11 25q0 16 10 26t25 11q15 0 25-10t11-27q0-14-10-24t-26-11m142 0q-15 0-25 10t-11 25q0 16 10 26t26 11q14 0 24-10t11-27q0-14-10-24t-25-11M87 700h39V263q0-86 29-138t78-75 108-23 107 23 76 75 29 138v437h38V263q0-71-19-122t-53-84-80-48-98-16q-70 0-127 28t-92 88-35 154z" horiz-adv-x="679" unicode="Ü"/><glyph d="M386 917v-37L193 754v32zm144-217h41L321 287V0h-38v287L31 700h42l229-376z" horiz-adv-x="601" unicode="Ý"/><glyph d="M282 189q105 0 147 44t43 117q0 77-42 120t-148 43H130V189zm228 161q0-61-25-105t-75-67-128-23H130V0H92v700h38V546h152q80 0 130-25t74-69 24-102" unicode="Þ"/><glyph d="M83 515q0 57 21 100t64 67 103 25q57 0 97-18t61-50 21-72q0-30-12-51t-32-37-38-33q-24-20-42-39t-18-45q0-27 24-45t91-40q63-20 91-57t29-88q0-63-40-101T392-7q-73 0-120 43t-56 117h39q6-58 42-93t95-35q53 0 83 28t30 77q0 41-25 71t-81 48q-74 23-102 47t-28 63q0 36 22 61t50 47q26 22 48 42t23 57q0 47-37 77t-104 31q-49 0-83-20t-51-56-17-85V0H83z" horiz-adv-x="593" unicode="ß"/><glyph d="m162 700 177-121v-29L162 666zM415 0l-1 125q-20-64-68-98T222-7q-54 0-92 16T72 55t-21 74q0 63 47 101t145 48l171 19v45q0 63-38 97t-108 34q-67 0-109-30t-57-88l-33 12q18 68 68 104t130 36q87 0 135-42t48-119V0zm-1 264-172-19q-80-8-116-36t-36-78 34-78 98-28q61 0 104 25t65 71 23 108z" horiz-adv-x="525" unicode="à"/><glyph d="M339 700v-34L162 550v29zM415 0l-1 125q-20-64-68-98T222-7q-54 0-92 16T72 55t-21 74q0 63 47 101t145 48l171 19v45q0 63-38 97t-108 34q-67 0-109-30t-57-88l-33 12q18 68 68 104t130 36q87 0 135-42t48-119V0zm-1 264-172-19q-80-8-116-36t-36-78 34-78 98-28q61 0 104 25t65 71 23 108z" horiz-adv-x="525" unicode="á"/><glyph d="m379 575-117 76-117-76v32l117 74 117-74zM415 0l-1 125q-20-64-68-98T222-7q-54 0-92 16T72 55t-21 74q0 63 47 101t145 48l171 19v45q0 63-38 97t-108 34q-67 0-109-30t-57-88l-33 12q18 68 68 104t130 36q87 0 135-42t48-119V0zm-1 264-172-19q-80-8-116-36t-36-78 34-78 98-28q61 0 104 25t65 71 23 108z" horiz-adv-x="525" unicode="â"/><glyph d="M147 558q4 33 21 51t43 18q23 0 37-11t29-22 35-11q15 0 26 10t14 31h25q-3-30-21-49t-45-19q-24 0-39 11t-29 22-32 12q-16 0-26-10t-13-33zM415 0l-1 125q-20-64-68-98T222-7q-54 0-92 16T72 55t-21 74q0 63 47 101t145 48l171 19v45q0 63-38 97t-108 34q-67 0-109-30t-57-88l-33 12q18 68 68 104t130 36q87 0 135-42t48-119V0zm-1 264-172-19q-80-8-116-36t-36-78 34-78 98-28q61 0 104 25t65 71 23 108z" horiz-adv-x="525" unicode="ã"/><glyph d="M197 588q-14 0-23 9t-9 22q0 14 9 24t23 10 24-10 10-24q0-13-10-22t-24-9m130 0q-13 0-23 9t-10 22q0 14 10 24t23 10 23-10 10-24q0-13-10-22t-23-9M415 0l-1 125q-20-64-68-98T222-7q-54 0-92 16T72 55t-21 74q0 63 47 101t145 48l171 19v45q0 63-38 97t-108 34q-67 0-109-30t-57-88l-33 12q18 68 68 104t130 36q87 0 135-42t48-119V0zm-1 264-172-19q-80-8-116-36t-36-78 34-78 98-28q61 0 104 25t65 71 23 108z" horiz-adv-x="525" unicode="ä"/><glyph d="M348 635q0-40-25-62t-62-23q-35 0-60 22t-26 63q0 41 25 64t61 23 61-23 26-64m-25 0q0 30-17 46t-45 17q-26 0-43-16t-17-47q0-28 17-45t43-17q27 0 44 17t18 45M415 0l-1 125q-20-64-68-98T222-7q-54 0-92 16T72 55t-21 74q0 63 47 101t145 48l171 19v45q0 63-38 97t-108 34q-67 0-109-30t-57-88l-33 12q18 68 68 104t130 36q87 0 135-42t48-119V0zm-1 264-172-19q-80-8-116-36t-36-78 34-78 98-28q61 0 104 25t65 71 23 108z" horiz-adv-x="525" unicode="å"/><glyph d="M644-7q-70 0-121 32t-79 91-28 139q0 118 61 185t166 67q75 0 125-31t74-82 25-108v-19q0-11-1-24H450q2-74 29-122t70-71 94-23q70 0 117 29t69 84l30-13q-24-60-77-97T644-7m186 282q4 65-21 108t-69 67-97 23q-49 0-92-21t-69-64-31-113zm-399-39 7-71q-14-63-46-100t-76-55-94-17q-49 0-88 16T73 56t-22 77q0 44 20 72t52 43 63 21 57 9l171 17v51q0 54-36 90t-110 37q-59 0-105-27t-61-91l-33 12q18 71 70 105t128 35q83 0 132-41t49-120v-89zm-17 26-172-17q-69-7-110-32t-42-79q0-54 39-80t94-27q61 0 103 26t65 73 23 105z" horiz-adv-x="917" unicode="æ"/><glyph d="M301-72q37 1 63-7t40-27 14-44-12-43-35-29-55-11h-69v27h63q42 0 59 15t18 41q0 22-17 37t-60 15h-37V8h28zM290-7q-73 0-127 31t-83 89-30 136q0 77 29 135t84 91 126 32q77 0 133-36t80-99l-33-11q-19 52-67 82t-112 30q-61 0-106-28t-71-78-25-118q0-101 55-161t148-61q61 0 107 28t72 82l34-10q-28-64-83-99T290-7" horiz-adv-x="554" unicode="ç"/><glyph d="m184 700 178-121v-29L184 666zM282-7q-69 0-121 33t-81 93-30 136q0 74 29 131t82 89 120 32q66 0 116-29t80-78 29-114v-43H88q2-64 27-112t68-76 98-28q67 0 115 29t71 84l31-13q-26-64-82-99T282-7m186 282q1 58-22 102t-65 70-100 26q-53 0-95-25t-69-71-28-102z" horiz-adv-x="557" unicode="è"/><glyph d="M362 700v-34L184 550v29zM282-7q-69 0-121 33t-81 93-30 136q0 74 29 131t82 89 120 32q66 0 116-29t80-78 29-114v-43H88q2-64 27-112t68-76 98-28q67 0 115 29t71 84l31-13q-26-64-82-99T282-7m186 282q1 58-22 102t-65 70-100 26q-53 0-95-25t-69-71-28-102z" horiz-adv-x="557" unicode="é"/><glyph d="m402 575-117 76-117-76v32l117 74 117-74zM282-7q-69 0-121 33t-81 93-30 136q0 74 29 131t82 89 120 32q66 0 116-29t80-78 29-114v-43H88q2-64 27-112t68-76 98-28q67 0 115 29t71 84l31-13q-26-64-82-99T282-7m186 282q1 58-22 102t-65 70-100 26q-53 0-95-25t-69-71-28-102z" horiz-adv-x="557" unicode="ê"/><glyph d="M220 588q-13 0-22 9t-10 22q0 14 9 24t23 10 23-10 10-24q0-13-9-22t-24-9m130 0q-14 0-23 9t-10 22q0 14 9 24t24 10q13 0 23-10t10-24q0-13-10-22t-23-9M282-7q-69 0-121 33t-81 93-30 136q0 74 29 131t82 89 120 32q66 0 116-29t80-78 29-114v-43H88q2-64 27-112t68-76 98-28q67 0 115 29t71 84l31-13q-26-64-82-99T282-7m186 282q1 58-22 102t-65 70-100 26q-53 0-95-25t-69-71-28-102z" horiz-adv-x="557" unicode="ë"/><glyph d="m2 700 177-121v-29L2 666zm81-200h39V0H83z" horiz-adv-x="204" unicode="ì"/><glyph d="M179 700v-34L2 550v29zM83 500h39V0H83z" horiz-adv-x="204" unicode="í"/><glyph d="m219 575-117 76-117-76v32l117 75 117-75zM83 500h39V0H83z" horiz-adv-x="204" unicode="î"/><glyph d="M38 588q-14 0-23 9T5 620q0 13 9 23t24 10q13 0 22-10t10-23q0-14-9-23t-23-9m129 0q-13 0-22 9t-10 23q0 13 9 23t23 10 23-10 10-23q0-14-9-23t-24-9m-84-88h39V0H83z" horiz-adv-x="204" unicode="ï"/><glyph d="M513 685v-27l-102-37q69-75 101-159t32-177q0-97-32-162t-88-98T296-7q-75 0-130 32t-86 93-30 140q0 74 30 130t86 88 129 31q45 0 85-14t73-46 50-84q-12 70-42 127t-83 120l-145-53v28l127 46q-17 17-36 34t-41 35h42q36-28 67-58zM296 26q57 0 104 26t76 77 28 122q0 74-28 123t-75 75-105 25q-58 0-105-25t-74-73-28-118q0-75 27-126t73-79 107-27" horiz-adv-x="595" unicode="ð"/><glyph d="M160 558q4 33 20 51t44 18q24 0 38-11t28-22 35-11q14 0 26 10t14 31h25q-3-30-21-49t-45-19q-24 0-39 11t-29 22-32 12q-16 0-26-10t-13-33zm-77-58h36l1-113q18 55 61 87t115 33q55 0 98-24t69-73 26-126V0h-37v282q0 93-42 142t-119 50q-78 0-124-54t-47-161V0H83z" horiz-adv-x="562" unicode="ñ"/><glyph d="m197 700 178-121v-29L197 666zM292-7q-70 0-124 31t-86 88-32 138q0 79 31 137t87 89 124 31q70 0 124-31t85-89 32-137q0-80-31-137t-86-89T292-7m-1 34q53 0 99 24t76 73 29 126q0 77-29 126t-75 73-99 24-99-24-75-73-29-126 28-126 75-73 99-24" horiz-adv-x="584" unicode="ò"/><glyph d="M375 700v-34L197 550v29zM292-7q-70 0-124 31t-86 88-32 138q0 79 31 137t87 89 124 31q70 0 124-31t85-89 32-137q0-80-31-137t-86-89T292-7m-1 34q53 0 99 24t76 73 29 126q0 77-29 126t-75 73-99 24-99-24-75-73-29-126 28-126 75-73 99-24" horiz-adv-x="584" unicode="ó"/><glyph d="m415 575-117 76-117-76v32l117 74 117-74zM292-7q-70 0-124 31t-86 88-32 138q0 79 31 137t87 89 124 31q70 0 124-31t85-89 32-137q0-80-31-137t-86-89T292-7m-1 34q53 0 99 24t76 73 29 126q0 77-29 126t-75 73-99 24-99-24-75-73-29-126 28-126 75-73 99-24" horiz-adv-x="584" unicode="ô"/><glyph d="M183 558q4 33 20 51t44 18q24 0 38-11t28-22 34-11q15 0 26 10t15 31h25q-3-30-21-49t-46-19q-24 0-38 11t-29 22-33 12q-15 0-25-10t-13-33zM292-7q-70 0-124 31t-86 88-32 138q0 79 31 137t87 89 124 31q70 0 124-31t85-89 32-137q0-80-31-137t-86-89T292-7m-1 34q53 0 99 24t76 73 29 126q0 77-29 126t-75 73-99 24-99-24-75-73-29-126 28-126 75-73 99-24" horiz-adv-x="584" unicode="õ"/><glyph d="M233 588q-13 0-22 9t-10 23q0 13 9 23t23 10 23-10 10-23q0-14-9-23t-24-9m130 0q-14 0-23 9t-10 23q0 13 9 23t24 10q13 0 23-10t10-23q0-14-10-23t-23-9M292-7q-70 0-124 31t-86 88-32 138q0 79 31 137t87 89 124 31q70 0 124-31t86-88 31-138q0-80-31-137t-86-89T292-7m-1 34q53 0 99 24t76 73 29 126q0 77-29 126t-75 73-99 24-99-24-75-73-29-126 28-126 75-73 99-24" horiz-adv-x="584" unicode="ö"/><glyph d="M69 368h509v-32H69zm262-265q-14 0-23 9t-9 24q0 14 9 23t23 10q13 0 22-9t10-24q0-14-9-23t-23-10m0 429q-14 0-23 9t-9 24q0 13 9 23t23 10q13 0 22-10t10-23q0-14-9-23t-23-10" horiz-adv-x="647" unicode="÷"/><glyph d="m448 437 25-21L151 62l-27 19zM292-7q-70 0-124 31t-86 88-32 138q0 79 31 137t87 89 124 31q70 0 124-31t85-89 32-137q0-80-31-137t-86-89T292-7m-1 34q53 0 99 24t76 73 29 126q0 77-29 126t-75 73-99 24-99-24-75-73-29-126 28-126 75-73 99-24" horiz-adv-x="584" unicode="ø"/><glyph d="m171 700 177-121v-29L171 666zM479 0h-34l-2 109q-18-55-62-85T267-7q-55 0-98 23t-69 71-25 125v288h36V213q0-93 41-139t119-47q79 0 125 51t46 158v264h37z" horiz-adv-x="561" unicode="ù"/><glyph d="M348 700v-34L171 550v29zM479 0h-34l-2 109q-18-55-62-85T267-7q-55 0-98 23t-69 71-25 125v288h36V213q0-93 41-139t119-47q79 0 125 51t46 158v264h37z" horiz-adv-x="561" unicode="ú"/><glyph d="m389 575-118 76-117-76v32l117 74 118-74zM479 0h-34l-2 109q-18-55-62-85T267-7q-55 0-98 23t-69 71-25 125v288h36V213q0-93 41-139t119-47q79 0 125 51t46 158v264h37z" horiz-adv-x="561" unicode="û"/><glyph d="M206 588q-13 0-22 9t-10 23q0 13 9 23t23 10 24-10 10-23q0-14-10-23t-24-9m131 0q-14 0-24 9t-10 23q0 13 10 23t24 10q13 0 22-10t10-23q0-14-9-23t-23-9M479 0h-34l-2 109q-18-55-62-85T267-7q-55 0-98 23t-69 71-25 125v288h36V213q0-93 41-139t119-47q79 0 125 51t46 158v264h37z" horiz-adv-x="561" unicode="ü"/><glyph d="M320 700v-34L143 550v29zm107-200h37L188-200h-37L232 2 20 500h39L250 45z" horiz-adv-x="486" unicode="ý"/><glyph d="M119-228H83v921h36V361q20 64 76 105t138 42q70 0 125-31t86-89 32-137q0-78-31-136t-87-90T333-7q-53 0-96 19t-73 54-45 75zm418 479q0 70-26 119t-74 77-108 27q-59 0-106-27t-76-78-28-118q0-68 28-118t75-79 107-28q61 0 108 27t73 78 27 120" horiz-adv-x="625" unicode="þ"/><glyph d="M179 588q-14 0-23 9t-9 23q0 13 9 23t23 10q13 0 23-10t10-23q0-14-10-23t-23-9m129 0q-13 0-22 9t-10 23q0 13 9 23t23 10q13 0 23-10t10-23q0-14-10-23t-23-9m119-88h37L188-200h-37L232 2 20 500h39L250 45z" horiz-adv-x="486" unicode="ÿ"/><glyph d="M60 296h508v-33H60z" horiz-adv-x="628" unicode="–"/><glyph d="M60 296h697v-33H60z" horiz-adv-x="817" unicode="—"/><glyph d="m170 700-56-198H65l75 198z" horiz-adv-x="215" unicode="‘"/><glyph d="m47 502 55 198h49L76 502z" horiz-adv-x="215" unicode="’"/><glyph d="m47-100 56 198h49L77-100z" horiz-adv-x="216" unicode="‚"/><glyph d="m170 700-55-198H65l75 198zm120 0-55-198h-49l75 198z" horiz-adv-x="336" unicode="“"/><glyph d="m167 502 55 198h50l-75-198zm-120 0 55 198h49L76 502z" horiz-adv-x="336" unicode="”"/><glyph d="m47-100 56 198h49L77-100zm123 0 55 198h50l-75-198z" horiz-adv-x="339" unicode="„"/><glyph d="M215 229q-28 0-52 14t-38 37-14 53 14 53 38 38 52 14q29 0 53-14t38-37 14-54q0-29-14-52t-38-37-53-15" horiz-adv-x="430" unicode="•"/><glyph d="M193 75h-43L47 250l103 175h43L87 250z" horiz-adv-x="249" unicode="‹"/><glyph d="m55 75 107 175L55 425h43l104-175L98 75z" horiz-adv-x="248" unicode="›"/></font>
</defs>
</svg>
